<svg width="371" height="80" xmlns="http://www.w3.org/2000/svg" xmlns:xlink="http://www.w3.org/1999/xlink" overflow="hidden"><g transform="translate(-502 -197)"><text fill="#FFFFFF" font-family="Riosark,Riosark_MSFontService,sans-serif" font-weight="700" font-size="37" transform="translate(569.872 245)">CRYPTOORBIT</text><path d="M509 232C509 219.297 519.074 209 531.5 209 543.926 209 554 219.297 554 232 554 244.703 543.926 255 531.5 255 519.074 255 509 244.703 509 232Z" stroke="#FFC000" stroke-width="4" stroke-miterlimit="8" fill="none" fill-rule="evenodd"/><path d="M531.5 217C535.479 217 539.081 218.679 541.688 221.393L544 224.962 537.316 224.962C536.121 224.962 535.152 225.971 535.152 227.215L535.152 236.785C535.152 238.029 536.121 239.037 537.316 239.037L544 239.037 541.688 242.607C539.081 245.321 535.479 247 531.5 247 527.521 247 523.919 245.321 521.312 242.607L519 239.037 525.684 239.037C526.879 239.037 527.848 238.029 527.848 236.785L527.848 227.215C527.848 225.971 526.879 224.962 525.684 224.962L519 224.962 521.312 221.393C523.919 218.679 527.521 217 531.5 217Z" stroke="#FFC000" stroke-width="4" stroke-miterlimit="8" fill="none" fill-rule="evenodd"/><path d="M503 232 523.2 232" stroke="#FFC000" stroke-width="4" stroke-miterlimit="8" fill="none" fill-rule="evenodd"/><path d="M540 232 560.2 232" stroke="#FFC000" stroke-width="4" stroke-miterlimit="8" fill="none" fill-rule="evenodd"/></g></svg>