<svg width="70" height="71" xmlns="http://www.w3.org/2000/svg" xmlns:xlink="http://www.w3.org/1999/xlink" overflow="hidden"><g transform="translate(-985 -217)"><path d="M986 229.5C986 223.149 991.149 218 997.5 218L1043.5 218C1049.85 218 1055 223.149 1055 229.5L1055 275.5C1055 281.851 1049.85 287 1043.5 287L997.5 287C991.149 287 986 281.851 986 275.5Z" fill-rule="evenodd"/><path d="M997 252.5C997 240.074 1007.3 230 1020 230 1032.7 230 1043 240.074 1043 252.5 1043 264.926 1032.7 275 1020 275 1007.3 275 997 264.926 997 252.5Z" stroke="#FFC000" stroke-width="4" stroke-miterlimit="8" fill="none" fill-rule="evenodd"/><path d="M1020 238C1024.14 238 1027.88 239.623 1030.6 242.247L1033 245.697 1026.05 245.697C1024.81 245.697 1023.8 246.672 1023.8 247.874L1023.8 257.125C1023.8 258.328 1024.81 259.303 1026.05 259.303L1033 259.303 1030.6 262.753C1027.88 265.377 1024.14 267 1020 267 1015.86 267 1012.12 265.377 1009.4 262.753L1007 259.303 1013.95 259.303C1015.19 259.303 1016.2 258.328 1016.2 257.125L1016.2 247.874C1016.2 246.672 1015.19 245.697 1013.95 245.697L1007 245.697 1009.4 242.247C1012.12 239.623 1015.86 238 1020 238Z" stroke="#FFC000" stroke-width="4" stroke-miterlimit="8" fill="none" fill-rule="evenodd"/><path d="M991 252 1011.56 252" stroke="#FFC000" stroke-width="4" stroke-miterlimit="8" fill="none" fill-rule="evenodd"/><path d="M1029 252 1049.56 252" stroke="#FFC000" stroke-width="4" stroke-miterlimit="8" fill="none" fill-rule="evenodd"/></g></svg>