<svg width="988" height="674" xmlns="http://www.w3.org/2000/svg" xmlns:xlink="http://www.w3.org/1999/xlink" overflow="hidden"><defs><clipPath id="clip0"><rect x="-1" y="13" width="988" height="674"/></clipPath><clipPath id="clip1"><rect x="243" y="110" width="500" height="500"/></clipPath><clipPath id="clip2"><rect x="243" y="110" width="500" height="500"/></clipPath><clipPath id="clip3"><rect x="243" y="110" width="500" height="500"/></clipPath></defs><g clip-path="url(#clip0)" transform="translate(1 -13)"><rect x="0" y="14" width="986" height="672" fill="#FBE5D6"/><g clip-path="url(#clip1)"><g clip-path="url(#clip2)"><g clip-path="url(#clip3)"><path d="M609.433 223.215C676.783 290.566 676.783 399.762 609.433 467.112 542.083 534.463 432.886 534.463 365.536 467.112 298.185 399.762 298.185 290.566 365.536 223.215 432.886 155.865 542.083 155.865 609.433 223.215Z" fill="#FF95FB"/><path d="M615.137 174.604C629.358 182.434 630.376 207.873 617.409 231.424 604.443 254.975 582.403 267.719 568.181 259.889 553.96 252.06 552.943 226.62 565.909 203.069 578.876 179.518 600.916 166.774 615.137 174.604Z" stroke="#303030" stroke-width="1.49999" stroke-linecap="round" stroke-linejoin="round" stroke-miterlimit="10" fill="#303030"/><path d="M610.646 172.13C624.867 179.96 625.885 205.4 612.918 228.95 599.952 252.501 577.911 265.246 563.69 257.416 549.469 249.586 548.452 224.147 561.418 200.596 574.385 177.045 596.425 164.301 610.646 172.13Z" stroke="#303030" stroke-width="1.49999" stroke-linecap="round" stroke-linejoin="round" stroke-miterlimit="10" fill="#00826F"/><path d="M614.334 217.194C614.25 217.416 614.164 217.639 614.077 217.861" stroke="#FFFFFF" stroke-width="2" stroke-linecap="round" stroke-linejoin="round" stroke-miterlimit="10" fill="none"/><path d="M612.293 178.331C618.228 184.821 619.81 196.276 616.885 208.859" stroke="#FFFFFF" stroke-width="2" stroke-linecap="round" stroke-linejoin="round" stroke-miterlimit="10" fill="none"/><path d="M568.122 204.282C558.54 221.688 559.292 240.494 569.806 246.282 570.25 246.527 570.707 246.748 571.172 246.938 581.684 251.258 597.014 241.911 606.191 225.24 615.372 208.564 615.068 190.617 605.795 184.045 605.386 183.753 604.954 183.486 604.51 183.242 593.997 177.454 577.707 186.87 568.122 204.282Z" stroke="#303030" stroke-width="1.5" stroke-linecap="round" stroke-linejoin="round" stroke-miterlimit="10" fill="#00826F"/><path d="M570.776 205.743C561.599 222.414 561.896 240.364 571.172 246.938 581.684 251.258 597.014 241.911 606.191 225.24 615.372 208.564 615.068 190.617 605.795 184.045 595.28 179.723 579.957 189.067 570.776 205.743Z" stroke="#303030" stroke-width="1.5" stroke-linecap="round" stroke-linejoin="round" stroke-miterlimit="10" fill="#00826F"/><path d="M596.267 220.55C596.228 219.665 596.051 218.848 595.751 218.092 596.319 217.952 596.877 217.739 597.423 217.437 599.094 216.512 600.525 214.969 601.715 212.807 602.603 211.194 603.16 209.615 603.386 208.074 603.612 206.532 603.488 205.135 603.016 203.883 602.697 203.039 602.205 202.33 601.55 201.751L604.235 196.874 602.251 195.782 599.635 200.534 597.508 199.363 600.124 194.611 598.14 193.519 595.524 198.271 591.608 196.115 589.175 194.776 585.831 200.85 588.264 202.189 577.126 222.421 574.693 221.082 571.349 227.156 573.782 228.495 577.698 230.651 575.082 235.403 577.066 236.495 579.682 231.743 581.809 232.914 579.193 237.666 581.177 238.759 583.874 233.861C584.793 234.126 585.731 234.174 586.691 233.996 588.146 233.726 589.539 233.034 590.869 231.922 592.2 230.81 593.368 229.341 594.374 227.514 595.732 225.046 596.362 222.725 596.267 220.55ZM595.958 206.424C596.601 206.778 596.983 207.336 597.103 208.096 597.223 208.857 596.973 209.8 596.353 210.926 595.733 212.053 595.069 212.769 594.362 213.074 593.655 213.379 592.98 213.355 592.336 213L589.496 211.436 593.116 204.859 595.958 206.424ZM587.548 226.759C586.703 227.226 585.895 227.248 585.123 226.823L581.979 225.092 586.253 217.328 589.397 219.059C589.911 219.342 590.269 219.748 590.47 220.275 590.671 220.802 590.709 221.418 590.584 222.123 590.46 222.828 590.187 223.562 589.768 224.322 589.132 225.48 588.392 226.292 587.548 226.759Z" stroke="#303030" stroke-width="1.5" stroke-linecap="round" stroke-linejoin="round" stroke-miterlimit="10" fill="#303030"/><path d="M594.891 219.792C594.852 218.907 594.675 218.09 594.375 217.334 594.943 217.194 595.501 216.981 596.047 216.679 597.718 215.754 599.149 214.211 600.339 212.049 601.227 210.436 601.784 208.857 602.01 207.316 602.236 205.774 602.112 204.377 601.64 203.125 601.321 202.281 600.829 201.572 600.174 200.993L602.859 196.116 600.875 195.024 598.259 199.776 596.132 198.605 598.748 193.853 596.764 192.761 594.148 197.513 590.232 195.357 587.799 194.018 584.455 200.092 586.888 201.431 575.75 221.663 573.317 220.324 569.973 226.398 572.406 227.737 576.322 229.893 573.706 234.645 575.69 235.737 578.306 230.985 580.433 232.156 577.817 236.908 579.801 238 582.498 233.102C583.417 233.367 584.355 233.415 585.315 233.237 586.77 232.967 588.163 232.275 589.493 231.163 590.824 230.051 591.992 228.582 592.998 226.755 594.356 224.288 594.986 221.968 594.891 219.792ZM594.582 205.666C595.225 206.02 595.607 206.578 595.727 207.338 595.847 208.099 595.597 209.042 594.977 210.168 594.357 211.295 593.693 212.011 592.986 212.316 592.279 212.621 591.604 212.597 590.96 212.242L588.12 210.678 591.74 204.101 594.582 205.666ZM586.172 226.002C585.328 226.469 584.519 226.491 583.747 226.066L580.603 224.335 584.877 216.571 588.021 218.302C588.535 218.585 588.893 218.991 589.094 219.518 589.295 220.045 589.333 220.661 589.209 221.366 589.084 222.071 588.812 222.805 588.393 223.565 587.756 224.722 587.016 225.535 586.172 226.002Z" stroke="#303030" stroke-width="1.5" stroke-linecap="round" stroke-linejoin="round" stroke-miterlimit="10" fill="#00826F"/><path d="M532.636 456.363C561.271 461.396 580.404 488.689 575.371 517.324 570.339 545.959 543.046 565.092 514.411 560.059 485.776 555.027 466.642 527.734 471.675 499.099 476.708 470.464 504.001 451.33 532.636 456.363Z" stroke="#303030" stroke-width="1.49999" stroke-linecap="round" stroke-linejoin="round" stroke-miterlimit="10" fill="#303030"/><path d="M540.154 451.092C568.789 456.124 587.923 483.417 582.89 512.052 577.857 540.687 550.564 559.821 521.929 554.788 493.294 549.755 474.161 522.462 479.194 493.827 484.227 465.192 511.519 446.059 540.154 451.092Z" stroke="#303030" stroke-width="1.49999" stroke-linecap="round" stroke-linejoin="round" stroke-miterlimit="10" fill="#00826F"/><path d="M562.749 467.397C562.944 467.571 563.138 467.747 563.33 467.925" stroke="#FFFFFF" stroke-width="3" stroke-linecap="round" stroke-linejoin="round" stroke-miterlimit="10" fill="none"/><path d="M512.12 459.227C526.086 453.163 541.976 454.27 554.836 461.676" stroke="#FFFFFF" stroke-width="3" stroke-linecap="round" stroke-linejoin="round" stroke-miterlimit="10" fill="none"/><path d="M562.905 480.593C575.24 498.187 570.975 522.455 553.375 534.794 552.632 535.315 551.872 535.813 551.104 536.275 533.747 546.746 510.991 542.12 499.178 525.27 487.361 508.413 490.774 485.45 506.536 472.703 507.232 472.138 507.959 471.594 508.703 471.073 526.302 458.734 550.566 462.993 562.905 480.593Z" stroke="#303030" stroke-width="1.5" stroke-linecap="round" stroke-linejoin="round" stroke-miterlimit="10" fill="#00826F"/><path d="M558.462 483.708C570.276 500.559 566.871 523.524 551.104 536.275 533.747 546.746 510.991 542.12 499.178 525.27 487.361 508.413 490.774 485.45 506.536 472.703 523.898 462.227 546.644 466.851 558.462 483.708Z" stroke="#303030" stroke-width="1.5" stroke-linecap="round" stroke-linejoin="round" stroke-miterlimit="10" fill="#00826F"/><path d="M543.16 495.461C542.015 495.265 540.818 495.271 539.576 495.458 539.961 494.665 540.245 493.864 540.405 493.054 540.894 490.576 540.374 488.245 538.841 486.06 537.698 484.43 536.272 483.248 534.567 482.516 532.86 481.785 530.991 481.557 528.959 481.834 527.588 482.021 526.218 482.476 524.847 483.184L521.391 478.254 518.069 480.583 521.436 485.386 517.876 487.882 514.509 483.079 511.187 485.408 514.554 490.211 507.998 494.807 503.925 497.662 508.229 503.802 512.302 500.947 526.639 521.398 522.566 524.253 526.87 530.393 530.943 527.538 537.499 522.942 540.866 527.745 544.188 525.416 540.821 520.613 544.381 518.117 547.748 522.92 551.07 520.591 547.599 515.64C548.836 514.495 549.821 513.262 550.543 511.938 551.638 509.931 552.145 507.888 552.065 505.81 551.985 503.732 551.298 501.77 550.003 499.923 548.258 497.43 545.976 495.943 543.16 495.461ZM525.183 491.918C526.26 491.163 527.334 490.813 528.404 490.865 529.474 490.918 530.408 491.515 531.206 492.653 532.005 493.792 532.246 494.873 531.931 495.897 531.616 496.921 530.92 497.811 529.843 498.566L525.088 501.899 520.428 495.251 525.183 491.918ZM542.338 508.775C542.091 510.027 541.321 511.106 540.029 512.012L534.767 515.701 529.265 507.853 534.527 504.164C535.388 503.56 536.248 503.199 537.106 503.079 537.963 502.96 538.771 503.082 539.531 503.444 540.29 503.806 540.94 504.374 541.479 505.142 542.298 506.314 542.585 507.524 542.338 508.775Z" stroke="#303030" stroke-width="1.5" stroke-linecap="round" stroke-linejoin="round" stroke-miterlimit="10" fill="#303030"/><path d="M545.338 493.934C544.193 493.738 542.996 493.744 541.754 493.931 542.139 493.138 542.423 492.337 542.583 491.527 543.072 489.049 542.552 486.718 541.019 484.533 539.876 482.903 538.45 481.721 536.745 480.989 535.038 480.258 533.169 480.031 531.137 480.307 529.766 480.494 528.396 480.949 527.026 481.657L523.57 476.727 520.248 479.056 523.615 483.859 520.055 486.355 516.688 481.552 513.366 483.881 516.733 488.684 510.177 493.28 506.104 496.135 510.408 502.275 514.481 499.42 528.818 519.871 524.745 522.726 529.049 528.866 533.122 526.011 539.678 521.415 543.045 526.218 546.367 523.889 543 519.086 546.56 516.59 549.927 521.393 553.249 519.064 549.778 514.113C551.015 512.968 552 511.735 552.722 510.411 553.817 508.404 554.324 506.361 554.244 504.283 554.164 502.205 553.477 500.243 552.182 498.396 550.436 495.903 548.154 494.416 545.338 493.934ZM527.362 490.39C528.439 489.635 529.513 489.285 530.582 489.337 531.652 489.391 532.586 489.987 533.384 491.125 534.183 492.264 534.424 493.346 534.109 494.369 533.794 495.393 533.098 496.283 532.021 497.038L527.266 500.371 522.605 493.723 527.362 490.39ZM544.516 507.248C544.269 508.5 543.499 509.579 542.207 510.485L536.945 514.174 531.443 506.326 536.705 502.637C537.566 502.033 538.426 501.672 539.284 501.552 540.141 501.433 540.949 501.555 541.709 501.917 542.468 502.28 543.118 502.847 543.657 503.616 544.477 504.786 544.763 505.997 544.516 507.248Z" stroke="#303030" stroke-width="1.5" stroke-linecap="round" stroke-linejoin="round" stroke-miterlimit="10" fill="#00826F"/><path d="M313.041 226.159C335.066 230.03 349.783 251.024 345.912 273.049 342.041 295.075 321.048 309.792 299.022 305.921 276.997 302.049 262.28 281.056 266.151 259.031 270.022 237.005 291.015 222.288 313.041 226.159Z" stroke="#303030" stroke-width="1.49999" stroke-linecap="round" stroke-linejoin="round" stroke-miterlimit="10" fill="#303030"/><path d="M348.612 245.097C357.936 265.423 349.016 289.458 328.69 298.781 308.364 308.104 284.329 299.185 275.006 278.859 265.683 258.533 274.602 234.498 294.928 225.175 315.254 215.852 339.289 224.771 348.612 245.097Z" stroke="#303030" stroke-width="1.49993" stroke-linecap="round" stroke-linejoin="round" stroke-miterlimit="10" fill="#00826F"/><path d="M345.424 276.557C345.344 276.741 345.262 276.925 345.179 277.109" stroke="#FFFFFF" stroke-width="2" stroke-linecap="round" stroke-linejoin="round" stroke-miterlimit="10" fill="none"/><path d="M339.162 237.61C346.963 246.345 349.993 258.216 347.69 269.396" stroke="#FFFFFF" stroke-width="2" stroke-linecap="round" stroke-linejoin="round" stroke-miterlimit="10" fill="none"/><path d="M335.824 279.858C325.954 293.115 307.202 295.862 293.94 285.989 293.38 285.572 292.833 285.138 292.31 284.689 280.471 274.542 278.353 256.807 287.806 244.11 297.262 231.409 314.856 228.355 327.972 236.787 328.552 237.159 329.125 237.559 329.685 237.976 342.948 247.848 345.697 266.596 335.824 279.858Z" stroke="#303030" stroke-width="1.5" stroke-linecap="round" stroke-linejoin="round" stroke-miterlimit="10" fill="#00826F"/><path d="M332.477 277.365C323.024 290.062 305.431 293.123 292.311 284.688 280.472 274.541 278.354 256.806 287.807 244.109 297.263 231.408 314.857 228.354 327.973 236.786 339.816 246.936 341.933 264.664 332.477 277.365Z" stroke="#303030" stroke-width="1.5" stroke-linecap="round" stroke-linejoin="round" stroke-miterlimit="10" fill="#00826F"/><path d="M320.198 269.029C320.064 268.145 319.771 267.273 319.335 266.411 320.007 266.5 320.661 266.514 321.291 266.436 323.218 266.195 324.795 265.252 326.021 263.605 326.936 262.376 327.454 261.05 327.577 259.628 327.699 258.205 327.413 256.785 326.721 255.368 326.253 254.412 325.59 253.521 324.742 252.692L327.507 248.977 325.004 247.114 322.31 250.733 319.627 248.736 322.321 245.117 319.818 243.254 317.124 246.873 312.184 243.195 309.115 240.91 305.671 245.536 308.74 247.821 297.268 263.231 294.199 260.946 290.755 265.572 293.824 267.857 298.764 271.534 296.07 275.153 298.573 277.017 301.267 273.398 303.949 275.395 301.255 279.014 303.758 280.878 306.536 277.147C307.671 277.774 308.809 278.195 309.95 278.403 311.68 278.718 313.295 278.595 314.793 278.034 316.291 277.474 317.558 276.498 318.594 275.107 319.991 273.228 320.526 271.202 320.198 269.029ZM318.444 255.046C319.255 255.65 319.771 256.35 319.991 257.144 320.21 257.938 320.001 258.765 319.362 259.622 318.723 260.48 317.992 260.918 317.168 260.935 316.344 260.953 315.526 260.659 314.715 260.055L311.132 257.388 314.861 252.379 318.444 255.046ZM310.276 271.645C309.302 271.767 308.328 271.465 307.354 270.74L303.389 267.788 307.792 261.874 311.757 264.826C312.406 265.309 312.878 265.85 313.172 266.448 313.466 267.045 313.572 267.665 313.491 268.307 313.41 268.949 313.152 269.56 312.721 270.14 312.064 271.021 311.249 271.523 310.276 271.645Z" stroke="#303030" stroke-width="1.5" stroke-linecap="round" stroke-linejoin="round" stroke-miterlimit="10" fill="#303030"/><path d="M321.839 270.251C321.705 269.367 321.412 268.495 320.976 267.633 321.648 267.722 322.302 267.736 322.931 267.658 324.859 267.417 326.435 266.474 327.661 264.827 328.576 263.598 329.094 262.272 329.217 260.85 329.339 259.427 329.053 258.007 328.361 256.59 327.893 255.634 327.23 254.743 326.382 253.914L329.147 250.199 326.644 248.335 323.95 251.954 321.267 249.957 323.961 246.338 321.458 244.474 318.764 248.093 313.824 244.416 310.755 242.131 307.311 246.757 310.38 249.042 298.908 264.452 295.839 262.167 292.395 266.793 295.464 269.078 300.404 272.755 297.71 276.374 300.213 278.237 302.907 274.618 305.59 276.615 302.896 280.234 305.399 282.098 308.177 278.367C309.312 278.994 310.45 279.415 311.591 279.623 313.321 279.938 314.935 279.815 316.434 279.255 317.932 278.695 319.199 277.719 320.235 276.327 321.633 274.45 322.167 272.424 321.839 270.251ZM320.086 256.268C320.897 256.872 321.413 257.572 321.633 258.366 321.852 259.161 321.643 259.987 321.004 260.844 320.365 261.702 319.634 262.14 318.81 262.157 317.986 262.175 317.168 261.881 316.357 261.277L312.774 258.61 316.503 253.601 320.086 256.268ZM311.918 272.867C310.944 272.989 309.97 272.687 308.996 271.962L305.031 269.01 309.434 263.096 313.399 266.048C314.048 266.531 314.519 267.072 314.814 267.67 315.108 268.267 315.214 268.887 315.133 269.529 315.051 270.171 314.794 270.782 314.363 271.362 313.706 272.243 312.891 272.745 311.918 272.867Z" stroke="#303030" stroke-width="1.5" stroke-linecap="round" stroke-linejoin="round" stroke-miterlimit="10" fill="#00826F"/><path d="M356.194 438.613C385.318 449.719 403.73 472.353 397.319 489.168 390.907 505.984 362.099 510.612 332.974 499.506 303.85 488.401 285.437 465.767 291.849 448.951 298.261 432.136 327.069 427.508 356.194 438.613Z" stroke="#303030" stroke-width="1.50004" stroke-linecap="round" stroke-linejoin="round" stroke-miterlimit="10" fill="#303030"/><path d="M359.51 430.851C388.635 441.957 407.047 464.591 400.636 481.406 394.224 498.221 365.416 502.85 336.291 491.744 307.167 480.639 288.754 458.004 295.166 441.189 301.578 424.374 330.386 419.746 359.51 430.851Z" stroke="#303030" stroke-width="1.50004" stroke-linecap="round" stroke-linejoin="round" stroke-miterlimit="10" fill="#00826F"/><path d="M355.668 432.786C355.933 432.877 356.198 432.97 356.462 433.064" stroke="#FFFFFF" stroke-width="2" stroke-linecap="round" stroke-linejoin="round" stroke-miterlimit="10" fill="none"/><path d="M307.398 434.265C316.12 428.209 330.464 426.755 345.669 429.999" stroke="#FFFFFF" stroke-width="2" stroke-linecap="round" stroke-linejoin="round" stroke-miterlimit="10" fill="none"/><path d="M363.091 441.725C383.47 451.961 393.188 469.032 384.792 479.854 384.437 480.311 384.056 480.755 383.647 481.175 374.43 490.695 352.207 490.712 332.69 480.909 313.166 471.102 303.432 455.035 310.014 444.191 310.304 443.711 310.632 443.241 310.986 442.783 319.383 431.962 342.706 431.486 363.091 441.725Z" stroke="#303030" stroke-width="1.5" stroke-linecap="round" stroke-linejoin="round" stroke-miterlimit="10" fill="#00826F"/><path d="M360.972 444.457C380.49 454.26 390.232 470.328 383.648 481.176 374.431 490.696 352.208 490.713 332.691 480.91 313.167 471.103 303.433 455.036 310.015 444.192 319.235 434.668 341.448 434.65 360.972 444.457Z" stroke="#303030" stroke-width="1.5" stroke-linecap="round" stroke-linejoin="round" stroke-miterlimit="10" fill="#00826F"/><path d="M354.239 454.563C353.141 454.589 352.11 454.759 351.14 455.058 351.034 454.466 350.837 453.883 350.528 453.311 349.582 451.561 347.845 450.05 345.313 448.779 343.425 447.83 341.54 447.226 339.662 446.966 337.783 446.706 336.042 446.811 334.439 447.281 333.358 447.599 332.424 448.097 331.631 448.768L325.921 445.9 324.336 447.943 329.899 450.737 328.201 452.926 322.638 450.132 321.053 452.175 326.616 454.969 323.489 459 321.546 461.504 328.657 465.076 330.6 462.572 354.287 474.469 352.344 476.973 359.455 480.545 361.398 478.041 364.525 474.01 370.088 476.804 371.673 474.761 366.11 471.967 367.808 469.778 373.371 472.572 374.956 470.529 369.221 467.649C369.657 466.7 369.828 465.726 369.721 464.727 369.559 463.212 368.869 461.754 367.652 460.354 366.435 458.954 364.757 457.717 362.619 456.643 359.732 455.192 356.939 454.499 354.239 454.563ZM336.745 454.651C337.259 453.989 337.993 453.602 338.947 453.489 339.901 453.377 341.038 453.652 342.356 454.314 343.675 454.977 344.482 455.677 344.775 456.416 345.069 457.155 344.958 457.856 344.445 458.518L342.177 461.442 334.477 457.575 336.745 454.651ZM360.882 463.718C361.36 464.602 361.291 465.442 360.674 466.237L358.164 469.473 349.074 464.907 351.584 461.671C351.995 461.142 352.538 460.777 353.214 460.576 353.888 460.376 354.655 460.347 355.512 460.488 356.368 460.629 357.243 460.924 358.134 461.371 359.488 462.052 360.405 462.834 360.882 463.718Z" stroke="#303030" stroke-width="1.5" stroke-linecap="round" stroke-linejoin="round" stroke-miterlimit="10" fill="#303030"/><path d="M355.278 453.223C354.18 453.249 353.149 453.419 352.179 453.718 352.073 453.126 351.877 452.543 351.567 451.971 350.621 450.221 348.884 448.71 346.352 447.438 344.464 446.49 342.579 445.885 340.701 445.625 338.822 445.365 337.081 445.47 335.478 445.94 334.397 446.258 333.463 446.756 332.67 447.427L326.96 444.559 325.375 446.602 330.938 449.396 329.24 451.585 323.677 448.791 322.092 450.834 327.655 453.628 324.528 457.659 322.585 460.163 329.696 463.735 331.639 461.231 355.326 473.128 353.383 475.632 360.494 479.204 362.437 476.7 365.564 472.669 371.127 475.463 372.712 473.421 367.149 470.627 368.847 468.438 374.41 471.232 375.995 469.189 370.26 466.309C370.696 465.36 370.867 464.386 370.76 463.387 370.598 461.872 369.908 460.414 368.691 459.014 367.474 457.614 365.796 456.377 363.657 455.302 360.771 453.852 357.978 453.159 355.278 453.223ZM337.784 453.312C338.298 452.65 339.032 452.263 339.986 452.15 340.94 452.038 342.077 452.313 343.395 452.975 344.714 453.638 345.521 454.338 345.814 455.077 346.108 455.816 345.997 456.517 345.484 457.179L343.216 460.103 335.516 456.236 337.784 453.312ZM361.921 462.378C362.399 463.263 362.33 464.102 361.713 464.897L359.203 468.133 350.113 463.567 352.623 460.331C353.034 459.802 353.577 459.437 354.253 459.236 354.928 459.036 355.694 459.007 356.551 459.147 357.407 459.288 358.282 459.583 359.173 460.03 360.527 460.712 361.444 461.494 361.921 462.378Z" stroke="#303030" stroke-width="1.5" stroke-linecap="round" stroke-linejoin="round" stroke-miterlimit="10" fill="#00826F"/><path d="M722.427 338.841C730.913 349.118 723.362 369.364 705.562 384.061 687.762 398.759 666.453 402.342 657.968 392.065 649.482 381.788 657.032 361.542 674.832 346.845 692.632 332.147 713.941 328.564 722.427 338.841Z" stroke="#303030" stroke-width="1.49999" stroke-linecap="round" stroke-linejoin="round" stroke-miterlimit="10" fill="#303030"/><path d="M718.641 333.868C727.127 344.145 719.576 364.391 701.776 379.089 683.975 393.786 662.666 397.37 654.18 387.093 645.695 376.816 653.245 356.57 671.046 341.872 688.846 327.174 710.155 323.591 718.641 333.868Z" stroke="#303030" stroke-width="1.49999" stroke-linecap="round" stroke-linejoin="round" stroke-miterlimit="10" fill="#00826F"/><path d="M670.884 345.05C671.04 344.913 671.196 344.776 671.353 344.64" stroke="#FFFFFF" stroke-width="2" stroke-linecap="round" stroke-linejoin="round" stroke-miterlimit="10" fill="none"/><path d="M654.191 376.68C653.479 368.849 657.786 359.078 665.434 350.471" stroke="#FFFFFF" stroke-width="2" stroke-linecap="round" stroke-linejoin="round" stroke-miterlimit="10" fill="none"/><path d="M679.356 343.537C693.399 334.153 707.947 334.135 711.848 343.499 712.013 343.895 712.159 344.302 712.28 344.719 715.042 354.136 706.929 368.455 693.48 377.442 680.026 386.432 666.119 386.827 661.541 378.624 661.338 378.262 661.155 377.879 660.99 377.483 657.089 368.119 665.309 352.923 679.356 343.537Z" stroke="#303030" stroke-width="1.5" stroke-linecap="round" stroke-linejoin="round" stroke-miterlimit="10" fill="#00826F"/><path d="M680.34 345.9C693.789 336.913 707.7 336.512 712.28 344.718 715.042 354.135 706.929 368.454 693.48 377.441 680.026 386.431 666.119 386.826 661.541 378.623 658.777 369.204 666.887 354.891 680.34 345.9Z" stroke="#303030" stroke-width="1.5" stroke-linecap="round" stroke-linejoin="round" stroke-miterlimit="10" fill="#00826F"/><path d="M690.241 370.044C690.555 369.294 690.751 368.545 690.841 367.799 691.273 367.906 691.727 367.949 692.207 367.913 693.676 367.802 695.222 367.083 696.846 365.754 698.057 364.763 699.035 363.671 699.778 362.479 700.521 361.286 700.975 360.077 701.141 358.851 701.252 358.024 701.197 357.242 700.982 356.503L704.645 353.507 703.742 351.819 700.173 354.738 699.205 352.929 702.774 350.01 701.871 348.322 698.302 351.241 696.52 347.909 695.413 345.839 690.851 349.57 691.958 351.64 676.763 364.069 675.656 361.999 671.094 365.73 672.201 367.8 673.983 371.131 670.414 374.05 671.317 375.738 674.886 372.819 675.854 374.628 672.285 377.547 673.188 379.235 676.867 376.226C677.377 376.808 677.985 377.217 678.693 377.446 679.766 377.794 680.961 377.767 682.275 377.366 683.589 376.966 684.932 376.204 686.304 375.082 688.158 373.569 689.47 371.889 690.241 370.044ZM695.461 358.186C695.754 358.733 695.794 359.347 695.582 360.026 695.37 360.705 694.841 361.391 693.995 362.083 693.149 362.775 692.431 363.109 691.843 363.084 691.254 363.06 690.814 362.773 690.521 362.226L689.228 359.81 694.167 355.77 695.461 358.186ZM682.045 371.774C681.303 371.83 680.756 371.53 680.404 370.873L678.973 368.199 684.804 363.429 686.235 366.103C686.469 366.541 686.552 367.018 686.483 367.536 686.415 368.053 686.203 368.58 685.849 369.117 685.495 369.654 685.032 370.156 684.461 370.624 683.592 371.334 682.786 371.718 682.045 371.774Z" stroke="#303030" stroke-width="1.5" stroke-linecap="round" stroke-linejoin="round" stroke-miterlimit="10" fill="#303030"/><path d="M689.305 368.31C689.619 367.56 689.815 366.811 689.905 366.065 690.337 366.172 690.791 366.215 691.271 366.179 692.74 366.068 694.286 365.349 695.91 364.02 697.121 363.029 698.099 361.937 698.842 360.745 699.585 359.552 700.039 358.343 700.205 357.117 700.317 356.29 700.261 355.508 700.047 354.769L703.71 351.773 702.807 350.085 699.238 353.004 698.27 351.195 701.839 348.276 700.936 346.588 697.367 349.507 695.585 346.175 694.478 344.105 689.916 347.836 691.023 349.906 675.828 362.335 674.721 360.265 670.159 363.997 671.266 366.067 673.048 369.399 669.479 372.318 670.382 374.006 673.951 371.087 674.919 372.896 671.35 375.815 672.253 377.503 675.932 374.494C676.442 375.076 677.05 375.485 677.758 375.714 678.831 376.062 680.026 376.035 681.34 375.634 682.654 375.234 683.997 374.472 685.369 373.35 687.221 371.835 688.533 370.155 689.305 368.31ZM694.524 356.452C694.817 356.999 694.857 357.613 694.645 358.292 694.433 358.971 693.904 359.657 693.058 360.349 692.212 361.041 691.494 361.375 690.906 361.35 690.317 361.326 689.877 361.039 689.584 360.492L688.291 358.076 693.23 354.036 694.524 356.452ZM681.108 370.04C680.366 370.096 679.819 369.796 679.467 369.139L678.036 366.465 683.867 361.695 685.298 364.369C685.532 364.807 685.615 365.285 685.546 365.802 685.478 366.319 685.266 366.846 684.912 367.383 684.558 367.919 684.095 368.422 683.524 368.89 682.655 369.6 681.85 369.984 681.108 370.04Z" stroke="#303030" stroke-width="1.5" stroke-linecap="round" stroke-linejoin="round" stroke-miterlimit="10" fill="#00826F"/><path d="M458.173 186.846C442.95 186.846 430.608 197.914 430.608 211.568 430.608 221.413 437.025 229.912 446.312 233.889L446.31 233.889C446.834 236.947 443.818 240.587 441.727 241.986 440.664 242.698 442.292 243.601 446.249 242.301 449.849 241.119 452.697 239.177 455.009 236.128L454.977 236.12C456.026 236.229 457.09 236.291 458.171 236.291 473.394 236.291 485.736 225.223 485.736 211.569 485.736 197.915 473.396 186.846 458.173 186.846Z" stroke="#303030" stroke-width="1.5" stroke-linecap="round" stroke-linejoin="round" stroke-miterlimit="10" fill="#FFFFFF"/><path d="M467.017 211.295C466.536 210.818 465.963 210.421 465.308 210.094 465.757 209.844 466.161 209.557 466.508 209.224 467.571 208.205 468.102 206.918 468.102 205.363 468.102 204.202 467.817 203.161 467.248 202.241 466.678 201.321 465.862 200.587 464.8 200.039 464.083 199.67 463.277 199.428 462.386 199.308L462.386 195.799 460.021 195.799 460.021 199.218 457.487 199.218 457.487 195.799 455.122 195.799 455.122 199.218 450.455 199.218 447.556 199.218 447.556 203.589 450.455 203.589 450.455 218.148 447.556 218.148 447.556 222.519 450.455 222.519 455.122 222.519 455.122 225.938 457.487 225.938 457.487 222.519 460.021 222.519 460.021 225.938 462.386 225.938 462.386 222.413C463.36 222.28 464.242 222.021 465.03 221.631 466.224 221.04 467.15 220.234 467.807 219.215 468.464 218.197 468.793 217.03 468.793 215.715 468.791 213.941 468.2 212.467 467.017 211.295ZM459.622 203.589C460.388 203.589 461.018 203.781 461.511 204.164 462.004 204.548 462.25 205.145 462.25 205.955 462.25 206.766 462.004 207.363 461.511 207.746 461.018 208.13 460.388 208.321 459.622 208.321L456.237 208.321 456.237 203.589 459.622 203.589ZM462.169 217.375C461.632 217.89 460.904 218.147 459.983 218.147L456.237 218.147 456.237 212.56 459.983 212.56C460.596 212.56 461.127 212.675 461.577 212.905 462.026 213.135 462.371 213.463 462.612 213.891 462.853 214.318 462.973 214.806 462.973 215.353 462.974 216.187 462.706 216.86 462.169 217.375Z" fill="#00826F"/><path d="M522.41 271.982C524.347 280.623 517.414 288.414 511.691 297.259 508.452 302.265 503.311 309.297 494.97 318.146 488.832 324.657 484.482 328.641 471.72 326.928 460.4 325.408 430.747 317.597 430.747 317.597L424.777 286.929C440.56 285.529 458.908 295 474.968 299.653L513.699 271.087 522.41 271.982Z" fill="#FFCCCC"/><path d="M423.44 285.703C432.674 284.402 438.708 285.94 444.505 287.596 450.303 289.253 475.978 298.366 475.978 298.366 475.978 298.366 478.463 308.893 476.806 317.175 475.15 325.457 472.192 328.415 472.192 328.415L429.598 319.186 423.44 285.703Z" stroke="#F55571" stroke-width="1.5" stroke-linecap="round" stroke-linejoin="round" stroke-miterlimit="10" fill="#F55571"/><path d="M488.751 289.485 507.31 285.334C509.215 284.908 510.357 283.007 509.861 281.089L500.542 245.091C500.045 243.173 498.098 241.963 496.193 242.39L477.634 246.541C475.729 246.967 474.586 248.868 475.083 250.786L484.402 286.784C484.899 288.702 486.846 289.911 488.751 289.485Z" fill="#F55571"/><path d="M492.608 288.622 511.167 284.471C513.072 284.045 514.215 282.144 513.718 280.226L504.399 244.228C503.902 242.31 501.955 241.1 500.05 241.527L481.491 245.678C479.586 246.104 478.443 248.005 478.94 249.923L488.259 285.921C488.755 287.839 490.702 289.048 492.608 288.622Z" fill="#303030"/><path d="M484.629 257.75 488.45 256.895C488.73 256.832 488.897 256.553 488.824 256.272L486.731 248.181C486.658 247.899 486.372 247.722 486.092 247.784L482.271 248.639C481.991 248.702 481.824 248.981 481.896 249.262L483.989 257.353C484.063 257.635 484.349 257.813 484.629 257.75Z" fill="#00826F"/><path d="M483.444 250.936C483.645 251.657 484.423 252.105 485.182 251.935 485.94 251.765 486.392 251.043 486.191 250.322 485.99 249.6 485.212 249.153 484.454 249.323 483.695 249.492 483.243 250.215 483.444 250.936Z" fill="#FFFFFF"/><path d="M484.53 255.213C484.731 255.934 485.509 256.382 486.267 256.212 487.025 256.042 487.477 255.32 487.276 254.599 487.075 253.877 486.297 253.43 485.539 253.6 484.781 253.769 484.329 254.492 484.53 255.213Z" fill="#FFFFFF"/><path d="M522.307 276.88C521.911 278.38 521.159 279.742 520.02 280.737 517.976 282.523 515.876 283.551 513.331 284.37 510.62 285.242 508.188 286.785 505.614 287.97 504.96 288.271 504.09 288.521 503.363 288.367 502.457 288.175 501.878 287.197 501.884 286.271 501.89 285.345 502.615 284.227 503.327 283.634 505.826 281.553 508.339 280.329 510.429 279.06 508.54 278.926 506.656 279.425 505.449 279.85 504.418 280.213 500.7 281.39 499.694 281.839 498.615 282.321 497.457 282.947 496.229 282.701 495.373 282.53 494.639 281.876 494.338 281.056 494.037 280.237 494.163 279.281 494.638 278.548 493.983 278.656 493.31 278.266 492.964 277.699 492.183 276.42 492.916 275.057 493.815 274.072 496.157 271.507 502.174 269.193 505.301 267.836 504.486 267.722 502.527 267.89 500.829 268.354 499.628 268.682 497.782 269.096 496.627 268.981 494.376 268.756 493.18 267.001 494.998 265.421 495.986 264.562 499.574 262.944 500.814 262.554 503.732 261.636 507.739 260.634 510.785 260.944 516.071 261.482 518.759 263.586 521.655 269.696 522.672 271.839 522.928 274.529 522.307 276.88Z" fill="#FFCCCC"/><path d="M493.802 279.028C498.35 275.75 503.781 273.932 510.109 272.925" stroke="#303030" stroke-width="1.5" stroke-linecap="round" stroke-linejoin="round" stroke-miterlimit="10" fill="none"/><path d="M520.02 280.738C517.976 282.524 515.876 283.552 513.331 284.371 510.62 285.243 508.188 286.786 505.614 287.971 504.698 288.392 501.323 289.202 501.151 286.077" stroke="#303030" stroke-width="1.5" stroke-linecap="round" stroke-linejoin="round" stroke-miterlimit="10" fill="none"/><path d="M511.214 279.057C507.731 279.34 504.797 280.66 501.429 282.086" stroke="#303030" stroke-width="1.5" stroke-linecap="round" stroke-linejoin="round" stroke-miterlimit="10" fill="none"/><path d="M508.636 267.531C506.396 267.693 502.278 268.462 499.887 269.335" stroke="#303030" stroke-width="1.5" stroke-linecap="round" stroke-linejoin="round" stroke-miterlimit="10" fill="none"/><path d="M677.33 419.281C676.769 419.353 676.237 419.511 675.698 419.643 671.814 420.595 668.115 421.978 664.221 422.936 659 424.22 653.791 425.061 648.38 425.477 645.666 425.686 643.142 426.117 640.267 426.004 637.81 425.907 636.252 427.423 633.499 426.651 623.491 423.843 624.659 423.465 616.166 413.163 606.752 401.745 591.396 380.112 581.48 367.543 570.876 354.1 564.103 350.41 548.925 353.323 534.682 356.056 520.647 360.836 505.312 364.215 503.689 359.934 502.309 355.429 500.828 351.016 478.861 355.958 456.536 358.576 434.498 363.253 429.911 386.05 429.225 411.435 453.668 421.58 480.019 432.517 529.336 412.293 553.087 400.188 559.479 409.293 568.299 416.874 577.263 423.799 587.143 431.432 596.237 440.278 605.292 448.926 607.838 455.243 610.206 461.516 614.208 467.063 615.475 468.819 617.058 470.235 619.095 470.974 621.604 471.885 624.251 471.662 626.709 470.688 631.347 468.851 634.834 465.52 638.604 462.392 640.731 460.627 642.802 458.801 644.989 457.161 647.177 455.521 649.382 454.08 651.45 452.304 655.866 448.511 660.275 444.668 664.924 441.167 670.876 436.683 677.025 432.567 682.343 427.335 683.17 426.521 683.981 425.618 684.241 424.5 684.743 422.347 683.591 420.874 681.824 419.817 680.383 418.956 678.91 419.079 677.33 419.281Z" fill="#FFCCCC"/><path d="M667.79 444.02C672.519 440.576 681.398 433.102 685.203 430.478 689.009 427.854 689.807 423.28 688.552 421.736 683.017 414.929 678.241 417.045 670.808 419.687 666.286 421.295 661.241 423.178 655.661 423.904 649.197 424.746 638.295 424.338 632.295 424.599 624.481 424.939 623.302 430.641 622.061 436.326 637.44 438.877 652.379 441.532 667.79 444.02Z" fill="#F55571"/><path d="M688.688 421.287C682.712 415.73 678.421 416.685 670.808 419.645 666.176 421.446 661.411 423.166 655.616 423.878 651.512 424.383 644.684 424.603 640.196 424.558" stroke="#303030" stroke-width="1.5" stroke-linecap="round" stroke-linejoin="round" stroke-miterlimit="10" fill="none"/><path d="M667.607 444.177C664.457 440.749 660.724 437.562 657.354 434.432 656.543 433.679 656.034 433.291 655.105 432.967 654.574 432.782 654.105 432.812 653.584 432.822 643.212 433.017 633.118 434.072 622.948 436.174 621.25 436.525 619.606 436.893 618.387 438.305 617.418 439.428 617.188 440.362 616.805 442.116 616.093 445.375 615.325 449.411 612.388 451.57 609.451 453.729 606.788 450.82 605.41 449.116 604.032 447.412 603.688 447.436 602.544 446.106 600.159 447.76 602.092 449.696 603.054 451.189 605.496 454.98 607.044 458.475 609.061 462.244 611.608 467.002 614.771 471.047 617.82 475.489 624.708 477.887 625.932 476.683 633.109 471.104 642.339 463.927 657.227 452.25 667.607 444.177Z" fill="#F55571"/><path d="M654.914 435.992C655.356 429.981 657.68 425.196 663.186 422.418" stroke="#303030" stroke-width="1.5" stroke-linecap="round" stroke-linejoin="round" stroke-miterlimit="10" fill="none"/><path d="M652.586 424.189C651.492 427.1 651.476 429.766 651.815 432.829" stroke="#303030" stroke-width="1.5" stroke-linecap="round" stroke-linejoin="round" stroke-miterlimit="10" fill="none"/><path d="M655.837 423.866C651.482 427.274 647.931 431.667 644.21 435.728" stroke="#303030" stroke-width="1.5" stroke-linecap="round" stroke-linejoin="round" stroke-miterlimit="10" fill="none"/><path d="M644.435 424.768C643.335 427.565 643.261 430.016 643.584 432.982" stroke="#303030" stroke-width="1.5" stroke-linecap="round" stroke-linejoin="round" stroke-miterlimit="10" fill="none"/><path d="M647.708 424.441C643.316 427.851 639.736 432.267 635.997 436.352" stroke="#303030" stroke-width="1.5" stroke-linecap="round" stroke-linejoin="round" stroke-miterlimit="10" fill="none"/><path d="M635.911 424.692C634.793 427.809 635.042 430.81 635.424 434.047" stroke="#303030" stroke-width="1.5" stroke-linecap="round" stroke-linejoin="round" stroke-miterlimit="10" fill="none"/><path d="M639.533 425.026C635.123 428.451 631.531 432.875 627.787 436.986" stroke="#303030" stroke-width="1.5" stroke-linecap="round" stroke-linejoin="round" stroke-miterlimit="10" fill="none"/><path d="M609.064 462.258C610.396 462.529 611.66 462.787 613.034 462.456 615.782 461.795 618.234 460.336 619.812 457.989 622.299 454.291 622.673 449.499 625.669 446.216 627.849 443.828 631.433 442.867 634.274 442.298 639.524 441.247 646.715 439.283 651.425 440.436 656.135 441.588 657.546 445.538 661.168 447.821" stroke="#303030" stroke-width="1.5" stroke-linecap="round" stroke-linejoin="round" stroke-miterlimit="10" fill="none"/><path d="M691.778 431.756C688.307 436.094 679.843 442.268 672.466 448.002 665.089 453.736 645.963 468.744 639.005 474.118 632.047 479.491 631.107 481.393 624.684 481.272 620.897 481.201 620.399 477.184 617.706 475.589 627.055 473.875 624.621 474.989 634.548 467.257 644.474 459.526 666.006 442.873 676.722 434.363 684.185 428.437 685.475 428.392 688.868 421.129 691.267 424.524 697.072 425.14 691.778 431.756Z" stroke="#303030" stroke-width="1.5" stroke-linecap="round" stroke-linejoin="round" stroke-miterlimit="10" fill="#FFFFFF"/><path d="M426.379 361.722C418.533 384.374 424.394 407.628 444.653 421.299 465.21 435.171 484.595 430.196 505.645 422.571 525.997 415.199 535.181 409.962 551.486 401.863 563.067 416.294 575.314 428.196 591.498 441.937 604.501 434.362 614.996 426.528 622.329 413.676 607.901 395.87 598.146 383.564 582.293 362.722 573.49 351.149 564.341 344.882 550.855 347.909 534.408 351.601 521.747 355.522 507.09 359.48 505.237 355.858 501.409 350.525 499.278 346.999 475.666 353.264 449.855 355.643 426.379 361.722Z" fill="#303030"/><path d="M507.101 358.199C503.179 359.34 499.371 360.784 495.638 362.437 491.884 364.1 488.188 365.889 484.417 367.514 483.763 367.796 484.327 368.752 484.977 368.472 488.688 366.873 492.327 365.115 496.019 363.474 499.722 361.829 503.504 360.4 507.396 359.268 508.081 359.071 507.79 357.999 507.101 358.199L507.101 358.199Z" fill="#FFFFFF"/><path d="M635.848 276.525C635.455 276.927 635.083 277.352 634.722 277.774 632.118 280.821 629.822 284.119 627.252 287.195 623.807 291.318 619.889 295.017 615.811 298.504 613.765 300.253 611.676 301.951 609.574 303.633 607.779 305.07 606.365 306.774 604.477 308.074 597.611 312.801 590.691 309.253 583.896 307.114 576.365 304.743 539.064 292.955 523.54 288.601 508.017 284.247 501.736 286.824 492.986 297.162 484.444 307.254 467.58 337.358 459.061 354.807L449.263 348.761 424.772 394.382C441.043 414.378 458.735 428.735 480.745 417.811 504.473 406.034 523.317 340.167 525.617 331.84 529.823 333.202 543.989 336.35 557.252 337.611 571.872 339.001 594.231 342.297 594.231 342.297 599.793 345.949 605.55 349.997 611.939 352.042 613.962 352.69 616.156 352.978 618.213 352.447 620.746 351.793 622.84 349.947 624.318 347.789 627.106 343.717 627.968 338.884 629.193 334.2 629.885 331.556 630.524 328.896 631.362 326.294 632.198 323.698 633.185 321.307 633.817 318.646 635.166 312.962 636.577 307.288 638.347 301.718 640.613 294.586 643.476 287.59 644.641 280.198 644.822 279.048 644.957 277.843 644.572 276.745 643.831 274.631 641.816 274.131 639.835 274.309 638.217 274.454 636.953 275.395 635.848 276.525Z" fill="#FFCCCC"/><path d="M642.331 302.51C644.428 295.518 647.675 284.69 648.942 280.467 650.208 276.244 647.781 271.933 646.293 271.57 639.738 269.969 636.141 271.788 630.805 280.504 627.558 285.807 625.297 288.734 620.916 292.842 615.842 297.601 604.53 305.395 601.875 307.15 598.417 309.435 596.547 317.139 600.762 322.405L642.331 302.51Z" fill="#F55571"/><path d="M646.293 271.57C639.738 269.969 636.141 271.788 630.805 280.504 627.558 285.807 625.297 288.734 620.916 292.842 617.814 295.751 612.903 299.422 608.541 302.527" stroke="#303030" stroke-width="1.5" stroke-linecap="round" stroke-linejoin="round" stroke-miterlimit="10" fill="none"/><path d="M642.331 302.51C638.653 301.905 631.921 301.052 628.219 300.62 627.328 300.516 626.398 300.421 625.557 300.731 625.076 300.908 624.651 301.208 624.235 301.507 615.937 307.46 608.248 314.261 601.326 321.77 600.17 323.024 598.981 324.416 598.797 326.111 598.651 327.459 599.17 328.781 599.679 330.038 600.625 332.374 603.089 336.124 601.616 340.47 600.154 344.783 594.233 342.296 594.233 342.296L590.359 341.6C589.1 344.571 592.161 344.809 593.795 345.456 597.945 347.099 602.01 349.565 604.958 351.027 608.68 352.873 611.675 354.265 619.795 356.681 624.884 357.43 627.252 352.793 629.526 345.211 632.449 335.46 642.331 302.51 642.331 302.51Z" fill="#F55571"/><path d="M627.163 303.335C624.336 299.368 622.676 292.211 626.085 287.37" stroke="#303030" stroke-width="1.5" stroke-linecap="round" stroke-linejoin="round" stroke-miterlimit="10" fill="none"/><path d="M618.453 294.999C619.084 297.979 620.439 299.95 622.799 302.55" stroke="#303030" stroke-width="1.5" stroke-linecap="round" stroke-linejoin="round" stroke-miterlimit="10" fill="none"/><path d="M620.916 292.842C619.786 296.092 619.337 301.036 618.304 309.297" stroke="#303030" stroke-width="1.5" stroke-linecap="round" stroke-linejoin="round" stroke-miterlimit="10" fill="none"/><path d="M612.168 300.191C612.799 303.171 613.854 304.808 616.214 307.408" stroke="#303030" stroke-width="1.5" stroke-linecap="round" stroke-linejoin="round" stroke-miterlimit="10" fill="none"/><path d="M614.631 298.035C613.501 301.285 613.052 306.229 612.019 314.49" stroke="#303030" stroke-width="1.5" stroke-linecap="round" stroke-linejoin="round" stroke-miterlimit="10" fill="none"/><path d="M605.23 305.038C605.861 308.018 607.869 310.335 610.229 312.935" stroke="#303030" stroke-width="1.5" stroke-linecap="round" stroke-linejoin="round" stroke-miterlimit="10" fill="none"/><path d="M608.346 303.228C607.216 306.478 606.767 311.422 605.734 319.683" stroke="#303030" stroke-width="1.5" stroke-linecap="round" stroke-linejoin="round" stroke-miterlimit="10" fill="none"/><path d="M604.956 351.029C606.216 350.603 607.37 349.935 608.34 348.929 610.281 346.918 611.391 344.128 611.363 341.333 611.319 336.93 608.599 332.733 609.248 328.378 609.72 325.21 611.895 322.591 614.07 320.239 618.089 315.893 625.135 309.299 627.022 308.742 628.909 308.185 634.095 308.824 639.092 309.441" stroke="#303030" stroke-width="1.5" stroke-linecap="round" stroke-linejoin="round" stroke-miterlimit="10" fill="none"/><path d="M655.198 277.4C655.084 281.457 648.72 302.156 648.72 302.156 648.72 302.156 638.375 336.652 636.008 344.542 633.642 352.433 632.132 356.558 628.743 357.734 626.745 358.427 623.91 358.29 619.793 356.682 623.669 354.271 624.238 355.355 628.282 341.873 632.325 328.391 642.297 295.519 644.337 288.34 645.757 283.341 648.747 275.805 646.293 271.569 648.217 270.864 655.372 271.212 655.198 277.4Z" stroke="#303030" stroke-width="1.5" stroke-linecap="round" stroke-linejoin="round" stroke-miterlimit="10" fill="#FFFFFF"/><path d="M414.467 407.65C427.935 420.915 450.374 430.883 473.706 423.439 497.381 415.885 508.925 385.736 514.076 372.491 520.41 356.202 525.62 334.43 525.62 334.43 536.669 338.259 560.474 341.512 580.722 344.92 580.722 344.92 592.654 320.264 588.542 302.036 588.542 302.036 544.501 291.284 522.201 285.386 508.982 281.89 496.568 281.983 484.63 301.301 469.482 325.814 457.911 348.763 457.911 348.763L448.704 345.165 414.467 407.65Z" fill="#00826F"/><path d="M423.44 366.175C435.172 395.689 447.155 400.165 464.249 396.118 487.102 390.708 495.907 352.45 499.489 333.401 503.624 311.412 506.455 311.728 511.07 314.04 518.859 317.942 543.684 329.193 585.364 333.588" stroke="#303030" stroke-width="1.5" stroke-linecap="round" stroke-linejoin="round" stroke-miterlimit="10" fill="none"/><path d="M581.606 300.52C582.916 313.3 579.788 333.196 573.801 343.594" stroke="#303030" stroke-width="1.5" stroke-linecap="round" stroke-linejoin="round" stroke-miterlimit="10" fill="none"/><path d="M525.619 334.43C514.679 331.16 507.655 324.746 507.655 324.746 507.655 324.746 510.972 336.869 523.778 341.645 524.482 339.727 525.221 336.409 525.619 334.43Z" fill="#303030" fill-rule="evenodd"/><path d="M373.736 303.747C371.79 304.787 365.337 310.497 372.059 348.145 382.028 403.976 423.741 418.575 423.741 418.576 459.339 398.799 447.093 373.003 461.573 341.714 452.157 334.831 449.336 319.198 446.297 309.244 444.961 304.868 444.027 300.287 441.672 296.365 437.306 289.096 430.653 285.656 423.44 285.704 423.44 285.704 407.067 289.718 400.115 291.623 392.782 294.259 383.121 298.732 373.736 303.747Z" stroke="#303030" stroke-width="1.5" stroke-linecap="round" stroke-linejoin="round" stroke-miterlimit="10" fill="#FFFFFF"/><path d="M424.247 247.963C422.788 261.534 411.465 281.677 397.572 279.276 391.85 278.287 375.353 260.344 376.653 247.103 377.874 234.665 387.262 228.609 401.226 226.661 416.112 224.584 434.541 231.838 424.247 247.963Z" fill="#303030"/><path d="M423.914 240.109C422.646 238.111 405.218 232.545 394.844 243.047 396.494 249.821 393.259 255.075 393.257 255.077 394.77 257.248 395.569 260.699 395.078 263.052 394.609 265.303 391.511 264.826 390.286 262.816 388.902 260.546 385.841 258.634 383.105 258.525 379.541 258.383 377.079 260.368 376.511 262.93 375.837 265.967 377.798 268.271 380.237 269.39 382.676 270.509 385.951 270.63 388.287 269.238 388.246 273.034 389.318 275.573 390.858 277.585L389.507 297.196C389.507 297.196 398.631 306.248 411.907 304.226 420.58 302.905 414.868 295.091 414.868 295.091L414.357 288.137C415.862 288.177 419.34 287.503 422.609 285.499 426.837 282.908 428.421 278.629 428.306 272.877 428.244 269.775 427.374 264.498 427.335 261.405 427.291 257.97 427.321 257.442 427.275 253.053 427.206 246.613 423.914 240.109 423.914 240.109Z" fill="#FFCCCC"/><path d="M389.507 297.196C389.507 297.196 398.631 306.248 411.907 304.226 418.619 303.204 416.716 298.293 415.512 296.124" stroke="#303030" stroke-width="1.5" stroke-linecap="round" stroke-linejoin="round" stroke-miterlimit="10" fill="none"/><path d="M414.356 288.137C407.304 288.013 400.728 285.63 397.075 283.057 399.078 288.245 405.172 291.384 414.631 292.14L414.356 288.137Z" fill="#303030"/><path d="M408.894 272.695C411.663 274.243 415.146 274.228 417.724 273.394" stroke="#303030" stroke-width="1.5" stroke-linecap="round" stroke-linejoin="round" stroke-miterlimit="10" fill="none"/><path d="M419.028 256.671C419.376 255.171 420.593 254.344 421.971 254.12 423.349 253.895 425.349 254.137 425.805 256.345 425.385 258.628 421.024 259.611 419.028 256.671Z" fill="#FFFFFF"/><path d="M424.796 257.434C424.369 258.433 423.174 258.887 422.125 258.448 421.076 258.009 420.572 256.843 420.998 255.843 421.424 254.843 422.621 254.39 423.669 254.829 424.718 255.269 425.222 256.435 424.796 257.434Z" fill="#303030"/><path d="M420.853 255.796 422.897 256.639 420.633 256.907Z" fill="#FFFFFF"/><path d="M426.011 255.912C425.082 254.339 423.482 254.057 422.104 254.282 420.726 254.507 419.354 255.609 419.028 256.671" stroke="#303030" stroke-width="1.5" stroke-linecap="round" stroke-linejoin="round" stroke-miterlimit="10" fill="none"/><path d="M402.302 257.297C402.749 255.583 404.351 254.648 406.171 254.401 407.991 254.155 410.635 254.448 411.255 256.978 410.719 259.588 404.964 260.678 402.302 257.297Z" fill="#FFFFFF"/><path d="M409.994 258.304C409.506 259.447 408.138 259.966 406.939 259.464 405.74 258.962 405.162 257.628 405.65 256.485 406.138 255.342 407.506 254.823 408.705 255.325 409.905 255.827 410.482 257.161 409.994 258.304Z" fill="#303030"/><path d="M405.484 256.43 407.822 257.395 405.232 257.702Z" fill="#FFFFFF"/><path d="M411.525 256.484C410.285 254.676 408.169 254.341 406.349 254.588 404.529 254.834 402.725 256.085 402.303 257.297" stroke="#303030" stroke-width="1.5" stroke-linecap="round" stroke-linejoin="round" stroke-miterlimit="10" fill="none"/><path d="M415.858 251.8C417.518 255.101 419.767 259.035 420.824 261.283 421.967 263.713 421.262 267.949 415.414 267.182" stroke="#303030" stroke-width="1.5" stroke-linecap="round" stroke-linejoin="round" stroke-miterlimit="10" fill="none"/><path d="M380.306 262.946C380.951 262.496 382.536 262.152 384.133 262.583 385.73 263.013 387.054 264.267 387.518 265.789" stroke="#303030" stroke-width="1.5" stroke-linecap="round" stroke-linejoin="round" stroke-miterlimit="10" fill="none"/><path d="M383.03 264.683C383.505 264.355 385.178 263.52 386.805 264.402" stroke="#303030" stroke-width="1.5" stroke-linecap="round" stroke-linejoin="round" stroke-miterlimit="10" fill="none"/><path d="M400.549 252.677C402.625 250.123 406.442 248.843 409.94 249.428" stroke="#303030" stroke-width="1.5" stroke-linecap="round" stroke-linejoin="round" stroke-miterlimit="10" fill="none"/><path d="M420.349 249.298C423.256 248.66 425.985 249.257 427.093 250.515" stroke="#303030" stroke-width="1.5" stroke-linecap="round" stroke-linejoin="round" stroke-miterlimit="10" fill="none"/><path d="M402.324 244.112C403.871 243.183 404.804 241.321 404.621 239.526 406.234 240.979 408.142 242.29 410.307 242.442 412.472 242.594 414.862 241.185 415.117 239.03 416.765 240.729 418.875 241.976 421.158 242.601 423.18 243.155 424.566 242.891 424.645 241.766 424.671 241.391 424.109 240.299 423.914 240.109 423.509 238.531 422.343 236.691 421.25 235.872 417.731 233.234 412.025 231.934 407.643 231.557 403.261 231.18 398.829 231.846 394.63 233.151 392.045 233.954 389.535 235.471 391.262 238.821 391.759 239.785 395.06 243.601 396.649 244.246 398.441 244.973 400.61 245.141 402.324 244.112Z" fill="#303030"/><path d="" stroke="#303030" stroke-width="1.5" stroke-linecap="round" stroke-linejoin="round" stroke-miterlimit="10" fill="none"/><path d="M422.443 394.654C422.024 393.556 420.902 392.779 419.886 392.285 417.81 391.276 415.566 390.672 413.309 390.226 412.172 390.002 411.026 389.836 409.885 389.639 409.116 389.506 408.179 389.092 408.936 388.258 410.364 386.685 412.323 385.646 414.225 384.703 415.715 383.965 417.365 383.27 418.29 381.845 419.351 380.209 418.243 378.943 416.694 379.091 411.502 379.588 406.294 382.617 401.735 385.152 396.78 387.908 390.171 390.691 384.837 387.574 373.745 381.093 366.201 368.705 366.205 368.692 366.971 366.202 379.256 341.46 380.843 338.895 380.843 338.895 382.079 316.446 373.392 305.437 357.967 311.802 355.15 322.617 352.246 328.686 349.342 334.755 344.519 344.577 339.035 360.28 334.327 373.762 336.026 378.31 344.771 385.897 351.5 391.735 368.489 402.896 378.442 406.408 381.79 407.59 385.378 408.251 388.936 408.055 393.461 407.806 397.394 405.058 401.902 404.881 403.639 404.813 405.004 404.676 406.741 404.747 410.112 404.886 412.26 405.523 413.958 404.315 414.684 403.798 415.595 402.483 414.305 400.922 415.671 401.447 417.172 401.559 418.384 400.635 419.263 399.965 420.178 398.632 418.459 397.186 419.26 397.498 420.163 397.617 420.984 397.363 422.223 396.979 422.913 395.888 422.443 394.654Z" fill="#FFCCCC"/><path d="M406.037 394.35C410.873 394.073 414.321 394.665 418.457 397.186" stroke="#303030" stroke-width="1.5" stroke-linecap="round" stroke-linejoin="round" stroke-miterlimit="10" fill="none"/><path d="M404.407 399.29C409.077 398.826 411.768 399.264 414.304 400.922" stroke="#303030" stroke-width="1.5" stroke-linecap="round" stroke-linejoin="round" stroke-miterlimit="10" fill="none"/><path d="M373.736 303.747C360.463 309.617 357.599 313.232 353.242 323.14 347.73 335.675 342.418 348.659 338.394 359.195 344.425 369.29 361.208 372.459 369.008 370.126L380.824 347.214C380.824 347.214 388.316 321.844 373.736 303.747Z" stroke="#F55571" stroke-width="1.5" stroke-linecap="round" stroke-linejoin="round" stroke-miterlimit="10" fill="#F55571"/></g></g></g></g></svg>