<svg width="348" height="139" xmlns="http://www.w3.org/2000/svg" xmlns:xlink="http://www.w3.org/1999/xlink" overflow="hidden"><defs><clipPath id="clip0"><rect x="319" y="287" width="348" height="139"/></clipPath></defs><g clip-path="url(#clip0)" transform="translate(-319 -287)"><path d="M665 377.413C665 390.56 649.024 401.207 629.312 401.207 622.872 401.207 616.832 400.066 611.614 398.075 608.279 400.836 604.192 402.378 599.855 402.178 596.349 402.018 593.124 400.737 590.4 398.645 585.682 407.841 575.356 413.274 564.668 411.313 559.53 410.362 555.082 407.851 551.717 404.369 544.886 413.735 535.05 420.139 523.391 421.62 513.525 422.87 503.789 420.419 495.266 415.205 491.49 416.075 487.393 414.685 484.298 411.673 475.434 419.378 464.125 424 451.785 424 441.017 424 431.031 420.478 422.778 414.454 421.947 416.255 420.715 417.896 419.062 419.217 413.363 423.78 405.049 422.859 400.492 417.176 398.889 415.185 397.978 412.874 397.697 410.512 388.332 410.672 379.869 406.399 374.801 399.625 370.905 400.926 366.718 401.736 362.331 401.957 341.217 402.988 323.277 390 321.204 372.61 321.124 371.959 321.064 371.299 321.034 370.629 320.152 352.618 336.509 337.129 357.794 335.518 366.188 319.138 382.915 309.313 399.911 312.434 400.452 312.534 400.983 312.654 401.504 312.774 406.061 306.941 413.143 302.858 421.396 302.078 423.5 301.878 425.553 301.918 427.556 302.148 432.464 295.994 439.415 291.462 447.659 289.741 464.877 286.139 481.835 295.994 487.955 312.254 489.978 310.453 492.563 309.253 495.466 308.973 502.728 308.293 509.168 313.626 509.859 320.88 509.889 321.2 509.889 321.51 509.899 321.821 513.745 320.69 517.822 320.41 521.919 321.16 525.895 321.891 529.511 323.522 532.636 325.843 540.94 317.158 552.478 312.666 564.147 314.807 577.198 317.208 587.124 327.294 591.111 340.342 597.371 339.692 603.882 341.453 609.109 345.776 612.314 348.427 614.659 351.719 616.13 355.312 620.207 354.231 624.654 353.62 629.311 353.62 648.342 353.62 663.897 363.556 664.939 376.074 664.98 376.513 665 376.963 665 377.413Z" fill="#FFFFFF" fill-rule="evenodd"/><path d="M665 377.269C665 390.457 649.061 401.136 629.395 401.136 622.97 401.136 616.944 399.992 611.737 397.995 608.41 400.765 604.332 402.311 600.005 402.11 596.508 401.95 593.29 400.665 590.572 398.567 585.865 407.791 575.563 413.241 564.9 411.274 559.774 410.32 555.336 407.801 551.979 404.309 545.164 413.703 535.351 420.127 523.719 421.612 513.876 422.867 504.163 420.408 495.658 415.178 491.891 416.051 487.804 414.656 484.716 411.635 475.873 419.364 464.59 424 452.279 424 441.536 424 431.573 420.467 423.339 414.425 422.51 416.231 421.281 417.878 419.632 419.202 413.946 423.78 405.651 422.856 401.105 417.155 399.505 415.158 398.597 412.839 398.316 410.47 388.973 410.631 380.529 406.345 375.472 399.55 371.586 400.855 367.408 401.668 363.031 401.889 341.967 402.923 324.068 389.895 322 372.451 327.777 372.541 333.562 370.986 338.289 367.583 348.645 387.907 371.456 371.527 371.456 371.527 371.456 371.527 385.906 386 402.104 382.337 411.799 380.145 414.999 375.934 417.338 366.228 411.357 366.849 401.48 361.066 400.221 357.321 407.356 360.492 440.375 357.941 451.366 348 449.695 352.693 443.117 359.185 431.774 363.121 440.658 380.565 461.624 386.191 478.842 376.977 488.336 385.579 502.435 388.72 514.656 384.956 526.888 381.193 535.781 374.087 538.849 361.612 534.561 360.518 532.786 355.767 530.548 353.198 538.782 357.905 551.681 356.101 560.624 352.939 557.601 358.639 553.861 360.517 549.471 362.154 550.171 370.314 554.029 372.39 561.403 375.893 568.778 379.386 577.982 378.644 584.707 373.996 590.133 379.717 598.997 381.855 606.431 379.245 613.856 376.625 619.442 369.389 620.132 361.51 622.03 369.971 635.241 372.67 640.278 365.645 646.433 372.51 655.767 376.354 664.94 375.923 664.98 376.366 665 376.818 665 377.269Z" fill="#C4E3F2" fill-rule="evenodd"/><path d="M588.743 404.121C589.915 402.814 591.383 400.567 591.454 400.392 591.834 400.632 593.157 401.44 594.111 401.815 595.507 402.426 596.986 402.86 598.499 403.094 601.521 403.567 604.67 403.235 607.518 402.151 608.946 401.619 610.295 400.906 611.546 400.062 611.849 399.866 612.192 399.603 612.437 399.43L612.496 399.383 613.072 399.586C613.417 399.7 613.759 399.825 614.107 399.93 616.877 400.812 619.72 401.442 622.592 401.831 625.464 402.207 628.365 402.4 631.258 402.285L633.428 402.211C634.151 402.177 634.87 402.077 635.591 402.013 636.31 401.928 637.036 401.893 637.75 401.766L639.894 401.401C645.602 400.391 651.144 398.281 656.069 395.099 658.493 393.444 660.734 391.486 662.617 389.178 664.498 386.87 665.886 384.102 666.562 381.15 667.234 378.197 667.133 375.06 666.256 372.153 665.333 369.256 663.713 366.662 661.752 364.441 661.239 363.907 660.777 363.316 660.218 362.834L658.56 361.365C657.993 360.896 657.381 360.487 656.793 360.047 656.495 359.833 656.204 359.607 655.898 359.404L654.958 358.837C652.487 357.252 649.785 356.112 647.061 355.102 641.899 353.335 636.478 352.432 631.052 352.306 630.458 352.292 622.242 352.732 618.979 353.412L617.548 353.733 617.385 353.383C617.176 352.959 616.96 352.539 616.732 352.126 615.814 350.475 614.712 348.927 613.451 347.516 610.928 344.699 607.775 342.45 604.279 340.972 600.786 339.483 596.954 338.819 593.164 338.975L592.782 338.99 592.691 338.997 592.671 338.997 592.625 338.862 592.187 337.583C592.18 337.563 592.173 337.543 592.165 337.524L591.653 336.273C591.321 335.411 590.925 334.577 590.514 333.749 590.132 332.907 589.662 332.11 589.208 331.304 587.353 328.108 585.079 325.126 582.357 322.583 576.958 317.467 569.837 314.061 562.365 313.324 558.637 312.962 554.844 313.178 551.202 314.035 547.565 314.904 544.059 316.301 540.862 318.203 540.075 318.698 539.265 319.158 538.518 319.709L537.401 320.491C537.384 320.502 537.369 320.514 537.354 320.526L536.283 321.368C535.46 321.985 534.721 322.7 533.939 323.365 533.925 323.377 533.904 323.397 533.891 323.409L533.043 324.243 533.043 324.243 533.043 324.244 533.043 324.244 532.793 324.076C532.398 323.818 531.999 323.567 531.592 323.327 530.779 322.848 529.941 322.41 529.081 322.017 527.362 321.231 525.558 320.62 523.709 320.214 520.016 319.386 516.139 319.363 512.437 320.112L511.641 320.284 511.616 320.115C511.561 319.626 511.451 319.146 511.321 318.671 510.831 316.765 509.939 314.959 508.723 313.407 506.306 310.285 502.553 308.216 498.59 307.876 496.617 307.698 494.608 307.896 492.72 308.516 491.776 308.819 490.865 309.223 490.005 309.714 489.788 309.832 489.581 309.967 489.37 310.096L489.009 310.335 489.009 310.333C489.006 310.325 489.016 310.347 489.001 310.313L488.754 309.74C488.452 308.963 488.03 308.242 487.638 307.508 486.904 306.024 485.936 304.676 485.027 303.296 485.014 303.275 485 303.255 484.985 303.235 482.998 300.568 480.681 298.157 478.098 296.057 472.863 291.918 466.507 289.122 459.837 288.311 459.003 288.233 458.174 288.076 457.334 288.064L454.819 288C453.981 288.001 453.144 288.094 452.307 288.139 451.89 288.173 451.469 288.183 451.054 288.237L449.813 288.434C446.486 288.874 443.253 289.884 440.195 291.247 437.153 292.65 434.289 294.447 431.752 296.627 430.481 297.711 429.274 298.873 428.171 300.127 428.03 300.281 427.889 300.435 427.758 300.597L427.421 300.999C427.421 300.999 427.419 300.999 427.392 300.996L426.283 300.916C425.862 300.894 425.44 300.878 425.018 300.873 418.267 300.774 411.489 302.932 406.099 307.013 404.758 308.038 403.504 309.176 402.357 310.414 402.073 310.726 401.779 311.029 401.517 311.361L401.398 311.504 400.779 311.373C400.37 311.286 399.95 311.251 399.536 311.187 396.228 310.617 392.835 310.655 389.514 311.04 388.687 311.169 387.846 311.225 387.031 311.417L384.616 311.957C384.592 311.962 384.568 311.969 384.544 311.976 382.958 312.456 381.35 312.894 379.835 313.569 378.278 314.144 376.826 314.944 375.349 315.687 375.326 315.699 375.302 315.712 375.279 315.725 373.871 316.587 372.431 317.403 371.122 318.409 369.75 319.331 368.531 320.446 367.269 321.503 367.251 321.519 367.233 321.535 367.216 321.552 366.042 322.704 364.825 323.817 363.771 325.08 362.64 326.277 361.688 327.618 360.683 328.914 360.67 328.932 360.656 328.949 360.644 328.968 360.181 329.64 359.741 330.329 359.29 331.009 359.066 331.356 358.828 331.695 358.616 332.048L358.011 333.128 357.582 333.893C357.416 334.19 357.118 334.387 356.779 334.427L355.265 334.603 354.07 334.743C354.042 334.746 354.014 334.751 353.986 334.757L352.807 334.993 350.4 335.479C350.377 335.484 350.354 335.489 350.332 335.495 347.135 336.338 343.959 337.342 341 338.847 334.989 341.69 329.677 346.044 325.769 351.47 323.859 354.221 322.374 357.25 321.309 360.435 320.381 363.664 319.907 367.019 320.015 370.382 320.049 371.22 320.18 372.053 320.26 372.888L320.394 374.08C320.399 374.12 320.405 374.16 320.414 374.198L320.683 375.367C320.886 376.181 321.039 377.011 321.288 377.811L322.147 380.179C322.395 380.985 322.843 381.704 323.197 382.464 323.579 383.211 323.915 383.984 324.402 384.669L325.738 386.738C325.756 386.764 325.774 386.791 325.794 386.817 326.29 387.471 326.819 388.1 327.331 388.743 327.597 389.065 327.848 389.402 328.129 389.711L329.01 390.602C329.606 391.187 330.166 391.812 330.794 392.361 332.085 393.418 333.325 394.546 334.74 395.433 337.455 397.379 340.482 398.829 343.564 400.068 349.798 402.392 356.504 403.409 363.134 403.046 366.449 402.86 369.747 402.338 372.956 401.479L374.155 401.142 374.715 400.972 374.719 400.978C374.975 401.306 375.247 401.636 375.538 401.942 376.651 403.217 377.911 404.357 379.243 405.396 381.909 407.475 384.954 409.06 388.168 410.098 389.769 410.64 391.43 410.988 393.096 411.251 393.933 411.368 394.771 411.471 395.615 411.513 396.036 411.548 396.456 411.572 396.879 411.569L396.954 411.569C397.029 411.951 397.127 412.328 397.233 412.702 397.447 413.452 397.73 414.181 398.066 414.886 398.734 416.3 399.653 417.588 400.738 418.709 402.923 420.94 405.837 422.484 408.945 422.939 412.042 423.453 415.294 422.89 418.066 421.428L419.041 420.868C419.07 420.851 419.098 420.833 419.126 420.813L420.041 420.164C420.677 419.711 421.256 419.176 421.798 418.612 422.339 418.048 422.829 417.435 423.269 416.79L423.687 416.14C423.856 416.267 425.998 417.667 427.452 418.476 429.204 419.457 431.015 420.334 432.866 421.118 436.579 422.662 440.477 423.771 444.456 424.395 452.413 425.653 460.664 424.934 468.296 422.381 472.098 421.072 475.771 419.371 479.16 417.217 480.874 416.17 482.488 414.973 484.069 413.745L484.765 413.168 484.878 413.262 485.188 413.514 485.836 413.988C486.28 414.289 486.734 414.575 487.206 414.833 489.092 415.863 491.25 416.496 493.468 416.504 494.021 416.506 494.575 416.468 495.126 416.393 495.253 416.382 495.426 416.346 495.511 416.33L495.528 416.326C495.537 416.331 495.556 416.343 495.616 416.378 496.477 416.896 497.363 417.369 498.253 417.837 501.834 419.665 505.644 421.08 509.594 421.937 517.484 423.691 525.904 423.158 533.483 420.289 537.28 418.875 540.834 416.866 544.055 414.441 545.642 413.2 547.197 411.91 548.601 410.471 549.331 409.778 549.987 409.014 550.672 408.282L551.644 407.133C551.803 406.939 551.974 406.754 552.125 406.553L552.438 406.147 552.443 406.14 552.573 406.259C553.342 406.946 554.15 407.59 554.994 408.185 556.69 409.362 558.524 410.346 560.458 411.08 562.391 411.813 564.409 412.335 566.465 412.561 568.514 412.8 570.602 412.856 572.654 412.577 576.768 412.101 580.736 410.561 584.132 408.22 585.815 407.031 587.374 405.664 588.743 404.121ZM585.839 403.56C584.095 405.328 581.953 406.902 579.47 408.077 576.995 409.258 574.191 410.051 571.214 410.286 569.724 410.362 568.196 410.365 566.66 410.149 565.115 409.99 563.574 409.61 562.054 409.105 560.537 408.587 559.048 407.903 557.632 407.049 556.746 406.527 555.908 405.91 555.074 405.278 555.053 405.262 555.032 405.244 555.013 405.226 554.885 405.107 554.749 404.993 554.615 404.879 554.649 404.482 554.47 404.079 554.089 403.871 553.803 403.714 553.488 403.54 553.167 403.343 552.956 403.214 552.742 403.073 552.53 402.925L552.442 402.84 552.231 402.635 552.178 402.584C552.164 402.594 552.151 402.616 552.138 402.633 551.703 402.297 551.294 401.93 550.97 401.538L550.966 401.54 550.969 401.537C550.434 400.813 550.029 399.855 549.757 398.975 549.644 398.617 549.553 398.271 549.472 397.957 549.315 397.348 548.659 397.015 548.068 397.239L547.641 397.401C547.083 397.614 546.795 398.249 547.04 398.79 547.969 400.841 549.261 402.719 550.831 404.334 550.68 404.53 550.53 404.726 550.379 404.923 549.833 405.615 549.255 406.29 548.67 406.965 547.467 408.285 546.208 409.591 544.816 410.787 539.322 415.617 532.168 419.246 524.199 420.3 516.262 421.441 507.694 420.021 500.01 416.226 499.047 415.758 498.094 415.259 497.163 414.714L496.323 414.227C495.97 413.858 495.443 414.128 495.083 414.162 494.587 414.251 494.083 414.289 493.576 414.301 491.544 414.312 489.495 413.682 487.708 412.59 487.264 412.311 486.83 412.014 486.417 411.687L486.064 411.4 485.548 410.945 485.039 410.49C484.988 410.456 484.938 410.395 484.887 410.352 489.038 409.973 493.124 408.599 496.553 406.163 497.039 405.818 497.117 405.128 496.745 404.665L496.384 404.213C496.027 403.767 495.38 403.685 494.919 404.025 493.757 404.887 492.164 405.982 490.194 406.823 487.737 407.908 484.741 408.568 482.082 408.533L482.08 408.537 482.08 408.533C479.421 408.468 476.453 407.694 474.041 406.516 472.105 405.602 470.555 404.448 469.427 403.543 468.98 403.184 468.331 403.242 467.956 403.676L467.578 404.113C467.19 404.562 467.241 405.254 467.712 405.618 471.806 408.766 476.946 410.38 482.045 410.474 482.932 410.49 483.821 410.445 484.708 410.37L484.521 410.526 482.785 411.969C482.359 412.322 481.908 412.645 481.47 412.986 479.691 414.313 477.838 415.569 475.872 416.651 471.965 418.859 467.708 420.527 463.271 421.598 461.046 422.112 458.781 422.476 456.493 422.694 454.202 422.9 451.891 422.93 449.583 422.815 444.964 422.585 440.359 421.655 435.97 420.084 433.776 419.299 431.634 418.356 429.568 417.266 428.533 416.724 427.523 416.133 426.526 415.522L425.787 415.049 425.417 414.812C425.294 414.734 425.186 414.667 424.992 414.529 424.645 414.292 424.296 414.045 423.948 413.802 423.861 413.742 423.763 413.718 423.667 413.687 427.22 414.238 430.865 414.202 434.403 413.512 434.986 413.398 435.351 412.812 435.215 412.238L435.09 411.711C434.954 411.135 434.37 410.782 433.793 410.933 432.911 411.163 431.813 411.454 430.599 411.664 428.844 411.98 426.848 412.125 425.109 411.948L425.107 411.952 425.108 411.948C423.374 411.725 421.465 411.131 419.83 410.425 418.696 409.944 417.694 409.412 416.89 408.987 416.363 408.708 415.713 408.919 415.447 409.449L415.204 409.934C414.94 410.463 415.159 411.116 415.7 411.359 418.13 412.451 420.704 413.2 423.328 413.635 422.947 413.642 422.576 413.829 422.39 414.199 422.219 414.54 422.043 414.872 421.868 415.155 421.609 415.578 421.316 416 420.985 416.417 420.32 417.244 419.515 418.062 418.522 418.737 417.56 419.45 416.43 420.043 415.184 420.447 413.943 420.857 412.585 421.119 411.178 421.102 408.373 421.095 405.394 420.104 403.069 418.129 401.904 417.153 400.912 415.94 400.172 414.585 399.807 413.905 399.496 413.192 399.263 412.452 399.142 412.083 399.046 411.707 398.961 411.328L398.888 410.969 398.815 410.513 398.684 409.603 395.63 409.557C395.59 409.554 395.551 409.552 395.512 409.549L393.125 409.25C393.104 409.247 393.083 409.244 393.062 409.24 392.51 409.137 391.955 409.033 391.395 408.928 389.131 408.429 386.866 407.633 384.701 406.527 382.542 405.418 380.462 404.02 378.63 402.293 378.183 401.849 377.711 401.428 377.297 400.947L376.968 400.585C378.051 400.683 379.122 400.69 380.132 400.604L380.134 400.6 380.134 400.604C382.909 400.457 386.03 399.563 388.547 398.055 390.56 396.893 392.129 395.36 393.13 394.053 393.516 393.548 393.391 392.826 392.844 392.499L392.359 392.21C391.891 391.929 391.276 392.043 390.963 392.487 388.481 396.003 384.307 398.38 379.996 398.67 375.687 398.976 371.22 397.198 368.272 394.058 367.899 393.661 367.274 393.633 366.85 393.975L366.41 394.329C365.914 394.728 365.89 395.46 366.344 395.907 367.519 397.064 369.287 398.367 371.445 399.241 371.747 399.37 372.058 399.486 372.371 399.597 372.184 399.647 372 399.705 371.811 399.752 369.269 400.397 366.64 400.832 363.973 401.036 362.639 401.162 361.295 401.117 359.949 401.14 358.6 401.202 357.258 401.025 355.909 400.937 350.533 400.433 345.199 398.983 340.397 396.572L340.341 396.546 340.343 396.542C335.606 394.121 331.298 390.723 328.001 386.465 324.647 382.25 322.606 377.021 322.104 371.638 321.524 366.234 322.837 360.718 325.394 355.896 325.676 355.27 326.052 354.698 326.429 354.124L327.514 352.439C327.533 352.411 327.553 352.382 327.575 352.355L328.825 350.781C329.246 350.238 329.673 349.699 330.171 349.22L331.605 347.733C332.075 347.228 332.636 346.818 333.148 346.355 333.679 345.916 334.174 345.432 334.734 345.027L336.42 343.82 337.226 343.244C337.251 343.226 337.276 343.209 337.302 343.194L338.155 342.688 339.942 341.632C341.143 340.976 342.398 340.416 343.633 339.825 343.659 339.813 343.686 339.802 343.713 339.792 345.001 339.324 346.258 338.769 347.572 338.375L349.569 337.801 350.525 337.525C350.553 337.517 350.581 337.51 350.61 337.505L351.586 337.308C352.946 337.052 354.293 336.71 355.676 336.604L357.857 336.352C358.121 336.3 358.42 336.337 358.626 336.214L359.02 335.516 359.561 334.554C360.857 332.126 362.488 329.902 364.176 327.748 367.679 323.542 371.913 319.95 376.667 317.357 381.442 314.834 386.688 313.166 392.011 312.945L393.952 312.863C393.984 312.862 394.015 312.862 394.047 312.863L395.983 312.955 396.973 313C397.301 313.029 397.627 313.087 397.954 313.128L399.91 313.399C400.237 313.432 400.555 313.524 400.877 313.586L401.61 313.743 402.002 313.826 402.198 313.868C402.262 313.878 402.289 313.783 402.336 313.745L403.239 312.657C403.44 312.403 403.671 312.175 403.887 311.935 404.758 310.978 405.709 310.1 406.712 309.292 410.713 306.032 415.609 304.033 420.588 303.349 421.837 303.188 423.085 303.077 424.334 303.078 424.958 303.074 425.581 303.089 426.201 303.126L427.13 303.194 427.851 303.267C428.1 303.267 428.416 303.426 428.542 303.124L429.381 302.125C429.576 301.885 429.786 301.66 429.994 301.432 430.404 300.971 430.832 300.529 431.271 300.099 432.14 299.231 433.058 298.421 434.01 297.663 437.817 294.619 442.221 292.495 446.761 291.337 451.32 290.253 455.976 290.007 460.394 290.706 464.816 291.37 468.951 292.973 472.572 295.121 476.198 297.279 479.305 300.025 481.792 303.077 483.049 304.595 484.122 306.212 485.069 307.853 485.502 308.696 485.994 309.5 486.368 310.351L486.98 311.777C486.301 311.703 485.63 311.654 484.987 311.64L484.985 311.644 484.985 311.64C482.632 311.519 479.906 311.753 477.51 312.524 475.682 313.082 474.102 313.967 472.98 314.797 472.465 315.178 472.407 315.918 472.854 316.375L473.23 316.762C473.609 317.15 474.231 317.198 474.649 316.851 480.247 312.198 489.673 312.543 494.911 317.592 495.303 317.968 495.927 317.966 496.333 317.606L496.68 317.298C497.216 316.824 497.213 316.082 496.728 315.665 495.67 314.755 494.16 313.756 492.377 313.067 491.716 312.8 491.024 312.584 490.321 312.396L490.661 312.165C491.17 311.84 491.7 311.554 492.247 311.309 493.341 310.82 494.5 310.5 495.676 310.351 496.854 310.235 498.046 310.214 499.197 310.433 500.351 310.615 501.473 310.968 502.504 311.486 503.037 311.714 503.51 312.046 504.005 312.335 504.457 312.687 504.939 313 505.343 313.404 506.199 314.155 506.921 315.041 507.504 315.996 508.117 316.938 508.532 317.982 508.843 319.039L509.044 319.841C509.106 320.118 509.124 320.366 509.174 320.676 509.283 321.223 509.255 321.83 509.309 322.363 509.403 322.831 509.15 323.78 509.914 323.319L511.532 322.881 511.937 322.773C512.065 322.737 512.234 322.699 512.275 322.691L512.695 322.599C513.255 322.481 513.816 322.385 514.378 322.305 515.502 322.149 516.629 322.07 517.748 322.066 519.987 322.059 522.197 322.37 524.301 322.943 526.404 323.525 528.399 324.378 530.232 325.456 530.688 325.729 531.139 326.007 531.576 326.305 531.935 326.543 532.406 326.891 532.812 327.173L532.965 327.281C530.995 327.701 528.882 328.372 527.046 329.344 525.487 330.144 524.173 331.151 523.243 332.045 522.782 332.488 522.815 333.226 523.314 333.626L523.734 333.962C524.16 334.302 524.787 334.277 525.157 333.877 529.819 328.832 538.068 327.212 544.314 330.115 544.808 330.345 545.399 330.131 545.661 329.656L545.884 329.252C546.23 328.628 545.976 327.933 545.381 327.698 544.178 327.223 542.576 326.788 540.826 326.637 538.478 326.404 535.927 326.651 533.761 327.11L533.76 327.114 533.759 327.11C533.75 327.112 533.741 327.114 533.733 327.116L535.492 325.387C535.503 325.377 535.521 325.359 535.533 325.349L536.711 324.307C543.075 318.794 550.955 315.791 558.493 315.724 562.256 315.71 565.931 316.307 569.285 317.521 572.64 318.729 575.683 320.475 578.326 322.573 583.63 326.779 587.276 332.308 589.459 337.938 589.61 338.286 589.744 338.638 589.857 338.997L590.296 340.291 590.664 341.37 590.755 341.639 590.801 341.773C590.808 341.831 590.879 341.783 590.915 341.794L591.445 341.752 592.501 341.669 593.002 341.632 593.273 341.624C594.719 341.564 596.148 341.64 597.539 341.838 600.323 342.233 602.935 343.146 605.259 344.406 607.582 345.668 609.616 347.302 611.291 349.139 612.133 350.057 612.876 351.035 613.536 352.045 613.864 352.552 614.173 353.065 614.454 353.589 614.599 353.849 614.733 354.112 614.863 354.377 614.93 354.508 614.994 354.64 615.054 354.774L615.205 355.101 615.391 355.53 615.759 356.381 615.942 356.805C615.961 356.834 615.965 356.891 615.995 356.897L616.107 356.868 616.332 356.81C616.933 356.659 617.531 356.508 618.126 356.358 618.757 356.206 619.299 356.088 619.888 355.97 621.042 355.739 622.187 355.552 623.322 355.406 625.228 355.161 630.424 354.989 630.998 355.006 634.073 355.097 637.272 355.403 640.567 356.078 644.221 356.843 647.984 358.096 651.646 360.017 655.301 361.919 658.837 364.64 661.419 368.341 661.781 368.78 662.018 369.292 662.299 369.784 662.558 370.286 662.896 370.761 663.066 371.309L663.666 372.845C663.685 372.892 663.7 372.941 663.711 372.991L664.087 374.614C664.49 376.912 664.402 379.362 663.691 381.756 662.93 384.137 661.559 386.404 659.769 388.442 659.294 388.93 658.885 389.483 658.349 389.931 657.84 390.384 657.328 390.84 656.812 391.298 656.789 391.319 656.764 391.339 656.738 391.358 655.607 392.19 654.485 393.073 653.208 393.783 651.985 394.583 650.614 395.186 649.26 395.853 649.239 395.863 649.217 395.873 649.195 395.882 647.789 396.45 646.373 397.057 644.864 397.492 643.387 398.02 641.816 398.323 640.248 398.713 640.225 398.719 640.201 398.724 640.178 398.728 638.579 398.992 636.968 399.329 635.299 399.45 628.619 400.168 621.319 399.652 614.162 397.266L613.493 397.037 612.308 396.604C612.204 396.586 612.081 396.477 611.992 396.534L611.733 396.738 611.213 397.148C610.794 397.485 610.712 397.529 610.501 397.685 609.755 398.219 608.964 398.702 608.133 399.116 606.473 399.946 604.653 400.504 602.762 400.7 600.872 400.897 598.917 400.733 597.036 400.196 596.096 399.927 595.176 399.561 594.286 399.116 593.845 398.887 593.406 398.647 592.982 398.376L592.823 398.276C592.715 398.208 592.606 398.137 592.504 398.062L591.877 397.616 591.599 397.413C591.086 397.04 590.359 397.196 590.048 397.746L589.194 399.254C589.056 399.51 588.987 399.6 588.907 399.718L588.665 400.076C588.504 400.316 588.34 400.557 588.176 400.801 587.842 401.283 587.446 401.731 587.077 402.209 586.699 402.674 586.255 403.1 585.839 403.56Z" fill="#5AA3CF" fill-rule="evenodd"/><path d="M538.391 365.345 537.86 365.099C537.339 364.858 536.726 365.072 536.462 365.571 533.066 372.003 527.575 377.366 521.045 380.829 517.616 382.616 513.917 383.924 510.089 384.547 509.15 384.741 508.188 384.8 507.238 384.924 507.215 384.927 507.192 384.929 507.169 384.93 506.211 384.972 505.254 385.075 504.292 385.05 502.348 385.092 500.404 384.91 498.478 384.653 496.551 384.374 494.655 383.93 492.792 383.383 490.947 382.783 489.111 382.134 487.38 381.266 485.639 380.425 483.953 379.469 482.382 378.355 481.993 378.073 481.579 377.822 481.21 377.514L479.375 376.067 479.081 375.835C478.984 375.764 478.882 375.625 478.794 375.779L478.245 376.285 477.173 377.272C476.84 377.603 476.456 377.878 476.092 378.176 470.439 382.639 462.549 384.367 455.493 382.706 454.937 382.575 454.371 382.873 454.209 383.408L454.044 383.953C453.871 384.525 454.223 385.119 454.818 385.256 457.194 385.803 460.195 386.135 463.507 385.738 467.332 385.324 471.575 384.006 475.354 381.521 476.296 380.901 477.212 380.218 478.08 379.468 478.306 379.29 478.512 379.091 478.719 378.89L478.925 378.678C478.959 378.659 478.992 378.573 479.03 378.606L479.145 378.686 479.266 378.771 479.473 378.924C481.316 380.289 483.279 381.541 485.359 382.551 489.489 384.626 493.942 385.928 498.189 386.539L498.197 386.536 498.196 386.539C502.44 387.178 507.093 387.188 511.667 386.347 513.947 385.906 516.196 385.27 518.359 384.465 520.515 383.641 522.567 382.628 524.493 381.514 526.416 380.388 528.17 379.106 529.789 377.798 531.368 376.446 532.825 375.078 534.05 373.663 536.211 371.258 537.778 368.831 538.88 366.761 539.158 366.238 538.937 365.598 538.391 365.345Z" fill="#5AA3CF" fill-rule="evenodd"/><path d="M393.924 336.395C392.421 336.066 390.566 336.246 388.976 337.115 388.18 337.545 387.438 338.125 386.806 338.848L386.58 339.13 386.467 339.273 386.43 339.331C386.382 339.406 386.345 339.469 386.332 339.508 386.288 339.603 386.249 339.715 386.219 339.843 386.21 339.87 386.207 339.956 386.192 339.942L386.14 339.883 386.017 339.729C385.972 339.666 385.911 339.612 385.845 339.532L385.792 339.47 385.703 339.357C385.607 339.232 385.518 339.098 385.406 338.982 384.561 338.001 383.573 337.013 382.415 336.146 380.115 334.401 377.239 333.088 374.389 332.494L374.383 332.497 374.384 332.493C372.994 332.18 371.516 331.981 369.999 332.005 369.256 331.977 368.508 332.075 367.756 332.137 367.725 332.14 367.696 332.143 367.666 332.148 366.922 332.279 366.164 332.382 365.434 332.607 363.928 333.002 362.475 333.607 361.154 334.389 359.818 335.149 358.598 336.07 357.545 337.097 355.388 339.118 353.91 341.553 353.019 343.856 352.31 345.697 352.039 347.47 352 348.963 351.985 349.558 352.516 350.031 353.138 349.998L353.721 349.967C354.275 349.938 354.728 349.512 354.735 348.983 354.819 342.343 360.102 335.857 366.889 334.317 370.418 333.497 374.277 334.023 377.583 335.567 379.24 336.338 380.768 337.362 382.066 338.595 382.713 339.214 383.306 339.88 383.829 340.59L384.17 341.083C384.303 341.276 384.438 341.458 384.562 341.699L385.31 343.039 385.442 343.275C385.902 344.098 387.181 343.958 387.432 343.056L387.443 343.019C387.563 342.554 387.689 342.21 387.815 341.855 387.881 341.69 387.934 341.465 388.01 341.349L388.237 340.984C388.306 340.876 388.403 340.71 388.448 340.651L388.568 340.51C388.643 340.413 388.729 340.322 388.818 340.235 388.989 340.056 389.178 339.888 389.38 339.74 390.18 339.132 391.165 338.762 392.134 338.733 393.791 338.661 395.547 339.619 396.427 340.987 396.701 341.412 397.228 341.62 397.721 341.453L398.204 341.29C398.92 341.048 399.198 340.328 398.852 339.771 397.963 338.33 396.348 336.923 393.924 336.395Z" fill="#5AA3CF" fill-rule="evenodd"/><path d="M588.958 378.16C591.07 380.426 593.914 382.142 597.101 382.748 598.876 383.092 600.736 383.088 602.517 382.712 603.918 382.421 605.258 381.894 606.478 381.189 607.014 380.88 607.166 380.198 606.799 379.712L606.477 379.285C606.14 378.839 605.497 378.728 605.026 379.043 604.358 379.488 603.512 380.008 602.481 380.392 600.978 380.979 599.09 381.226 597.485 380.913L597.483 380.917 597.484 380.913C595.883 380.588 594.229 379.687 593.007 378.629 592.427 378.141 591.945 377.627 591.532 377.148 595.976 377.182 600.409 375.932 604.102 373.55 604.597 373.23 604.695 372.566 604.337 372.108L603.996 371.673C603.651 371.231 603.004 371.136 602.535 371.457 601.325 372.286 599.646 373.32 597.585 374.06 595.026 375.015 591.915 375.467 589.226 375.147L589.223 375.151 589.223 375.147C586.535 374.807 583.645 373.619 581.419 372.077 579.619 370.865 578.265 369.458 577.312 368.365 576.942 367.941 576.291 367.877 575.841 368.221L575.396 368.562C574.914 368.93 574.869 369.606 575.278 370.047 578.758 373.802 583.629 376.299 588.826 376.977 588.608 377.345 588.643 377.822 588.958 378.16Z" fill="#5AA3CF" fill-rule="evenodd"/><path d="M464.628 351.618C465.112 351.22 465.126 350.511 464.657 350.097L464.263 349.751C463.837 349.375 463.177 349.386 462.769 349.78 462.263 350.269 461.608 350.834 460.772 351.315 459.498 352.073 457.809 352.585 456.298 352.532L456.297 352.536 456.297 352.532C454.787 352.447 453.158 351.786 451.967 350.915 451.229 350.393 450.663 349.811 450.219 349.3 451.362 348.562 452.375 347.847 453.215 347.202 453.69 346.838 453.74 346.175 453.332 345.743L453.002 345.391C452.556 344.917 451.895 344.882 451.448 345.241 439.276 355.029 422.034 358.99 406.466 355.573 405.895 355.447 405.323 355.767 405.178 356.303L405.034 356.835C404.883 357.396 405.248 357.963 405.847 358.081 408.491 358.602 412.27 359.064 416.403 358.993 421.143 358.95 426.292 358.228 430.697 357.179L430.7 357.174 430.701 357.178C435.125 356.199 440.05 354.607 444.281 352.589 445.591 351.978 446.825 351.326 447.971 350.669 448.012 350.736 448.04 350.809 448.099 350.868 450.202 352.966 453.133 354.257 456.202 354.403 459.273 354.534 462.322 353.514 464.628 351.618Z" fill="#5AA3CF" fill-rule="evenodd"/></g></svg>