<svg width="336" height="141" xmlns="http://www.w3.org/2000/svg" xmlns:xlink="http://www.w3.org/1999/xlink" overflow="hidden"><defs><clipPath id="clip0"><rect x="604" y="435" width="336" height="141"/></clipPath></defs><g clip-path="url(#clip0)" transform="translate(-604 -435)"><path d="M937.973 506.427C937.157 525.959 918.897 541.073 897.181 540.167 895.72 540.107 894.279 539.966 892.868 539.765 892.848 540.228 892.818 540.681 892.757 541.144 891.83 547.926 885.572 552.666 878.78 551.75 876.1 551.378 873.742 550.171 871.918 548.439 866.718 556.208 856.943 560.777 846.503 559.347 843.43 558.935 840.558 558.029 837.948 556.731 828.616 567.831 814.891 574.593 799.846 573.959 784.831 573.335 771.721 565.486 763.348 553.672 760.748 554.608 757.967 554.588 755.498 553.381 752.112 551.7 750.137 548.178 749.925 544.183 748.302 544.425 746.659 544.526 744.977 544.455 737.802 544.153 731.353 540.973 726.445 535.931 720.631 540.851 712.83 543.387 704.679 542.281 694.984 540.963 687.155 534.805 683.276 526.583 677.562 531.916 668.775 534.724 659.423 533.456 652.56 532.521 646.585 529.541 642.282 525.386 639.772 525.637 637.153 525.718 634.452 525.607 623.851 525.164 614.651 521.874 609.471 517.246 606.529 514.619 604.876 511.56 605.007 508.36 605.38 499.535 619.156 492.933 635.783 493.628 638.091 493.719 640.328 493.96 642.474 494.312 647.442 490.036 654.476 487.56 662.124 487.781 665.783 481.502 671.698 477.175 678.701 476.521 686.4 475.796 693.636 479.671 698.462 486.192 700.427 477.014 708.76 470.303 718.474 470.705 718.625 470.715 718.776 470.735 718.938 470.745 721.397 463.047 726.94 457.04 734.588 454.956 741.238 453.135 748.232 454.624 754.187 458.498 756.848 455.53 760.878 453.9 765.13 454.473 769.323 455.047 772.738 457.653 774.522 461.164 785.083 444.953 804.924 438.19 821.057 446.09 824.534 447.79 827.567 450.055 830.137 452.731 837.665 440.766 852.105 434.407 866.324 438 877.106 440.727 885.268 448.556 888.987 458.337 891.233 457.099 893.884 456.536 896.625 456.908 903.226 457.814 907.891 463.741 907.286 470.302 921.042 473.18 931.975 482.478 936.157 494.362 937.499 498.155 938.144 502.22 937.973 506.427Z" fill="#FFFFFF" fill-rule="evenodd"/><path d="M937.973 506.581C937.159 526.068 918.928 541.148 897.247 540.244 895.788 540.184 894.349 540.043 892.941 539.843 892.921 540.305 892.891 540.756 892.83 541.219 891.904 547.985 885.657 552.714 878.876 551.801 876.2 551.429 873.846 550.225 872.024 548.497 866.832 556.249 857.074 560.807 846.65 559.38 843.582 558.969 840.715 558.066 838.109 556.771 828.792 567.845 815.09 574.592 800.068 573.959 785.077 573.337 771.989 565.506 763.629 553.718 761.033 554.652 758.256 554.632 755.792 553.427 752.411 551.751 750.439 548.236 750.228 544.251 748.607 544.492 746.967 544.593 745.287 544.522 738.124 544.221 731.686 541.048 726.785 536.018 720.981 540.927 713.193 543.457 705.054 542.353 695.375 541.038 687.558 534.894 683.685 526.691 677.981 532.012 669.208 534.813 659.871 533.548 653.019 532.615 647.054 529.642 642.757 525.496 640.252 525.747 637.637 525.828 634.94 525.717 624.356 525.275 615.171 521.993 610 517.375 618.31 518.098 626.882 516.019 633.583 511.019 648.392 523.228 671.341 524.353 687.277 513.65 684.832 510.157 682.388 506.662 679.943 503.169 694.873 516.653 719.855 517.145 735.328 504.283 729.885 502.014 725.176 498.058 721.998 493.099 736.827 502.817 756.768 504.203 772.815 496.643 767.181 505.458 755.882 510.257 745.611 508.209 751.506 517.225 759.877 525.629 770.541 527.235 781.206 528.831 793.53 520.528 792.565 509.815 803.753 512.636 816.429 508.329 823.562 499.273 830.424 508.951 846.078 510.708 854.932 502.807 864.098 511.823 882.177 507.887 886.755 495.89 881.865 496.01 876.955 494.083 873.464 490.669 883.495 493.389 894.652 491.643 903.375 486 902.42 489.845 899.35 493.089 895.558 494.273 901.705 506.421 917.994 503.149 922.41 491.683 927.923 498.239 932.219 497.586 936.163 494.544 937.5 498.327 938.144 502.384 937.973 506.581Z" fill="#C4E3F2" fill-rule="evenodd"/><path d="M938.999 505.473C939.031 501.622 938.432 497.516 936.801 493.288 935.068 488.663 932.089 483.878 927.484 479.524 922.882 475.206 916.521 471.358 908.391 469.422L908.302 469.402C908.293 469.409 908.287 469.4 908.292 469.341L908.297 469.208 908.257 468.443C908.202 467.29 907.962 466.127 907.588 464.993 906.838 462.719 905.431 460.583 903.484 458.909 902.503 458.079 901.386 457.385 900.178 456.829 898.962 456.285 897.644 455.945 896.285 455.748 894.92 455.578 893.504 455.613 892.104 455.878 891.405 456.009 890.71 456.197 890.029 456.44L889.521 456.632 889.355 456.701 889.301 456.728C889.295 456.723 889.29 456.71 889.284 456.699 889.258 456.64 889.231 456.577 889.201 456.508 888.96 455.913 888.612 455.271 888.265 454.54 887.499 453.114 886.547 451.402 885.176 449.611 882.495 446.028 878.281 441.904 872.198 439.084 869.164 437.697 865.696 436.675 861.937 436.231 858.181 435.786 854.129 435.965 850.068 436.928 846.015 437.916 841.982 439.72 838.298 442.285 837.392 442.93 836.51 443.629 835.642 444.353 835.627 444.365 835.613 444.378 835.599 444.391 834.772 445.161 833.893 445.889 833.135 446.752 832.743 447.177 832.333 447.589 831.952 448.029L830.853 449.395C830.473 449.843 830.132 450.322 829.807 450.815L829.604 451.113C829.546 451.06 829.478 450.997 829.401 450.926 828.944 450.495 828.411 450.029 827.812 449.532 826.611 448.539 825.111 447.447 823.29 446.392 822.375 445.874 821.399 445.326 820.303 444.898 819.214 444.46 818.109 443.897 816.857 443.571 816.241 443.382 815.612 443.189 814.97 442.992 814.323 442.817 813.644 442.713 812.963 442.566 811.605 442.235 810.161 442.142 808.68 441.992 802.751 441.602 795.951 442.803 789.627 446.043 786.484 447.672 783.403 449.692 780.65 452.207 779.943 452.812 779.317 453.512 778.642 454.165 778.316 454.503 777.965 454.819 777.658 455.177L776.743 456.259C776.421 456.652 776.086 457.037 775.761 457.429 775.46 457.443 775.167 457.579 774.97 457.841 774.665 458.248 774.344 458.722 774.023 459.242 773.968 459.158 773.968 459.152 773.651 458.735 773.111 458.033 772.45 457.339 771.672 456.688 770.121 455.391 768.047 454.271 765.59 453.819 763.151 453.359 760.333 453.557 757.691 454.733 756.381 455.325 755.11 456.131 754.002 457.178L753.881 457.291 753.816 457.357 753.689 457.493C753.562 457.462 753.398 457.328 753.252 457.25L753.139 457.181 752.903 457.049 752.404 456.773C752.074 456.584 751.732 456.409 751.384 456.243 748.628 454.867 745.49 453.869 742.14 453.574 738.8 453.268 735.26 453.692 731.945 454.964 728.618 456.21 725.547 458.34 723.135 461.089 721.923 462.458 720.865 463.971 719.973 465.578 719.519 466.377 719.126 467.212 718.758 468.055 718.587 468.483 718.399 468.904 718.244 469.338L718.087 469.791C718.053 469.877 718.034 469.978 717.989 470.044 717.884 470.034 717.757 470.028 717.666 470.031L716.892 470.037C716.319 470.02 715.751 470.089 715.179 470.144 714.604 470.182 714.035 470.281 713.464 470.397L712.605 470.562 711.758 470.8C709.496 471.438 707.298 472.491 705.322 473.93 703.345 475.367 701.591 477.188 700.208 479.308 699.86 479.818 699.579 480.375 699.264 480.912 699.251 480.933 699.239 480.955 699.228 480.977 698.95 481.522 698.708 482.088 698.447 482.646 698.434 482.673 698.423 482.701 698.413 482.729L698.102 483.595C698.032 483.801 697.997 483.879 697.952 484.036L697.844 484.458 697.789 484.67C697.777 484.695 697.775 484.766 697.756 484.753L697.69 484.668C697.507 484.441 697.334 484.208 697.13 483.988L696.935 483.769C696.826 483.648 696.724 483.52 696.608 483.406L695.919 482.706C694.989 481.782 693.985 480.916 692.901 480.141 690.75 478.569 688.29 477.349 685.65 476.607 680.368 475.114 674.349 475.89 669.51 478.87 667.098 480.356 664.955 482.289 663.211 484.542 662.765 485.099 662.363 485.687 661.961 486.276L661.486 487.038C661.426 487.094 661.418 487.241 661.317 487.221L661.044 487.22 660.573 487.217C660.395 487.214 660.216 487.216 660.038 487.225L658.967 487.266C658.255 487.322 657.539 487.361 656.83 487.464 653.986 487.805 651.174 488.55 648.52 489.689 647.195 490.263 645.909 490.932 644.682 491.702 644.074 492.096 643.473 492.502 642.896 492.942 642.749 493.049 642.604 493.158 642.465 493.274L642.097 493.575C642.02 493.623 641.957 493.725 641.868 493.728L641.585 493.684C635.914 492.828 630.11 492.828 624.454 493.72 621.63 494.178 618.84 494.87 616.166 495.886 613.5 496.906 610.922 498.226 608.702 500.061L608.656 500.105 608.653 500.102C607.265 501.254 606.022 502.64 605.147 504.286 604.284 505.928 603.844 507.848 604.05 509.733 604.247 511.62 605.03 513.395 606.102 514.906 607.175 516.427 608.529 517.708 609.986 518.822 612.915 521.054 616.287 522.599 619.76 523.757 623.242 524.905 626.865 525.631 630.529 526.014 632.361 526.206 634.207 526.306 636.054 526.326 636.978 526.332 637.903 526.318 638.829 526.279L640.217 526.204 641.483 526.106 641.662 526.089 641.794 526.208 642.595 526.951C642.613 526.968 642.633 526.985 642.652 527.001 643.589 527.76 644.54 528.51 645.556 529.167 647.122 530.2 648.78 531.101 650.514 531.829 657.438 534.75 665.396 535.289 672.669 533.136 674.486 532.598 676.247 531.868 677.924 530.98 678.35 530.771 678.756 530.522 679.164 530.279 679.577 530.044 679.976 529.786 680.366 529.513 680.762 529.25 681.154 528.981 681.525 528.682L682.091 528.246C682.155 528.201 682.251 528.111 682.329 528.045 682.729 527.485 682.818 528.134 683.095 528.574 683.568 529.396 684.05 530.21 684.598 530.985 685.679 532.54 686.903 533.997 688.263 535.319 691.003 537.934 694.243 540.044 697.789 541.388 699.55 542.084 701.389 542.578 703.253 542.891 705.115 543.221 707.009 543.355 708.897 543.311 712.675 543.211 716.42 542.346 719.846 540.805 720.479 540.521 721.098 540.206 721.708 539.877 722.058 540.084 722.511 540.09 722.862 539.827 723.389 539.432 723.968 538.926 724.533 538.351 724.734 538.15 724.93 537.937 725.126 537.723 725.368 537.549 725.583 537.392 725.644 537.335 725.819 537.24 726.018 536.899 726.153 537.18 726.279 537.317 727.183 538.166 727.854 538.713 730.71 541.103 734.017 542.959 737.559 544.079 739.329 544.64 741.153 545.018 742.993 545.206 743.913 545.289 744.836 545.357 745.76 545.349 746.222 545.348 746.682 545.336 747.143 545.311L747.833 545.266 748.379 545.217 748.612 545.191C748.675 545.199 748.806 545.12 748.779 545.24 748.786 545.378 748.808 545.574 748.854 545.859 749.01 546.793 749.272 547.712 749.634 548.593 750.355 550.352 751.522 551.963 753.057 553.136 754.426 554.197 756.083 554.859 757.786 555.106 757.99 555.355 758.293 555.517 758.644 555.497 759.532 555.446 760.601 555.29 761.714 554.978 761.779 554.964 761.844 554.955 761.908 554.938L762.239 554.859 762.395 554.815 762.619 554.745C762.666 554.779 762.704 554.852 762.743 554.899L763.925 556.483C763.936 556.498 763.955 556.521 763.967 556.535 764.627 557.287 765.231 558.084 765.907 558.818 766.509 559.456 767.089 560.113 767.707 560.732 768.338 561.336 768.957 561.952 769.597 562.543 772.172 564.891 774.984 566.941 777.957 568.658 783.901 572.103 790.497 574.158 797.08 574.786 803.668 575.431 810.228 574.592 816.223 572.64 822.211 570.64 827.624 567.525 832.179 563.708 833.032 563.053 833.745 562.247 834.614 561.63 834.681 561.582 834.741 561.525 834.791 561.461 835.45 560.626 836.278 559.954 836.962 559.158L837.866 558.149C837.903 558.137 837.941 558.179 838.061 558.228L838.969 558.619C839.642 558.895 840.322 559.144 841.008 559.368 842.38 559.813 843.773 560.15 845.17 560.38 850.751 561.296 856.384 560.581 861.186 558.5 863.591 557.47 865.793 556.115 867.718 554.519 868.397 553.915 869.07 553.317 869.736 552.723 869.771 552.688 869.805 552.653 869.84 552.617 870.41 551.944 870.976 551.277 871.535 550.616L871.785 550.282 871.854 550.341 872.172 550.575C872.339 550.7 872.516 550.81 872.688 550.928 873.385 551.382 874.121 551.765 874.878 552.081 876.391 552.719 877.997 553.051 879.585 553.117 882.764 553.223 885.849 552.228 888.235 550.458 890.623 548.69 892.357 546.224 893.168 543.565 893.39 542.905 893.526 542.229 893.642 541.554L893.684 541.324 893.686 541.3 893.691 541.252C893.697 541.23 893.69 541.169 893.708 541.186 893.724 541.188 893.731 541.19 893.731 541.19L894.447 541.259C895.062 541.316 895.672 541.373 896.277 541.43 905.998 541.889 914.422 539.376 920.789 535.556 924.031 533.731 926.678 531.426 929.003 529.138 929.019 529.122 929.034 529.106 929.049 529.089 930.139 527.879 931.245 526.747 932.108 525.471 932.558 524.842 933.044 524.253 933.442 523.616 933.825 522.969 934.203 522.332 934.576 521.704 937.267 516.992 938.575 512.174 938.912 507.616 938.956 507.033 938.994 506.064 938.999 505.473ZM936.199 507.453C935.908 510.753 935.128 514 933.867 517.065 932.516 520.469 930.406 523.538 927.979 526.276 926.808 527.676 925.408 528.858 924.046 530.068 924.025 530.087 924.002 530.105 923.979 530.122L921.803 531.753C921.069 532.31 920.245 532.736 919.471 533.235 916.29 535.081 912.886 536.62 909.284 537.487 905.705 538.378 902.01 538.947 898.302 538.835L896.964 538.841C896.93 538.841 896.896 538.84 896.862 538.837L895.531 538.714 893.763 538.55C893.651 538.506 893.534 538.47 893.407 538.467 892.925 538.456 892.371 538.435 891.779 538.361 890.651 538.23 889.397 537.9 888.412 537.36L888.409 537.363 888.411 537.359C887.45 536.778 886.539 535.858 885.863 534.947 885.505 534.473 885.21 534.004 884.961 533.593 884.647 533.075 883.963 532.926 883.46 533.266L883.05 533.544C882.536 533.892 882.435 534.603 882.822 535.089 884.927 537.728 887.857 539.647 891.093 540.587L891.064 540.95C890.977 541.401 890.919 541.795 890.815 542.214 890.586 543.029 890.311 543.838 889.9 544.582 888.355 547.619 885.287 549.794 881.932 550.366 880.251 550.621 878.511 550.539 876.882 550.037 876.069 549.786 875.286 549.444 874.55 549.015 874.184 548.798 873.828 548.565 873.486 548.309 873.102 548.014 872.663 547.627 872.223 547.226 871.758 546.804 871.026 546.884 870.657 547.392L869.523 548.955C869.508 548.974 869.493 548.994 869.477 549.013L868.448 550.239C868.431 550.259 868.414 550.278 868.396 550.297L867.298 551.424C867.281 551.442 867.262 551.459 867.244 551.476L866.039 552.55C864.343 553.957 862.446 555.128 860.427 556.03 856.387 557.839 851.867 558.54 847.45 558.119 845.408 557.957 843.406 557.514 841.473 556.867 845.751 555.358 849.495 552.381 851.813 548.45 852.129 547.915 851.945 547.226 851.388 546.948L850.868 546.687C850.36 546.433 849.745 546.627 849.468 547.121 849.098 547.777 848.646 548.517 848.067 549.28 847.211 550.415 846.081 551.599 844.702 552.636 842.919 554.01 840.676 555.067 838.383 555.613L838.251 555.551 837.465 555.179 837.268 555.086C837.209 555.086 837.168 555.18 837.117 555.223L836.827 555.549 836.481 555.939C835.901 556 835.323 556.038 834.757 556.021L834.754 556.025 834.754 556.021C831.34 555.927 827.622 554.331 825.021 552.075 823.704 550.962 822.644 549.715 821.854 548.534 821.32 547.739 820.911 546.975 820.58 546.299 820.33 545.79 819.728 545.562 819.205 545.787L818.671 546.017C818.099 546.264 817.876 546.941 818.161 547.494 821.3 553.589 827.77 557.732 834.665 557.964 834.46 558.176 834.252 558.385 834.044 558.594 832.485 560.242 830.741 561.698 828.977 563.117 827.153 564.457 825.3 565.773 823.305 566.846 819.372 569.096 815.074 570.671 810.658 571.641 806.235 572.603 801.662 572.809 797.155 572.414 792.646 571.993 788.221 570.837 784.042 569.108 779.896 567.303 775.971 564.953 772.512 562.026 770.769 560.58 769.151 558.988 767.625 557.314 766.871 556.469 766.146 555.597 765.441 554.711L764.73 553.764C765.832 553.187 766.876 552.512 767.764 551.809L767.763 551.805 767.765 551.808C769.306 550.688 770.915 549.171 772.075 547.49 772.896 546.312 773.465 545.062 773.788 544.008 773.98 543.383 773.568 542.739 772.919 542.649L772.374 542.575C771.844 542.502 771.336 542.833 771.21 543.352 770.557 546.048 768.844 548.556 766.584 550.259 764.317 551.997 761.48 552.862 758.602 552.86 758.499 552.86 758.406 552.89 758.313 552.919 757.387 552.811 756.485 552.557 755.659 552.138 753.88 551.243 752.483 549.656 751.706 547.76 751.513 547.286 751.344 546.799 751.224 546.296 751.151 546.047 751.115 545.789 751.06 545.536L751.041 545.437 751.02 545.246 750.978 544.864 750.894 544.091 750.818 543.216 750.78 542.778C750.788 542.687 750.767 542.632 750.67 542.673L750.451 542.704 748.696 542.948C747.983 543.036 747.84 543.04 747.547 543.066L746.72 543.117C744.516 543.22 742.291 542.998 740.137 542.507 735.818 541.533 731.793 539.368 728.486 536.396L728.176 536.117 728.021 535.977C727.975 535.937 727.923 535.891 727.807 535.774L727.224 535.201C727.23 535.193 727.237 535.184 727.243 535.177L727.24 535.174 727.243 535.177C728.091 534.193 729.063 533.055 729.839 531.903 730.294 531.239 730.678 530.574 730.964 529.983 731.246 529.4 730.915 528.705 730.291 528.527L729.805 528.39C729.279 528.24 728.71 528.51 728.528 529.025 727.457 532.054 725.431 534.757 722.847 536.685 722.372 537.007 721.892 537.312 721.386 537.6 719.469 538.713 717.418 539.605 715.28 540.197 711.014 541.417 706.44 541.521 702.113 540.518 697.785 539.539 693.726 537.439 690.426 534.481 688.774 533.004 687.309 531.32 686.075 529.482 685.754 529.03 685.47 528.554 685.193 528.075L684.982 527.717C684.908 527.591 684.863 527.528 684.705 527.211L683.916 525.667 683.522 524.895 683.325 524.509C683.237 524.491 683.111 524.669 683.007 524.739L681.688 525.882 681.028 526.455C680.725 526.708 680.685 526.726 680.564 526.823L679.911 527.328C676.348 529.931 672.058 531.535 667.645 532.149 663.225 532.765 658.657 532.376 654.378 531.1 652.241 530.451 650.174 529.579 648.24 528.479 647.278 527.921 646.336 527.328 645.447 526.663 645.006 526.328 644.561 525.995 644.143 525.632 643.934 525.451 643.717 525.278 643.514 525.09L642.525 524.175 642.365 524.027 642.148 524.046 641.713 524.087 641.012 524.15 640.162 524.216C639.595 524.255 639.027 524.286 638.459 524.307 637.322 524.349 636.183 524.355 635.045 524.328 632.77 524.255 630.496 524.076 628.247 523.738 623.757 523.064 619.327 521.832 615.324 519.823 613.334 518.813 611.443 517.616 609.834 516.158 608.24 514.705 606.911 512.972 606.314 511.054 605.697 509.146 605.9 507.096 606.824 505.298 607.742 503.489 609.304 501.95 611.075 500.695 614.675 498.199 619.053 496.722 623.482 495.876 627.934 495.034 632.524 494.836 637.064 495.153 638.198 495.236 639.329 495.355 640.456 495.511L641.319 495.636C641.883 495.679 642.525 496.017 642.921 495.446L643.816 494.716 644.48 494.224C646.259 492.924 648.242 491.894 650.31 491.094 652.389 490.315 654.559 489.752 656.774 489.473 657.878 489.314 658.995 489.249 660.111 489.214 660.39 489.197 660.67 489.213 660.949 489.211L661.805 489.217 662.242 489.22 662.461 489.221C662.521 489.198 662.543 489.109 662.586 489.055L663.385 487.763C663.525 487.524 663.681 487.297 663.84 487.072 666.296 483.41 669.823 480.474 673.91 478.985 677.994 477.496 682.599 477.537 686.673 479.088 688.713 479.855 690.648 480.939 692.368 482.313 693.232 482.994 694.057 483.73 694.818 484.531 695.012 484.728 695.207 484.923 695.385 485.136L695.863 485.68C696.053 485.886 696.241 486.127 696.427 486.368L697.423 487.637C696.457 488.037 695.482 488.485 694.586 488.993 693.61 489.536 692.742 490.143 692.073 490.699 691.582 491.108 691.579 491.858 692.053 492.285L692.442 492.635C692.867 493.018 693.507 492.982 693.915 492.582 697.352 489.225 702.267 487.344 707.075 487.543 707.647 487.567 708.146 487.167 708.205 486.599L708.259 486.08C708.325 485.446 707.819 484.89 707.18 484.914 706.309 484.947 705.256 485.076 704.166 485.323 702.506 485.686 700.78 486.306 699.3 486.905L699.575 485.87 699.808 484.983 700.07 484.257 700.343 483.492 701.005 482.062C701.018 482.033 701.033 482.005 701.049 481.977L701.838 480.612C703.005 478.785 704.502 477.168 706.232 475.86 707.962 474.551 709.926 473.552 712.003 472.93 713.041 472.616 714.108 472.396 715.186 472.278 715.726 472.241 716.268 472.142 716.805 472.166L717.667 472.162C718.011 472.157 718.333 472.182 718.649 472.213 719.135 472.26 719.591 471.971 719.752 471.51L720.163 470.337C720.267 470.018 720.392 469.706 720.523 469.398 720.765 468.772 721.053 468.168 721.346 467.567 721.961 466.381 722.622 465.215 723.427 464.153 725 462.005 726.953 460.143 729.198 458.743 733.68 455.918 739.291 454.995 744.501 456.153 747.118 456.69 749.628 457.728 751.958 459.07L753.544 460.048 753.947 460.298C754.017 460.386 754.074 460.253 754.137 460.207L754.321 460.018 755.059 459.264C755.181 459.134 755.305 459.004 755.444 458.881L755.62 458.716C755.732 458.605 755.855 458.507 755.977 458.407 756.215 458.2 756.471 458.017 756.726 457.833 757.761 457.119 758.913 456.564 760.129 456.239 762.553 455.562 765.219 455.756 767.519 456.775 768.674 457.273 769.732 457.987 770.65 458.846 771.111 459.275 771.521 459.753 771.909 460.25L772.066 460.472C772.165 460.615 772.268 460.744 772.361 460.904 772.498 461.111 772.628 461.342 772.755 461.576 772.079 462.988 771.49 464.501 771.004 465.866L771.007 465.869 771.003 465.868C770.362 467.489 769.681 469.371 769.251 471.164 768.949 472.386 768.769 473.558 768.697 474.515 768.65 475.145 769.168 475.669 769.801 475.642L770.335 475.619C770.909 475.594 771.343 475.118 771.344 474.546 771.359 470.406 772.553 466.266 774.694 462.708 774.795 462.64 774.891 462.559 774.968 462.451L776.331 460.542 776.945 459.68C777.134 459.414 777.318 459.144 777.539 458.903L778.806 457.409C779.22 456.904 779.648 456.411 780.126 455.964 781.053 455.046 781.948 454.093 782.978 453.286L784.443 452.055C784.465 452.036 784.488 452.019 784.512 452.002L786.073 450.896C787.109 450.098 788.27 449.497 789.384 448.82 789.933 448.465 790.54 448.221 791.122 447.929 791.711 447.651 792.292 447.356 792.887 447.092 795.309 446.149 797.781 445.28 800.351 444.873 802.886 444.344 805.481 444.279 808.054 444.335 808.083 444.336 808.112 444.337 808.141 444.34 810.701 444.572 813.275 444.903 815.713 445.746 816.324 445.957 816.965 446.085 817.551 446.362L819.336 447.125C820.538 447.607 821.664 448.254 822.766 448.924 823.866 449.602 824.92 450.356 825.925 451.168 826.428 451.573 826.915 451.999 827.393 452.435L827.79 452.806 828.516 453.527 828.889 453.906C827.112 454.462 825.322 455.185 823.73 456.105 821.788 457.195 820.192 458.545 819.103 459.694 818.669 460.153 818.719 460.88 819.22 461.265L819.633 461.582C820.069 461.917 820.741 461.869 821.1 461.453 826.735 454.924 837.016 452.656 844.889 456.204 845.391 456.43 846.02 456.191 846.274 455.703L846.514 455.242C846.806 454.682 846.543 454.001 845.955 453.769 844.481 453.185 842.46 452.632 840.238 452.462 837.413 452.209 834.338 452.536 831.733 453.148L831.732 453.152 831.731 453.148C831.527 453.19 831.311 453.253 831.104 453.301L832.148 451.779C832.566 451.176 833.059 450.628 833.509 450.05 833.948 449.461 834.487 448.957 834.981 448.415 835.468 447.865 836.01 447.369 836.559 446.881 838.73 444.907 841.166 443.222 843.786 441.893 849.036 439.246 855.02 438.126 860.864 438.655L863.005 438.92C863.034 438.924 863.063 438.928 863.091 438.934L865.204 439.375C865.925 439.515 866.619 439.763 867.329 439.95 868.028 440.171 868.714 440.434 869.407 440.676 872.135 441.756 874.706 443.218 877.03 445.006 879.358 446.788 881.432 448.902 883.161 451.272 883.594 451.865 884.024 452.458 884.403 453.087 884.811 453.697 885.17 454.336 885.522 454.98 885.927 455.66 886.226 456.395 886.59 457.096 886.598 457.114 886.612 457.144 886.621 457.163L887.068 458.242 887.941 460.348 889.051 459.765 889.612 459.47 890.119 459.237C890.531 459.044 890.592 459.036 890.787 458.957L891.303 458.781C891.997 458.566 892.711 458.413 893.433 458.336 894.879 458.172 896.352 458.335 897.746 458.748 900.537 459.564 902.957 461.544 904.326 464.11 905.018 465.387 905.438 466.806 905.572 468.249L905.601 468.791 905.617 469.062 905.625 469.198 905.614 469.476 905.565 470.607 905.541 471.172 905.529 471.454C905.57 471.474 905.627 471.484 905.68 471.496 905.657 473.682 905.113 475.872 904.101 477.808 903.85 478.288 904.038 478.881 904.501 479.164L904.882 479.398C905.469 479.758 906.241 479.475 906.447 478.82 906.555 478.474 906.656 478.094 906.742 477.696 906.961 476.717 907.098 475.652 907.268 474.741L907.264 474.738 907.268 474.74C907.476 473.906 907.758 472.965 907.965 472.05L909.093 472.322C912.142 473.159 915.093 474.345 917.86 475.86 923.392 478.884 928.194 483.265 931.497 488.598 934.638 493.619 936.343 499.5 936.29 505.399 936.295 505.978 936.249 506.887 936.199 507.453Z" fill="#5AA3CF" fill-rule="evenodd"/><path d="M837.678 496.83C837.444 496.297 836.831 496.053 836.296 496.277 835.182 496.744 833.711 497.309 832.004 497.634 829.767 498.088 827.163 498.114 824.958 497.616L824.955 497.619 824.956 497.615C822.759 497.081 820.434 495.897 818.628 494.495 817.237 493.441 816.164 492.277 815.369 491.361 814.989 490.925 814.334 490.879 813.893 491.25L813.456 491.618C812.996 492.005 812.934 492.711 813.344 493.152 815.609 495.579 818.415 497.416 821.47 498.597 821.231 498.654 821.01 498.786 820.856 499.003 819.631 500.74 817.91 502.721 815.579 504.524 812.903 506.653 809.394 508.506 805.414 509.519 803.431 510.056 801.323 510.286 799.198 510.317 798.147 510.35 797.097 510.242 796.042 510.152 796.013 510.15 795.984 510.146 795.955 510.14L793.999 509.804 793.68 509.748 793.521 509.719C793.473 509.719 793.4 509.671 793.393 509.75L793.142 510.355 792.69 511.447C791.015 515.423 788.155 518.842 784.899 521.206L784.896 521.213 784.894 521.21C781.661 523.615 777.54 525.271 773.275 525.73 768.997 526.219 764.652 525.228 760.989 523.434 757.329 521.591 754.346 518.972 752.275 516.263 750.49 513.93 749.324 511.587 748.617 509.591 748.428 509.056 747.853 508.773 747.312 508.94L746.757 509.112C746.186 509.288 745.858 509.911 746.06 510.478 748.764 518.023 755.044 523.978 762.495 526.59 766.388 527.964 770.678 528.376 774.758 527.638 776.804 527.308 778.797 526.697 780.688 525.87 782.587 525.061 784.396 524.035 786.051 522.798 787.715 521.577 789.268 520.188 790.603 518.601 791.942 517.023 793.158 515.315 794.073 513.438 794.189 513.204 794.329 512.982 794.423 512.738L794.69 512.114 794.691 512.109C794.691 512.109 794.709 512.113 794.837 512.137L795.6 512.28C796.111 512.349 796.626 512.392 797.14 512.448 799.194 512.628 801.269 512.602 803.304 512.303 811.082 511.254 818.459 507.049 823.078 500.562 823.426 500.073 823.282 499.385 822.781 499.057 827.485 500.556 832.664 500.544 837.334 498.783 837.896 498.571 838.151 497.909 837.908 497.357L837.678 496.83ZM794.692 512.108 794.692 512.108 794.694 512.108C794.693 512.108 794.692 512.108 794.692 512.108Z" fill="#5AA3CF" fill-rule="evenodd"/><path d="M685.288 513.282C684.883 512.896 684.252 512.911 683.846 513.297 677.811 519.019 668.513 521.235 660.53 518.852 659.993 518.692 659.423 518.962 659.237 519.49L659.059 519.997C658.857 520.572 659.195 521.19 659.789 521.339 661.24 521.703 663.188 522.001 665.292 521.999 667.985 522.024 670.888 521.584 673.362 520.959L673.363 520.954 673.364 520.958C675.855 520.399 678.643 519.483 681.032 518.247 682.921 517.295 684.529 516.145 685.657 515.161 686.11 514.767 686.112 514.068 685.678 513.654L685.288 513.282Z" fill="#5AA3CF" fill-rule="evenodd"/></g></svg>