<svg width="75" height="75" xmlns="http://www.w3.org/2000/svg" xmlns:xlink="http://www.w3.org/1999/xlink" overflow="hidden"><defs><clipPath id="clip0"><rect x="75" y="69" width="75" height="75"/></clipPath></defs><g clip-path="url(#clip0)" transform="translate(-75 -69)"><path d="M148.895 115.33C143.952 134.884 123.872 146.783 104.046 141.908 84.2283 137.033 72.1644 117.227 77.108 97.6746 82.0485 78.1185 102.126 66.2172 121.947 71.0923 141.772 75.9675 153.835 95.7752 148.892 115.33L148.895 115.33Z" fill="#F7931A" fill-rule="evenodd"/><path d="M128.909 101.492C129.636 96.6594 125.93 94.0611 120.862 92.3278L122.506 85.7808 118.491 84.7874 116.891 91.1619C115.836 90.9005 114.753 90.6548 113.676 90.4102L115.287 83.9934 111.275 83 109.63 89.5451C108.756 89.3478 107.899 89.1524 107.066 88.9473L107.071 88.9266 101.536 87.5544 100.468 91.8109C100.468 91.8109 103.446 92.4887 103.383 92.5301 105.009 92.9325 105.304 94.0009 105.253 94.8483L103.375 102.335 100.749 112.784C100.551 113.274 100.046 114.01 98.9102 113.731 98.95 113.789 95.9931 113.008 95.9931 113.008L94 117.571 99.2241 118.864C100.196 119.106 101.148 119.36 102.085 119.597L100.423 126.22 104.432 127.214 106.079 120.663C107.173 120.958 108.236 121.23 109.276 121.486L107.637 128.007 111.651 129 113.312 122.391C120.157 123.677 125.304 123.158 127.468 117.013 129.214 112.064 127.383 109.209 123.781 107.347 126.404 106.744 128.379 105.031 128.906 101.493L128.909 101.493ZM119.737 114.261C118.495 119.21 110.105 116.535 107.382 115.864L109.586 107.091C112.307 107.766 121.031 109.1 119.738 114.262L119.737 114.262ZM120.977 101.421C119.846 105.923 112.86 103.636 110.593 103.075L112.592 95.1186C114.859 95.6778 122.158 96.7244 120.977 101.421Z" fill="#FFFFFF" fill-rule="evenodd"/></g></svg>