<svg width="75" height="75" xmlns="http://www.w3.org/2000/svg" xmlns:xlink="http://www.w3.org/1999/xlink" overflow="hidden"><g transform="translate(-204 -169)"><path d="M278 206C278 226.434 261.435 243 241 243 220.565 243 204 226.434 204 206 204 185.565 220.565 169 241 169 261.435 169 278 185.565 278 206Z" fill="#3CC8C8" fill-rule="evenodd"/><path d="M240.801 180.157C242.043 179.505 243.559 181.017 242.9 182.267 242.516 183.285 241.062 183.556 240.32 182.78 239.534 182.034 239.79 180.562 240.801 180.157M227.439 181.606C228.195 181.293 229.15 181.989 229.072 182.817 229.152 183.716 228.061 184.377 227.291 183.95 226.272 183.553 226.388 181.888 227.439 181.606M254.806 183.975C253.627 183.833 253.44 181.966 254.576 181.591 255.456 181.159 256.264 181.969 256.393 182.809 256.208 183.526 255.612 184.183 254.806 183.975M230.479 187.329C231.741 186.526 233.541 187.722 233.347 189.197 233.281 190.686 231.316 191.549 230.207 190.542 229.136 189.751 229.298 187.937 230.479 187.329M249.74 188.181C250.302 186.721 252.583 186.677 253.224 188.098 253.857 189.204 253.078 190.574 251.951 190.95 250.456 191.231 249.036 189.605 249.74 188.181M239.192 190.867C239.18 189.612 240.316 188.677 241.501 188.592 242.286 188.751 243.143 189.088 243.481 189.886 244.109 190.987 243.551 192.503 242.416 193.009 241.896 193.302 241.282 193.192 240.716 193.158 239.852 192.73 239.125 191.892 239.192 190.867M219.32 192.695C220.473 191.982 222.028 193.283 221.592 194.543 221.351 195.633 219.896 196.076 219.064 195.381 218.175 194.729 218.316 193.162 219.32 192.695M261.992 192.693C262.97 191.929 264.584 192.805 264.468 194.048 264.533 195.181 263.138 196.034 262.167 195.452 261.098 194.968 260.989 193.313 261.992 192.693M244.781 194.949C246.394 194.366 248.311 195.064 249.231 196.511 250.444 198.281 249.798 200.977 247.915 201.992 245.965 203.193 243.116 202.175 242.396 199.983 241.578 198.02 242.769 195.564 244.781 194.949M235.313 195.142C237.102 194.292 239.508 195.005 240.373 196.845 241.389 198.637 240.603 201.133 238.786 202.058 236.966 203.098 234.399 202.31 233.519 200.386 232.53 198.525 233.406 195.998 235.313 195.142M225.833 198.403C225.969 197.243 227.056 196.489 228.153 196.411 229.334 196.554 230.278 197.478 230.406 198.682 230.329 199.873 229.414 201.038 228.16 201.031 226.779 201.15 225.569 199.768 225.833 198.403M253.834 196.663C255.251 195.833 257.218 197.041 257.155 198.68 257.253 200.416 255.075 201.639 253.664 200.621 252.198 199.772 252.312 197.385 253.834 196.663M231.46 202.781C233.117 202.322 235.012 203.108 235.825 204.641 236.715 206.184 236.351 208.327 234.968 209.459 233.195 211.119 229.924 210.453 228.98 208.187 227.896 206.111 229.213 203.327 231.46 202.781M249.418 202.772C251.029 202.308 252.921 202.933 253.788 204.41 254.933 206.099 254.386 208.618 252.682 209.707 250.896 210.971 248.13 210.308 247.147 208.33 245.955 206.286 247.154 203.396 249.418 202.772M220.8 204.7C222.232 204.155 223.819 205.745 223.238 207.172 222.884 208.473 221.061 208.954 220.12 207.995 219.019 207.094 219.428 205.09 220.8 204.7M259.604 206.773C259.562 205.579 260.43 204.522 261.647 204.456 262.627 204.612 263.58 205.408 263.503 206.482 263.592 207.9 261.894 208.864 260.693 208.198 260.129 207.909 259.841 207.328 259.604 206.773M213.761 205.4C214.622 205.022 215.688 205.773 215.491 206.736 215.445 207.825 213.846 208.244 213.258 207.333 212.74 206.702 213.051 205.726 213.761 205.4L213.761 205.4ZM268.066 205.379C268.673 204.944 269.646 205.257 269.886 205.97 270.293 206.748 269.546 207.815 268.676 207.683 267.453 207.794 267.057 205.92 268.066 205.379M236.138 210.609C238.404 210.016 240.841 211.918 240.855 214.266 241.003 216.639 238.603 218.743 236.283 218.196 234.489 217.905 233.082 216.167 233.141 214.343 233.136 212.6 234.444 210.978 236.138 210.609M245.113 210.605C247.414 209.958 249.923 211.894 249.886 214.297 250.007 216.626 247.683 218.659 245.411 218.198 243.274 217.92 241.697 215.556 242.293 213.469 242.595 212.077 243.749 210.946 245.113 210.605M227.808 212.05C229.4 211.777 230.892 213.564 230.246 215.085 229.776 216.706 227.432 217.146 226.395 215.821 225.18 214.55 226.087 212.226 227.808 212.05M254.13 212.122C255.549 211.524 257.291 212.759 257.182 214.31 257.239 216.016 255.089 217.193 253.7 216.197 252.127 215.302 252.414 212.67 254.13 212.122M261.487 219.547C260.931 218.504 261.941 217.124 263.09 217.317 263.663 217.307 264.063 217.761 264.43 218.141 264.505 218.759 264.631 219.496 264.122 219.972 263.43 220.853 261.862 220.602 261.487 219.547M219.315 217.607C220.391 216.887 221.938 217.961 221.696 219.225 221.568 220.344 220.168 220.983 219.245 220.348 218.255 219.772 218.292 218.132 219.315 217.607M240.554 219.948C241.961 219.323 243.754 220.556 243.621 222.116 243.725 223.84 241.507 225.034 240.131 223.999 238.603 223.109 238.858 220.494 240.554 219.948M230.717 222.257C231.916 221.622 233.524 222.718 233.415 224.069 233.452 225.178 232.377 226.122 231.29 225.959 230.39 225.939 229.802 225.127 229.513 224.355 229.528 223.512 229.873 222.575 230.717 222.257M250.643 222.276C251.876 221.509 253.628 222.61 253.511 224.054 253.542 225.563 251.562 226.53 250.414 225.538 249.303 224.762 249.439 222.894 250.643 222.276M254.108 230.897C253.559 230.062 254.205 229.057 255.096 228.867 255.812 229.014 256.568 229.555 256.418 230.39 256.314 231.519 254.671 231.866 254.108 230.897M226.602 230.171C226.82 229.509 227.349 228.853 228.123 229.025 229.252 229.106 229.587 230.816 228.599 231.344 227.711 231.946 226.68 231.121 226.602 230.171M239.872 230.931C240.088 229.952 241.347 229.477 242.177 229.996 242.726 230.233 242.886 230.851 243.027 231.375 242.951 231.648 242.884 231.922 242.818 232.195 242.478 232.601 242.042 233.006 241.477 232.991 240.425 233.115 239.477 231.92 239.872 230.931" fill="#FFFFFF" fill-rule="evenodd"/></g></svg>