<svg width="75" height="75" xmlns="http://www.w3.org/2000/svg" xmlns:xlink="http://www.w3.org/1999/xlink" overflow="hidden"><g transform="translate(-524 -169)"><path d="M587.221 180.038C601.6 194.417 601.6 217.731 587.221 232.11 572.842 246.489 549.528 246.489 535.149 232.11 520.77 217.731 520.77 194.417 535.149 180.038 549.528 165.658 572.842 165.658 587.221 180.038Z" fill="#C2A633" fill-rule="evenodd"/><path d="M560.8 186.001 549.6 186.001 549.6 203.807 545 203.807 545 208.169 549.601 208.169 549.601 225.974 562.651 225.974 562.651 225.974C562.651 225.974 581 227.551 581 206.322 580.999 185.437 563.449 186.001 560.8 186.001ZM562.351 218.585 556.95 218.585 556.95 208.169 565.05 208.169 565.05 203.807 556.95 203.807 556.95 193.39 562.099 193.39C564.025 193.39 573.712 194.186 573.728 206.466 573.744 218.746 563.739 218.585 562.351 218.585Z" fill="#FFFFFF" fill-rule="evenodd"/></g></svg>