<svg width="75" height="75" xmlns="http://www.w3.org/2000/svg" xmlns:xlink="http://www.w3.org/1999/xlink" overflow="hidden"><g transform="translate(-748 -169)"><path d="M779.032 186 773.242 207.177 768.654 208.941 767 214.971 771.662 213.427 768.579 225.928 801.97 226 804 217.985 783.694 217.985 786.327 208.352 791.817 206.072 793.396 200.19 788.057 201.954 792.269 186.219Z" fill="#B8B9BB" fill-rule="evenodd"/><path d="M785.5 169.005C805.652 169.017 821.985 185.573 822 206 821.988 226.43 805.654 242.988 785.5 243 765.346 242.988 749.012 226.43 749 206 749.073 185.579 765.355 169 785.5 169L785.5 169.005Z" fill="#B8B9BB" fill-rule="evenodd"/><path d="M779.032 186 773.242 207.177 768.654 208.941 767 214.971 771.662 213.427 768.579 225.928 801.97 226 804 217.985 783.694 217.985 786.327 208.352 791.817 206.072 793.396 200.19 788.057 201.954 792.269 186.219Z" fill="#FFFFFF" fill-rule="evenodd"/></g></svg>