<svg width="75" height="75" xmlns="http://www.w3.org/2000/svg" xmlns:xlink="http://www.w3.org/1999/xlink" overflow="hidden"><defs><linearGradient x1="373.127" y1="69.1556" x2="300.873" y2="143.844" gradientUnits="userSpaceOnUse" spreadMethod="reflect" id="fill0"><stop offset="0" stop-color="#00FFA3"/><stop offset="0.5" stop-color="#6E8FD1"/><stop offset="1" stop-color="#DC1FFF"/></linearGradient></defs><g transform="translate(-300 -69)"><path d="M374 106.5C374 126.658 357.435 143 337 143 316.565 143 300 126.658 300 106.5 300 86.3416 316.565 70 337 70 357.435 70 374 86.3416 374 106.5Z" fill="url(#fill0)" fill-rule="evenodd"/><path d="M319.448 117.49C319.762 117.181 320.193 117 320.651 117L362.148 117C362.906 117 363.285 117.902 362.749 118.43L354.552 126.51C354.238 126.82 353.807 127 353.349 127L311.852 127C311.095 127 310.715 126.098 311.251 125.57L319.448 117.49Z" fill="#FFFFFF" fill-rule="evenodd"/><path d="M319.448 86.49C319.775 86.1806 320.206 86 320.651 86L362.148 86C362.906 86 363.285 86.9017 362.749 87.4304L354.552 95.51C354.238 95.8195 353.807 96.0001 353.349 96.0001L311.852 96.0001C311.095 96.0001 310.715 95.0983 311.251 94.5696L319.448 86.49Z" fill="#FFFFFF" fill-rule="evenodd"/><path d="M354.552 101.539C354.238 101.199 353.807 101 353.349 101L311.852 101C311.095 101 310.715 101.992 311.251 102.573L319.448 111.461C319.762 111.801 320.193 112 320.651 112L362.148 112C362.906 112 363.285 111.008 362.749 110.427L354.552 101.539Z" fill="#FFFFFF" fill-rule="evenodd"/></g></svg>