<svg width="330" height="52" xmlns="http://www.w3.org/2000/svg" xmlns:xlink="http://www.w3.org/1999/xlink" overflow="hidden"><g transform="translate(-553 -298)"><text font-family="Riosark,Riosark_MSFontService,sans-serif" font-weight="700" font-size="37" transform="translate(620.718 338)">CRYPTOORBIT</text><path d="M559 324.5C559 312.074 569.074 302 581.5 302 593.926 302 604 312.074 604 324.5 604 336.926 593.926 347 581.5 347 569.074 347 559 336.926 559 324.5Z" stroke="#FFC000" stroke-width="4" stroke-miterlimit="8" fill="none" fill-rule="evenodd"/><path d="M582 310C586.138 310 589.884 311.623 592.596 314.247L595 317.697 588.049 317.697C586.806 317.697 585.799 318.672 585.799 319.874L585.799 329.125C585.799 330.328 586.806 331.303 588.049 331.303L595 331.303 592.596 334.753C589.884 337.377 586.138 339 582 339 577.862 339 574.116 337.377 571.404 334.753L569 331.303 575.951 331.303C577.194 331.303 578.201 330.328 578.201 329.125L578.201 319.874C578.201 318.672 577.194 317.697 575.951 317.697L569 317.697 571.404 314.247C574.116 311.623 577.862 310 582 310Z" stroke="#FFC000" stroke-width="4" stroke-miterlimit="8" fill="none" fill-rule="evenodd"/><path d="M554 324 574.2 324" stroke="#FFC000" stroke-width="4" stroke-miterlimit="8" fill="none" fill-rule="evenodd"/><path d="M590 324 610.2 324" stroke="#FFC000" stroke-width="4" stroke-miterlimit="8" fill="none" fill-rule="evenodd"/></g></svg>