<svg width="124" height="125" xmlns="http://www.w3.org/2000/svg" xmlns:xlink="http://www.w3.org/1999/xlink" overflow="hidden"><defs><linearGradient x1="-0.692541" y1="122.171" x2="122.308" y2="-0.828814" gradientUnits="userSpaceOnUse" spreadMethod="reflect" id="fill0"><stop offset="0" stop-color="#4C5DB4"/><stop offset="0.5" stop-color="#4B4FAA"/><stop offset="1" stop-color="#4A41A1"/></linearGradient></defs><g transform="translate(-61 -125)"><path d="M57.4624-0.828813 57.4624-0.570951 54.1172-0.570951 54.1172-0.313089 52.5732-0.313089 52.5732-0.0552271 50.772-0.0552271 50.772 0.202635 48.9707 0.202635 48.9707 0.460497 47.6841 0.460497 47.6841 0.718359 46.9121 0.718359 46.9121 0.976221 45.8828 0.976221 45.8828 1.23408 44.8536 1.23408 44.8536 1.49195 43.8243 1.49195 43.8243 1.74981 42.795 1.74981 42.795 2.00767 42.023 2.00767 42.023 2.26553 41.251 2.26553 41.251 2.52339 40.7364 2.52339 40.7364 2.78126 39.9644 2.78126 39.9644 3.03912 39.1925 3.03912 39.1925 3.29698 38.4205 3.29698 38.4205 3.55484 37.9058 3.55484 37.9058 3.8127 37.1339 3.8127 37.1339 4.07057 36.6192 4.07057 36.6192 4.32843 36.1046 4.32843 36.1046 4.58629 35.3326 4.58629 35.3326 4.84415 34.818 4.84415 34.818 5.10201 34.3033 5.10201 34.3033 5.35988 33.7887 5.35988 33.7887 5.61774 33.274 5.61774 33.274 5.8756 32.7594 5.8756 32.7594 6.13346 32.2448 6.13346 32.2448 6.39132 31.7301 6.39132 31.7301 6.64919 31.2155 6.64919 31.2155 6.90705 30.7008 6.90705 30.7008 7.16491 30.4435 7.16491 30.4435 7.42277 29.9288 7.42277 29.9288 7.68063 29.6715 7.68063 29.6715 7.9385 29.1569 7.9385 29.1569 8.19636 28.6422 8.19636 28.6422 8.45422 28.3849 8.45422 28.3849 8.71208 27.8703 8.71208 27.8703 8.96994 27.3556 8.96994 27.3556 9.22781 27.0983 9.22781 27.0983 9.48567 26.5837 9.48567 26.5837 9.74353 26.3263 9.74353 26.3263 10.0014 25.8117 10.0014 25.8117 10.2593 25.5544 10.2593 25.5544 10.5171 25.297 10.5171 25.297 10.775 24.7824 10.775 24.7824 11.0328 24.5251 11.0328 24.5251 11.2907 24.2677 11.2907 24.2677 11.5486 23.7531 11.5486 23.7531 11.8064 23.4958 11.8064 23.4958 12.0643 23.2385 12.0643 23.2385 12.3222 22.7238 12.3222 22.7238 12.58 22.4665 12.58 22.4665 12.8379 22.2092 12.8379 22.2092 13.0957 21.6945 13.0957 21.6945 13.3536 21.4372 13.3536 21.4372 13.6115 21.1799 13.6115 21.1799 13.8693 20.9226 13.8693 20.9226 14.1272 20.6652 14.1272 20.6652 14.385 20.4079 14.385 20.4079 14.6429 20.1506 14.6429 20.1506 14.9008 19.8933 14.9008 19.8933 15.1586 19.3786 15.1586 19.3786 15.4165 19.1213 15.4165 19.1213 15.6744 18.864 15.6744 18.864 15.9322 18.6067 15.9322 18.6067 16.1901 18.3493 16.1901 18.3493 16.4479 18.092 16.4479 18.092 16.7058 17.8347 16.7058 17.8347 16.9637 17.5774 16.9637 17.5774 17.2215 17.32 17.2215 17.32 17.4794 17.0627 17.4794 17.0627 17.7373 16.8054 17.7373 16.8054 17.9951 16.5481 17.9951 16.5481 18.253 16.2907 18.253 16.2907 18.5108 16.0334 18.5108 16.0334 18.7687 15.7761 18.7687 15.7761 19.0266 15.5188 19.0266 15.5188 19.2844 15.2615 19.2844 15.2615 19.8001 15.0041 19.8001 15.0041 20.058 14.7468 20.058 14.7468 20.3159 14.4895 20.3159 14.4895 20.5737 14.2322 20.5737 14.2322 20.8316 13.9748 20.8316 13.9748 21.0895 13.7175 21.0895 13.7175 21.3473 13.4602 21.3473 13.4602 21.6052 13.2029 21.6052 13.2029 22.1209 12.9456 22.1209 12.9456 22.3788 12.6882 22.3788 12.6882 22.6366 12.4309 22.6366 12.4309 23.1524 12.1736 23.1524 12.1736 23.4102 11.9163 23.4102 11.9163 23.6681 11.6589 23.6681 11.6589 24.1838 11.4016 24.1838 11.4016 24.4417 11.1443 24.4417 11.1443 24.6995 10.887 24.6995 10.887 25.2153 10.6297 25.2153 10.6297 25.4731 10.3723 25.4731 10.3723 25.731 10.115 25.731 10.115 26.2467 9.85768 26.2467 9.85768 26.5046 9.60036 26.5046 9.60036 27.0203 9.34304 27.0203 9.34304 27.536 9.08572 27.536 9.08572 27.7939 8.82839 27.7939 8.82839 28.3096 8.57107 28.3096 8.57107 28.8253 8.31375 28.8253 8.31375 29.0832 8.05643 29.0832 8.05643 29.5989 7.7991 29.5989 7.7991 29.8568 7.54178 29.8568 7.54178 30.3725 7.28446 30.3725 7.28446 30.8882 7.02714 30.8882 7.02714 31.1461 6.76981 31.1461 6.76981 31.6618 6.51249 31.6618 6.51249 32.1775 6.25517 32.1775 6.25517 32.6933 5.99785 32.6933 5.99785 33.4668 5.74052 33.4668 5.74052 33.9826 5.4832 33.9826 5.4832 34.4983 5.22588 34.4983 5.22588 35.014 4.96855 35.014 4.96855 35.5297 4.71123 35.5297 4.71123 36.0455 4.45391 36.0455 4.45391 36.5612 4.19659 36.5612 4.19659 37.3348 3.93926 37.3348 3.93926 37.8505 3.68194 37.8505 3.68194 38.6241 3.42462 38.6241 3.42462 39.3977 3.1673 39.3977 3.1673 39.9134 2.90997 39.9134 2.90997 40.687 2.65265 40.687 2.65265 41.4606 2.39533 41.4606 2.39533 42.2341 2.13801 42.2341 2.13801 43.0077 1.88068 43.0077 1.88068 44.0392 1.62336 44.0392 1.62336 45.0706 1.36604 45.0706 1.36604 46.1021 1.10872 46.1021 1.10872 47.1335 0.851393 47.1335 0.851393 48.165 0.594071 48.165 0.594071 49.7122 0.336748 49.7122 0.336748 51.2593 0.0794256 51.2593 0.0794256 53.0644-0.177897 53.0644-0.177897 55.1273-0.43522 55.1273-0.43522 58.9952-0.692542 58.9952-0.692542 62.6053-0.43522 62.6053-0.43522 66.4732-0.177897 66.4732-0.177897 68.5361 0.0794256 68.5361 0.0794256 70.0833 0.336748 70.0833 0.336748 71.8883 0.594071 71.8883 0.594071 73.4355 0.851393 73.4355 0.851393 74.4669 1.10872 74.4669 1.10872 75.4984 1.36604 75.4984 1.36604 76.5298 1.62336 76.5298 1.62336 77.5612 1.88068 77.5612 1.88068 78.5927 2.13801 78.5927 2.13801 79.3663 2.39533 79.3663 2.39533 80.1399 2.65265 80.1399 2.65265 80.9135 2.90997 80.9135 2.90997 81.4292 3.1673 81.4292 3.1673 82.2028 3.42462 82.2028 3.42462 82.9764 3.68194 82.9764 3.68194 83.4921 3.93926 83.4921 3.93926 84.2657 4.19659 84.2657 4.19659 85.0392 4.45391 85.0392 4.45391 85.555 4.71123 85.555 4.71123 86.0707 4.96855 86.0707 4.96855 86.5864 5.22588 86.5864 5.22588 87.1021 5.4832 87.1021 5.4832 87.6179 5.74052 87.6179 5.74052 88.1336 5.99785 88.1336 5.99785 88.6493 6.25517 88.6493 6.25517 89.165 6.51249 89.165 6.51249 89.6808 6.76981 89.6808 6.76981 90.1965 7.02714 90.1965 7.02714 90.7122 7.28446 90.7122 7.28446 91.2279 7.54178 91.2279 7.54178 91.4858 7.7991 91.4858 7.7991 92.0015 8.05643 92.0015 8.05643 92.5173 8.31375 92.5173 8.31375 92.7751 8.57107 92.7751 8.57107 93.2908 8.82839 93.2908 8.82839 93.8066 9.08572 93.8066 9.08572 94.0644 9.34304 94.0644 9.34304 94.5801 9.60036 94.5801 9.60036 95.0959 9.85768 95.0959 9.85768 95.3537 10.115 95.3537 10.115 95.6116 10.3723 95.6116 10.3723 96.1273 10.6297 96.1273 10.6297 96.3852 10.887 96.3852 10.887 96.643 11.1443 96.643 11.1443 97.1588 11.4016 97.1588 11.4016 97.4166 11.6589 97.4166 11.6589 97.6745 11.9163 97.6745 11.9163 98.1902 12.1736 98.1902 12.1736 98.4481 12.4309 98.4481 12.4309 98.7059 12.6882 98.7059 12.6882 99.2217 12.9456 99.2217 12.9456 99.4795 13.2029 99.4795 13.2029 99.7374 13.4602 99.7374 13.4602 100.253 13.7175 100.253 13.7175 100.511 13.9748 100.511 13.9748 100.769 14.2322 100.769 14.2322 101.027 14.4895 101.027 14.4895 101.285 14.7468 101.285 14.7468 101.542 15.0041 101.542 15.0041 101.8 15.2615 101.8 15.2615 102.058 15.5188 102.058 15.5188 102.316 15.7761 102.316 15.7761 102.832 16.0334 102.832 16.0334 103.09 16.2907 103.09 16.2907 103.347 16.5481 103.347 16.5481 103.605 16.8054 103.605 16.8054 103.863 17.0627 103.863 17.0627 104.121 17.32 104.121 17.32 104.379 17.5774 104.379 17.5774 104.637 17.8347 104.637 17.8347 104.895 18.092 104.895 18.092 105.152 18.3493 105.152 18.3493 105.41 18.6067 105.41 18.6067 105.668 18.864 105.668 18.864 105.926 19.3786 105.926 19.3786 106.184 19.6359 106.184 19.6359 106.442 19.8933 106.442 19.8933 106.7 20.1506 106.7 20.1506 106.958 20.4079 106.958 20.4079 107.215 20.6652 107.215 20.6652 107.473 20.9226 107.473 20.9226 107.731 21.1799 107.731 21.1799 107.989 21.4372 107.989 21.4372 108.247 21.9518 108.247 21.9518 108.505 22.2092 108.505 22.2092 108.763 22.4665 108.763 22.4665 109.02 22.9811 109.02 22.9811 109.278 23.2385 109.278 23.2385 109.536 23.4958 109.536 23.4958 109.794 24.0104 109.794 24.0104 110.052 24.2677 110.052 24.2677 110.31 24.5251 110.31 24.5251 110.568 25.0397 110.568 25.0397 110.825 25.297 110.825 25.297 111.083 25.5544 111.083 25.5544 111.341 26.069 111.341 26.069 111.599 26.3263 111.599 26.3263 111.857 26.5837 111.857 26.5837 112.115 27.0983 112.115 27.0983 112.373 27.6129 112.373 27.6129 112.63 27.8703 112.63 27.8703 112.888 28.3849 112.888 28.3849 113.146 28.8996 113.146 28.8996 113.404 29.1569 113.404 29.1569 113.662 29.6715 113.662 29.6715 113.92 30.1862 113.92 30.1862 114.178 30.4435 114.178 30.4435 114.436 30.9581 114.436 30.9581 114.693 31.2155 114.693 31.2155 114.951 31.7301 114.951 31.7301 115.209 32.2448 115.209 32.2448 115.467 33.0167 115.467 33.0167 115.725 33.5314 115.725 33.5314 115.983 34.046 115.983 34.046 116.241 34.5607 116.241 34.5607 116.498 35.0753 116.498 35.0753 116.756 35.5899 116.756 35.5899 117.014 36.1046 117.014 36.1046 117.272 36.6192 117.272 36.6192 117.53 37.1339 117.53 37.1339 117.788 37.9058 117.788 37.9058 118.046 38.6778 118.046 38.6778 118.303 39.4498 118.303 39.4498 118.561 39.9644 118.561 39.9644 118.819 40.7364 118.819 40.7364 119.077 41.5084 119.077 41.5084 119.335 42.2803 119.335 42.2803 119.593 43.0523 119.593 43.0523 119.851 44.0816 119.851 44.0816 120.108 45.1109 120.108 45.1109 120.366 46.1402 120.366 46.1402 120.624 46.9121 120.624 46.9121 120.882 47.9414 120.882 47.9414 121.14 49.4854 121.14 49.4854 121.398 51.2866 121.398 51.2866 121.656 52.8306 121.656 52.8306 121.914 54.6318 121.914 54.6318 122.171 67.2406 122.171 67.2406 121.914 68.7846 121.914 68.7846 121.656 70.5858 121.656 70.5858 121.398 72.3871 121.398 72.3871 121.14 73.6737 121.14 73.6737 120.882 74.703 120.882 74.703 120.624 75.7323 120.624 75.7323 120.366 76.7616 120.366 76.7616 120.108 77.7908 120.108 77.7908 119.851 78.8201 119.851 78.8201 119.593 79.5921 119.593 79.5921 119.335 80.3641 119.335 80.3641 119.077 80.8787 119.077 80.8787 118.819 81.6507 118.819 81.6507 118.561 82.4227 118.561 82.4227 118.303 83.1946 118.303 83.1946 118.046 83.7093 118.046 83.7093 117.788 84.4812 117.788 84.4812 117.53 85.2532 117.53 85.2532 117.272 85.7679 117.272 85.7679 117.014 86.2825 117.014 86.2825 116.756 86.7971 116.756 86.7971 116.498 87.3118 116.498 87.3118 116.241 87.8264 116.241 87.8264 115.983 88.3411 115.983 88.3411 115.725 88.8557 115.725 88.8557 115.467 89.3704 115.467 89.3704 115.209 89.885 115.209 89.885 114.951 90.3997 114.951 90.3997 114.693 90.9143 114.693 90.9143 114.436 91.1716 114.436 91.1716 114.178 91.6863 114.178 91.6863 113.92 92.2009 113.92 92.2009 113.662 92.4582 113.662 92.4582 113.404 92.9729 113.404 92.9729 113.146 93.4875 113.146 93.4875 112.888 93.7448 112.888 93.7448 112.63 94.2595 112.63 94.2595 112.373 94.7741 112.373 94.7741 112.115 95.0315 112.115 95.0315 111.857 95.5461 111.857 95.5461 111.599 95.8034 111.599 95.8034 111.341 96.0608 111.341 96.0608 111.083 96.5754 111.083 96.5754 110.825 96.8327 110.825 96.8327 110.568 97.09 110.568 97.09 110.31 97.6047 110.31 97.6047 110.052 97.862 110.052 97.862 109.794 98.1193 109.794 98.1193 109.536 98.634 109.536 98.634 109.278 98.8913 109.278 98.8913 109.02 99.1486 109.02 99.1486 108.763 99.6633 108.763 99.6633 108.505 99.9206 108.505 99.9206 108.247 100.178 108.247 100.178 107.989 100.435 107.989 100.435 107.731 100.693 107.731 100.693 107.473 101.207 107.473 101.207 107.215 101.465 107.215 101.465 106.958 101.722 106.958 101.722 106.7 101.979 106.7 101.979 106.442 102.236 106.442 102.236 106.184 102.494 106.184 102.494 105.926 102.751 105.926 102.751 105.668 103.008 105.668 103.008 105.41 103.266 105.41 103.266 105.152 103.523 105.152 103.523 104.895 104.038 104.895 104.038 104.637 104.295 104.637 104.295 104.379 104.552 104.379 104.552 104.121 104.81 104.121 104.81 103.605 105.067 103.605 105.067 103.347 105.324 103.347 105.324 103.09 105.582 103.09 105.582 102.832 105.839 102.832 105.839 102.574 106.096 102.574 106.096 102.316 106.354 102.316 106.354 102.058 106.611 102.058 106.611 101.8 106.868 101.8 106.868 101.542 107.126 101.542 107.126 101.285 107.383 101.285 107.383 100.769 107.64 100.769 107.64 100.511 107.898 100.511 107.898 100.253 108.155 100.253 108.155 99.9952 108.412 99.9952 108.412 99.7374 108.67 99.7374 108.67 99.4795 108.927 99.4795 108.927 98.9638 109.184 98.9638 109.184 98.7059 109.442 98.7059 109.442 98.4481 109.699 98.4481 109.699 97.9324 109.956 97.9324 109.956 97.6745 110.214 97.6745 110.214 97.4166 110.471 97.4166 110.471 96.9009 110.728 96.9009 110.728 96.643 110.985 96.643 110.985 96.3852 111.243 96.3852 111.243 95.8695 111.5 95.8695 111.5 95.6116 111.757 95.6116 111.757 95.0959 112.015 95.0959 112.015 94.838 112.272 94.838 112.272 94.3223 112.529 94.3223 112.529 94.0644 112.787 94.0644 112.787 93.5487 113.044 93.5487 113.044 93.033 113.301 93.033 113.301 92.7751 113.559 92.7751 113.559 92.2594 113.816 92.2594 113.816 91.7437 114.073 91.7437 114.073 91.4858 114.331 91.4858 114.331 90.9701 114.588 90.9701 114.588 90.4544 114.845 90.4544 114.845 90.1965 115.103 90.1965 115.103 89.6808 115.36 89.6808 115.36 89.165 115.617 89.165 115.617 88.3915 115.875 88.3915 115.875 87.8757 116.132 87.8757 116.132 87.36 116.389 87.36 116.389 86.8443 116.647 86.8443 116.647 86.3286 116.904 86.3286 116.904 85.8128 117.161 85.8128 117.161 85.2971 117.419 85.2971 117.419 84.7814 117.676 84.7814 117.676 84.0078 117.933 84.0078 117.933 83.2342 118.19 83.2342 118.19 82.7185 118.448 82.7185 118.448 81.9449 118.705 81.9449 118.705 81.1713 118.962 81.1713 118.962 80.3977 119.22 80.3977 119.22 79.882 119.477 79.882 119.477 79.1084 119.734 79.1084 119.734 78.077 119.992 78.077 119.992 77.0455 120.249 77.0455 120.249 76.0141 120.506 76.0141 120.506 74.9826 120.764 74.9826 120.764 73.9512 121.021 73.9512 121.021 72.9197 121.278 72.9197 121.278 71.1147 121.536 71.1147 121.536 69.5675 121.793 69.5675 121.793 67.7625 122.05 67.7625 122.05 64.926 122.308 64.926 122.308 56.6744 122.05 56.6744 122.05 53.8379 121.793 53.8379 121.793 52.0329 121.536 52.0329 121.536 50.2279 121.278 50.2279 121.278 48.6807 121.021 48.6807 121.021 47.3914 120.764 47.3914 120.764 46.3599 120.506 46.3599 120.506 45.5864 120.249 45.5864 120.249 44.5549 119.992 44.5549 119.992 43.5235 119.734 43.5235 119.734 42.492 119.477 42.492 119.477 41.7184 119.22 41.7184 119.22 40.9448 118.962 40.9448 118.962 40.4291 118.705 40.4291 118.705 39.6555 118.448 39.6555 118.448 38.8819 118.19 38.8819 118.19 38.1084 117.933 38.1084 117.933 37.5926 117.676 37.5926 117.676 36.819 117.419 36.819 117.419 36.3033 117.161 36.3033 117.161 35.7876 116.904 35.7876 116.904 35.2719 116.647 35.2719 116.647 34.7561 116.389 34.7561 116.389 33.9826 116.132 33.9826 116.132 33.4668 115.875 33.4668 115.875 32.9511 115.617 32.9511 115.617 32.4354 115.36 32.4354 115.36 31.9197 115.103 31.9197 115.103 31.4039 114.845 31.4039 114.845 30.8882 114.588 30.8882 114.588 30.6304 114.331 30.6304 114.331 30.1146 114.073 30.1146 114.073 29.5989 113.816 29.5989 113.816 29.341 113.559 29.341 113.559 28.8253 113.301 28.8253 113.301 28.5675 113.044 28.5675 113.044 28.0517 112.787 28.0517 112.787 27.536 112.529 27.536 112.529 27.2782 112.272 27.2782 112.272 26.7624 112.015 26.7624 112.015 26.2467 111.757 26.2467 111.757 25.9888 111.5 25.9888 111.5 25.731 111.243 25.731 111.243 25.2153 110.985 25.2153 110.985 24.9574 110.728 24.9574 110.728 24.6995 110.471 24.6995 110.471 24.1838 110.214 24.1838 110.214 23.9259 109.956 23.9259 109.956 23.6681 109.699 23.6681 109.699 23.1524 109.442 23.1524 109.442 22.8945 109.184 22.8945 109.184 22.6366 108.927 22.6366 108.927 22.1209 108.67 22.1209 108.67 21.863 108.412 21.863 108.412 21.6052 108.155 21.6052 108.155 21.0895 107.898 21.0895 107.898 20.8316 107.64 20.8316 107.64 20.5737 107.383 20.5737 107.383 20.3159 107.126 20.3159 107.126 20.058 106.868 20.058 106.868 19.8001 106.611 19.8001 106.611 19.5423 106.354 19.5423 106.354 19.2844 106.096 19.2844 106.096 19.0266 105.839 19.0266 105.839 18.7687 105.582 18.7687 105.582 18.253 105.324 18.253 105.324 17.9951 105.067 17.9951 105.067 17.7373 104.81 17.7373 104.81 17.4794 104.552 17.4794 104.552 17.2215 104.295 17.2215 104.295 16.9637 104.038 16.9637 104.038 16.7058 103.78 16.7058 103.78 16.4479 103.523 16.4479 103.523 16.1901 103.008 16.1901 103.008 15.9322 102.751 15.9322 102.751 15.6744 102.494 15.6744 102.494 15.4165 102.236 15.4165 102.236 15.1586 101.979 15.1586 101.979 14.9008 101.722 14.9008 101.722 14.6429 101.465 14.6429 101.465 14.385 101.207 14.385 101.207 14.1272 100.95 14.1272 100.95 13.8693 100.693 13.8693 100.693 13.6115 100.178 13.6115 100.178 13.3536 99.9206 13.3536 99.9206 13.0957 99.6633 13.0957 99.6633 12.8379 99.4059 12.8379 99.4059 12.58 98.8913 12.58 98.8913 12.3222 98.634 12.3222 98.634 12.0643 98.3767 12.0643 98.3767 11.8064 97.862 11.8064 97.862 11.5486 97.6047 11.5486 97.6047 11.2907 97.3474 11.2907 97.3474 11.0328 96.8327 11.0328 96.8327 10.775 96.5754 10.775 96.5754 10.5171 96.3181 10.5171 96.3181 10.2593 95.8034 10.2593 95.8034 10.0014 95.5461 10.0014 95.5461 9.74353 95.2888 9.74353 95.2888 9.48567 94.7741 9.48567 94.7741 9.22781 94.2595 9.22781 94.2595 8.96994 94.0022 8.96994 94.0022 8.71208 93.4875 8.71208 93.4875 8.45422 92.9729 8.45422 92.9729 8.19636 92.7156 8.19636 92.7156 7.9385 92.2009 7.9385 92.2009 7.68063 91.6863 7.68063 91.6863 7.42277 91.4289 7.42277 91.4289 7.16491 90.9143 7.16491 90.9143 6.90705 90.3997 6.90705 90.3997 6.64919 90.1423 6.64919 90.1423 6.39132 89.6277 6.39132 89.6277 6.13346 89.113 6.13346 89.113 5.8756 88.3411 5.8756 88.3411 5.61774 87.8264 5.61774 87.8264 5.35988 87.3118 5.35988 87.3118 5.10201 86.7971 5.10201 86.7971 4.84415 86.2825 4.84415 86.2825 4.58629 85.7679 4.58629 85.7679 4.32843 85.2532 4.32843 85.2532 4.07057 84.7386 4.07057 84.7386 3.8127 83.9666 3.8127 83.9666 3.55484 83.1946 3.55484 83.1946 3.29698 82.68 3.29698 82.68 3.03912 81.908 3.03912 81.908 2.78126 81.136 2.78126 81.136 2.52339 80.3641 2.52339 80.3641 2.26553 79.8494 2.26553 79.8494 2.00767 79.0775 2.00767 79.0775 1.74981 78.0482 1.74981 78.0482 1.49195 77.0189 1.49195 77.0189 1.23408 75.9896 1.23408 75.9896 0.976221 74.9603 0.976221 74.9603 0.718359 73.931 0.718359 73.931 0.460497 72.6444 0.460497 72.6444 0.202635 71.1005 0.202635 71.1005-0.0552271 69.2992-0.0552271 69.2992-0.313089 67.4979-0.313089 67.4979-0.570951 64.1528-0.570951 64.1528-0.828813" fill="url(#fill0)" fill-rule="evenodd" transform="matrix(1 0 0 -1 62 248)"/><path d="M50.594 17.9463C46.7949 17.9463 43.6763 21.4478 43.6763 25.7442 43.6763 30.0407 46.7258 33.5704 50.594 33.5704 54.4648 33.5704 57.5555 30.0688 57.5146 25.7647 57.471 21.4605 54.4648 17.9463 50.594 17.9463ZM25.0154 17.9463C21.2137 17.9463 18.0948 21.4478 18.0948 25.7442 18.0948 30.0407 21.1446 33.5704 25.0154 33.5704 28.8862 33.5704 31.9766 30.0688 31.941 25.7647 31.9051 21.4605 28.8862 17.9463 25.0154 17.9463ZM64.5296 53.2389C59.4742 55.5775 54.1325 57.2368 48.6472 58.1733 47.9512 56.9487 47.1634 55.3022 46.6132 53.9747 40.7775 54.8492 34.8446 54.8492 29.0115 53.9747 28.3872 55.4075 27.6888 56.8097 26.9213 58.1733 21.4284 57.2394 16.0816 55.5722 11.0236 53.2183 0.999785 38.1909-1.71976 23.5187-0.363815 9.07036 5.52048 4.67364 12.1135 1.3291 19.1259-0.819219 20.7044 1.33154 22.1012 3.6085 23.3039 5.99079 21.0243 6.84749 18.8267 7.90231 16.7312 9.14754 17.2788 9.56424 17.8084 9.98115 18.3201 10.4005 30.6565 4.53204 44.9605 4.53204 57.297 10.4005 57.8216 9.96818 58.3639 9.54621 58.9064 9.13985 56.8085 7.88954 54.6057 6.82946 52.321 5.97013 53.5209 3.59047 54.9177 1.31614 56.4989-0.826917 63.5139 1.31351 70.1069 4.66068 75.9887 9.0651 77.5749 25.8135 73.246 40.352 64.5296 53.2389" fill="#FFFFFF" fill-rule="evenodd" transform="matrix(1 0 0 -1 85 216)"/></g></svg>