<svg width="76" height="68" xmlns="http://www.w3.org/2000/svg" xmlns:xlink="http://www.w3.org/1999/xlink" overflow="hidden"><defs><clipPath id="clip0"><rect x="524" y="72" width="76" height="68"/></clipPath></defs><g clip-path="url(#clip0)" transform="translate(-524 -72)"><path d="M591 137 528 137C526.343 137 525 135.644 525 133.972L525 93.0281C525 91.3555 526.343 90 528 90L591 90C592.657 90 594 91.3559 594 93.0281L594 133.972C594 135.644 592.657 137 591 137Z" fill="#4D378C" fill-rule="evenodd"/><path d="M575.493 75.2334C582.735 80.3135 584.488 90.3024 579.407 97.5445 574.327 104.786 564.338 106.539 557.096 101.459 549.854 96.3789 548.102 86.3898 553.182 79.1478 558.262 71.9058 568.251 70.1533 575.493 75.2334Z" fill="#FFA840" fill-rule="evenodd"/><path d="M581.677 85 555 100.096C555.688 100.795 556.441 101.434 557.254 102L582 87.997C581.982 86.9817 581.871 85.9791 581.677 85Z" fill="#FFC943" fill-rule="evenodd"/><path d="M581 82.835C579.733 79.1371 577.146 75.9492 573.632 74L550.037 86.9729C549.762 91.0066 551.02 94.9247 553.419 98L581 82.835Z" fill="#FFC943" fill-rule="evenodd"/><path d="M572.447 76.8461C578.797 80.2505 581.185 88.158 577.78 94.508 574.376 100.858 566.468 103.246 560.118 99.8415 553.769 96.4371 551.381 88.5296 554.785 82.1796 558.19 75.8296 566.097 73.4417 572.447 76.8461Z" fill="#FFC943" fill-rule="evenodd"/><path d="M571.445 77.0787C577.668 79.9311 580.4 87.2879 577.547 93.5102 574.695 99.7326 567.338 102.465 561.116 99.6121 554.893 96.7597 552.161 89.403 555.014 83.1806 557.866 76.9582 565.223 74.2263 571.445 77.0787Z" fill="#FF833E" fill-rule="evenodd"/><path d="M577.799 85 557 96.3343C557.213 96.5642 557.433 96.7861 557.663 97L578 85.9176C577.945 85.6084 577.878 85.3029 577.799 85Z" fill="#FFA840" fill-rule="evenodd"/><path d="M574.935 79 554 90.7787C554.35 92.6739 555.108 94.4547 556.202 96.0001L578 83.7363C577.332 81.9504 576.291 80.3288 574.935 79Z" fill="#FFA840" fill-rule="evenodd"/><path d="M571.333 90.4471C571.114 90.0208 570.802 89.6355 570.407 89.2868 570.786 89.2043 571.133 89.0851 571.436 88.9109 572.134 88.5083 572.604 87.9075 572.846 87.1064 573.035 86.4781 573.05 85.86 572.891 85.252 572.73 84.6444 572.396 84.1003 571.889 83.6203 571.564 83.3124 571.158 83.0581 570.688 82.8463L571.378 80.5595 569.064 79.8966 568.394 82.1163 568.091 82.0298 567.579 81.8831 568.249 79.6629 565.936 79 565.266 81.2202 564.093 80.8838 561.937 80.266 561.256 82.5204 563.412 83.1382 560.836 91.6752 558.68 91.0574 558 93.3118 560.156 93.9295 561.329 94.2656 560.975 95.4406 563.288 96.1035 563.643 94.9285 564.458 95.1622 564.103 96.3372 566.417 97.0001 566.79 95.7611C567.38 95.8496 567.937 95.8563 568.452 95.7645 569.228 95.6253 569.883 95.3212 570.416 94.8517 570.95 94.3822 571.324 93.7903 571.54 93.0759 571.821 92.1402 571.752 91.2636 571.333 90.4471ZM568.589 84.6222C569.082 84.7636 569.444 84.9977 569.675 85.3246 569.906 85.6515 569.949 86.0556 569.804 86.5357 569.655 87.029 569.393 87.3518 569.017 87.5049 568.641 87.6584 568.207 87.664 567.713 87.523L565.476 86.8819 566.351 83.9807 568.589 84.6222ZM567.775 93.1222C567.346 93.3603 566.841 93.3965 566.259 93.2298L564.835 92.8215 563.775 92.518 564.812 89.0809 567.296 89.7928C567.687 89.9049 567.997 90.0739 568.224 90.3 568.452 90.5254 568.602 90.7899 568.676 91.092 568.75 91.3937 568.736 91.7113 568.636 92.0443 568.491 92.5239 568.204 92.8833 567.775 93.1222Z" fill="#AD4825" fill-rule="evenodd"/><path d="M594 140 531 140C529.343 140 528 138.644 528 136.972L528 96.028C528 94.3555 529.343 93 531 93L594 93C595.657 93 597 94.3559 597 96.028L597 136.972C597 138.644 595.657 140 594 140Z" fill="#6636CE" fill-rule="evenodd"/><path d="M593.695 137 531.305 137C530.585 137 530 136.416 530 135.698L530 96.302C530 95.584 530.585 95 531.305 95L593.696 95C594.415 95 595 95.584 595 96.3016L595 135.698C595 136.416 594.415 137 593.695 137ZM531.305 95.3708C530.79 95.3708 530.372 95.7885 530.372 96.302L530.372 135.698C530.372 136.212 530.79 136.629 531.305 136.629L593.695 136.629C594.21 136.629 594.629 136.212 594.629 135.698L594.629 96.3016C594.629 95.7881 594.21 95.3708 593.696 95.3708L531.305 95.3708Z" fill="#8F78FF" fill-rule="evenodd"/><path d="M570 110 599 110 599 122 570 122Z" fill="#8F78FF" fill-rule="evenodd"/><path d="M581 116C581 118.209 579.209 120 577 120 574.791 120 573 118.209 573 116 573 113.791 574.791 112 577 112 579.209 112 581 113.791 581 116Z" fill="#6636CE" fill-rule="evenodd"/><path d="M580 116C580 117.657 578.657 119 577 119 575.343 119 574 117.657 574 116 574 114.343 575.343 113 577 113 578.657 113 580 114.343 580 116Z" fill="#FFA840" fill-rule="evenodd"/><path d="M579 116C579 117.105 578.105 118 577 118 575.896 118 575 117.105 575 116 575 114.895 575.896 114 577 114 578.105 114 579 114.895 579 116Z" fill="#FFC943" fill-rule="evenodd"/></g></svg>