<svg width="75" height="75" xmlns="http://www.w3.org/2000/svg" xmlns:xlink="http://www.w3.org/1999/xlink" overflow="hidden"><g transform="translate(-748 -69)"><path d="M791.29 70.204C811.369 73.4251 825.035 92.3141 821.814 112.393 818.593 132.473 799.704 146.139 779.625 142.918 759.545 139.697 745.879 120.808 749.1 100.729 752.321 80.6492 771.21 66.9828 791.29 70.204Z" fill="#E84142" fill-rule="evenodd"/><path d="M774.743 121 767.546 121C766.033 121 765.287 121 764.83 120.717 764.339 120.406 764.038 119.892 764.001 119.324 763.974 118.8 764.348 118.161 765.095 116.884L782.866 86.3755C783.622 85.0795 784.005 84.4321 784.487 84.1928 785.007 83.9357 785.626 83.9357 786.145 84.1928 786.627 84.4321 787.01 85.0806 787.767 86.3755L791.419 92.587 791.438 92.6184C792.254 94.0084 792.668 94.7128 792.85 95.4525 793.05 96.2598 793.05 97.1112 792.85 97.9196 792.667 98.6651 792.258 99.3744 791.429 100.786L782.094 116.857 782.07 116.899C781.248 118.299 780.831 119.01 780.254 119.546 779.626 120.132 778.869 120.558 778.04 120.798 777.285 121 776.438 121 774.743 121Z" fill="#FFFFFF" fill-rule="evenodd"/><path d="M793.473 121 803.519 121C805.002 121 805.748 121 806.191 120.709 806.67 120.4 806.972 119.878 806.999 119.314 807.024 118.81 806.668 118.199 805.97 117.001 805.946 116.96 805.922 116.919 805.898 116.877L800.865 108.311 800.808 108.215C800.101 107.024 799.744 106.424 799.285 106.192 798.78 105.936 798.185 105.936 797.679 106.192 797.218 106.43 796.845 107.057 796.108 108.32L791.093 116.885 791.076 116.915C790.342 118.175 789.975 118.805 790.001 119.322 790.037 119.887 790.33 120.408 790.809 120.717 791.246 121 791.991 121 793.473 121Z" fill="#FFFFFF" fill-rule="evenodd"/></g></svg>