<svg width="75" height="75" xmlns="http://www.w3.org/2000/svg" xmlns:xlink="http://www.w3.org/1999/xlink" overflow="hidden"><g transform="translate(-75 -169)"><path d="M113 169C133.435 169 150 185.565 150 206 150 226.435 133.435 243 113 243 92.5652 243 76 226.435 76 206 76 185.565 92.5652 169 113 169" fill="#F0B90B" fill-rule="evenodd"/><path d="M103.51 202 109.072 196.604 110.245 195.462 113.025 192.756 122.49 202 128 196.604 113.025 182 98 196.604Z" fill="#FFFFFF" fill-rule="evenodd"/><path d="M107.182 206.059 112.728 200.513 118.274 206.059 112.728 211.604Z" fill="#FFFFFF" fill-rule="evenodd"/><path d="M122.49 210 113.022 219.695 109.697 216.29 109.085 215.664 103.51 210 98 215.642 113.025 231 128 215.642Z" fill="#FFFFFF" fill-rule="evenodd"/><path d="M88.1643 206.074 93.7101 200.528 99.2558 206.074 93.7101 211.62Z" fill="#FFFFFF" fill-rule="evenodd"/><path d="M126.168 206.073 131.714 200.528 137.26 206.073 131.714 211.619Z" fill="#FFFFFF" fill-rule="evenodd"/></g></svg>