<svg width="75" height="75" xmlns="http://www.w3.org/2000/svg" xmlns:xlink="http://www.w3.org/1999/xlink" overflow="hidden"><g transform="translate(-187 -69)"><path d="M233.162 70.7038C252.971 75.3037 265.3 95.0909 260.7 114.9 256.1 134.709 236.313 147.038 216.504 142.438 196.695 137.838 184.366 118.051 188.965 98.2421 193.565 78.4331 213.353 66.1038 233.162 70.7038Z" fill="#627EEA" fill-rule="evenodd"/><path d="M226 79 226 99.3245 243 107 226 79Z" fill="#FFFFFF" fill-rule="evenodd" fill-opacity="0.6"/><path d="M226 79 209 107 226 99.3245 226 79Z" fill="#FFFFFF" fill-rule="evenodd"/><path d="M226 120.063 226 134 243 110 226 120.063Z" fill="#FFFFFF" fill-rule="evenodd" fill-opacity="0.6"/><path d="M226 134 226 120.062 209 110 226 134Z" fill="#FFFFFF" fill-rule="evenodd"/><path d="M226 117 243 106.825 226 99 226 117Z" fill="#FFFFFF" fill-rule="evenodd" fill-opacity="0.2"/><path d="M209 106.825 226 117 226 99 209 106.825Z" fill="#FFFFFF" fill-rule="evenodd" fill-opacity="0.6"/></g></svg>