<svg width="75" height="75" xmlns="http://www.w3.org/2000/svg" xmlns:xlink="http://www.w3.org/1999/xlink" overflow="hidden"><g transform="translate(-412 -169)"><path d="M455.319 169.793C475.358 173.252 488.798 192.301 485.339 212.34 481.88 232.378 462.831 245.819 442.792 242.36 422.754 238.901 409.313 219.852 412.772 199.813 416.231 179.774 435.28 166.334 455.319 169.793Z" fill="#E6007A" fill-rule="evenodd"/><path d="M460 183C460 186.314 455.075 189 449 189 442.925 189 438 186.314 438 183 438 179.686 442.925 177 449 177 455.075 177 460 179.686 460 183Z" fill="#FFFFFF" fill-rule="evenodd"/><path d="M460 229C460 232.314 455.075 235 449 235 442.925 235 438 232.314 438 229 438 225.686 442.925 223 449 223 455.075 223 460 225.686 460 229Z" fill="#FFFFFF" fill-rule="evenodd"/><path d="M423.176 191.475C426.093 186.503 430.841 183.826 433.782 185.497 436.723 187.169 436.742 192.553 433.824 197.525 430.907 202.497 426.159 205.174 423.218 203.503 420.277 201.832 420.258 196.447 423.176 191.475Z" fill="#FFFFFF" fill-rule="evenodd"/><path d="M464.178 214.477C467.096 209.505 471.845 206.827 474.784 208.496 477.724 210.166 477.741 215.551 474.823 220.523 471.905 225.496 467.155 228.173 464.217 226.503 461.277 224.834 461.259 219.45 464.178 214.477Z" fill="#FFFFFF" fill-rule="evenodd"/><path d="M423.218 208.497C426.159 206.826 430.908 209.503 433.825 214.475 436.742 219.447 436.723 224.832 433.783 226.503 430.842 228.174 426.093 225.497 423.176 220.525 420.258 215.553 420.277 210.169 423.218 208.497Z" fill="#FFFFFF" fill-rule="evenodd"/><path d="M464.216 185.497C467.156 183.827 471.905 186.504 474.823 191.476 477.741 196.449 477.724 201.833 474.784 203.504 471.844 205.173 467.095 202.496 464.177 197.524 461.259 192.55 461.276 187.166 464.216 185.497Z" fill="#FFFFFF" fill-rule="evenodd"/></g></svg>