<svg width="75" height="75" xmlns="http://www.w3.org/2000/svg" xmlns:xlink="http://www.w3.org/1999/xlink" overflow="hidden"><g transform="translate(-636 -169)"><path d="M699.34 180.038C713.72 194.417 713.72 217.731 699.34 232.11 684.961 246.489 661.647 246.489 647.268 232.11 632.889 217.731 632.889 194.417 647.268 180.038 661.647 165.658 684.961 165.658 699.34 180.038Z" fill="#172852" fill-rule="evenodd"/><path d="M666.275 185.298C670.537 183.623 675.333 183.619 679.673 184.996 685.324 186.839 690.094 191.32 692.588 196.945 693.276 198.547 693.934 200.218 694 202 690.823 200.065 687.341 198.811 683.852 197.668 678.27 195.554 672.425 194.085 667.142 191.179 665.911 190.406 664.343 189.615 664.009 188.006 663.874 186.613 665.275 185.837 666.275 185.298" fill="#FFD83D" fill-rule="evenodd"/><path d="M653.231 198.719C654.483 195.386 656.535 192.293 659.323 190 660.032 195.719 662.513 201.247 666.612 205.405 671.526 210.414 678.526 213.49 685.648 213.374 688.476 213.461 691.242 212.82 694 212.302 691.287 221.923 680.539 228.308 670.581 226.772 664.57 226.019 659.02 222.528 655.672 217.597 651.895 212.149 650.942 204.915 653.231 198.719Z" fill="#FFD83D" fill-rule="evenodd"/><path d="M684 198C687.59 199.095 691.172 200.296 694.439 202.149L694.66 202.262C694.963 204.492 695.185 206.766 694.78 209 693.136 208.319 691.804 207.121 690.412 206.063 687.732 203.881 684.995 201.384 684 198" fill="#FF6F03" fill-rule="evenodd"/></g></svg>