<svg width="75" height="75" xmlns="http://www.w3.org/2000/svg" xmlns:xlink="http://www.w3.org/1999/xlink" overflow="hidden"><g transform="translate(-412 -69)"><path d="M449 70C469.434 70 486 86.3423 486 106.5 486 126.658 469.433 143 449 143 428.567 143 412 126.662 412 106.5 412 86.3383 428.564 70 449 70" fill="#53AE94" fill-rule="evenodd"/><path d="M453.472 101.769 453.472 96.3126 465.803 96.3126 465.803 88 432.226 88 432.226 96.3126 444.558 96.3126 444.558 101.764C434.536 102.23 427 104.238 427 106.643 427 109.048 434.54 111.057 444.558 111.525L444.558 129 453.475 129 453.475 111.523C463.48 111.056 471 109.049 471 106.646 471 104.243 463.479 102.236 453.475 101.769M453.475 110.045 453.475 110.04C453.224 110.056 451.931 110.135 449.053 110.135 446.753 110.135 445.133 110.069 444.563 110.039L444.563 110.046C435.708 109.65 429.1 108.089 429.1 106.223 429.1 104.356 435.71 102.798 444.563 102.4L444.563 108.492C445.143 108.531 446.802 108.631 449.092 108.631 451.841 108.631 453.223 108.515 453.477 108.492L453.477 102.401C462.314 102.799 468.908 104.361 468.908 106.221 468.908 108.081 462.311 109.643 453.477 110.041" fill="#FFFFFF" fill-rule="evenodd"/></g></svg>