<svg width="75" height="75" xmlns="http://www.w3.org/2000/svg" xmlns:xlink="http://www.w3.org/1999/xlink" overflow="hidden"><g transform="translate(-524 -69)"><path d="M561 143C581.505 143 598 126.728 598 106.5 598 86.2719 581.505 70 561 70 540.495 70 524 86.2719 524 106.5 524 126.729 540.495 143 561 143Z" fill="#2775CA" fill-rule="evenodd"/><path d="M571 111.95C571 106.578 567.865 104.735 561.595 103.965 557.115 103.35 556.22 102.123 556.22 99.9744 556.22 97.8259 557.714 96.445 560.699 96.445 563.387 96.445 564.881 97.3666 565.626 99.6692 565.777 100.13 566.225 100.436 566.672 100.436L569.062 100.436C569.661 100.436 570.109 99.9755 570.109 99.36L570.109 99.2048C569.51 95.8265 566.822 93.2176 563.39 92.9115L563.39 89.2269C563.39 88.6115 562.942 88.1511 562.197 88L559.958 88C559.359 88 558.912 88.4603 558.765 89.2269L558.765 92.7574C554.285 93.3728 551.448 96.4419 551.448 100.282 551.448 105.348 554.432 107.346 560.703 108.111 564.885 108.878 566.229 109.798 566.229 112.256 566.229 114.714 564.139 116.401 561.302 116.401 557.421 116.401 556.077 114.714 555.629 112.41 555.478 111.795 555.031 111.489 554.583 111.489L552.046 111.489C551.448 111.489 551 111.949 551 112.564L551 112.719C551.599 116.559 553.985 119.322 558.912 120.089L558.912 123.773C558.912 124.389 559.359 124.849 560.105 125L562.344 125C562.942 125 563.39 124.54 563.537 123.773L563.537 120.089C568.011 119.319 571 116.095 571 111.95L571 111.95Z" fill="#FFFFFF" fill-rule="evenodd"/><path d="M553.09 128.849C540.989 124.478 534.782 110.899 539.284 98.8824 541.611 92.3268 546.73 87.3338 553.09 84.993 553.712 84.6817 554.021 84.2138 554.021 83.4314L554.021 81.2473C554.021 80.6216 553.712 80.1536 553.09 80 552.933 80 552.625 80 552.468 80.1576 537.731 84.8404 529.662 100.603 534.317 115.432 537.109 124.171 543.782 130.884 552.468 133.693 553.09 134.004 553.708 133.693 553.865 133.067 554.021 132.91 554.021 132.756 554.021 132.441L554.021 130.257C554.02 129.786 553.555 129.165 553.09 128.849ZM569.532 80.1536C568.91 79.8424 568.292 80.1536 568.136 80.7792 567.979 80.937 567.979 81.0906 567.979 81.4049L567.979 83.5891C567.979 84.2147 568.444 84.8363 568.91 85.1507 581.011 89.5221 587.218 103.101 582.716 115.118 580.389 121.673 575.27 126.666 568.91 129.007 568.288 129.318 567.979 129.786 567.979 130.569L567.979 132.753C567.979 133.379 568.288 133.846 568.91 134 569.067 134 569.375 134 569.532 133.842 584.269 129.16 592.338 113.397 587.683 98.568 584.89 89.6756 578.066 82.9634 569.532 80.1536L569.532 80.1536Z" fill="#FFFFFF" fill-rule="evenodd"/></g></svg>