<svg width="75" height="75" xmlns="http://www.w3.org/2000/svg" xmlns:xlink="http://www.w3.org/1999/xlink" overflow="hidden"><g transform="translate(-636 -69)"><path d="M679.166 70.2053C699.245 73.4265 712.912 92.3154 709.69 112.395 706.469 132.474 687.58 146.141 667.501 142.919 647.422 139.698 633.755 120.809 636.976 100.73 640.198 80.6505 659.086 66.9842 679.166 70.2053Z" fill="#23292F" fill-rule="evenodd"/><path d="M691.602 85 699 85 683.603 100.729C678.024 106.424 668.986 106.424 663.407 100.729L648 85 655.408 85 667.107 96.9444C670.656 100.554 676.345 100.554 679.894 96.9444L691.602 85Z" fill="#FFFFFF" fill-rule="evenodd"/><path d="M655.381 128 648 128 663.44 112.251C668.998 106.583 678.002 106.583 683.561 112.251L699 128 691.629 128 679.876 116.009C676.339 112.416 670.672 112.416 667.135 116.009L655.381 128Z" fill="#FFFFFF" fill-rule="evenodd"/></g></svg>