<svg version="1.1" id="svg2" width="5333.3335" height="5333.3335" viewBox="0 0 5333.3335 5333.3335" sodipodi:docname="10848390_2152.eps" xmlns:inkscape="http://www.inkscape.org/namespaces/inkscape" xmlns:sodipodi="http://sodipodi.sourceforge.net/DTD/sodipodi-0.dtd" xmlns="http://www.w3.org/2000/svg" xmlns:svg="http://www.w3.org/2000/svg">
  <defs id="defs6"></defs>
  <sodipodi:namedview id="namedview4" pagecolor="#ffffff" bordercolor="#000000" borderopacity="0.25" inkscape:showpageshadow="2" inkscape:pageopacity="0.0" inkscape:pagecheckerboard="0" inkscape:deskcolor="#d1d1d1"></sodipodi:namedview>
  <g id="g8" inkscape:groupmode="layer" inkscape:label="ink_ext_XXXXXX" transform="matrix(1.3333333,0,0,-1.3333333,0,5333.3333)">
    <g id="g10" transform="scale(0.1)">
      
      <path d="m 32100.5,20303.5 c 0,-6238.9 -5057.6,-11296.6 -11296.5,-11296.6 -6238.9,0 -11296.59,5057.7 -11296.59,11296.6 0,6238.9 5057.69,11296.5 11296.59,11296.5 6238.9,0 11296.5,-5057.6 11296.5,-11296.5" style="fill: rgb(93, 252, 160); fill-opacity: 1; fill-rule: nonzero; opacity: 1;" id="path14" data-index="1"></path>
      <path d="M 29686.2,25705 26809,13589 26430.3,11994.7 25844.9,9530.5 C 25565.4,8355.2 24386.5,7628.6 23211.2,7908.1 l -10045.5,2385.2 c -1175.2,279.5 -1901.9,1458.4 -1622.4,2633.7 l 3031.9,12766.8 809.4,3407.7 c 31.4,131.5 74,257.8 126.6,377.3 416.5,948.1 1462.8,1493.3 2506.6,1245.2 l 10045.4,-2385.2 c 1175.3,-279.5 1901.9,-1458.4 1623,-2633.8" style="fill: rgb(151, 108, 255); fill-opacity: 1; fill-rule: nonzero; opacity: 1;" id="path16" data-index="2"></path>
      <path d="m 23716.7,8023.4 c -153.4,0 -309.3,17.7 -464.9,54.7 l -10045.7,2385.7 c -629.3,149.5 -1119.4,581.2 -1367.8,1129.2 -0.9,4 -1.7,8 -2.5,12.1 1380.8,351.9 2537,1271.5 3204.6,2494.6 l 869.5,-1425.2 c 25,-40.9 65.3,-70.2 112,-81.3 l 5865.4,-1393 -5960.3,901.5 c -722,-1021 -1849.5,-1283 -2541,-1342.5 l 9456,-2245 c 169.9,-40.3 340.1,-59.7 507.4,-59.7 990.4,0 1887.9,676.6 2126.6,1682.2 l 586,2464.5 378.5,1594.5 165.8,698.2 255.4,-323.6 -1187.3,-4999.5 C 25454.9,8647 24627.4,8023.3 23716.7,8023.4 M 28102,19793 c -89.8,72.4 -185.7,136.9 -286.8,192.8 l 1501.8,6325.4 c 64.3,270.7 75.3,541.5 39.9,801.3 212.7,-422.4 269.4,-901.3 158.8,-1366.9 L 28102,19793" style="fill:#694bd4;fill-opacity:1;fill-rule:nonzero;stroke:none" id="path18" data-index="3"></path>
      <path d="m 11838.3,11593 c -1.7,3.8 -3.4,7.6 -5.2,11.4 0.8,0.2 1.9,0.5 2.7,0.7 0.8,-4.1 1.6,-8.1 2.5,-12.1" style="fill:#bbaeec;fill-opacity:1;fill-rule:nonzero;stroke:none" id="path20" data-index="4"></path>
      <path d="m 13739.7,20493.9 c -60.9,48.5 -123,95.6 -186,141.3 l 2001,8426 c 124.2,522.9 444.6,966.2 902.2,1248.2 321.4,198 683.4,299.9 1051.7,299.9 156,0 313.1,-18.3 468.7,-55.3 l 3091.7,-734.3 c -51.2,-34.2 -103.8,-64.5 -158.3,-90.9 l -2584.2,613.8 c -169.8,40.3 -339.7,59.6 -506.9,59.6 -990,0 -1887.6,-677.1 -2126.4,-1682.6 l -1953.5,-8225.7 m 15019.9,7332 c -122.5,54.6 -251.8,98.7 -387.1,130.8 l -3359,797.8 c -19.6,25.6 -38.3,52.1 -56.1,79.3 -15.4,23.7 -30.2,48 -44.3,73 l 3109.9,-738.6 c 270.6,-64.2 519.9,-181.1 736.6,-342.3" style="fill:#d0bdff;fill-opacity:1;fill-rule:nonzero;stroke:none" id="path22" data-index="5"></path>
      <path d="m 23251.8,8078.1 c 1079.3,-256.4 2166.2,413.2 2422.6,1492.7 l 3841.3,16174.8 c 124.2,523 37.3,1062.9 -244.6,1520.5 -282,457.6 -725.2,778 -1248.1,902.1 L 17977.3,30554 c -523,124.3 -1062.9,37.3 -1520.4,-244.6 -457.6,-282 -778,-725.3 -902.2,-1248.2 L 11713.4,12886.4 c -256.4,-1079.5 413.3,-2166.3 1492.7,-2422.6 L 23251.8,8078.1 m 465,-404.8 c -180.2,0 -363.1,20.8 -545.9,64.2 l -10045.6,2385.8 c -1267.3,300.9 -2053.4,1576.7 -1752.4,2844 l 3841.3,16174.8 c 145.8,613.8 521.9,1134.2 1059.1,1465.2 537.1,331 1171.1,433 1784.9,287.2 l 10045.6,-2385.7 c 613.9,-145.8 1134.3,-522 1465.3,-1059.1 330.9,-537.1 432.9,-1171.1 287.1,-1784.9 L 26014.9,9489.9 C 25757.3,8405.4 24785.8,7673.3 23716.8,7673.3" style="fill:#000072;fill-opacity:1;fill-rule:nonzero;stroke:none" id="path24" data-index="6"></path>
      <path d="m 15482.5,16523.5 c 0,-2706.5 -2194,-4900 -4900,-4900 -495,0 -972.47,73.5 -1422.97,210.5 h -0.5 l -3170.5,-889.5 874.01,2390.5 c -735.5,856.5 -1179.5,1970.5 -1179.5,3188.5 0,2706 2193.49,4899.5 4899.46,4899.5 2706,0 4900,-2193.5 4900,-4899.5" style="fill: rgb(25, 175, 249); fill-opacity: 1; fill-rule: nonzero; opacity: 1;" id="path26" data-index="7"></path>
      <path d="m 6523.96,11899.3 502.93,1375.6 c 21.75,59.5 9.67,126.1 -31.59,174.1 -733.38,854 -1137.25,1945.9 -1137.25,3074.5 0,2605.1 2119.38,4724.5 4724.45,4724.5 190.7,0 378.6,-11.4 563.4,-33.4 -17.1,0.2 -34.2,0.3 -51.4,0.3 -2705.97,0 -4899.47,-2193.5 -4899.47,-4899.5 0,-1218 443.99,-2332 1179.5,-3188.5 l -393.81,-1077.4 -456.76,-150.2" style="fill:#afe3fd;fill-opacity:1;fill-rule:nonzero;stroke:none" id="path28" data-index="8"></path>
      <path d="m 6718.09,11331 262.63,718.5 1803.81,592.9 h 0.5 c 389.12,-99.9 796.11,-152.8 1214.39,-152.8 71.88,0 144.08,1.6 216.58,4.8 1834.8,80.7 3389.5,1160.3 4162.1,2691 l 449.2,-736.4 c -769.5,-1568.4 -2383.1,-2650.5 -4244.8,-2650.5 -467.7,0 -929.29,68.3 -1372.04,202.9 -16.53,5.1 -33.87,7.6 -51.19,7.6 -16.06,0 -32.11,-2.2 -47.49,-6.5 L 6718.09,11331" style="fill: rgb(17, 122, 208); fill-opacity: 1; fill-rule: nonzero; opacity: 1;" id="path30" data-index="9"></path>
      <path d="m 6270.2,11205.3 253.76,694 456.76,150.2 -262.63,-718.5 -447.89,-125.7" style="fill:#7a9ed3;fill-opacity:1;fill-rule:nonzero;stroke:none" id="path32" data-index="10"></path>
      <path d="m 10582.5,21248 c -2605.07,0 -4724.45,-2119.4 -4724.45,-4724.5 0,-1128.6 403.87,-2220.5 1137.25,-3074.5 41.26,-48 53.34,-114.6 31.59,-174.1 l -756.69,-2069.6 2841.58,797.2 c 31.98,9 66.82,8.6 98.68,-1.1 442.75,-134.6 904.34,-202.9 1372.04,-202.9 2605.4,0 4725,2119.6 4725,4725 0,2605.1 -2119.6,4724.5 -4725,4724.5 M 5988.53,10769.5 c -48.04,0 -94.82,19.8 -128.41,56.1 -44.6,48.2 -58.5,117.4 -35.94,179 l 839.21,2295.3 c -745.82,905.3 -1155.35,2045.9 -1155.35,3223.6 0,2798.1 2276.42,5074.5 5074.46,5074.5 2798.4,0 5075,-2276.4 5075,-5074.5 0,-2798.3 -2276.6,-5075 -5075,-5075 -484.9,0 -963.98,68.4 -1424.7,203.4 L 6035.81,10776 c -15.6,-4.3 -31.51,-6.5 -47.28,-6.5" style="fill: rgb(0, 0, 114); fill-opacity: 1; fill-rule: nonzero; opacity: 1;" id="path34" data-index="11"></path>
      <path d="M 16726,28572.7 13838.7,16415 l 2224.8,-3646.7 8068.1,-1916.1 c 311.2,-73.9 623.2,118.4 697.1,429.6 L 28283.3,25827.9 16726,28572.7" style="fill: rgb(255, 255, 255); fill-opacity: 1; fill-rule: nonzero; opacity: 1;" id="path36" data-index="12"></path>
      <path d="m 16079.4,12790.2 8058,-1913.7 c 143.9,-34.1 292.6,-10.3 418.6,67.4 126,77.6 214.2,199.6 248.4,343.6 l 3448.8,14521.9 -11508.6,2733.2 -2879.2,-12123.3 2214,-3629.1 m 8187.2,-1978.9 c -46.9,0 -94,5.5 -140.8,16.6 l -8078.2,1918.5 -2235.6,3664.4 2.4,10 2893.1,12182 24.3,-5.8 11581.6,-2750.5 -5.8,-24.3 L 24853.1,11276 c -37.3,-157 -133.5,-290.1 -270.8,-374.7 -96.5,-59.4 -205.2,-90 -315.7,-90" style="fill:#000072;fill-opacity:1;fill-rule:nonzero;stroke:none" id="path38" data-index="13"></path>
      <path d="m 16178.1,12926.1 7995.1,-1898.8 c 103.7,-24.6 210.8,-7.4 301.5,48.5 90.8,55.9 154.3,143.8 178.9,247.6 l 3413,14371 -11207.1,2661.6 -2828.6,-11910.5 2147.2,-3519.4 m 8088.8,-2269.8 c -58.9,0 -118.2,6.9 -176.9,20.8 l -8068.1,1916.1 c -46.7,11.1 -87,40.4 -112,81.3 l -2224.8,3646.8 c -24.8,40.5 -32.5,89.1 -21.5,135.3 l 2887.3,12157.7 c 11,46.4 40.1,86.6 80.7,111.6 40.6,25.1 89.6,32.9 136,21.9 l 11557.3,-2744.7 c 46.5,-11.1 86.6,-40.1 111.6,-80.7 25.1,-40.7 32.9,-89.6 21.9,-136 L 25003.8,11240.2 c -46.8,-197.3 -167.7,-364.5 -340.2,-470.8 -121.3,-74.7 -257.8,-113.1 -396.7,-113.1" style="fill:#000072;fill-opacity:1;fill-rule:nonzero;stroke:none" id="path40" data-index="14"></path>
      <path d="m 14206.8,16147.7 1784.7,-2925.4 418.6,1762.8 c 38.4,161.7 11.5,328.6 -75.6,470.1 -87.2,141.4 -224.2,240.5 -385.9,278.9 l -1741.8,413.6 m 1856.7,-3554.4 c -60.4,0 -117.3,31.2 -149.4,83.8 l -2224.8,3646.8 c -36.8,60.3 -33.7,136.8 7.8,194 41.5,57.1 113.3,83.6 182,67.4 l 2150.4,-510.7 c 252.6,-60 466.8,-214.8 603,-435.9 136.2,-221 178.1,-481.9 118.1,-734.5 l -516.8,-2176.3 c -16.4,-69 -72.8,-121.3 -142.9,-132.5 -9.1,-1.4 -18.3,-2.1 -27.4,-2.1" style="fill:#000072;fill-opacity:1;fill-rule:nonzero;stroke:none" id="path42" data-index="15"></path>
      <path d="m 15993.1,13229.2 -1779.5,2916.9 1735,-412 c 161.7,-38.4 298.7,-137.5 385.9,-278.9 87.1,-141.5 114,-308.4 75.6,-470.1 l -417,-1755.9" style="fill:#bdc0d2;fill-opacity:1;fill-rule:nonzero;stroke:none" id="path44" data-index="16"></path>
      <path d="m 15991.5,13222.3 -1784.7,2925.4 6.8,-1.6 1779.5,-2916.9 -1.6,-6.9" style="fill:#0b0e70;fill-opacity:1;fill-rule:nonzero;stroke:none" id="path46" data-index="17"></path>
      <path d="m 16030,12809.8 -2162,3543.6 2092,-496.8 c 200.7,-47.6 370.8,-170.6 479,-346.2 108.2,-175.5 141.5,-382.7 93.8,-583.4 L 16030,12809.8 m -1823.2,3337.9 1784.7,-2925.4 1.6,6.9 417,1755.9 c 38.4,161.7 11.5,328.6 -75.6,470.1 -87.2,141.4 -224.2,240.5 -385.9,278.9 l -1735,412 -6.8,1.6" style="fill:#0b0e70;fill-opacity:1;fill-rule:nonzero;stroke:none" id="path48" data-index="18"></path>
      <path d="m 16050.6,12680 -2287.7,3749.8 2208.7,-524.5 c 213.6,-50.8 394.7,-181.7 509.9,-368.6 115.2,-187 150.7,-407.6 100,-621.2 L 16050.6,12680 m -2182.6,3673.4 2162,-3543.6 502.8,2117.2 c 47.7,200.7 14.4,407.9 -93.8,583.4 -108.2,175.6 -278.3,298.6 -479,346.2 l -2092,496.8" style="fill:#000072;fill-opacity:1;fill-rule:nonzero;stroke:none" id="path50" data-index="19"></path>
      <path d="m 17662.8,12573.5 -1387.4,329.5 475.2,2001.2 c 2.8,11.5 5.3,23 7.6,34.5 l 612.3,-145.5 c 428.5,-101.5 693.5,-531 591.5,-959.5 l -299.2,-1260.2" style="fill:#b2b2d4;fill-opacity:1;fill-rule:nonzero;stroke:none" id="path52" data-index="20"></path>
      <path d="m 17621.5,12399.7 -739,180 -646.5,157.5 39.4,165.8 1387.4,-329.5 -41.3,-173.8" style="fill: rgb(0, 0, 114); fill-opacity: 1; fill-rule: nonzero; opacity: 1;" id="path54" data-index="21"></path>
      <path d="m 16236,12737.2 -127.5,31 179.5,785.5 325,1419.5 145.2,-34.5 c -2.3,-11.5 -4.8,-23 -7.6,-34.5 l -475.2,-2001.2 -39.4,-165.8" style="fill:#000072;fill-opacity:1;fill-rule:nonzero;stroke:none" id="path56" data-index="22"></path>
      <path d="m 27737.8,24309.7 -11207.1,2661.6 257,1082.2 11207.1,-2661.5 -257,-1082.3" style="fill:#b2b2d4;fill-opacity:1;fill-rule:nonzero;stroke:none" id="path58" data-index="23"></path>
      <path d="m 27860.8,24280.5 -123,29.2 257,1082.3 123.1,-29.3 -257.1,-1082.2 m -11330.1,2690.8 -175.1,41.6 257,1082.2 175.1,-41.6 -257,-1082.2" style="fill:#000072;fill-opacity:1;fill-rule:nonzero;stroke:none" id="path60" data-index="24"></path>
      <path d="m 23059.3,29610.2 c -331.7,78.8 -536.6,411.2 -457.8,743 78.8,331.7 411.3,536.5 743,457.7 331.7,-78.7 536.5,-411.2 457.8,-742.9 -78.8,-331.7 -411.3,-536.6 -743,-457.8 m 5551.3,-2839.5 c -248.3,403.6 -650.7,712.1 -1148.5,830.4 l -1165.2,276.7 c -1387.4,329.5 -1886.5,987.6 -1765.4,2492.1 103.3,648.9 -309.7,1277.6 -959.6,1432 -616.9,146.5 -1235.3,-185 -1467.1,-754.1 -1.3,-2.9 -2.6,-6.3 -3.8,-9.2 -572.5,-1467.1 -1316.1,-1851.8 -2730.5,-1515.9 l -1147.2,272.5 c -995.1,236.3 -1992.7,-378.8 -2228.9,-1373.4 l 12841.1,-3049.6 c 118.1,497.3 23.4,995.5 -224.9,1398.5" style="fill: rgb(181, 180, 191); fill-opacity: 1; fill-rule: nonzero; stroke: none; opacity: 1;" id="path62" data-index="25"></path>
      <path d="m 23201.9,30802.7 c -268,0 -511.5,-183.5 -576.1,-455.3 -36.5,-154 -11,-312.9 72,-447.5 82.9,-134.6 213.3,-228.8 367.3,-265.4 317.6,-75.6 637.4,121.6 712.9,439.3 75.4,317.6 -121.7,637.4 -439.3,712.8 -45.8,10.9 -91.7,16.1 -136.8,16.1 m 0,-1234.3 c -49,0 -98.7,5.6 -148.4,17.5 -166.9,39.6 -308.4,141.8 -398.3,287.8 -90,146 -117.6,318.3 -78,485.2 81.8,344.5 428.6,558.4 773.1,476.4 344.4,-81.9 558.1,-428.6 476.3,-773.1 -70,-294.7 -334.1,-493.8 -624.7,-493.8 m -7177.2,-1128.1 12792.1,-3038 c 104.3,467 23.9,947.3 -227.5,1355.3 v 0 c -255.6,415.4 -657.9,706.3 -1133,819.1 l -1165.2,276.7 c -1421.4,337.6 -1905.1,1020.2 -1784.5,2518.5 101.8,639.7 -311.4,1256.2 -940.5,1405.6 -590.9,140.3 -1209.3,-177.3 -1438.2,-739.2 l -3.9,-9.5 c -569,-1457.9 -1316.8,-1872.9 -2759.3,-1530.4 l -1147.2,272.5 c -971.5,230.8 -1949.7,-365.2 -2192.8,-1330.6 m 12829.4,-3098.2 -24.4,5.7 -12865.4,3055.5 5.8,24.3 c 239,1006.5 1252.2,1631 2259,1391.9 l 1147.2,-272.4 c 1411.5,-335.3 2143.7,71.4 2701.4,1500.6 l 4,9.8 c 241.9,593.7 871,917.3 1496,768.7 654.3,-155.5 1084.1,-796.8 978.5,-1460.2 -117.8,-1465.2 355.5,-2133.6 1746.5,-2463.9 l 1165.2,-276.7 c 488.1,-116 901.4,-414.8 1163.9,-841.6 v 0 c 262.8,-426.4 343.8,-929.9 228,-1417.4 l -5.7,-24.3" style="fill:#000072;fill-opacity:1;fill-rule:nonzero;stroke:none" id="path64" data-index="26"></path>
      <path d="m 16359.3,28515 -145.4,34.5 c 44.9,128.4 104.2,248.2 175.8,358.3 152.8,235.3 361.7,426.2 603.5,558.1 241.9,131.9 516.3,204.8 800.6,204.8 128.2,0 258.5,-14.8 389.1,-45.8 l 1147.2,-272.5 c 321.7,-76.3 614.3,-117.8 884.7,-117.9 0.1,0 0.2,0 0.4,0 238.2,0 459.5,32.7 664.2,103.4 153.5,52.9 297.3,127.3 430.2,222.9 99.8,71.6 193.6,155.1 281.8,249.9 132.3,142.3 252.1,310.1 363.1,503.6 110.6,193.2 212.5,412.3 308.8,658.9 0.7,1.7 1.3,3.1 1.7,4.1 l 0.7,1.8 0.2,0.5 0.1,0.1 0.8,2 c 83.9,206 226.5,375.7 403.5,494.4 177.1,118.5 387.9,185.3 607.5,185.3 v 0 c 83.6,0 168.4,-9.6 253.6,-29.8 101.8,-24.2 196.5,-61.7 283,-110.2 -2.9,0.7 -5.9,1.4 -8.8,2.1 -98.6,23.4 -197.1,34.6 -294.2,34.6 -510.3,0 -977.9,-310.2 -1172.7,-788.6 -1.2,-2.8 -3,-5.9 -4.3,-9.2 -446,-1143 -995.8,-1628.9 -1885.9,-1628.9 -252.3,0 -531.9,39 -844.2,113.2 l -1147.1,272.4 c -143.9,34.2 -287.9,50.6 -429.6,50.6 -709.4,0 -1362.1,-410.4 -1668.3,-1052.6 m 7076.9,800.3 c -47.3,0 -95.3,5.5 -143.3,16.9 -78.8,18.7 -150.4,51.7 -212.9,95.7 41,-6.4 82,-9.6 122.5,-9.6 89.8,0 177.5,15.4 259.7,44 123.3,43.1 234.4,115.9 323.2,212.4 88.7,96.3 154.9,216.8 187.1,352.8 13.3,55.9 20.3,112.1 21.5,167.6 57.4,-121.9 75.4,-263.6 41.8,-405.2 -67.4,-283.8 -320.3,-474.6 -599.6,-474.6" style="fill: rgb(222, 221, 226); fill-opacity: 1; fill-rule: nonzero; opacity: 1;" id="path66" data-index="27"></path>
      <path d="m 23059.3,29610.2 40.4,170.2 c -51.2,12.2 -97.6,32.6 -138.9,59.4 -61.9,40.2 -112.3,95.3 -147.1,159.2 -34.9,63.9 -54,136.1 -54.1,210.9 0.1,33.8 3.9,68.1 12.2,102.8 12.2,51.3 32.5,97.7 59.3,138.9 40.2,61.9 95.3,112.3 159.2,147.2 63.9,34.9 136.2,54 211,54 33.7,0 68.1,-3.9 102.7,-12.1 51.3,-12.2 97.7,-32.5 139,-59.3 61.9,-40.2 112.3,-95.3 147.1,-159.2 34.9,-63.9 54,-136.2 54,-211 0,-33.8 -3.9,-68.1 -12.1,-102.8 -12.2,-51.2 -32.5,-97.6 -59.3,-138.9 -40.2,-61.9 -95.3,-112.3 -159.2,-147.2 -63.9,-34.8 -136.2,-54 -211,-54 -33.7,0 -68.1,3.9 -102.8,12.1 l -40.4,-170.2 -40.4,-170.3 c 61.3,-14.5 122.9,-21.6 183.6,-21.6 89.8,0 177.5,15.4 259.7,44 123.3,43.1 234.4,115.9 323.2,212.4 88.7,96.3 154.9,216.8 187.1,352.8 14.6,61.3 21.6,123 21.6,183.7 0,89.8 -15.3,177.5 -44,259.7 -43,123.3 -115.8,234.4 -212.3,323.2 -96.4,88.7 -216.9,154.9 -352.9,187.1 -61.3,14.6 -122.9,21.6 -183.6,21.6 -89.8,0 -177.5,-15.4 -259.7,-44 -123.4,-43 -234.5,-115.9 -323.2,-212.3 -88.7,-96.4 -154.9,-216.9 -187.2,-352.9 -14.5,-61.3 -21.5,-123 -21.5,-183.7 0,-89.8 15.3,-177.5 44,-259.7 43,-123.3 115.8,-234.4 212.3,-323.1 96.4,-88.7 216.9,-154.9 352.9,-187.2 l 40.4,170.3 m 5551.3,-2839.5 149,91.7 c -135.8,220.8 -313.8,415.6 -526.1,571.5 -212.3,156 -459,272.9 -730.9,337.4 l -1165.3,276.7 c -304.3,72.3 -559.8,159.9 -769.5,265.9 -157.3,79.4 -288.9,168.8 -398.4,270 -82.2,75.9 -152.3,158.5 -212,249.9 -89.4,137.1 -156,294.6 -200.9,480.6 -44.9,185.9 -67.5,400.3 -67.5,646.7 0,123.5 5.7,255 16.9,394.8 l -174.4,14 172.8,-27.5 c 12.1,76 18,151.8 18,226.8 0,327 -111.7,638.2 -306.1,887.3 -97.2,124.6 -215.3,233.8 -350.6,321.8 -135.3,87.9 -287.8,154.5 -453.3,193.8 -111.8,26.6 -224,39.4 -334.5,39.3 -290.8,0 -569.1,-88.4 -802.3,-244.6 -233.1,-156.1 -421.9,-380.7 -532.8,-653 l 162.1,-66 -161.3,68 c -1.2,-3 -2.1,-5.2 -2.8,-6.8 l -0.7,-1.8 -0.2,-0.4 v -0.2 l -1.8,-4.4 c -108.6,-278.3 -222.5,-513.5 -343.4,-708 -90.6,-145.9 -185.2,-268.9 -284.2,-371.1 -74.3,-76.8 -151.2,-141.9 -231.6,-196.7 -120.6,-82.3 -249,-141.9 -391.2,-181.9 -142.2,-39.9 -298.4,-60 -472.8,-60 -234.2,-0.1 -500.9,36.5 -803.9,108.5 l -1147.2,272.4 c -157.2,37.4 -314.7,55.3 -469.9,55.3 -459.1,0 -896.1,-156.9 -1245.9,-429.9 -175,-136.6 -328.3,-302.3 -451.7,-492.2 -123.4,-189.9 -216.9,-404 -272.1,-636.4 -22.3,-94 35.8,-188.3 129.9,-210.7 l 12841.1,-3049.6 c 44.8,-10.6 93,-2.9 132.2,21.3 39.2,24.2 67.8,63.7 78.5,108.5 37.3,157.1 55.2,314.6 55.2,469.7 0,381.4 -108.3,747.7 -301.4,1061.1 v -0.1 l -149,-91.7 -149,-91.8 c 159.9,-259.6 249.4,-562.5 249.4,-877.5 0,-128.1 -14.8,-258.3 -45.8,-388.8 l 170.3,-40.4 40.4,170.2 -12841.1,3049.6 -40.4,-170.2 170.3,-40.4 c 45.8,193 123,369.6 225,526.4 152.8,235.3 361.7,426.2 603.5,558.1 241.9,131.9 516.3,204.8 800.6,204.8 128.2,0 258.5,-14.8 389.1,-45.8 l 1147.2,-272.5 c 321.7,-76.3 614.3,-117.8 884.7,-117.9 238.3,0 459.8,32.7 664.6,103.4 153.5,52.9 297.3,127.3 430.2,222.9 99.8,71.6 193.6,155.1 281.8,249.9 132.3,142.3 252.1,310.1 363.1,503.6 110.9,193.7 213,413.3 309.5,660.7 l -163,63.6 161.2,-68 c 1.3,3 2.2,5.2 2.8,6.7 l 0.7,1.8 0.2,0.5 0.1,0.1 0.8,2 c 83.9,206 226.5,375.7 403.5,494.4 177.1,118.6 387.9,185.4 607.5,185.3 83.6,0 168.4,-9.6 253.6,-29.8 126.1,-30 241.2,-80.3 343.5,-146.8 153.3,-99.6 277.8,-235.9 363.8,-393.7 86.1,-157.8 133.6,-336.7 133.6,-521.9 0,-56.8 -4.5,-114.1 -13.6,-171.7 l -1.7,-13.5 c -11.9,-147.9 -18,-288.7 -18,-422.9 0,-317.2 34.2,-598.1 109.6,-848.2 56.5,-187.5 136.5,-357.3 241.5,-508.6 78.6,-113.5 171.1,-216.4 276.5,-308.8 158.3,-138.6 345.3,-253.3 559.9,-349.4 214.7,-96.1 457.3,-173.8 729.9,-238.6 l 1165.3,-276.7 c 225.9,-53.7 429.2,-150.2 604.6,-279 175.4,-128.8 322.8,-290 435.2,-472.8 l 0.1,-0.1 149,91.8" style="fill:#000072;fill-opacity:1;fill-rule:nonzero;stroke:none" id="path68" data-index="28"></path>
      <path d="m 23807.8,27463.9 c -305.3,0 -730.5,55.5 -1191.5,165 -873.2,207.4 -1544.4,529.8 -1499.2,720.2 13.9,58.5 90.6,83.2 215.5,83.2 281,0 806.3,-124.7 1410.7,-268.3 873.2,-207.3 1581.1,-375.5 1535.8,-565.9 -21.3,-89.8 -198.4,-134.2 -471.3,-134.2" style="fill:#c8c7cf;fill-opacity:1;fill-rule:nonzero;stroke:none" id="path70" data-index="29"></path>
      <path d="m 17350.6,25086.3 6068.8,-1441.2 c 94,-22.4 188.3,35.8 210.7,129.8 22.3,94 -35.8,188.4 -129.9,210.7 l -6068.7,1441.3 c -94.1,22.3 -188.4,-35.8 -210.7,-129.9 -22.4,-94 35.7,-188.3 129.8,-210.7" style="fill:#000072;fill-opacity:1;fill-rule:nonzero;stroke:none" id="path72" data-index="30"></path>
      <path d="m 15786.4,18001.6 6068.8,-1441.2 c 94,-22.4 188.4,35.8 210.7,129.8 22.3,94 -35.8,188.4 -129.8,210.7 l -6068.8,1441.3 c -94.1,22.3 -188.4,-35.8 -210.7,-129.9 -22.4,-94 35.8,-188.3 129.8,-210.7" style="fill: rgb(0, 0, 114); fill-opacity: 1; fill-rule: nonzero; opacity: 1;" id="path74" data-index="31"></path>
      <path d="m 16870.3,23448.3 7909.8,-1923.6 c 93.9,-22.8 188.5,34.8 211.4,128.7 22.8,93.9 -34.8,188.6 -128.7,211.4 L 16953,23788.4 c -93.9,22.8 -188.6,-34.8 -211.4,-128.7 -22.9,-93.9 34.8,-188.6 128.7,-211.4" style="fill:#000072;fill-opacity:1;fill-rule:nonzero;stroke:none" id="path76" data-index="32"></path>
      <path d="m 10195.8,14613.1 h 406.3 c 139.1,0 251.8,-112.8 251.8,-251.8 V 13955 c 0,-139.1 -112.7,-251.8 -251.8,-251.8 h -406.3 c -139,0 -251.76,112.7 -251.76,251.8 v 406.3 c 0,139 112.76,251.8 251.76,251.8 m -208.83,1038.6 c 0,394.8 94.43,746.7 463.53,1270.3 420.6,600.9 532.2,970 532.2,1424.9 0,429.2 -171.7,592.3 -472.1,592.3 -300.5,0 -472.1,-163.1 -472.1,-592.3 v -458.3 c 0,-107.2 -86.92,-194.1 -194.08,-194.1 H 9339.8 c -107.17,0 -194.04,86.9 -194.04,194.1 v 398.2 c 0,961.4 463.53,1510.7 1381.94,1510.7 918.5,0 1399.1,-549.3 1399.1,-1510.7 0,-523.6 -163,-961.4 -626.6,-1579.4 -369.1,-497.8 -489.2,-789.6 -489.2,-1090.1 v -69.9 c 0,-141.5 -114.7,-256.2 -256.2,-256.2 h -311.6 c -141.5,0 -256.23,114.7 -256.23,256.2 v 104.3" style="fill:#976cff;fill-opacity:1;fill-rule:nonzero;stroke:none" id="path78" data-index="33"></path>
      <path d="m 10024.3,13770.7 c -49.43,45.9 -80.27,111.4 -80.27,184.2 v 406.4 c 0,61.5 22.01,117.8 58.67,161.5 -36.63,-43.7 -58.66,-100 -58.66,-161.5 V 13955 c 0,-72.8 30.88,-138.4 80.26,-184.3 m 752.8,3690.1 c 156.2,319.6 205.4,583.8 205.4,886.1 0,241.4 -54.4,398.8 -155.3,490.1 101.1,-91.3 155.5,-248.6 155.5,-490.1 0,-302.2 -49.3,-566.5 -205.6,-886.1 m -1246.57,233.6 h -190.5 c -107.5,0 -194.51,87 -194.51,193.9 v 398.6 c 0,553 153.53,969.6 458.66,1223.7 -305.07,-254.2 -458.42,-670.8 -458.42,-1223.8 v -398.2 c 0,-107.2 86.87,-194.1 194.04,-194.1 h 190.51 c 0.07,0 0.14,-0.1 0.22,-0.1" style="fill:#afe3fd;fill-opacity:1;fill-rule:nonzero;stroke:none" id="path80" data-index="34"></path>
      <path d="M 10366.5,13703.4 H 10196 c -66.4,0 -126.8,25.5 -171.7,67.3 -49.38,45.9 -80.26,111.5 -80.26,184.3 v 406.3 c 0,61.5 22.03,117.8 58.66,161.5 46.1,55.1 115.5,90 193.3,90 h 406 c 54.5,0 105,-16.9 146,-46.9 h -234.5 c -139,0 -252,-113 -252,-252 v -406 c 0,-84.6 41.5,-159.1 105,-204.5 m 45.5,1587.9 h -169 c -141.5,0 -255.97,114.6 -255.97,256.1 v 104.5 c 0,394.5 94.47,746.4 463.47,1270 141.2,201.7 247.6,377.4 326.6,538.9 156.3,319.6 205.6,583.9 205.6,886.1 0,241.5 -54.4,398.8 -155.5,490.1 -22.2,20.1 -46.6,37 -73.2,50.9 23.5,2.9 48.5,4 74,4 300.5,0 472,-163 472,-592.5 0,-454.5 -111.5,-824 -532,-1424.5 -369,-523.6 -463.5,-875.5 -463.5,-1270.5 v -104.5 c 0,-86.1 42.5,-162 107.5,-208.6 m -881.69,2403.2 H 9339.8 c -107.17,0 -194.04,86.9 -194.04,194.1 v 398.2 c 0,553 153.35,969.6 458.42,1223.8 225.35,187.7 533.42,286.7 923.32,286.7 162.5,0 311.5,-16.9 446.5,-50.9 -41.5,2.4 -84.5,4 -128.5,4 -918.48,0 -1381.97,-549.5 -1381.97,-1511 v -398.1 c 0,-58.8 25.91,-111.3 66.78,-146.8" style="fill:#dbccff;fill-opacity:1;fill-rule:nonzero;stroke:none" id="path82" data-index="35"></path>
      <path d="M 16507.7,21711.5 24417.5,19788 c 93.9,-22.8 188.5,34.8 211.4,128.7 22.8,93.9 -34.8,188.5 -128.7,211.4 l -7909.8,1923.5 c -93.9,22.8 -188.5,-34.8 -211.4,-128.7 -22.8,-93.9 34.8,-188.5 128.7,-211.4" style="fill:#000072;fill-opacity:1;fill-rule:nonzero;stroke:none" id="path84" data-index="36"></path>
      <path d="m 10510.6,19114.2 c 295.2,0 647.1,-133.1 647.1,-767.3 0,-531.4 -147.6,-930.6 -563.9,-1525.2 -359.6,-510.3 -431.8,-825.9 -431.8,-1170 v -104.4 c 0,-44.7 36.4,-81.2 81.2,-81.2 h 311.6 c 44.8,0 81.2,36.5 81.2,81.2 v 70 c 0,355.8 141.9,679.5 523.7,1194.4 431.8,575.7 592.1,975.3 592.1,1475.1 0,886.3 -411.8,1335.7 -1224.1,1335.7 -800.86,0 -1206.94,-449.4 -1206.94,-1335.7 v -398.2 c 0,-10.5 8.52,-19 19.02,-19 h 504.64 c 10.5,0 19.04,8.5 19.04,19 v 458.3 c 0,634.2 351.94,767.3 647.14,767.3 z m 44.2,-3998.1 h -311.6 c -237.8,0 -431.22,193.5 -431.22,431.2 v 104.4 c 0,401.1 84.25,787.8 495.42,1371.1 420.5,600.7 500.3,928.8 500.3,1324.1 0,385.4 -140.6,417.3 -297.1,417.3 -156.6,0 -297.1,-31.9 -297.1,-417.3 v -458.3 c 0,-203.5 -165.6,-369 -369.08,-369 h -504.64 c -203.46,0 -369.02,165.5 -369.02,369 v 398.2 c 0,1071.3 567.48,1685.7 1556.94,1685.7 1000.4,0 1574.1,-614.4 1574.1,-1685.7 0,-577.3 -185.5,-1049.6 -661.6,-1684.4 -378.1,-510 -454.2,-755.2 -454.2,-985.1 v -70 c 0,-237.7 -193.4,-431.2 -431.2,-431.2 z m -359,-678 c -42.3,0 -76.8,-34.5 -76.8,-76.8 V 13955 c 0,-42.4 34.5,-76.8 76.8,-76.8 h 406.4 c 42.3,0 76.7,34.4 76.7,76.8 v 406.3 c 0,42.3 -34.4,76.8 -76.7,76.8 z m 406.4,-909.9 h -406.4 c -235.31,0 -426.77,191.5 -426.77,426.8 v 406.3 c 0,235.3 191.46,426.8 426.77,426.8 h 406.4 c 235.3,0 426.7,-191.5 426.7,-426.8 V 13955 c 0,-235.3 -191.4,-426.8 -426.7,-426.8" style="fill:#000072;fill-opacity:1;fill-rule:nonzero;stroke:none" id="path86" data-index="37"></path>
      <path d="m 7826.85,14383.8 c -497.46,0 -953.47,601 -1035.42,1385.1 -85.47,817.7 268.28,1524.8 790.11,1579.4 21.53,2.2 42.34,3.3 62.32,3.3 464.34,0 520.23,-597.8 602.16,-1381.7 85.47,-817.7 166.83,-1528.2 -355,-1582.8 -21.43,-2.2 -42.86,-3.3 -64.17,-3.3" style="fill:#53c3fb;fill-opacity:1;fill-rule:nonzero;stroke:none" id="path88" data-index="38"></path>
      <path d="m 33681.8,12512.5 -5402.7,6847.1 c -69.1,87.6 -145.7,168.5 -229,241 l -0.3,0.4 c -190.3,167.7 -414.2,294.8 -658.5,372.1 l -1431.3,452.1 -838,265.4 c -240.7,75.7 -481.7,-114.4 -464,-366.1 l 62.8,-877.1 106.9,-1497.1 c 17,-233.1 77.9,-459.6 178.3,-667.6 l 0.3,-0.3 c 57.5,-119.7 128.5,-233.1 211.5,-338.3 l 5381.4,-6820 c 668.4,-847.1 1926.5,-1016.1 2769.5,-342.6 416.7,333.2 661.1,802.5 719.1,1294.7 58.1,495.5 -72.4,1013.6 -406,1436.3" style="fill:#ffbe06;fill-opacity:1;fill-rule:nonzero;stroke:none" id="path90" data-index="39"></path>
      <path d="m 33681.8,12512.5 -493.7,625.7 -3061.2,-2415.5 472.3,-598.6 c 668.4,-847.1 1926.5,-1016.1 2769.5,-342.6 416.7,333.2 661.1,802.5 719.1,1294.7 58.1,495.5 -72.4,1013.6 -406,1436.3" style="fill:#fe4a27;fill-opacity:1;fill-rule:nonzero;stroke:none" id="path92" data-index="40"></path>
      <path d="m 30162,10718.5 456.8,-578.9 c 321.3,-407.2 804.8,-675.2 1326.5,-735.1 513.6,-58.9 1013.9,81.9 1407.8,396.6 398.1,318.3 650.2,772.2 709.9,1278.1 59.8,510.9 -82.5,1014.4 -400.8,1417.8 l -478.2,606.1 -3022,-2384.6 m 2012.1,-1377.1 c -77.7,0 -155.9,4.4 -234.5,13.5 -534.8,61.4 -1030.5,336.1 -1360,753.7 l -487.8,618.2 3100.5,2446.5 509.2,-645.3 c 326.5,-413.9 472.6,-930.5 411.1,-1454.7 -61.2,-519 -319.8,-984.6 -728.2,-1311.3 -344.2,-275 -767.1,-420.6 -1210.3,-420.6" style="fill:#000072;fill-opacity:1;fill-rule:nonzero;stroke:none" id="path94" data-index="41"></path>
      <path d="m 28050.1,19600.6 -0.3,0.4 c -190.3,167.7 -414.2,294.8 -658.5,372.1 l -1431.3,452.1 -838,265.4 c -240.7,75.7 -481.7,-114.4 -464,-366.1 l 62.8,-877.1 106.9,-1497.1 c 17,-233.1 77.9,-459.6 178.3,-667.6 l 0.3,-0.3 c 396.8,-234.1 1062.6,-169.8 1104.5,514.8 779.8,-315.9 1285.4,146.8 1164.3,918.6 566.4,-204.5 997.7,355.5 775,884.8" style="fill:#ffdc9c;fill-opacity:1;fill-rule:nonzero;stroke:none" id="path96" data-index="42"></path>
      <path d="m 25027.1,17301.8 c 237.5,-137.1 538.2,-153.5 750.8,-40.5 184.5,98 290.2,283.9 305.8,537.6 l 2.3,37.8 35.1,-14.3 c 355.6,-144.1 669.3,-130 883,39.6 213.3,169.3 302.3,478.9 244.1,849.6 l -7.2,45.5 43.3,-15.7 c 235,-84.7 469.9,-35.8 628.5,131.2 173.2,182.4 217.8,461.7 114.2,712.7 -186.1,163.1 -403.8,285.9 -644,361.8 l -2269.3,717.5 c -105.9,33.5 -216.6,13.1 -303.7,-55.6 -87.1,-68.8 -132.6,-171.8 -124.8,-282.6 l 169.6,-2374.2 c 16.6,-226.9 74.6,-445.7 172.3,-650.4 m 429.5,-169.4 c -157.7,0 -322.1,42.7 -464.1,126.5 l -11,12 c -102.8,213 -163.7,440.9 -181,677.4 l -169.6,2374.3 c -9,127.2 45.4,250.2 145.4,329.1 99.9,78.9 232.3,103.2 353.8,64.9 l 2269.4,-717.5 c 248.1,-78.5 473,-205.6 668.3,-377.7 l 7.4,-10.2 c 114.5,-272.2 66.3,-576.8 -122.9,-776.1 -164.3,-173 -402.4,-230.9 -644.1,-158.9 47.6,-371.2 -49.8,-681.9 -270.3,-856.9 -222.7,-176.7 -542.2,-197.9 -902.8,-60.9 -30.8,-320.2 -195.9,-473.1 -331.6,-545.2 -101.9,-54.1 -222.3,-80.8 -346.9,-80.8" style="fill:#390075;fill-opacity:1;fill-rule:nonzero;stroke:none" id="path98" data-index="43"></path>
      <path d="m 33271.1,9934.1 c 104.1,205.6 170.2,426.9 196.9,653.1 58.1,495.5 -72.4,1013.5 -405.9,1436.3 l -478.3,606 478.6,377.6 478.2,-606 c 292.6,-371 423.5,-834 368.5,-1303.7 -54.2,-459.2 -280.5,-871.6 -638,-1163.3" style="fill:#b1343e;fill-opacity:1;fill-rule:nonzero;stroke:none" id="path100" data-index="44"></path>
      <path d="m 31701.1,13748.2 -3915.5,4962.3 c 61,30.8 117.2,72.5 166.7,124.6 107.7,113.4 169.7,261.1 182,417.4 1.2,-1.4 2.3,-2.8 3.5,-4.3 l 4041.9,-5122.4 -478.6,-377.6" style="fill:#b28527;fill-opacity:1;fill-rule:nonzero;stroke:none" id="path102" data-index="45"></path>
      <path d="m 27751,18754.3 -91.7,116.3 c -69.1,87.5 -145.7,168.5 -229,241 l -0.3,0.4 c -190.3,167.6 -414.2,294.8 -658.5,372 l -1431.3,452.1 -216.8,68.7 -36.4,507.9 2249.9,-711.4 c 289.9,-91.6 545.9,-258.9 745.3,-486.3 1,-165.4 -57.2,-324.2 -169.4,-442.4 -47.7,-50.3 -102.3,-89.8 -161.8,-118.3" style="fill:#b29a8f;fill-opacity:1;fill-rule:nonzero;stroke:none" id="path104" data-index="46"></path>
      <path d="m 27785.6,18710.5 -34.6,43.8 c 59.5,28.5 114.1,68 161.8,118.3 112.2,118.2 170.4,277 169.4,442.4 17.8,-20.3 35.2,-41.2 52.1,-62.5 -12.3,-156.3 -74.3,-304 -182,-417.4 -49.5,-52.1 -105.7,-93.8 -166.7,-124.6" style="fill:#280074;fill-opacity:1;fill-rule:nonzero;stroke:none" id="path106" data-index="47"></path>
      <path d="m 32173.8,9546.3 c -69.7,0 -140.1,4 -210.8,12.1 -480.9,55.3 -926.5,302.1 -1222.5,677.2 l -456.9,578.9 277.6,219 456.8,-579 c 389.8,-493.9 980.2,-757.3 1571.9,-757.3 124.5,0 249.1,11.7 371.8,35.3 -241.6,-122.4 -510.1,-186.2 -787.9,-186.2" style="fill:#ffc0b4;fill-opacity:1;fill-rule:nonzero;stroke:none" id="path108" data-index="48"></path>
      <path d="M 29400.9,11933.2 25359,17055.6 c -23.7,30.1 -46.2,60.8 -67.7,92.2 55.1,-10.3 110.6,-15.4 165.3,-15.4 90.3,0 178.4,14 258.8,42.3 l 904.6,-1146.4 c 900.3,-81.9 1646.2,-1186.2 1602.8,-2031.2 l 1455.7,-1844.9 -277.6,-219" style="fill:#ffe8a8;fill-opacity:1;fill-rule:nonzero;stroke:none" id="path110" data-index="49"></path>
      <path d="m 25456.4,17186.5 c -68.5,0 -138.4,8.7 -207,25.8 -139.9,226.4 -222.8,482.6 -242,750.9 l -152.1,2126.5 268.1,-84.9 16.3,-226.9 106.8,-1497.2 c 17,-233 77.9,-459.5 178.3,-667.5 l 0.4,-0.4 c 57.4,-119.6 128.4,-233 211.4,-338.2 l 43.1,-54.5 c -70,-22.5 -145.7,-33.6 -223.3,-33.6" style="fill:#fff3dc;fill-opacity:1;fill-rule:nonzero;stroke:none" id="path112" data-index="50"></path>
      <path d="m 25456.6,17132.4 c -54.7,0 -110.2,5.1 -165.3,15.4 -14.5,21.2 -28.5,42.7 -41.9,64.5 68.6,-17.1 138.5,-25.8 207,-25.8 77.6,0 153.3,11.1 223.3,33.6 l 35.7,-45.4 c -80.4,-28.3 -168.5,-42.3 -258.8,-42.3" style="fill:#baa6cf;fill-opacity:1;fill-rule:nonzero;stroke:none" id="path114" data-index="51"></path>
      <path d="m 25123.4,20004.8 -268.1,84.9 -17.7,247.8 c -4.3,59.4 20.1,114.6 66.9,151.5 32,25.3 69.9,38.3 108.8,38.3 18,0 36.2,-2.8 54.2,-8.4 l 19.5,-6.2 36.4,-507.9" style="fill:#e4dcd8;fill-opacity:1;fill-rule:nonzero;stroke:none" id="path116" data-index="52"></path>
      <path d="m 25013.3,20527.3 c -38.9,0 -76.8,-13 -108.8,-38.3 -46.8,-36.9 -71.2,-92.1 -66.9,-151.5 l 169.8,-2374.3 c 23.7,-332.3 145.3,-646.1 351.6,-907.6 l 5381.5,-6820 c 296,-375.1 741.6,-621.9 1222.5,-677.2 472.8,-54.4 931.9,75 1293.4,363.8 366,292.4 597.8,709.7 652.7,1175.2 55,469.7 -75.9,932.7 -368.5,1303.7 l -5402.8,6847.1 c -206.4,261.5 -483.3,452.8 -800.9,553.1 l -2269.4,717.6 c -18,5.6 -36.2,8.4 -54.2,8.4 m 7161,-11341 c -83.6,0 -167.8,4.8 -252.3,14.5 -575.5,66.1 -1109.2,362 -1464.1,811.8 l -5381.4,6820.1 c -251.2,318.3 -399.2,700.3 -428.2,1104.8 l -169.8,2374.3 c -12.7,177.6 63.2,349.5 203.1,459.9 139.8,110.3 324.6,144.1 494.5,90.3 l 2269.3,-717.5 c 386.6,-122.1 723.7,-355 974.9,-673.3 L 33823.1,12624 c 352.2,-446.3 509.7,-1003.4 443.5,-1568.7 -66.1,-560.2 -345,-1062.4 -785.5,-1414.3 -371.9,-297.2 -828.6,-454.7 -1306.8,-454.7" style="fill: rgb(0, 0, 114); fill-opacity: 1; fill-rule: nonzero; opacity: 1;" id="path118" data-index="53"></path>
      <path d="M 32230.6,14134.1 29375,11880.9 c -132.7,-104.7 -155.4,-297.3 -50.7,-430.1 l 472.3,-598.6 c 104.8,-132.8 297.4,-155.5 430.2,-50.7 l 2855.6,2253.2 c 132.7,104.8 155.4,297.4 50.7,430.1 l -472.4,598.6 c -104.7,132.8 -297.3,155.5 -430.1,50.7" style="fill:#b5b4bf;fill-opacity:1;fill-rule:nonzero;stroke:none" id="path120" data-index="54"></path>
      <path d="m 32419.8,14175 c -62.9,0 -123.6,-20.9 -173.7,-60.5 l -2855.6,-2253.2 c -59,-46.5 -96.3,-113.3 -105.1,-187.9 -8.8,-74.6 12,-148.1 58.6,-207.1 l 472.3,-598.6 c 46.5,-59 113.2,-96.3 187.8,-105.1 74.7,-8.9 148.2,12 207.2,58.5 l 2855.6,2253.3 c 59,46.5 96.3,113.2 105.1,187.8 8.8,74.6 -12,148.2 -58.6,207.2 l -472.3,598.5 c -46.5,59 -113.2,96.4 -187.8,105.2 -11.2,1.3 -22.4,1.9 -33.5,1.9 m -2382.1,-3464.4 c -13.1,0 -26.2,0.8 -39.4,2.3 -87.9,10.4 -166.5,54.4 -221.3,123.8 l -472.3,598.6 c -54.8,69.5 -79.3,156.1 -68.9,244 10.3,87.9 54.3,166.4 123.8,221.3 l 2855.5,2253.2 c 69.5,54.8 156.2,79.2 244,68.9 87.9,-10.4 166.5,-54.3 221.3,-123.8 l 472.3,-598.6 c 54.8,-69.4 79.3,-156.1 68.9,-243.9 -10.3,-87.9 -54.3,-166.5 -123.8,-221.3 l -2855.6,-2253.2 c -59,-46.6 -130.4,-71.3 -204.5,-71.3" style="fill:#000072;fill-opacity:1;fill-rule:nonzero;stroke:none" id="path122" data-index="55"></path>
      <path d="m 32416.5,12561.2 c 56.2,104.2 48.9,236.1 -29.1,335 l -472.6,599 c -60.4,76.5 -150,116.4 -240.4,116.4 -26.4,0 -52.8,-3.4 -78.6,-10.2 l 650.3,513.1 c 50.1,39.6 110.8,60.5 173.7,60.5 11.1,0 22.3,-0.6 33.5,-1.9 74.6,-8.8 141.3,-46.2 187.8,-105.2 l 472.3,-598.5 c 46.6,-59 67.4,-132.6 58.6,-207.2 -8.8,-74.6 -46.1,-141.3 -105.1,-187.8 l -650.4,-513.2" style="fill:#7e7ea8;fill-opacity:1;fill-rule:nonzero;stroke:none" id="path124" data-index="56"></path>
      <path d="m 32336.8,12466.4 c 33.8,26.7 60.5,59.1 79.7,94.8 l 650.4,513.2 c 59,46.5 96.3,113.2 105.1,187.8 8.8,74.6 -12,148.2 -58.6,207.2 l -472.3,598.5 c -46.5,59 -113.2,96.4 -187.8,105.2 -11.2,1.3 -22.4,1.9 -33.5,1.9 -62.9,0 -123.6,-20.9 -173.7,-60.5 l -650.3,-513.1 c -39.2,-10.4 -76.9,-28.9 -110.8,-55.6 l 745.8,588.5 c 56.2,44.3 123,65.8 189.4,65.8 90.4,0 180,-39.9 240.4,-116.5 l 472.6,-599 c 104.7,-132.6 82,-325 -50.6,-429.7 l -745.8,-588.5" style="fill:#000072;fill-opacity:1;fill-rule:nonzero;stroke:none" id="path126" data-index="57"></path>
      <path d="m 30037.7,10760.6 c -11.1,0 -22.3,0.6 -33.6,2 -74.6,8.8 -141.3,46.1 -187.8,105.1 l -472.3,598.6 c -46.6,59 -67.4,132.5 -58.6,207.1 8.8,74.6 46.1,141.4 105.1,187.9 l 257.8,203.5 c -56.1,-104.2 -48.8,-236.2 29.1,-335 l 472.7,-599 c 60.4,-76.6 149.9,-116.5 240.4,-116.5 26.4,0 52.8,3.4 78.6,10.3 l -257.8,-203.5 c -50.1,-39.5 -110.7,-60.5 -173.6,-60.5" style="fill:#e5e5e9;fill-opacity:1;fill-rule:nonzero;stroke:none" id="path128" data-index="58"></path>
      <path d="m 30037.2,10735.6 c -90.4,0 -180,39.9 -240.4,116.4 l -472.6,599 c -104.7,132.7 -82,325.1 50.6,429.8 l 353.3,278.7 c -33.8,-26.7 -60.5,-59.1 -79.8,-94.7 l -257.8,-203.5 c -59,-46.5 -96.3,-113.3 -105.1,-187.9 -8.8,-74.6 12,-148.1 58.6,-207.1 l 472.3,-598.6 c 46.5,-59 113.2,-96.3 187.8,-105.1 11.3,-1.4 22.5,-2 33.6,-2 62.9,0 123.5,21 173.6,60.5 l 257.8,203.5 c 39.2,10.4 76.9,28.8 110.7,55.5 l -353.2,-278.8 c -56.2,-44.3 -123,-65.7 -189.4,-65.7" style="fill:#a6a6ce;fill-opacity:1;fill-rule:nonzero;stroke:none" id="path130" data-index="59"></path>
      <path d="m 32230.6,14134.2 h 0.5 z m 189.5,-114.2 c -28.2,0 -55.5,-9.4 -78,-27.1 l -2855.6,-2253.3 c -26.5,-20.9 -43.2,-50.8 -47.2,-84.3 -3.9,-33.5 5.4,-66.5 26.3,-93 l 472.3,-598.6 c 21,-26.5 50.9,-43.3 84.4,-47.2 33.4,-3.8 66.5,5.4 93,26.3 l 2855.6,2253.2 c 26.5,20.9 43.2,50.9 47.2,84.4 3.9,33.4 -5.4,66.5 -26.3,92.9 l -472.3,598.7 c -21,26.4 -50.9,43.2 -84.4,47.2 -5,0.6 -10,0.8 -15,0.8 z M 30038,10555.6 c -19.2,0 -38.5,1.1 -57.9,3.4 -129,15.2 -244.3,79.7 -324.8,181.8 l -472.3,598.5 c -80.4,101.9 -116.4,229.1 -101.2,358.1 15.3,129 79.8,244.4 181.7,324.8 l 2855.6,2253.3 c 102,80.4 229.2,116.5 358.2,101.1 129,-15.2 244.3,-79.7 324.8,-181.7 l 472.3,-598.6 c 80.4,-101.9 116.4,-229.1 101.1,-358.1 -15.2,-129 -79.7,-244.3 -181.6,-324.8 l -2855.6,-2253.2 c -86.7,-68.4 -191.6,-104.6 -300.3,-104.6" style="fill:#000072;fill-opacity:1;fill-rule:nonzero;stroke:none" id="path132" data-index="60"></path>
      <path d="m 25456.9,16980.4 c -185.2,0 -377,49.6 -542,146.9 -18.4,10.9 -34.8,25 -48.3,41.6 -62.6,77.1 -51.1,190.7 26.1,253.3 62.2,50.6 147.8,52.9 211.5,11.4 190.6,-109.5 437,-125 602.1,-37.4 136.9,72.8 212.6,211.4 224.9,412 3.5,57.8 34.7,110.4 83.7,141.2 49,30.9 109.8,36.4 163.5,14.6 302.5,-122.5 562,-116.3 730.7,17.6 169,134.2 237.6,391.6 188.2,706.3 -9.9,62.9 14.1,126.3 63.2,166.8 49.1,40.4 115.9,52 175.7,30.4 178.9,-64.6 348.6,-30.8 465.8,92.7 131.8,138.7 164.4,354.2 83.6,549.6 -32.4,72.5 -13.7,160.6 50.8,213.1 77.2,62.7 190.3,51.2 253.1,-26 l 0.3,-0.4 c 10.7,-13.2 19.6,-27.9 26.2,-43.7 138.1,-328.1 78,-697.2 -152.9,-940.5 -157.1,-165.4 -366.6,-247.1 -590.3,-236.3 -0.6,-337 -119.2,-618.7 -340,-793.9 -229,-181.8 -536.1,-229.2 -879.8,-139.4 -61.1,-215.4 -191,-382.7 -377.9,-482 -123.3,-65.5 -268.6,-97.9 -418.2,-97.9" style="fill:#000072;fill-opacity:1;fill-rule:nonzero;stroke:none" id="path134" data-index="61"></path>
      <path d="m 24720.4,19267.5 c -87.2,0 -163.9,63.6 -177.6,152.5 -15.2,98.3 52.1,190.2 150.4,205.4 535.4,82.7 895.3,366.7 1100.3,868.2 37.6,92 142.7,136.3 234.7,98.5 92,-37.6 136.1,-142.7 98.5,-234.7 -253.3,-619.5 -717.1,-985.5 -1378.5,-1087.7 -9.4,-1.5 -18.6,-2.2 -27.8,-2.2" style="fill:#000072;fill-opacity:1;fill-rule:nonzero;stroke:none" id="path136" data-index="62"></path>
      <path d="m 25960,20425.2 -838.2,265.2 c -240.4,76.1 -481.7,-114.3 -463.7,-365.8 l 62.7,-877.2 c 597.3,92.3 1010.6,418.4 1239.2,977.8" style="fill:#000072;fill-opacity:1;fill-rule:nonzero;stroke:none" id="path138" data-index="63"></path>
    </g>
  </g>
</svg>