<svg width="313" height="144" xmlns="http://www.w3.org/2000/svg" xmlns:xlink="http://www.w3.org/1999/xlink" overflow="hidden"><defs><clipPath id="clip0"><rect x="643" y="144" width="313" height="144"/></clipPath></defs><g clip-path="url(#clip0)" transform="translate(-643 -144)"><path d="M645 231.186C645 233.875 646.736 236.419 649.529 238.727 657.386 245.218 673.634 249.742 683.148 249.742 685.549 249.742 687.86 249.454 690.039 248.916 697.948 256.627 710.059 260.994 723.176 259.748 727.065 259.381 730.784 258.541 734.257 257.295 738.772 264.901 747.987 269.661 758.114 268.691 761.299 268.389 764.287 267.537 766.989 266.264 777.86 278.42 793.157 286 810.123 286 827.312 286 842.803 278.211 853.701 265.753 858.112 266.841 862.771 267.221 867.562 266.776 879.673 265.622 890.088 259.393 896.913 250.383 901.82 250.986 906.675 251.288 911.074 251.551 919.323 252.05 927.78 251.564 935.467 248.509 943.141 245.453 949.98 239.538 952.734 231.71 952.942 231.093 953.125 230.49 953.295 229.9 956.257 218.701 949.536 210.256 939.695 205.443 926.383 198.925 909.547 194.309 894.133 196.158 886.851 188.356 876.697 183.425 865.551 182.927 862.693 170.443 851.038 161.709 838 162.941 832.088 163.505 826.842 166.049 822.822 169.826 811.702 149.972 787.793 140.727 766.441 149.067 756.247 153.04 748.312 160.384 743.379 169.381 740.156 168.384 736.646 167.977 733.017 168.318 719.43 169.603 709.341 180.684 710.503 193.077 710.542 193.444 710.621 193.811 710.673 194.191 699.005 196.919 689.517 203.974 684.531 212.996 684.061 212.865 683.605 212.747 683.147 212.629 663.533 207.674 645 220.931 645 231.186Z" fill="#FFFFFF" fill-rule="evenodd"/><path d="M649 238.695C656.863 245.191 673.124 249.718 682.646 249.718 685.049 249.718 687.361 249.429 689.542 248.891 697.457 256.607 709.577 260.977 722.704 259.73 726.596 259.363 730.318 258.522 733.793 257.276 738.312 264.887 747.534 269.65 757.669 268.679 760.857 268.377 763.847 267.525 766.551 266.251 777.43 278.415 792.739 286 809.718 286 826.92 286 842.423 278.205 853.33 265.739 857.744 266.828 862.407 267.208 867.201 266.763 879.321 265.608 889.744 259.375 896.575 250.359 901.486 250.963 906.345 251.265 910.747 251.528 919.002 252.027 927.465 251.541 935.159 248.483 942.839 245.426 949.683 239.507 952.438 231.673 952.647 231.056 952.83 230.453 953 229.862 947.778 233.359 938.685 236.931 931.108 227.132 914.742 237.866 893.244 226.109 885.643 208 886.27 227.107 865.384 243.589 847.059 238.458 852.937 237.015 857.953 232.395 859.872 226.621 843.402 233.445 823.837 232.237 808.332 223.419 812.131 229.811 821.361 236.412 829.916 237.16 827.082 245.428 821.341 247.355 812.694 248.378 804.048 249.402 794.997 245.071 790.334 237.696 785.697 244.598 776.618 245.849 768.378 244.874 755.243 243.321 744.802 231.61 745.677 223.316 737.121 231.046 731.559 228.392 728.28 217.329 725.903 225.373 718.667 231.751 710.426 233.076 702.171 234.415 693.315 230.648 688.535 223.759 684.853 233.106 671.654 247.002 649 238.695Z" fill="#C4E3F2" fill-rule="evenodd"/><path d="M643.085 232.366C643.314 233.716 643.887 234.966 644.593 236.018 645.522 237.405 646.66 238.551 647.862 239.554 650.279 241.562 652.956 243.06 655.684 244.373 661.168 246.95 666.937 248.712 672.837 249.891 675.793 250.461 678.789 250.876 681.863 250.951 683.399 251.008 684.954 250.915 686.489 250.723 687.257 250.627 688.022 250.499 688.781 250.341L689.068 250.281 689.409 250.592C693.968 254.712 699.512 257.633 705.365 259.321 711.226 261.021 717.407 261.467 723.449 260.843 726.471 260.517 729.467 259.906 732.376 259.005L733.139 258.761 733.347 259.08C733.56 259.411 733.816 259.71 734.05 260.025 734.994 261.28 736.095 262.406 737.265 263.442 741.986 267.567 748.197 269.811 754.403 269.913 757.504 269.967 760.622 269.572 763.588 268.622 764.329 268.39 765.061 268.126 765.78 267.833L766.143 267.683 767.581 269.203 769.214 270.768C777.994 279.035 789.313 284.692 801.316 286.396 807.306 287.293 813.422 287.162 819.395 286.194 822.371 285.644 825.32 284.939 828.186 283.965 831.036 282.96 833.854 281.835 836.519 280.405 839.188 278.991 841.79 277.436 844.209 275.628 846.648 273.85 848.97 271.907 851.109 269.779 851.644 269.249 852.198 268.736 852.699 268.17L853.467 267.341 853.659 267.133 853.748 267.038 855.017 267.301C855.766 267.45 856.52 267.566 857.275 267.677 860.299 268.094 863.366 268.188 866.408 267.967 872.493 267.493 878.484 265.771 883.847 262.851 886.53 261.398 889.055 259.659 891.371 257.676 892.529 256.684 893.628 255.627 894.682 254.526 895.204 253.971 895.7 253.391 896.209 252.825L896.93 251.937 897.108 251.715C897.127 251.691 897.127 251.691 897.128 251.69L899.922 251.986 903.505 252.296C905.892 252.482 908.277 252.627 910.653 252.768 915.464 253.044 920.341 253.018 925.182 252.329 930.012 251.635 934.823 250.316 939.214 247.978 943.588 245.67 947.532 242.439 950.439 238.343 951.894 236.306 953.077 234.049 953.858 231.646 954.032 231.044 954.256 230.475 954.385 229.847L954.77 228.027C954.778 227.989 954.784 227.951 954.788 227.913L954.979 226.106C954.982 226.076 954.984 226.047 954.986 226.017 955.016 225.39 954.989 224.757 954.99 224.127 954.87 221.543 954.128 218.981 952.918 216.726 951.713 214.46 950.097 212.49 948.334 210.752 946.564 209.012 944.641 207.486 942.666 206.073 940.698 204.672 938.647 203.337 936.491 202.178 932.198 199.846 927.628 198.065 922.929 196.838 918.232 195.597 913.425 194.828 908.592 194.489 906.175 194.353 903.753 194.263 901.332 194.335L899.516 194.382 897.703 194.495C897.098 194.534 896.494 194.563 895.891 194.632L894.265 194.794C894.022 194.539 893.144 193.639 892.52 193.095 892.074 192.672 891.615 192.263 891.139 191.876 890.667 191.482 890.203 191.078 889.707 190.716 887.764 189.213 885.701 187.856 883.523 186.711 879.176 184.412 874.438 182.847 869.568 182.123L867.392 181.857C867.376 181.855 867.35 181.853 867.334 181.851L866.358 181.783 866.243 181.775C866.23 181.774 866.229 181.774 866.228 181.774 866.225 181.762 866.219 181.74 866.205 181.69 866.025 181.091 865.9 180.473 865.652 179.895 864.859 177.513 863.625 175.299 862.206 173.239 860.787 171.169 859.014 169.357 857.072 167.778 856.129 166.971 855.077 166.312 854.043 165.629 854.018 165.612 853.992 165.597 853.965 165.582 852.876 164.991 851.802 164.367 850.645 163.915 848.34 162.934 845.898 162.231 843.4 161.955 840.91 161.643 838.379 161.66 835.896 162.032 833.412 162.398 830.985 163.137 828.698 164.168 827.558 164.693 826.453 165.294 825.394 165.967 824.861 166.299 824.35 166.662 823.84 167.028L823.093 167.599 822.688 167.931 822.579 167.757 822.337 167.368 821.387 165.851C821.372 165.827 821.356 165.803 821.341 165.78 820.994 165.292 820.622 164.821 820.264 164.341 818.844 162.343 817.172 160.542 815.47 158.786 812.017 155.304 807.945 152.461 803.592 150.224 794.878 145.788 784.727 143.955 775.018 145.59 773.793 145.711 772.608 146.045 771.411 146.314L769.668 146.723C769.635 146.731 769.603 146.74 769.571 146.751L767.872 147.316C765.527 148.042 763.254 148.977 761.068 150.096 756.688 152.312 752.687 155.267 749.244 158.758 747.522 160.504 745.94 162.386 744.513 164.379 743.798 165.374 743.133 166.403 742.493 167.448L742.18 167.988 741.385 167.79C736.497 166.641 731.324 166.877 726.544 168.364 721.763 169.844 717.348 172.622 714.084 176.469 712.424 178.364 711.086 180.55 710.137 182.897 709.192 185.237 708.553 187.74 708.487 190.285 708.412 190.918 708.476 191.556 708.491 192.192L708.534 193.266 708.448 193.288C707.851 193.432 707.262 193.601 706.679 193.792 704.331 194.502 702.036 195.399 699.837 196.5 695.437 198.678 691.362 201.577 687.986 205.187 686.294 206.985 684.773 208.948 683.473 211.058L683.288 211.371 683.196 211.347 682.972 211.288 682.198 211.113C680.991 210.828 679.77 210.619 678.542 210.464 673.629 209.842 668.604 210.235 663.843 211.546 659.083 212.857 654.552 215.052 650.664 218.177 648.725 219.738 646.953 221.555 645.522 223.679 644.327 225.473 643.349 227.552 643.06 229.849 642.98 230.512 642.972 231.701 643.085 232.366ZM645.894 230.142C646.122 228.449 646.907 226.694 648.011 225.074 649.348 223.141 651.128 221.37 653.178 219.811 657.299 216.718 662.489 214.421 668.193 213.462 671.043 212.973 674.023 212.857 677.034 213.103 678.534 213.266 680.058 213.456 681.553 213.823L682.118 213.947 682.272 213.982 682.522 214.048 683.021 214.18 684.022 214.442 684.524 214.574C684.576 214.611 684.61 214.587 684.639 214.546 687.879 215.743 690.77 217.935 692.787 220.735 693.128 221.21 693.768 221.359 694.264 221.048L694.661 220.799C695.321 220.385 695.426 219.564 694.946 219.05 694.548 218.625 694.063 218.169 693.531 217.725 692.522 216.872 691.35 216.068 690.347 215.35L690.344 215.353 690.347 215.35C689.38 214.584 688.282 213.68 687.184 212.945 686.787 212.676 686.397 212.442 686.019 212.228 686.175 211.971 686.317 211.754 686.509 211.481 688.247 208.865 690.398 206.436 692.903 204.316 695.392 202.18 698.211 200.322 701.281 198.837 702.802 198.065 704.409 197.44 706.038 196.849 706.859 196.571 707.692 196.313 708.53 196.067L710.355 195.592C710.749 195.469 711.235 195.408 711.553 195.236L711.362 193.961 711.266 193.324 711.231 193.087 711.228 193.008 711.222 192.849 711.197 192.214 711.147 191.007C711.145 190.962 711.146 190.918 711.151 190.874 711.231 190.046 711.216 189.203 711.376 188.38 711.533 187.533 711.656 186.674 711.943 185.851 712.075 185.437 712.169 185.01 712.331 184.605L712.833 183.393C715.642 176.936 721.977 171.95 729.272 170.345 732.911 169.504 736.778 169.411 740.507 170.239L741.204 170.399 741.466 170.466C737.299 171.89 733.657 174.737 731.334 178.487 730.989 179.043 731.172 179.773 731.752 180.079L732.279 180.358C732.808 180.636 733.464 180.454 733.762 179.937 734.482 178.683 735.549 177.069 737.128 175.623 739.09 173.768 741.836 172.26 744.471 171.77L744.471 171.765 744.473 171.769C747.11 171.298 750.214 171.737 752.705 172.779 754.685 173.568 756.248 174.694 757.366 175.61 757.834 175.993 758.518 175.945 758.918 175.492L759.313 175.045C759.746 174.555 759.658 173.807 759.139 173.409 754.922 170.176 749.383 168.807 744.135 169.746L744.146 169.727 744.629 168.889C744.748 168.676 744.876 168.468 745.009 168.263L745.794 167.023C746.886 165.397 748.083 163.83 749.379 162.338 754.583 156.391 761.546 151.78 769.372 149.424 770.326 149.053 771.34 148.887 772.33 148.633 773.326 148.4 774.318 148.128 775.342 148.027 776.346 147.893 777.349 147.728 778.358 147.617 778.386 147.614 778.414 147.612 778.443 147.61L781.487 147.464C785.616 147.424 789.773 147.908 793.817 148.964 797.839 150.094 801.724 151.753 805.349 153.896 808.995 156.019 812.245 158.79 815.163 161.851 815.859 162.648 816.631 163.384 817.267 164.233L819.195 166.768C819.527 167.184 819.774 167.659 820.068 168.101L821.042 169.653 821.326 170.106C820.909 170.003 820.491 169.905 820.068 169.827 812.224 168.392 803.875 171.184 798.439 176.976 798.009 177.435 798.073 178.168 798.554 178.573L799.023 178.967C799.479 179.35 800.15 179.311 800.554 178.874 801.509 177.841 802.747 176.691 804.311 175.633 806.269 174.274 808.751 173.083 811.542 172.392 814.327 171.719 817.425 171.539 820.383 172.15 823.353 172.714 826.149 174.03 828.438 175.689L828.444 175.688 828.441 175.691C830.293 177.038 831.963 178.822 833.244 180.676 833.884 181.59 834.399 182.54 834.844 183.441 834.855 183.463 834.866 183.487 834.875 183.51 835.074 183.984 835.242 184.35 835.449 184.876 835.718 185.614 835.975 186.319 836.216 186.984 836.646 186.818 837.069 186.638 837.507 186.487L838.162 186.253 838.562 186.151C839.037 186.036 839.515 185.963 839.987 185.923 840.932 185.849 841.858 185.898 842.722 186.068 844.459 186.407 845.926 187.168 847.041 188.127 848.887 189.723 849.793 191.64 850.198 193.21 850.343 193.77 850.871 194.137 851.443 194.052L852.049 193.963C852.703 193.867 853.139 193.223 852.973 192.584 852.138 189.349 849.97 186.523 847.025 184.897 845.37 183.99 843.517 183.5 841.656 183.422 840.725 183.383 839.788 183.448 838.868 183.618L838.182 183.765 837.559 183.937 837.559 183.937 837.521 183.838 836.886 182.487C836.875 182.464 836.864 182.442 836.852 182.42L836.134 181.126C836.122 181.104 836.109 181.083 836.096 181.062L835.273 179.788C834.094 178.087 832.696 176.543 831.128 175.197 828.783 173.182 826.048 171.601 823.1 170.615L823.535 170.231C823.7 170.081 823.867 169.937 824.035 169.801L824.383 169.512C827.643 166.867 831.593 165.071 835.745 164.352 836.781 164.156 837.833 164.068 838.887 164.031 839.926 163.935 840.964 164.026 842.005 164.062 842.032 164.064 842.059 164.066 842.087 164.068 844.165 164.294 846.254 164.628 848.221 165.371 850.207 166.071 852.134 166.981 853.871 168.181 854.763 168.718 855.54 169.414 856.362 170.047 856.389 170.068 856.415 170.09 856.439 170.114 857.182 170.838 857.985 171.504 858.642 172.311 860.081 173.857 861.248 175.636 862.23 177.494L862.906 178.867C862.92 178.896 862.934 178.926 862.945 178.957L863.498 180.384 863.777 181.122 863.991 181.882 864.252 182.806 864.421 183.405 864.505 183.704C864.523 183.748 864.524 183.813 864.555 183.842L864.71 183.853 866.792 183.995C867.324 184.023 867.851 184.109 868.38 184.164 869.44 184.273 870.488 184.476 871.532 184.674 873.622 185.078 875.662 185.7 877.653 186.43 881.642 187.891 885.359 190.028 888.686 192.619 889.504 193.284 890.327 193.944 891.091 194.67 891.28 194.846 891.462 195.027 891.651 195.203 886.667 193.485 881.156 193.396 876.125 194.99 875.526 195.179 875.221 195.846 875.441 196.434L875.652 196.998C875.864 197.566 876.488 197.858 877.063 197.661 878.689 197.104 880.937 196.464 883.509 196.322 886.656 196.105 890.225 196.667 893.05 197.969L893.054 197.966 893.052 197.97C895.87 199.289 898.599 201.651 900.459 204.193 902.007 206.249 902.963 208.376 903.585 209.976 903.805 210.542 904.43 210.83 905.003 210.627L905.489 210.453C906.161 210.213 906.476 209.551 906.235 208.972 904.1 203.825 900.17 199.495 895.276 196.822L895.564 196.793C896.091 196.744 896.616 196.673 897.145 196.649 898.201 196.593 899.255 196.488 900.312 196.472 908.749 196.177 917.181 197.18 925.065 199.622 929.003 200.846 932.798 202.441 936.33 204.441 937.208 204.946 938.061 205.494 938.925 206.016 939.767 206.582 940.619 207.134 941.432 207.729 943.078 208.895 944.663 210.131 946.112 211.488L946.155 211.522 946.152 211.525C948.886 214.03 951.204 217.08 952.306 220.6 952.822 222.364 953.005 224.21 952.908 226.05L952.762 227.427C952.72 227.887 952.582 228.333 952.498 228.787 952.343 229.694 952.013 230.584 951.739 231.474 950.486 234.975 948.328 238.124 945.693 240.719 943.052 243.32 939.943 245.41 936.632 246.926 929.975 249.973 922.698 250.83 915.904 250.802 912.499 250.795 909.158 250.526 905.921 250.314 904.305 250.2 902.718 250.071 901.165 249.928 900.389 249.85 899.62 249.772 898.859 249.695L897.233 249.506C897.095 249.193 896.833 248.939 896.472 248.854 891.013 247.542 885.921 244.659 881.994 240.654 881.57 240.221 880.888 240.187 880.439 240.594L880.021 240.973C879.53 241.419 879.528 242.191 880.026 242.629 880.752 243.265 881.694 243.985 882.744 244.679 884.301 245.72 886.084 246.7 887.645 247.548L887.648 247.545 887.646 247.549C889.175 248.451 890.934 249.476 892.627 250.276 893.355 250.624 894.062 250.923 894.722 251.174 894.557 251.374 894.398 251.578 894.222 251.768 893.639 252.429 893.051 253.084 892.42 253.698 891.194 254.962 889.853 256.107 888.479 257.202 885.692 259.342 882.656 261.155 879.436 262.527 872.991 265.262 865.881 266.341 858.993 265.593 858.131 265.505 857.275 265.382 856.424 265.238L855.15 265.001C854.688 264.901 854.435 264.855 853.638 264.663 852.881 264.186 852.483 265.145 852.015 265.535L851.13 266.487C850.553 267.135 849.916 267.722 849.3 268.328 846.812 270.729 844.137 272.918 841.301 274.853 835.599 278.664 829.306 281.522 822.742 283.061 809.621 286.282 795.722 284.307 784.332 278.402 781.481 276.923 778.763 275.238 776.219 273.35 773.689 271.443 771.326 269.36 769.136 267.139L768.08 266.017C768.91 265.196 769.746 264.282 770.522 263.52L770.52 263.516 770.523 263.519C771.395 262.744 772.449 261.912 773.373 261.083 773.846 260.663 774.283 260.244 774.648 259.857 775.121 259.358 775.008 258.55 774.432 258.174L774.003 257.894C773.495 257.564 772.829 257.706 772.476 258.198 770.499 260.958 767.964 263.327 765.075 265.115 764.911 265.216 764.795 265.357 764.703 265.512L764.182 265.713C762.769 266.242 761.313 266.643 759.841 266.914 756.895 267.46 753.877 267.465 750.981 267.009 748.073 266.572 745.306 265.546 742.8 264.159 740.317 262.73 738.099 260.885 736.373 258.695L735.74 257.864C735.519 257.57 735.426 257.388 734.975 256.707L734.416 255.847 734.276 255.632C734.259 255.578 734.224 255.575 734.179 255.603L734.059 255.645 733.573 255.81 731.953 256.354C730.598 256.781 729.228 257.143 727.851 257.434 725.099 258.033 722.316 258.319 719.566 258.403 714.063 258.584 708.681 257.675 703.778 255.934 701.327 255.058 698.995 253.962 696.829 252.668 696.298 252.329 695.769 251.99 695.241 251.654 694.725 251.303 694.227 250.927 693.722 250.568 693.138 250.15 692.613 249.665 692.045 249.239 692.027 249.225 691.998 249.202 691.982 249.186L690.846 248.145 690.156 247.515 689.985 247.359C689.926 247.316 689.88 247.222 689.796 247.27L689.347 247.374 688.463 247.575 688.023 247.666C687.435 247.783 686.846 247.877 686.255 247.953 685.075 248.106 683.894 248.18 682.722 248.183 680.373 248.18 678.022 247.918 675.731 247.557 673.438 247.197 671.196 246.715 669.025 246.142 666.848 245.588 664.744 244.923 662.712 244.204 658.658 242.753 654.88 241.02 651.692 238.868 650.125 237.78 648.649 236.618 647.583 235.279 646.731 234.251 646.141 233.135 645.924 232.034 645.814 231.496 645.82 230.692 645.894 230.142Z" fill="#5AA3CF" fill-rule="evenodd"/><path d="M737.865 221.057C739.298 221.824 740.989 222.446 742.779 222.901 743.518 223.088 744.28 223.242 745.044 223.39 744.655 223.568 744.371 223.946 744.381 224.408 744.431 226.683 745.219 229.298 746.657 231.787 748.34 234.784 750.977 237.601 754.147 239.956 757.306 242.333 761.123 244.112 765.101 245.047 767.092 245.521 769.121 245.742 771.083 245.827 773.054 245.916 775 245.867 776.871 245.667L776.877 245.662 776.878 245.666C780.596 245.3 784.688 244.232 788.025 241.644L789.179 240.655C789.206 240.631 789.232 240.607 789.256 240.582L790.162 239.641 790.528 239.205C790.637 239.357 790.738 239.543 790.833 239.696 790.849 239.728 790.892 239.791 790.892 239.791L791.126 240.098 791.594 240.71C791.898 241.125 792.261 241.485 792.592 241.874 792.919 242.266 793.293 242.607 793.651 242.963 794.003 243.325 794.378 243.658 794.763 243.975 797.784 246.596 801.292 248.267 804.544 249.173 807.285 249.895 809.846 250.087 811.951 249.966 812.594 249.929 813.068 249.352 812.992 248.708L812.92 248.09C812.85 247.488 812.318 247.068 811.716 247.105 805.514 247.488 799.152 245.001 794.711 240.6 794.144 240 793.565 239.408 793.068 238.749L792.875 238.507 792.778 238.386C792.772 238.375 792.612 238.186 792.577 238.124L791.823 237.024 791.07 235.926 790.694 235.376C790.633 235.204 790.564 235.394 790.498 235.462L790.297 235.727 788.693 237.851C788.312 238.325 788.263 238.337 788.113 238.512L787.71 238.952C787.131 239.498 786.534 240.027 785.869 240.476 783.231 242.301 779.987 243.279 776.66 243.605 774.994 243.775 773.305 243.809 771.612 243.733 770.765 243.687 769.919 243.625 769.074 243.529 768.234 243.43 767.431 243.262 766.607 243.136 763.349 242.467 760.233 241.087 757.436 239.249 754.651 237.398 752.135 235.079 750.23 232.359 749.301 230.99 748.487 229.547 747.947 228.029 747.544 226.835 747.278 225.608 747.246 224.413 747.239 224.146 747.132 223.905 746.966 223.718 749.295 224.075 751.645 224.299 753.821 224.389L753.824 224.385 753.824 224.389C755.572 224.48 757.443 224.533 759.335 224.485 761.226 224.421 763.133 224.262 764.945 224.013 767.952 223.578 770.679 222.86 772.619 222.149 773.219 221.93 773.501 221.246 773.252 220.656L773.012 220.09C772.775 219.527 772.138 219.269 771.572 219.492 765.992 221.684 759.923 222.614 753.923 222.322 750.743 222.15 747.567 221.656 744.504 220.815 741.813 220.073 739.234 218.978 737.266 217.261 736.838 216.887 736.192 216.923 735.784 217.318L735.346 217.743C734.875 218.2 734.883 218.976 735.384 219.398 736.065 219.969 736.901 220.551 737.865 221.057Z" fill="#5AA3CF" fill-rule="evenodd"/></g></svg>