<svg width="227" height="133" xmlns="http://www.w3.org/2000/svg" xmlns:xlink="http://www.w3.org/1999/xlink" overflow="hidden"><defs><clipPath id="clip0"><rect x="333" y="441" width="227" height="133"/></clipPath></defs><g clip-path="url(#clip0)" transform="translate(-333 -441)"><path d="M335.119 512.265C335.512 516.473 336.891 520.356 339.036 523.754 343.337 530.625 350.731 535.471 359.266 536.798 361.699 545.615 370.578 551.712 380.627 551.007 389.506 563.737 403.749 572 419.821 572 433.921 572 446.622 565.636 455.51 555.482 461.717 559.099 468.901 559.949 475.261 557.143 479.438 555.301 482.675 552.133 484.83 548.192 489.007 552.925 494.667 555.845 500.903 555.845 511.295 555.845 520.098 547.763 523.096 536.598 525.338 536.636 527.532 536.569 529.638 536.397 537.991 535.748 546.496 532.524 552.205 525.729 552.674 525.165 553.114 524.612 553.517 524.039 553.526 524.039 553.526 524.039 553.526 524.039 564.379 509.01 553.9 491.596 539.044 485.899 531.793 483.121 522.483 481.815 513.9 483.055 511.142 477.749 506.659 473.674 500.855 471.832 497.33 470.716 493.671 470.535 490.08 471.155 487.886 466.546 482.991 463.569 477.609 464.075 476.948 464.141 476.306 464.265 475.683 464.418 469.716 449.389 453.835 440.334 437.705 443.702 424.353 446.488 414.582 457.014 411.949 469.724 407.303 467.099 401.719 465.811 395.867 466.365 385.197 467.367 376.586 474.171 373.329 483.074 369.708 482.024 365.809 481.614 361.786 481.996 345.616 483.514 333.672 497.064 335.119 512.265Z" fill="#FFFFFF" fill-rule="evenodd"/><path d="M339 523.569C343.291 530.466 350.669 535.332 359.185 536.664 361.612 545.514 370.471 551.635 380.497 550.927 389.356 563.705 403.567 572 419.604 572 433.672 572 446.345 565.611 455.213 555.419 461.406 559.049 468.573 559.903 474.919 557.086 479.086 555.237 482.317 552.057 484.467 548.101 488.634 552.852 494.282 555.783 500.504 555.783 510.873 555.783 519.656 547.67 522.648 536.463 524.884 536.501 527.073 536.434 529.175 536.261 537.509 535.61 545.995 532.373 551.69 525.552 552.159 524.986 552.598 524.431 553 523.856 552.475 523.942 551.949 524.019 551.413 524.058 542.879 524.757 534.211 519.201 531.258 511.145 528.065 517.937 516.932 518.722 512.832 512.448 516.445 511.816 519.56 508.932 520.477 505.378 515.03 509.861 506.181 509.372 501.249 504.334 502.807 508.128 505.903 511.25 509.678 512.831 502.75 523.176 486.015 524.843 477.185 516.069 478.312 519.555 476.286 523.751 472.855 525.024 469.425 526.298 465.162 524.431 463.757 521.049 458.988 528.1 449.851 531.883 441.517 530.264 433.174 528.645 426.112 521.719 424.315 513.405 430.966 513.079 437.36 509.248 440.801 503.529 430.422 508.922 417.033 507.907 407.581 501 409.177 505.876 412.924 509.995 417.626 512.034 414.051 521.115 399.964 523.5 393.618 516.087 390.446 520.762 384.214 523.098 378.747 521.681 373.291 520.254 368.989 515.167 368.483 509.536 365.253 513.138 359.404 514.018 355.266 511.518 354.339 516.787 350.325 521.384 345.25 523.022 343.243 523.665 341.093 523.837 339 523.569Z" fill="#C4E3F2" fill-rule="evenodd"/><path d="M554.288 496.907C552.405 494.132 550.04 491.724 547.414 489.677 544.77 487.657 541.822 486.006 538.697 484.87 535.609 483.721 532.417 482.918 529.187 482.388 525.956 481.858 522.678 481.603 519.397 481.674 517.756 481.699 516.115 481.816 514.481 482.019 514.383 482.011 514.477 482.065 514.413 481.983L514.355 481.876 514.156 481.539C513.725 480.815 513.267 480.105 512.762 479.427 510.768 476.703 508.198 474.358 505.214 472.722 502.239 471.077 498.902 470.106 495.52 469.896 494.675 469.843 493.827 469.835 492.983 469.87 492.561 469.885 492.14 469.917 491.72 469.954L491.09 470.019 490.776 470.06 490.697 470.07C490.69 470.071 490.694 470.07 490.695 470.07L490.686 470.052 490.253 469.351C489.771 468.608 489.221 467.909 488.602 467.275 486.156 464.718 482.683 463.145 479.135 463.06 478.252 463.018 477.353 463.084 476.498 463.26L476.409 463.276 476.403 463.278 476.394 463.281C476.387 463.264 476.368 463.222 476.314 463.101 475.687 461.557 474.844 460.12 474.028 458.673 472.262 455.851 470.11 453.282 467.66 451.039 465.22 448.781 462.429 446.906 459.434 445.467 456.443 444.024 453.256 442.97 449.971 442.425 443.401 441.4 436.531 442.22 430.463 444.988 424.383 447.711 419.166 452.278 415.595 457.889 413.803 460.692 412.411 463.749 411.469 466.939 411.336 467.312 411.229 467.78 411.152 468.1L411.148 468.119 410.934 468.013C409.418 467.29 407.835 466.714 406.217 466.272 399.734 464.502 392.688 465.112 386.576 467.882 383.511 469.25 380.729 471.227 378.331 473.581 377.178 474.804 376.047 476.063 375.133 477.484 374.639 478.152 374.262 478.897 373.83 479.606 373.817 479.628 373.804 479.65 373.793 479.673L373.245 480.775 372.967 481.345 372.753 481.872 372.747 481.886 372.648 481.861C371.838 481.661 371.02 481.493 370.197 481.356 368.552 481.086 366.884 480.941 365.218 480.93 363.55 480.912 361.884 481.037 360.241 481.312L359.004 481.49C358.592 481.553 358.191 481.676 357.785 481.766 356.981 481.98 356.153 482.115 355.367 482.4 348.983 484.359 343.272 488.429 339.33 493.856 335.631 499.016 333.716 505.448 334.034 511.813 334.064 512.408 334.153 513.385 334.231 513.974 334.718 517.645 335.953 521.221 337.845 524.4 339.916 527.881 342.72 530.926 346.005 533.277 349.283 535.644 353.041 537.315 356.963 538.236 357.451 538.362 357.944 538.463 358.441 538.547 358.475 538.553 358.488 538.555 358.494 538.556L358.542 538.703 358.663 539.073C358.739 539.321 358.825 539.565 358.935 539.801 359.143 540.275 359.339 540.757 359.561 541.225 360.479 543.087 361.705 544.784 363.13 546.273 365.974 549.276 369.712 551.344 373.686 552.334 375.672 552.856 377.734 553.036 379.775 552.999L380.157 552.988 380.819 553.887C381.389 554.7 382.032 555.454 382.663 556.218 387.747 562.295 394.249 567.218 401.575 570.298 408.892 573.404 417 574.565 424.897 573.745 432.806 572.926 440.453 569.996 446.989 565.504 448.607 564.356 450.19 563.157 451.668 561.833 452.414 561.179 453.148 560.513 453.84 559.803 454.189 559.451 454.552 559.113 454.89 558.75L455.76 557.8 455.876 557.865 456.022 557.946 456.676 558.266C457.585 558.72 458.53 559.103 459.49 559.441 461.412 560.117 463.425 560.565 465.472 560.718 469.562 561.053 473.785 560.19 477.391 558.17 479.195 557.164 480.843 555.884 482.277 554.405 482.992 553.664 483.65 552.871 484.253 552.04 484.406 551.834 484.555 551.626 484.695 551.41L484.958 551.018 485.401 551.456 486.012 552.008C486.829 552.74 487.699 553.417 488.616 554.028 490.439 555.266 492.454 556.235 494.572 556.89 498.813 558.191 503.479 558.105 507.66 556.625 511.878 555.203 515.493 552.414 518.298 549.078 519.676 547.378 520.858 545.535 521.856 543.6 522.315 542.613 522.794 541.635 523.153 540.608 523.346 540.1 523.548 539.595 523.692 539.071L523.811 538.682 523.857 538.53 525.02 538.524C525.747 538.514 526.474 538.494 527.202 538.46 528.655 538.396 530.108 538.277 531.577 538.092 534.502 537.718 537.395 537.027 540.172 535.979 542.954 534.95 545.601 533.516 548.014 531.751 550.209 530.096 552.19 528.143 553.85 525.928L553.905 525.928 554.295 525.366C555.252 523.986 556.136 522.546 556.845 521.008 557.542 519.466 558.101 517.854 558.479 516.194 559.188 512.867 559.187 509.372 558.393 506.075 557.628 502.771 556.191 499.661 554.288 496.907ZM358.491 538.553 358.491 538.553C358.488 538.553 358.488 538.553 358.491 538.553ZM556.41 516.38C555.703 519.284 554.326 521.852 552.841 523.998L552.68 524.221C550.82 526.791 548.579 528.984 546.101 530.67 543.644 532.391 540.973 533.616 538.318 534.519 535.647 535.389 532.977 535.948 530.384 536.198 529.092 536.336 527.802 536.41 526.552 536.455 525.924 536.467 525.304 536.48 524.69 536.492 524.368 536.492 524.049 536.492 523.731 536.491L523.147 536.483C522.677 536.476 522.258 536.782 522.12 537.233L521.648 538.771C521.458 539.359 521.214 539.923 521.003 540.495 520.534 541.618 520.037 542.715 519.439 543.738 518.28 545.802 516.896 547.662 515.338 549.266 512.211 552.466 508.359 554.54 504.473 555.329 502.522 555.679 500.579 555.775 498.715 555.573 496.849 555.373 495.076 554.873 493.433 554.197 491.791 553.514 490.295 552.612 488.944 551.6 488.265 551.097 487.634 550.548 487.029 549.988 486.873 549.853 486.735 549.701 486.589 549.557L486.29 549.259C486.168 549.141 486.051 549.009 485.933 548.884 485.624 548.548 485.318 548.214 485.012 547.88 486.304 547.353 487.609 546.734 488.783 546.01 490.091 545.22 491.215 544.318 492.036 543.522 492.495 543.077 492.466 542.335 491.97 541.932L491.552 541.592C491.108 541.23 490.469 541.299 490.082 541.723 485.874 546.335 479.202 548.683 473.039 547.721 472.473 547.633 471.931 547.979 471.81 548.54L471.696 549.066C471.562 549.688 471.994 550.287 472.625 550.348 473.765 550.456 475.211 550.457 476.73 550.252 478.841 549.989 481.059 549.354 482.939 548.658L482.939 548.653 482.94 548.657C483.295 548.539 483.663 548.401 484.031 548.264L483.772 548.716 483.374 549.382C483.247 549.598 483.086 549.863 483.022 549.946 482.686 550.449 482.336 550.943 481.957 551.409 481.206 552.35 480.379 553.223 479.476 554.003 477.669 555.56 475.584 556.766 473.354 557.519 468.895 559.073 463.971 558.758 459.671 557.079 459.28 556.935 458.898 556.769 458.518 556.601 458.434 556.284 458.223 556.007 457.893 555.881 457.367 555.683 456.754 555.44 456.12 555.114 455.005 554.553 453.836 553.733 453.021 552.802L453.017 552.803 453.02 552.801C452.241 551.839 451.63 550.547 451.266 549.351 451.052 548.671 450.917 548.025 450.81 547.472 450.696 546.883 450.112 546.511 449.531 546.649L449.033 546.766C448.426 546.909 448.082 547.541 448.268 548.137 449.284 551.385 451.286 554.277 453.92 556.398 453.563 556.783 453.219 557.18 452.843 557.542 451.212 559.206 449.463 560.724 447.654 562.135 443.99 564.894 440.021 567.15 435.849 568.692 427.532 571.856 418.574 572.338 410.479 570.54 402.357 568.764 395.118 564.763 389.429 559.608 388.715 558.965 388.047 558.28 387.359 557.625 386.696 556.944 386.069 556.234 385.427 555.547 384.813 554.836 384.232 554.101 383.638 553.385 383.343 553.026 383.084 552.639 382.806 552.27L381.756 550.835 381.557 550.565C381.482 550.492 381.45 550.334 381.317 550.38L380.648 550.398 378.815 550.445C378.773 550.446 378.732 550.444 378.69 550.438 378.145 550.369 377.594 550.386 377.054 550.315L375.763 550.131C374.059 549.815 372.415 549.314 370.873 548.625 369.347 547.905 367.93 547.017 366.652 545.992 365.386 544.949 364.296 543.745 363.361 542.464 362.427 541.176 361.739 539.759 361.19 538.325 361.011 537.771 360.832 537.22 360.654 536.671L360.562 536.383 360.515 536.24C360.479 536.216 360.42 536.218 360.374 536.205L359.783 536.096 358.788 535.911C358.018 535.785 357.272 535.574 356.528 535.387 350.598 533.743 345.631 530.304 342.308 526.128 339.188 522.271 337.469 517.86 336.908 513.674 336.831 513.102 336.745 512.18 336.714 511.604 336.541 508.396 337 504.944 338.27 501.56 339.678 497.826 342.003 494.127 345.327 491.127 348.642 488.152 352.801 485.691 357.561 484.532L359.303 484.109C359.335 484.101 359.368 484.095 359.401 484.09 359.996 484.004 360.593 483.917 361.194 483.83 362.424 483.609 363.687 483.568 364.954 483.546 366.223 483.546 367.503 483.616 368.784 483.783 369.425 483.861 370.064 483.969 370.704 484.092 371.024 484.156 371.343 484.222 371.661 484.297L372.17 484.419 373.119 484.672 374.067 484.928C374.138 484.932 374.244 485.009 374.285 484.953L374.378 484.723 374.564 484.265 375.214 482.661C375.459 482.053 375.783 481.478 376.063 480.88 376.713 479.729 377.416 478.593 378.257 477.542 379.916 475.428 381.941 473.537 384.265 472.022 388.913 469.007 394.7 467.417 400.536 467.818 402.75 467.969 404.965 468.397 407.102 469.112 403.666 469.528 400.384 471.011 397.829 473.361 397.371 473.784 397.353 474.504 397.806 474.932L398.211 475.313C398.625 475.703 399.276 475.702 399.677 475.298 400.473 474.497 401.561 473.51 402.971 472.707 404.823 471.614 407.209 470.896 409.345 470.932L409.347 470.928 409.347 470.932C410.28 470.959 411.254 471.14 412.206 471.424L412.475 471.565 412.707 471.687C412.753 471.724 412.783 471.724 412.783 471.658L412.793 471.612C413.808 471.968 414.783 472.442 415.633 472.998 417.001 473.864 418.043 474.898 418.801 475.734 419.184 476.158 419.832 476.192 420.266 475.82L420.689 475.457C421.162 475.05 421.178 474.33 420.738 473.886 418.685 471.816 416.086 470.337 413.286 469.571L413.527 468.573C413.912 467.104 414.391 465.652 414.981 464.238 417.313 458.574 421.313 453.468 426.513 449.885 429.106 448.091 431.988 446.677 435.036 445.727 438.084 444.769 441.297 444.307 444.519 444.274 450.986 444.189 457.46 446.335 462.866 450.036 465.583 451.883 467.996 454.186 470.028 456.787 470.574 457.409 471.017 458.109 471.482 458.791L472.155 459.779C472.172 459.803 472.187 459.83 472.202 459.855L472.79 460.896C473.182 461.624 473.635 462.323 473.944 463.094L474.477 464.28 474.896 465.211 475.103 465.673C475.251 465.678 475.43 465.623 475.592 465.601L477.237 465.302C477.627 465.205 478.025 465.225 478.42 465.19 479.213 465.185 480.011 465.221 480.789 465.377 482.357 465.647 483.851 466.278 485.18 467.154 486.493 468.05 487.652 469.195 488.509 470.542L488.827 471.049 489.009 471.394C484.304 470.364 479.27 471.245 475.197 473.802 474.69 474.12 474.577 474.816 474.926 475.302L475.261 475.77C475.594 476.235 476.234 476.344 476.708 476.025 477.813 475.281 479.334 474.379 481.196 473.792 483.561 473.008 486.432 472.786 488.837 473.346L488.84 473.343 488.839 473.347C491.239 473.926 493.707 475.413 495.471 477.173 496.877 478.537 497.835 480.03 498.491 481.192 498.771 481.689 499.395 481.865 499.899 481.599L500.398 481.336C500.946 481.047 501.124 480.354 500.8 479.826 498.634 476.285 495.271 473.545 491.392 472.101 492.064 472.021 492.727 471.964 493.399 471.944 496.677 471.842 499.97 472.5 502.933 473.88 505.906 475.243 508.515 477.344 510.552 479.899 511.066 480.534 511.533 481.205 511.983 481.888 512.206 482.257 512.388 482.539 512.641 482.983L513.065 483.757 513.277 484.143C513.294 484.241 513.392 484.196 513.467 484.192L513.701 484.162 515.265 483.961 516.497 483.844C517.319 483.77 518.142 483.729 518.966 483.701 522.261 483.601 525.559 483.826 528.792 484.348 535.238 485.414 541.59 487.47 546.556 491.514 551.54 495.444 555.324 500.92 556.584 506.958L556.597 506.998 556.593 506.999C557.252 510.118 557.191 513.4 556.41 516.38Z" fill="#5AA3CF" fill-rule="evenodd"/><path d="M510.307 513.425C509.91 512.986 509.269 512.979 508.843 513.385 505.008 517.042 500.028 519.34 494.917 519.789 490.081 520.218 485.119 518.973 480.921 516.352 481.808 516.064 482.691 515.707 483.51 515.273 484.605 514.708 485.561 514.001 486.277 513.338 486.766 512.885 486.751 512.07 486.255 511.624L485.855 511.265C485.445 510.897 484.834 510.91 484.457 511.319 481.003 515.071 475.204 516.326 470.666 514.302 470.171 514.081 469.603 514.323 469.358 514.834L469.119 515.331C468.823 515.947 469.102 516.706 469.716 516.92 470.616 517.234 471.752 517.489 472.967 517.554 474.762 517.674 476.681 517.41 478.317 517.024 478.178 517.505 478.331 518.042 478.756 518.312 480.341 519.321 482.623 520.431 485.23 521.105 488.399 521.965 491.982 522.179 495.075 521.86L495.077 521.856 495.077 521.86C498.178 521.631 501.68 520.792 504.674 519.39 507.145 518.268 509.225 516.774 510.635 515.501 511.098 515.082 511.121 514.328 510.7 513.862L510.307 513.425Z" fill="#5AA3CF" fill-rule="evenodd"/><path d="M422.509 534.096C422.123 533.548 421.479 533.443 420.992 533.763 415.02 537.679 407.29 538.875 400.443 536.892 393.766 534.969 387.968 530.029 384.888 523.749 385.854 523.455 386.791 523.073 387.67 522.592 390.295 521.161 392.546 518.904 393.818 516.098 394.083 515.516 393.794 514.826 393.194 514.615L392.642 514.422C392.114 514.238 391.545 514.494 391.314 515.008 390.875 515.986 390.209 517.08 389.24 518.134 388.603 518.835 387.832 519.515 386.933 520.091 386.045 520.683 385.036 521.195 383.939 521.535 382.847 521.883 381.675 522.105 380.481 522.109 379.29 522.104 378.09 521.897 376.952 521.483 374.655 520.676 372.718 518.975 371.408 517.083L371.402 517.082 371.405 517.08C370.519 515.771 369.878 514.211 369.589 512.689 369.537 512.306 369.438 511.935 369.428 511.563 369.425 511.424 369.382 511.073 369.378 510.781 369.366 510.479 369.375 510.159 369.416 509.811 369.517 508.445 369.692 507.154 369.826 506 369.237 506.622 368.718 507.215 368.054 507.88 367.73 508.212 367.408 508.542 367.088 508.87 366.767 509.17 366.452 509.423 366.135 509.629 365.332 510.182 364.622 510.463 363.845 510.771 362.302 511.296 360.752 511.446 359.361 511.35 357.965 511.254 356.731 510.907 355.715 510.462 355.083 510.186 354.549 509.855 354.084 509.527 353.627 509.204 353.006 509.273 352.644 509.702L352.257 510.16C351.842 510.651 351.942 511.399 352.469 511.765 354.969 513.494 358.061 514.161 360.989 513.885 362.652 513.73 364.293 513.278 365.807 512.522L366.914 511.897 367.33 511.605 367.339 511.598 367.339 511.605 367.389 512.101 367.633 513.37C368.034 515.042 368.734 516.625 369.667 518.048 371.524 520.883 374.378 523.144 377.755 523.997 379.203 524.364 380.685 524.441 382.141 524.299 382.153 524.331 382.15 524.365 382.165 524.396 383.285 526.705 385.277 529.728 388.161 532.302 391.449 535.328 395.805 537.683 399.899 538.809L399.904 538.806 399.903 538.81C403.968 540.04 408.899 540.366 413.275 539.554 417.072 538.909 420.346 537.408 422.505 536.047 423.027 535.718 423.156 535.012 422.797 534.507L422.509 534.096Z" fill="#5AA3CF" fill-rule="evenodd"/></g></svg>