<svg width="279" height="117" xmlns="http://www.w3.org/2000/svg" xmlns:xlink="http://www.w3.org/1999/xlink" overflow="hidden"><defs><clipPath id="clip0"><rect x="326" y="153" width="279" height="117"/></clipPath></defs><g clip-path="url(#clip0)" transform="translate(-326 -153)"><path d="M591.609 236.346C584.036 240.942 574.588 242.171 566.321 240.314 563.209 251.278 552.212 258.274 540.775 256.17 535.999 255.295 531.861 252.954 528.73 249.699 522.365 258.435 513.213 264.403 502.357 265.783 493.176 266.953 484.118 264.66 476.184 259.806 472.663 260.616 468.857 259.311 465.965 256.513 457.726 263.689 447.193 268 435.71 268 424.179 268 413.599 263.65 405.331 256.409 402.62 259.32 399.09 261.233 395.113 261.605 387.93 262.28 381.279 257.798 377.806 250.774 354.096 255.162 332.442 246.149 328.59 229.799 327.734 226.163 327.829 222.451 328.751 218.816 332.148 205.349 346.838 192.825 366.485 188.19 367.417 187.972 368.34 187.771 369.263 187.601 369.472 186.868 369.72 186.145 370.024 185.431 373.582 176.923 382.697 172.355 391.916 173.706 400.184 160.468 414.598 152.845 429.231 155.538 440.4 157.594 449.315 165.217 454.252 175.514 457.116 171.07 462.093 167.872 468.01 167.32 474.67 166.692 480.797 169.556 484.346 174.315 491.149 168.662 499.131 165.958 507.046 167.415 515.686 169.005 522.64 175.248 526.95 184.108 530.812 182.757 535.075 182.348 539.385 183.147 546.34 184.422 552.057 188.534 555.569 194.063 568.955 190.722 589.724 197.793 597.641 205.912 598.639 206.94 599.496 208.016 600.199 209.138 605.994 218.14 602.636 229.665 591.609 236.346Z" fill="#FFFFFF" fill-rule="evenodd"/><path d="M591.609 236.327C584.036 240.926 574.588 242.156 566.321 240.298 563.209 251.269 552.212 258.268 540.775 256.163 535.999 255.287 531.861 252.945 528.73 249.688 522.365 258.43 513.213 264.401 502.357 265.781 493.176 266.953 484.118 264.658 476.184 259.802 472.663 260.611 468.857 259.306 465.965 256.507 457.726 263.687 447.193 268 435.71 268 424.179 268 413.599 263.648 405.331 256.402 402.62 259.315 399.09 261.229 395.113 261.601 387.93 262.277 381.279 257.792 377.806 250.764 354.096 255.155 332.442 246.136 328.59 229.776 327.734 226.139 327.829 222.425 328.751 218.787 335.241 232 359.751 234.263 371.603 222.301 386.019 242.166 428.644 228.231 432.012 214.586 419.72 216.768 405.398 212.169 404.456 207.046 413.504 212.198 443.906 207.84 461.398 196 460.656 200.143 453.048 209.717 446.359 212.613 445.449 221.771 450.223 231.41 458.283 235.334 472.082 242.051 483.105 233.453 490.478 228.368 496.444 234.633 505.724 241.887 513.851 238.946 527.137 234.139 530.795 227.079 532.752 220.009 543.738 223.936 551.232 217.237 553.291 209.444 560.56 217.519 567.413 222.226 578.193 220.96 586.661 219.96 594.644 215.57 600.199 209.104 605.994 218.111 602.636 229.643 591.609 236.327Z" fill="#C4E3F2" fill-rule="evenodd"/><path d="M329.872 238.211C330.665 239.37 331.495 240.508 332.452 241.529 334.326 243.61 336.504 245.381 338.841 246.86 343.52 249.833 348.778 251.713 354.136 252.762 359.501 253.814 364.993 254.066 370.415 253.647 371.77 253.538 373.125 253.405 374.47 253.212 375.144 253.13 375.815 253.021 376.485 252.904 376.604 252.884 376.649 252.876 376.664 252.874L376.669 252.883 376.855 253.231C376.935 253.388 377.037 253.533 377.127 253.684L377.67 254.558C377.681 254.575 377.692 254.592 377.704 254.608 378.111 255.173 378.485 255.761 378.943 256.289 379.813 257.406 380.834 258.406 381.915 259.33 384.099 261.156 386.704 262.544 389.527 263.204 392.346 263.868 395.344 263.788 398.125 262.958 399.511 262.535 400.847 261.947 402.076 261.193 402.696 260.822 403.285 260.407 403.85 259.965 404.133 259.743 404.411 259.516 404.677 259.277 404.813 259.16 404.948 259.042 405.075 258.917L405.132 258.861 405.137 258.865C405.625 259.289 406.188 259.724 406.726 260.132 407.263 260.557 407.819 260.956 408.383 261.345 408.937 261.746 409.508 262.126 410.089 262.487 414.7 265.442 419.824 267.615 425.177 268.83 435.88 271.312 447.433 269.799 457.163 264.733 459.598 263.477 461.923 262.012 464.111 260.367 464.652 259.948 465.209 259.549 465.726 259.101L465.952 258.912 466.321 259.212C466.617 259.427 466.905 259.654 467.218 259.848 467.827 260.259 468.481 260.607 469.153 260.916 470.503 261.527 471.975 261.909 473.486 262.003 474.243 262.039 475.005 262.006 475.76 261.898 475.869 261.879 476.035 261.848 475.988 261.855L476.689 262.265C479.064 263.635 481.568 264.788 484.163 265.699 489.343 267.54 494.914 268.359 500.425 267.978 505.931 267.616 511.366 266.049 516.217 263.415 521.076 260.789 525.333 257.132 528.774 252.862L528.923 252.677 529.003 252.572 529.163 252.362 529.191 252.327 529.465 252.574C530.526 253.506 531.667 254.344 532.875 255.078 535.29 256.544 537.977 257.559 540.748 258.089 546.3 259.145 552.222 258.154 557.104 255.31 562.003 252.504 565.84 247.897 567.68 242.558L567.714 242.457 567.714 242.454 567.714 242.452 567.717 242.453 568.259 242.555 569.287 242.709C570.657 242.91 572.038 243.014 573.419 243.058 576.183 243.125 578.953 242.896 581.668 242.372 587.084 241.285 592.322 239.018 596.614 235.417 598.752 233.622 600.667 231.515 602.135 229.087 603.575 226.647 604.563 223.906 604.883 221.055 605.211 218.208 604.847 215.274 603.835 212.595 602.967 210.268 601.635 208.15 600.026 206.3 599.621 205.834 598.901 205.101 598.458 204.694 596.043 202.479 593.319 200.77 590.518 199.277 587.396 197.62 584.12 196.314 580.777 195.24 574.096 193.125 567.043 191.858 559.89 192.527L558.552 192.663C558.107 192.724 557.664 192.828 557.22 192.909L556.631 193.024 556.512 192.848C555.474 191.362 554.28 189.983 552.95 188.748 550.296 186.273 547.108 184.366 543.667 183.203 540.229 182.038 536.549 181.581 532.928 181.927 532.023 182.008 531.123 182.14 530.234 182.322 529.789 182.409 529.346 182.513 528.906 182.626L528.248 182.803 527.931 182.897 527.622 182.298C527.174 181.53 526.759 180.744 526.262 180.002 524.359 176.996 522.012 174.222 519.203 171.955 517.811 170.81 516.294 169.802 514.682 168.969 513.074 168.133 511.385 167.427 509.623 166.966 506.119 165.995 502.393 165.803 498.817 166.408 495.229 166.979 491.813 168.305 488.716 170.095 487.937 170.539 487.186 171.023 486.444 171.52 486.073 171.768 485.719 172.038 485.356 172.297L484.9 172.63 484.793 172.714 484.648 172.829 484.351 172.505C483.732 171.812 483.041 171.191 482.326 170.603 479.445 168.266 475.881 166.838 472.222 166.41 468.559 165.977 464.798 166.551 461.427 168.063 459.739 168.811 458.171 169.82 456.755 171.005 456.052 171.605 455.384 172.246 454.776 172.945L454.412 173.363 453.478 171.754C452.758 170.586 451.994 169.437 451.16 168.341 449.498 166.143 447.602 164.116 445.497 162.324 441.297 158.731 436.221 156.12 430.808 154.883 429.46 154.547 428.081 154.386 426.707 154.193 426.018 154.111 425.322 154.103 424.631 154.055L423.634 154.001C423.605 154 423.576 153.999 423.548 154L422.551 154.028C419.773 154.032 417.013 154.486 414.335 155.172 408.968 156.568 404 159.255 399.749 162.738 397.618 164.468 395.721 166.453 393.938 168.524 393.923 168.542 393.908 168.56 393.894 168.578 393.078 169.664 392.185 170.697 391.461 171.848L390.905 172.676 390.776 172.662 390.513 172.634C390.162 172.592 389.81 172.559 389.456 172.559 386.633 172.432 383.784 172.81 381.088 173.69 378.401 174.597 375.882 176.018 373.726 177.879 371.56 179.732 369.838 182.091 368.635 184.669 368.301 185.301 368.098 185.986 367.858 186.657L367.785 186.869 367.56 186.917 365.568 187.346 363.593 187.846C358.353 189.27 353.249 191.258 348.491 193.916 343.74 196.573 339.305 199.858 335.536 203.853 331.783 207.834 328.663 212.577 327.08 217.957 325.438 223.291 325.638 229.298 327.891 234.48 328.423 235.793 329.133 237.016 329.872 238.211ZM328.521 220.226C329.308 216.557 330.999 213.091 333.132 209.939 337.491 203.653 343.715 198.683 350.552 195.083 353.969 193.255 357.584 191.81 361.268 190.634 363.014 190.093 364.778 189.613 366.558 189.219 366.779 189.501 367.125 189.673 367.509 189.632 373.099 189.039 378.853 189.917 384.01 192.148 384.54 192.377 385.154 192.16 385.401 191.639L385.632 191.151C385.901 190.584 385.625 189.908 385.032 189.699 384.128 189.381 382.985 189.062 381.75 188.8 379.946 188.408 377.956 188.136 376.218 187.9L376.216 187.904 376.217 187.9C374.487 187.607 372.507 187.273 370.669 187.11 370.403 187.085 370.144 187.066 369.886 187.048L370.169 186.239C370.18 186.206 370.193 186.175 370.207 186.143 370.389 185.731 370.593 185.329 370.783 184.921 372.494 181.604 375.204 178.823 378.482 177.084 381.743 175.335 385.466 174.472 389.119 174.648 389.576 174.649 390.031 174.683 390.484 174.744L391.459 174.849 391.733 174.879 391.869 174.894C391.917 174.905 391.962 174.908 391.98 174.853L392.287 174.399 393.205 173.04C393.47 172.663 393.705 172.265 393.994 171.906 394.563 171.184 395.111 170.448 395.692 169.742 396.303 169.061 396.911 168.382 397.517 167.704 400.032 165.077 402.866 162.812 405.917 161.017 412.008 157.402 418.999 155.765 425.568 156.333 428.848 156.613 432.032 157.331 434.952 158.526 437.873 159.716 440.544 161.306 442.902 163.16 445.261 165.015 447.311 167.128 449.035 169.378 449.45 169.952 449.861 170.522 450.271 171.087 450.646 171.675 451.033 172.248 451.393 172.834L451.906 173.725 452.161 174.168 452.288 174.388 452.351 174.499 452.454 174.698 453.255 176.258C452.68 176.401 452.117 176.547 451.583 176.697L451.582 176.701 451.581 176.697C449.776 177.14 447.725 177.736 445.919 178.518 444.652 179.053 443.518 179.681 442.652 180.257 442.123 180.61 442.024 181.341 442.436 181.825L442.784 182.233C443.157 182.671 443.801 182.721 444.258 182.37 448.877 178.831 454.988 177.288 460.803 177.942 461.376 178.006 461.9 177.627 461.989 177.059 462.029 176.805 462.061 176.603 462.061 176.603 462.172 175.902 461.71 175.331 461.076 175.302 460.044 175.254 458.755 175.295 457.394 175.467 456.797 175.538 456.188 175.639 455.579 175.752 455.711 175.57 455.841 175.387 455.975 175.207 456.059 175.094 456.126 174.992 456.229 174.879L456.37 174.718 456.652 174.396C456.833 174.175 457.047 173.984 457.241 173.777 458.047 172.974 458.93 172.255 459.869 171.629 461.746 170.369 463.861 169.529 466.024 169.058 470.371 168.129 474.934 168.867 478.596 170.984 479.508 171.515 480.382 172.107 481.164 172.799 481.571 173.126 481.929 173.505 482.298 173.866L482.821 174.44C483.166 174.841 483.454 175.217 483.774 175.606L484.242 176.185C484.279 176.27 484.325 176.192 484.369 176.165L484.502 176.061 484.766 175.852 485.822 175.018 486.349 174.601 486.694 174.348 487.337 173.885C488.199 173.276 489.085 172.713 489.988 172.195 493.595 170.126 497.537 168.829 501.467 168.592 505.391 168.349 509.273 169.123 512.65 170.758 516.036 172.385 518.949 174.768 521.286 177.528 522.455 178.911 523.502 180.372 524.43 181.886L525.094 183.038C525.201 183.231 525.32 183.417 525.417 183.615L525.781 184.326 526.292 185.317C524.348 185.089 522.248 185.016 520.284 185.231 518.421 185.414 516.717 185.863 515.442 186.342 514.847 186.566 514.574 187.248 514.861 187.815L515.114 188.318C515.368 188.822 515.97 189.017 516.488 188.791 523.301 185.823 531.903 187.116 537.537 191.955 537.965 192.322 538.599 192.313 538.99 191.907L539.326 191.558C539.822 191.043 539.763 190.311 539.259 189.922 538.181 189.089 536.685 188.159 534.958 187.436 532.771 186.491 530.269 185.883 528.02 185.558L528.523 185.397 528.904 185.285 529.212 185.2C532.503 184.308 535.896 184.178 539.092 184.72 545.52 185.774 550.972 189.509 554.291 194.275 554.457 194.523 554.622 194.769 554.787 195.016 554.243 195.286 553.707 195.554 553.199 195.801L553.2 195.805 553.198 195.801C551.858 196.39 550.305 197.026 548.917 197.701 548.049 198.119 547.248 198.552 546.602 198.953 546.06 199.288 545.945 200.021 546.346 200.515L546.676 200.923C547.039 201.371 547.687 201.438 548.148 201.09 551.796 198.336 556.046 196.368 560.507 195.364 560.706 195.319 560.868 195.21 561.006 195.079 561.205 195.061 561.405 195.04 561.603 195.027 562.315 195.013 563.022 195 563.724 194.987 566.536 195.043 569.289 195.265 571.923 195.779 577.208 196.693 582.047 198.337 586.37 200.254 590.326 202.012 593.84 204.169 596.582 206.644 597.002 207.024 597.608 207.648 597.97 208.068 599.092 209.374 600.124 210.816 600.881 212.457 601.75 214.415 602.28 216.591 602.301 218.863 602.321 221.128 601.864 223.485 600.857 225.703 599.858 227.922 598.382 230.006 596.551 231.847 592.908 235.57 587.803 238.237 582.197 239.543 579.387 240.203 576.432 240.5 573.432 240.43 571.935 240.373 570.422 240.264 568.919 240.009 568.73 239.983 568.542 239.954 568.354 239.914L567.384 239.723 566.262 239.502 565.981 239.447 565.888 239.718 565.706 240.262 565.118 242.015C565.012 242.379 564.854 242.722 564.698 243.069 563.503 245.849 561.707 248.444 559.365 250.532 557.017 252.603 554.19 254.223 551.091 255.134 547.987 256.013 544.646 256.207 541.375 255.644 538.111 255.061 534.947 253.7 532.248 251.642 531.915 251.38 531.579 251.12 531.259 250.838L531.017 250.631 530.624 250.258 529.817 249.487 528.94 248.637C528.708 248.827 528.498 249.186 528.275 249.452L526.959 251.178C525.824 252.551 524.686 253.883 523.393 255.106 520.856 257.581 517.955 259.736 514.775 261.431 508.433 264.851 500.905 266.326 493.505 265.464 489.801 265.071 486.148 264.065 482.655 262.633 480.91 261.91 479.214 261.054 477.566 260.106 477.293 260.023 476.385 259.156 475.729 259.565L475.465 259.616 475.289 259.639 474.963 259.678C474.746 259.709 474.525 259.704 474.306 259.72 473.427 259.745 472.539 259.631 471.677 259.399 470.814 259.168 469.976 258.821 469.186 258.38 468.878 258.209 468.583 258.011 468.29 257.811 468.332 257.816 468.373 257.826 468.417 257.831 472.997 258.307 477.685 256.96 481.323 254.159 481.817 253.778 481.904 253.068 481.49 252.6L481.116 252.179C480.738 251.753 480.087 251.696 479.649 252.061 478.692 252.86 477.378 253.845 475.723 254.588 473.596 255.582 470.937 256.121 468.621 255.889L468.619 255.893 468.619 255.889C466.305 255.634 463.818 254.552 461.945 253.14 460.483 252.068 459.403 250.832 458.634 249.852 458.282 249.404 457.635 249.324 457.176 249.662L456.787 249.949C456.22 250.367 456.155 251.081 456.559 251.556 458.708 254.082 461.556 255.967 464.698 257.008L464.111 257.499C463.929 257.656 463.741 257.807 463.548 257.95 462.788 258.541 462.023 259.127 461.224 259.668 459.644 260.771 457.993 261.784 456.274 262.671 454.566 263.581 452.787 264.363 450.968 265.034 443.697 267.748 435.656 268.509 427.942 267.178 420.221 265.876 412.877 262.465 406.802 257.519L406.208 257.021C406.532 256.322 406.813 255.592 407.072 254.953L407.069 254.951 407.073 254.953C407.438 254.201 407.899 253.341 408.225 252.478 408.338 252.186 408.434 251.894 408.511 251.616 408.698 250.932 408.139 250.269 407.428 250.303L407.069 250.321C406.466 250.35 406.04 250.771 406.003 251.306 405.867 253.264 405.005 255.203 403.641 256.616 403.379 256.887 403.302 257.264 403.392 257.607 402.76 258.176 402.091 258.705 401.381 259.168 399.79 260.205 398.011 260.945 396.154 261.312 392.427 262.072 388.483 261.229 385.261 259.229 383.639 258.239 382.191 256.969 380.951 255.525 380.334 254.799 379.758 254.038 379.242 253.239 379 252.829 378.718 252.442 378.505 252.015L378.02 251.112C377.932 250.953 377.85 250.784 377.759 250.633L377.216 250.724 375.479 251.019C375.001 251.108 374.519 251.159 374.038 251.228 373.077 251.371 372.113 251.465 371.149 251.56 369.22 251.728 367.289 251.836 365.361 251.822 357.671 251.813 349.966 250.389 343.226 247.063 339.857 245.421 336.785 243.234 334.248 240.581 331.716 237.925 329.826 234.715 328.818 231.267L328.801 231.221 328.805 231.22C327.753 227.698 327.712 223.876 328.521 220.226Z" fill="#5AA3CF" fill-rule="evenodd"/><path d="M402.726 206.492C415.861 210.981 430.308 211.154 443.534 207.056 445.251 206.594 446.898 205.909 448.573 205.317 449.402 204.996 450.209 204.615 451.028 204.267 451.844 203.911 452.666 203.57 453.451 203.143L455.832 201.924C456.62 201.508 457.374 201.023 458.147 200.577 458.914 200.118 459.693 199.681 460.42 199.156L461.528 198.398 461.998 198.078 462.092 198.179 462.126 198.215 462.352 198.423 462.876 198.904C463.585 199.535 464.342 200.104 465.131 200.617 466.712 201.641 468.43 202.426 470.219 202.958 473.442 203.916 476.922 204.054 480.218 203.224 480.803 203.077 481.13 202.432 480.951 201.842L480.774 201.259C480.606 200.706 480.053 200.387 479.505 200.525 477.759 200.961 475.553 201.213 473.087 200.866 470.165 200.476 466.884 199.216 464.18 196.843L463.925 196.622C463.839 196.546 463.772 196.497 463.617 196.331L462.815 195.499 462.416 195.086C462.382 195.059 462.353 195 462.315 195L462.188 195.09 461.934 195.269 460.916 195.985 458.512 197.711C458.493 197.724 458.474 197.737 458.455 197.748 456.818 198.758 455.198 199.851 453.463 200.718 451.776 201.683 449.994 202.431 448.267 203.223 448.247 203.233 448.227 203.241 448.206 203.248 446.433 203.911 444.713 204.645 442.976 205.118L442.971 205.124 442.97 205.12C436.048 207.268 427.758 208.107 420.368 207.469L417.669 207.216C417.648 207.214 417.628 207.212 417.608 207.209L413.797 206.618C413.779 206.615 413.75 206.61 413.732 206.606L412.525 206.34C411.72 206.165 410.935 205.993 410.175 205.827 408.674 205.417 407.269 205.03 406 204.647L403.602 203.83C403.053 203.643 402.459 203.941 402.263 204.5L402.064 205.072C401.861 205.655 402.159 206.298 402.726 206.492Z" fill="#5AA3CF" fill-rule="evenodd"/><path d="M473.062 220.224C472.606 219.865 471.959 219.946 471.6 220.408L471.236 220.876C470.864 221.354 470.939 222.064 471.412 222.431 476.626 226.469 482.879 228.848 489.306 229.556 488.958 229.958 488.916 230.568 489.271 230.983 492.137 234.323 495.821 236.947 499.91 238.436 504.334 240.068 509.161 240.406 513.753 239.529 518.348 238.651 522.724 236.563 526.326 233.469 529.66 230.624 532.287 226.901 533.924 222.769 534.149 222.202 533.854 221.556 533.298 221.346L532.742 221.138C532.205 220.937 531.615 221.209 531.403 221.757 530.99 222.825 530.475 224.072 529.749 225.38 528.793 227.109 527.509 228.958 525.877 230.661 522.641 234.096 517.894 236.698 513.398 237.55L513.395 237.555 513.394 237.551C508.902 238.414 503.563 237.733 499.396 235.637 497.305 234.614 495.5 233.317 494.045 232.016 493.177 231.25 492.453 230.469 491.826 229.749 498.691 230.033 505.629 228.418 511.607 224.806 512.119 224.497 512.272 223.8 511.954 223.282L511.644 222.775C511.338 222.274 510.704 222.117 510.211 222.42 508.411 223.531 505.855 224.993 502.787 226.026 499.207 227.279 494.986 227.926 491.281 227.721L491.278 227.725 491.278 227.721C487.575 227.488 483.453 226.348 480.035 224.68 477.104 223.292 474.728 221.539 473.062 220.224Z" fill="#5AA3CF" fill-rule="evenodd"/><path d="M348.803 231.787C356.997 233.641 365.883 231.21 372.112 225.634 384.019 234.669 400.763 236.581 414.379 230.416 414.927 230.168 415.154 229.504 414.89 228.963L414.634 228.435C414.378 227.91 413.756 227.686 413.227 227.93 411.198 228.869 408.326 230.105 404.967 230.892 401.07 231.847 396.568 232.186 392.662 231.742L392.658 231.746 392.658 231.742C388.754 231.271 384.452 229.901 380.881 228.071 378.083 226.673 375.765 225.013 374.045 223.684 374.248 223.457 374.459 223.24 374.654 223.004 374.715 222.931 374.743 222.845 374.781 222.763 378.581 222.968 382.485 222.115 385.784 220.085 386.299 219.768 386.417 219.066 386.069 218.57L385.736 218.098C385.402 217.625 384.756 217.498 384.275 217.82 383.375 218.424 382.189 219.161 380.75 219.717 378.818 220.493 376.463 220.916 374.398 220.769L374.396 220.773 374.396 220.769C372.333 220.585 370.076 219.792 368.292 218.717 366.959 217.939 365.906 217.022 365.113 216.283 364.691 215.888 364.032 215.911 363.627 216.324L363.224 216.738C362.801 217.17 362.806 217.884 363.265 218.279 365.671 220.353 368.607 221.709 371.671 222.357 370.95 223.218 370.079 224.172 369.024 225.084 367.123 226.767 364.665 228.272 362.301 229.094L362.3 229.099 362.299 229.095C359.923 229.882 357.06 230.185 354.53 230.007 352.552 229.89 350.8 229.485 349.482 229.144 348.916 228.998 348.336 229.331 348.181 229.896L348.048 230.374C347.866 231.037 348.215 231.653 348.803 231.787Z" fill="#5AA3CF" fill-rule="evenodd"/></g></svg>