<svg width="248" height="132" xmlns="http://www.w3.org/2000/svg" xmlns:xlink="http://www.w3.org/1999/xlink" overflow="hidden"><defs><clipPath id="clip0"><rect x="716" y="291" width="248" height="132"/></clipPath></defs><g clip-path="url(#clip0)" transform="translate(-716 -291)"><path d="M961.982 371.575C961.567 381.773 952.994 389.692 942.837 389.263 942.691 389.263 942.544 389.229 942.387 389.218 940.084 396.471 934.905 402.122 927.735 404.097 921.51 405.8 914.971 404.378 909.398 400.735 906.905 403.543 903.118 405.089 899.14 404.548 895.208 404.007 892.005 401.547 890.343 398.253 880.455 413.504 861.859 419.878 846.758 412.444 843.499 410.831 840.657 408.71 838.252 406.183 831.195 417.452 817.679 423.442 804.353 420.058 794.522 417.553 787.005 410.492 783.398 401.626 780.949 403.859 777.566 405.033 774.027 404.548 769.128 403.871 765.364 400.216 764.297 395.659 762.297 395.76 760.264 395.784 758.196 395.693 735.6 394.746 717.622 381.977 717.016 366.804 716.995 366.274 716.995 365.744 717.016 365.202 717.657 349.748 736.185 337.916 758.769 338.209 761.915 329.827 769.994 323.724 779.634 322.766 780.589 316.472 786.387 312.095 792.691 312.953 795.207 313.302 797.421 314.442 799.129 316.077 803.994 308.767 813.14 304.458 822.927 305.789 825.803 306.184 828.478 307.064 830.927 308.282 839.658 297.814 852.523 291.44 866.624 292.039 880.679 292.625 892.96 300.025 900.803 311.137 903.241 310.257 905.848 310.28 908.151 311.418 911.331 312.998 913.185 316.314 913.388 320.07 914.893 319.845 916.444 319.754 918.017 319.821 933.219 320.453 944.972 335.004 944.366 352.354 951.714 352.659 957.861 357.249 960.546 363.612 961.578 366.047 962.106 368.755 961.982 371.575Z" fill="#FFFFFF" fill-rule="evenodd"/><path d="M961.982 371.486C961.567 381.702 952.993 389.635 942.835 389.206 942.69 389.206 942.543 389.172 942.386 389.161 940.083 396.427 934.903 402.088 927.733 404.066 921.508 405.772 914.968 404.349 909.395 400.699 906.901 403.512 903.114 405.06 899.136 404.518 895.203 403.976 892 401.512 890.338 398.212 880.449 413.491 861.853 419.876 846.75 412.429 843.491 410.813 840.649 408.688 838.244 406.157 831.187 417.446 817.669 423.447 804.343 420.057 794.51 417.547 786.993 410.474 783.386 401.591 780.937 403.828 777.554 405.004 774.015 404.518 769.115 403.84 765.351 400.179 764.284 395.614 762.284 395.715 760.25 395.738 758.182 395.648 735.585 394.699 717.606 381.907 717 366.707 726.734 374.851 745.651 373.587 755.067 367.145 749.83 364.319 746.691 360.335 746.729 354 755.602 364.635 772.888 366.786 787.961 356.547 781.443 364.91 772.264 373.327 762.151 370.241 767.185 379.949 772.116 384.618 782.68 387.296 793.242 389.963 819.754 379.867 819.833 368.917 830.788 372.883 830.628 372.673 838.684 364.209 844.628 374.684 860.191 378.007 869.855 370.876 878.17 380.911 896.734 378.707 902.498 367 897.576 366.65 892.834 364.209 889.665 360.412 899.474 364.152 910.858 363.486 920.173 358.638 918.824 362.434 915.431 365.419 911.51 366.243 916.488 379.149 933.174 377.442 938.736 366.266 946.815 378.109 953.479 369.758 960.547 363.509 961.578 365.949 962.106 368.661 961.982 371.486Z" fill="#C4E3F2" fill-rule="evenodd"/><path d="M963.999 370.575C963.947 366.485 962.563 362.07 959.459 358.28 957.759 356.228 955.55 354.38 952.845 353.069 951.501 352.399 950.028 351.889 948.469 351.549 948.081 351.451 947.686 351.378 947.284 351.326L946.681 351.236 946.442 351.2 946.399 351.198C946.351 351.192 946.26 351.191 946.246 351.184L946.245 351.085C946.215 350.264 946.273 349.426 946.169 348.581 946.086 347.75 946.002 346.905 945.917 346.046 945.914 346.019 945.911 345.992 945.906 345.966 945.607 344.249 945.296 342.474 944.73 340.698 943.654 337.115 941.942 333.435 939.365 330.01 936.789 326.613 933.359 323.379 928.911 321.268 928.369 321.019 927.824 320.766 927.273 320.512 927.244 320.499 927.214 320.486 927.185 320.475 926.617 320.256 926.029 320.078 925.444 319.876 924.273 319.418 923.002 319.243 921.744 318.951 921.717 318.945 921.69 318.94 921.664 318.935 921.033 318.828 920.384 318.797 919.736 318.723 919.075 318.661 918.411 318.579 917.734 318.588 917.058 318.581 916.377 318.602 915.693 318.649L915.002 318.708 914.919 318.72C914.919 318.72 914.914 318.708 914.911 318.686 914.907 318.665 914.903 318.639 914.898 318.608 914.879 318.506 914.856 318.389 914.832 318.259 914.626 317.198 914.214 315.682 913.202 314.085 912.21 312.501 910.53 310.853 908.246 309.996 907.115 309.567 905.856 309.33 904.579 309.346 903.94 309.351 903.299 309.414 902.664 309.531 902.506 309.563 902.346 309.588 902.19 309.628L901.787 309.726 901.634 309.775 901.591 309.725C901.543 309.663 901.495 309.6 901.445 309.535 901.192 309.203 900.928 308.854 900.651 308.489 900.065 307.784 899.43 307.016 898.721 306.214 897.273 304.633 895.538 302.898 893.438 301.173 889.233 297.762 883.522 294.316 876.416 292.454 872.878 291.52 869.022 290.989 864.996 291 860.97 290.993 856.772 291.576 852.63 292.827 850.546 293.411 848.511 294.25 846.48 295.15 844.49 296.136 842.485 297.176 840.609 298.467 839.647 299.06 838.764 299.775 837.837 300.439 837.822 300.45 837.807 300.462 837.792 300.474 836.917 301.202 835.998 301.891 835.164 302.683L833.881 303.861 832.654 305.109C832.239 305.52 831.839 305.948 831.459 306.395L830.773 307.177C830.636 307.115 830.484 307.048 830.319 306.975 829.919 306.798 829.481 306.621 829.008 306.44 828.061 306.082 826.969 305.728 825.744 305.434 824.521 305.133 823.157 304.915 821.695 304.804 820.976 304.717 820.227 304.742 819.46 304.709 819.438 304.708 819.416 304.708 819.394 304.709 818.626 304.738 817.833 304.74 817.029 304.83 815.391 304.963 813.7 305.316 811.988 305.794 810.28 306.301 808.576 307.015 806.921 307.911 805.261 308.8 803.69 309.936 802.243 311.24 801.873 311.558 801.519 311.895 801.186 312.255 800.848 312.61 800.492 312.951 800.186 313.338L799.712 313.904C799.561 314.086 799.359 314.321 799.331 314.375 799.195 314.556 799.058 314.778 798.921 314.927 798.796 314.81 798.662 314.699 798.522 314.593 798.227 314.374 797.792 314.072 797.408 313.847 796.608 313.373 795.746 312.98 794.839 312.692 793.027 312.108 791.037 311.973 789.081 312.265 787.125 312.586 785.219 313.402 783.572 314.625 781.961 315.884 780.57 317.526 779.731 319.474 779.295 320.389 778.966 321.671 778.911 322.061 778.9 322.092 778.905 322.147 778.881 322.159L778.794 322.171 778.618 322.195 778.048 322.273C777.528 322.329 777.02 322.459 776.505 322.558 774.451 322.997 772.42 323.673 770.478 324.599 766.593 326.44 763.086 329.337 760.553 333.021 759.921 333.94 759.346 334.908 758.854 335.919 758.729 336.171 758.589 336.417 758.489 336.68L758.223 337.316C757.303 337.102 752.056 337.85 750.807 337.996 746.352 338.499 741.903 339.486 737.649 341.071 733.399 342.648 729.32 344.802 725.776 347.661 722.25 350.51 719.229 354.109 717.53 358.325L717.516 358.372 717.512 358.37C715.918 362.275 715.554 366.737 716.565 370.902 717.545 375.088 719.837 378.868 722.694 381.994 725.565 385.134 729.004 387.683 732.665 389.698 736.326 391.726 740.212 393.243 744.148 394.329 748.084 395.419 752.073 396.067 756 396.367 757.964 396.542 759.915 396.464 761.84 396.473L763.17 396.469 763.496 396.469C763.569 396.446 763.57 396.52 763.586 396.573L763.63 396.735 763.676 396.897 763.791 397.222C763.876 397.455 763.95 397.693 764.058 397.917 764.246 398.376 764.472 398.816 764.71 399.246 766.647 402.7 770.228 404.962 773.896 405.41 775.728 405.65 777.579 405.468 779.272 404.922 780.119 404.65 780.926 404.289 781.68 403.853 781.795 403.784 781.896 403.723 781.986 403.668 782.518 403.341 783.209 403.536 783.488 404.095 783.915 404.951 784.527 406.116 785.075 406.985 786.057 408.544 787.149 409.99 788.313 411.337 790.688 413.985 793.384 416.182 796.276 417.817 799.149 419.483 802.194 420.606 805.218 421.248 808.239 421.907 811.252 422.137 814.134 421.922 819.902 421.48 825.112 419.573 829.318 416.806 831.452 415.462 833.311 413.859 834.965 412.179 835.361 411.76 835.755 411.345 836.145 410.931 836.163 410.912 836.181 410.892 836.197 410.871L837.262 409.56C837.624 409.138 837.958 408.675 838.253 408.232 838.451 408.419 838.654 408.601 838.868 408.78 839.121 408.99 839.439 409.057 839.738 409.002 840.417 409.595 841.113 410.153 841.822 410.673 843.281 411.742 844.794 412.658 846.331 413.426 849.434 414.917 852.576 415.861 855.633 416.374 861.784 417.221 867.439 416.39 872.156 414.63 876.902 412.904 880.806 410.429 883.997 407.707 884.395 407.364 884.809 407.046 885.181 406.691 885.547 406.329 885.909 405.97 886.266 405.614 886.624 405.258 886.979 404.906 887.331 404.556 887.671 404.195 887.977 403.81 888.297 403.443 888.911 402.689 889.589 402.005 890.11 401.217L890.526 400.64C890.558 400.602 890.587 400.549 890.614 400.537 890.653 400.607 890.64 400.599 890.728 400.725L890.797 400.824 891.025 401.112C891.197 401.335 891.378 401.548 891.569 401.752 892.317 402.578 893.16 403.296 894.065 403.889 895.876 405.08 897.929 405.756 899.952 405.934 901.976 406.118 903.976 405.811 905.757 405.123 906.649 404.782 907.486 404.341 908.255 403.827 908.638 403.57 909.012 403.301 909.358 403.005 909.535 402.861 909.708 402.715 909.869 402.557L909.979 402.453C909.995 402.448 909.99 402.417 910.023 402.435L910.137 402.507 910.271 402.59 910.81 402.893C911.522 403.302 912.249 403.662 912.977 403.988 914.431 404.643 915.901 405.15 917.361 405.514 920.287 406.227 923.169 406.357 925.823 405.997 931.162 405.273 935.43 402.677 938.385 399.636 939.866 398.101 941.055 396.45 942.009 394.772 942.489 393.932 942.904 393.083 943.275 392.233 943.448 391.804 943.636 391.383 943.791 390.955L943.882 390.697C943.885 390.69 943.887 390.688 943.887 390.688 943.887 390.688 943.899 390.688 943.892 390.69 944.118 390.689 944.341 390.687 944.562 390.686 944.828 390.683 945.091 390.681 945.352 390.678 945.615 390.651 945.876 390.623 946.134 390.597 947.158 390.524 948.12 390.309 949.048 390.104 949.073 390.098 949.099 390.092 949.124 390.085 950.959 389.565 952.625 388.935 954.025 388.08 956.903 386.454 958.871 384.388 960.287 382.436 961.715 380.473 962.541 378.54 963.094 376.765 963.548 375.4 963.755 374.097 963.884 372.836 963.942 372.225 964.007 371.192 963.999 370.575ZM955.615 383.616C953.924 385.136 951.929 386.316 949.783 387.058 948.717 387.427 947.615 387.692 946.498 387.842 946.479 387.845 946.459 387.847 946.44 387.848 945.884 387.891 945.343 388.014 944.771 387.988L943.903 387.995C943.582 388.021 943.227 387.986 942.87 387.94 942.376 387.877 941.906 388.174 941.743 388.644L941.372 389.707C941.241 390.102 941.15 390.327 941.019 390.638 940.792 391.227 940.524 391.796 940.249 392.362 939.675 393.478 939.054 394.574 938.301 395.575 936.831 397.595 935.004 399.348 932.903 400.666 928.71 403.334 923.463 404.193 918.58 403.095 916.13 402.585 913.776 401.605 911.592 400.342L910.056 399.392 909.666 399.151C909.597 399.064 909.545 399.205 909.486 399.242L909.313 399.42 908.619 400.131C908.396 400.38 908.095 400.647 908.047 400.695 907.943 400.798 907.829 400.891 907.714 400.984 907.493 401.178 907.254 401.351 907.016 401.524 906.052 402.195 904.979 402.718 903.845 403.025 901.585 403.666 899.101 403.485 896.952 402.534 895.873 402.069 894.885 401.402 894.026 400.6 893.594 400.194 893.216 399.762 892.843 399.279 892.766 399.176 892.688 399.058 892.609 398.94 897.347 398.541 901.938 396.734 905.661 393.773 906.128 393.401 906.174 392.704 905.78 392.254L905.405 391.825C905.023 391.389 904.366 391.338 903.923 391.713 902.774 392.681 901.183 393.913 899.2 394.905 896.882 396.099 894.053 396.914 891.453 397.05 891.049 396.649 890.384 396.642 889.97 397.052 887.515 396.916 884.884 396.207 882.69 395.16 880.678 394.231 879.049 393.048 877.871 392.117 877.416 391.757 876.761 391.827 876.393 392.275L876.032 392.716C875.653 393.177 875.721 393.873 876.199 394.23 879.796 396.915 884.136 398.544 888.603 398.933L887.977 399.813C887.8 400.064 887.627 400.318 887.421 400.545L886.231 401.951C885.842 402.427 885.441 402.891 884.993 403.312 884.123 404.176 883.283 405.074 882.316 405.833L880.943 406.99C880.921 407.009 880.898 407.027 880.874 407.043L879.411 408.083C878.439 408.834 877.349 409.401 876.304 410.038 875.789 410.372 875.219 410.601 874.673 410.875 874.12 411.136 873.575 411.415 873.016 411.664 870.743 412.551 868.424 413.369 866.013 413.753 863.637 414.252 861.203 414.313 858.792 414.263 858.762 414.262 858.733 414.261 858.702 414.258 856.303 414.04 853.89 413.729 851.605 412.938 851.032 412.739 850.431 412.619 849.881 412.358L848.209 411.641C847.083 411.188 846.028 410.574 844.992 409.943 843.96 409.304 842.972 408.596 842.028 407.833 841.556 407.452 841.101 407.05 840.652 406.641 840.533 406.536 839.958 405.989 839.528 405.54L839.082 405.085C838.838 404.835 838.508 404.743 838.193 404.782 837.256 403.866 836.342 402.783 835.706 401.699L835.702 401.7 835.706 401.698C835.021 400.439 834.5 398.865 834.284 397.459 834.137 396.595 834.142 395.827 834.199 395.238 834.249 394.713 833.89 394.24 833.376 394.123L832.865 394.007C832.224 393.861 831.583 394.327 831.568 394.984 831.534 396.296 831.836 397.475 832.177 398.587 832.648 400.036 833.283 401.38 834.005 402.665 834.728 403.949 835.559 405.162 836.49 406.317 836.529 406.364 836.569 406.409 836.607 406.457L836.065 407.248C835.681 407.813 835.221 408.319 834.804 408.859 834.396 409.408 833.903 409.882 833.441 410.384L832.765 411.098C832.747 411.117 832.729 411.135 832.708 411.153L831.982 411.816C829.973 413.661 827.723 415.244 825.299 416.497 820.433 418.967 814.907 420.085 809.474 419.665 806.764 419.411 804.08 418.824 801.527 417.873 798.97 416.932 796.569 415.59 794.384 413.968 792.202 412.34 790.225 410.425 788.578 408.251 788.17 407.704 787.751 407.166 787.389 406.587 787 406.026 786.648 405.442 786.313 404.848 785.953 404.268 785.669 403.645 785.351 403.041L785.235 402.813 785.035 402.365 784.615 401.413 784.353 400.82C784.065 400.166 783.226 399.979 782.686 400.448 782.247 400.829 781.804 401.204 781.36 401.524L781.139 401.678 780.999 401.77 780.713 401.945C780.524 402.067 780.322 402.162 780.127 402.273 779.33 402.681 778.48 402.982 777.607 403.173 775.861 403.56 774.013 403.446 772.307 402.909 770.598 402.376 769.056 401.358 767.842 400.043 767.231 399.385 766.723 398.637 766.31 397.845 766.103 397.448 765.914 397.04 765.769 396.617L765.656 396.301C765.589 396.124 765.519 395.83 765.451 395.603L765.246 394.871C765.165 394.644 765.18 394.291 764.846 394.399L757.977 394.432C757.954 394.432 757.93 394.432 757.906 394.431 755.936 394.335 753.973 394.16 752.022 393.893 748.099 393.338 744.232 392.407 740.517 391.064 736.814 389.702 733.245 387.96 730.023 385.726 726.81 383.497 723.914 380.799 721.738 377.62 719.562 374.454 718.159 370.784 717.974 367.003 717.77 363.228 718.801 359.435 720.785 356.175 722.753 352.895 725.568 350.118 728.747 347.87 731.944 345.628 735.515 343.901 739.232 342.6 742.961 341.319 746.844 340.463 750.776 340.011 752.743 339.774 754.723 339.671 756.703 339.622L756.725 339.622C762.906 340.253 768.857 343.324 772.918 348.025 773.294 348.46 773.937 348.538 774.389 348.181L774.758 347.889C775.316 347.448 775.36 346.717 774.918 346.261 774.244 345.565 773.353 344.778 772.335 344.012 772.351 344.005 772.367 344.007 772.383 343.999 775.531 342.5 779.17 341.992 782.609 342.569 783.174 342.663 783.721 342.325 783.851 341.766 783.905 341.533 783.947 341.352 783.947 341.352 784.115 340.632 783.636 340.011 782.969 339.981 782.381 339.953 781.706 339.97 781.003 340.025 773.433 340.614 770.52 342.317 770.622 342.827 769.101 341.851 767.451 340.977 765.937 340.265L765.933 340.268 765.935 340.264C764.193 339.381 762.161 338.485 760.177 337.859L760.238 337.715C760.407 337.269 760.645 336.855 760.857 336.428 761.061 335.998 761.308 335.591 761.561 335.186 763.547 331.936 766.391 329.194 769.732 327.309 771.397 326.359 773.175 325.606 775.016 325.059 775.48 324.937 775.939 324.794 776.407 324.688L777.875 324.39C777.894 324.387 777.926 324.381 777.945 324.378L779.827 324.126 780.58 324.026C780.704 323.878 780.692 323.609 780.754 323.406L781.021 322.096C781.045 321.962 781.06 321.934 781.077 321.877L781.127 321.717 781.226 321.396C781.291 321.182 781.351 320.965 781.449 320.763 781.616 320.348 781.794 319.937 782.023 319.552 782.445 318.764 782.991 318.043 783.612 317.4 784.203 316.746 784.925 316.233 785.656 315.749 785.685 315.73 785.714 315.712 785.744 315.695 786.508 315.264 787.305 314.881 788.153 314.648 789.867 314.133 791.719 314.124 793.457 314.522 794.327 314.731 795.165 315.062 795.951 315.488 796.345 315.701 796.721 315.946 797.083 316.209L797.24 316.323 797.534 316.569C797.73 316.738 797.928 316.889 798.122 317.074L798.398 317.328C798.866 317.758 799.604 317.683 799.976 317.169L800.498 316.446 801.107 315.605 801.447 315.202 802.102 314.424C802.118 314.405 802.135 314.386 802.154 314.368L802.863 313.639C803.858 312.644 804.946 311.736 806.122 310.957 808.454 309.363 811.095 308.233 813.849 307.585 816.6 306.905 819.476 306.798 822.292 307.105 823.701 307.242 825.088 307.55 826.446 307.953 827.125 308.158 827.794 308.391 828.454 308.653 828.784 308.784 829.111 308.922 829.436 309.066L830.619 309.631C831.046 309.835 831.557 309.731 831.871 309.375L833.663 307.347C833.675 307.333 833.688 307.319 833.701 307.306L835.396 305.582C835.409 305.568 835.423 305.554 835.437 305.541L837.221 303.912C837.234 303.899 837.25 303.886 837.265 303.874L839.156 302.327C841.764 300.311 844.594 298.587 847.584 297.211 853.56 294.448 860.182 293.125 866.759 293.405 873.336 293.668 879.827 295.525 885.56 298.766 888.427 300.381 891.109 302.33 893.547 304.55L895.307 306.245C895.321 306.258 895.335 306.272 895.349 306.286L896.995 308.053C897.008 308.067 897.021 308.081 897.033 308.096L898.583 309.952C898.595 309.966 898.606 309.981 898.618 309.996L899.619 311.332C899.269 311.633 898.92 311.926 898.591 312.167L898.593 312.171 898.591 312.168C897.869 312.583 896.913 312.985 896.134 313.375 895.495 313.694 895.364 314.55 895.863 315.061L896.122 315.326C896.523 315.736 897.166 315.74 897.6 315.363 898.894 314.233 900.352 313.286 901.911 312.563 902.076 312.487 902.203 312.368 902.308 312.234 902.45 312.19 902.569 312.156 902.606 312.153 902.927 312.071 903.251 312.015 903.575 311.971 904.225 311.883 904.878 311.881 905.518 311.951 906.801 312.085 908.021 312.578 909.058 313.333 910.101 314.082 910.923 315.128 911.499 316.31 911.789 316.901 912.016 317.53 912.171 318.181 912.218 318.341 912.245 318.508 912.279 318.671L912.302 318.781C907.91 319.969 903.795 322.141 900.352 325.12 899.956 325.462 899.91 326.03 900.175 326.46 897.113 325.266 893.75 324.587 890.696 324.518L890.693 324.522 890.693 324.518C886.808 324.33 882.345 325.08 878.595 326.697 875.37 328.032 872.756 329.985 871.082 331.61 870.645 332.035 870.669 332.742 871.122 333.151L871.548 333.537C871.976 333.923 872.622 333.887 873.028 333.477 877.585 328.871 884.153 326.24 890.627 326.475 897.101 326.699 903.466 329.79 907.685 334.708 908.06 335.146 908.703 335.227 909.157 334.872L909.609 334.518C910.09 334.142 910.165 333.438 909.759 332.983 908.205 331.242 905.734 329.109 902.611 327.549 902.386 327.433 902.151 327.329 901.921 327.219 902.012 327.169 902.104 327.122 902.181 327.042 902.666 326.539 903.245 325.93 903.91 325.319 904.975 324.329 906.265 323.333 907.525 322.676L907.524 322.672 907.526 322.676C908.808 322.062 910.378 321.629 911.809 321.374 912.168 321.308 912.509 321.257 912.845 321.209 913.071 321.419 913.375 321.539 913.706 321.492 914.175 321.425 914.646 321.36 915.107 321.31L915.787 321.251 916.377 321.216C917.165 321.187 917.954 321.166 918.742 321.244L921.039 321.472C921.079 321.476 921.119 321.482 921.158 321.491L923.413 321.98C926.463 322.8 929.339 324.245 931.865 326.162 934.396 328.078 936.581 330.457 938.351 333.118 940.123 335.785 941.406 338.765 942.291 341.843 942.774 343.363 943.018 344.945 943.282 346.515 943.286 346.539 943.289 346.563 943.292 346.587L943.523 348.952C943.58 349.351 943.547 349.755 943.561 350.156L943.574 351.573 943.586 352.835C943.634 353.209 943.422 353.843 943.982 353.701L946.194 353.88C946.219 353.882 946.243 353.885 946.268 353.888L947.341 354.051C947.366 354.055 947.393 354.06 947.418 354.065L948.511 354.314C950.007 354.707 951.449 355.305 952.784 356.087 957.869 359.007 961.297 364.701 961.297 370.559 961.292 377.838 958.783 380.807 955.615 383.616Z" fill="#5AA3CF" fill-rule="evenodd"/><path d="M823.619 314.658C823.994 315.073 824.633 315.112 825.077 314.766 829.989 310.939 836.495 309.022 842.771 309.55 843.338 309.598 843.847 309.221 843.922 308.673L843.991 308.156C844.072 307.555 843.601 307.021 842.974 307.006 841.861 306.977 840.457 307.049 838.977 307.273 836.916 307.57 834.729 308.146 832.848 308.731L832.848 308.735 832.847 308.731C830.949 309.259 828.802 309.961 826.918 310.827 825.562 311.439 824.354 312.136 823.445 312.76 822.935 313.111 822.849 313.808 823.261 314.265L823.619 314.658Z" fill="#5AA3CF" fill-rule="evenodd"/><path d="M845.509 360.861 845.033 360.555C844.551 360.245 843.907 360.37 843.586 360.843 842.893 361.863 841.947 363.173 840.668 364.416 839.021 366.054 836.833 367.547 834.69 368.387L834.69 368.391 834.689 368.387C832.532 369.193 829.902 369.546 827.577 369.431 825.788 369.362 824.204 369.022 823.001 368.729 822.994 368.727 822.988 368.73 822.98 368.728 824.183 366.412 825.151 363.975 825.837 361.454 825.992 360.885 825.629 360.3 825.052 360.163L824.484 360.029C823.925 359.897 823.365 360.226 823.218 360.777 822.885 362.024 822.456 363.497 821.835 365.096 821.048 367.139 819.955 369.382 818.525 371.585 815.702 376.012 811.403 380.176 806.883 382.663L806.881 382.668 806.879 382.665C802.364 385.162 796.533 386.584 791.26 386.623 788.622 386.664 786.129 386.401 783.968 385.983 782.274 385.661 780.786 385.244 779.546 384.865 778.998 384.698 778.423 384.998 778.242 385.538L778.056 386.088C777.867 386.647 778.175 387.263 778.743 387.433 788.347 390.31 799.047 389.192 807.829 384.357 813.571 381.184 818.377 376.472 821.754 370.902 821.898 371.106 822.105 371.268 822.37 371.323 831.091 373.135 840.57 369.504 845.809 362.344 846.158 361.865 846.011 361.184 845.509 360.861Z" fill="#5AA3CF" fill-rule="evenodd"/></g></svg>