<?xml version="1.0" encoding="utf-8"?>
<!-- Generator: Adobe Illustrator 27.5.0, SVG Export Plug-In . SVG Version: 6.00 Build 0)  -->
<svg version="1.1" id="Layer_1" xmlns="http://www.w3.org/2000/svg" xmlns:xlink="http://www.w3.org/1999/xlink" x="0px" y="0px"
	 viewBox="0 0 4000 4000" style="enable-background:new 0 0 4000 4000;" xml:space="preserve">
<g>
	<g>
		<rect style="fill:#FCAFD7;" width="4000" height="4000"/>
	</g>
	<g>
		<g>
			<g>
				<path style="fill:#FFDA64;" d="M3252.36,1949.745h-112.127c-24.976,0-45.222-20.247-45.222-45.222v-165.518
					c0-24.976,20.247-45.222,45.222-45.222h112.127c24.976,0,45.222,20.247,45.222,45.222v165.518
					C3297.583,1929.499,3277.336,1949.745,3252.36,1949.745z"/>
			</g>
			<g>
				<path style="fill:#182166;" d="M3252.36,1967.493h-112.127c-34.719,0-62.969-28.247-62.969-62.969v-165.52
					c0-34.719,28.25-62.969,62.969-62.969h112.127c34.722,0,62.969,28.25,62.969,62.969v165.52
					C3315.329,1939.246,3287.082,1967.493,3252.36,1967.493z M3140.233,1711.529c-15.151,0-27.476,12.324-27.476,27.476v165.52
					c0,15.151,12.324,27.476,27.476,27.476h112.127c15.151,0,27.476-12.324,27.476-27.476v-165.52
					c0-15.151-12.324-27.476-27.476-27.476H3140.233z"/>
			</g>
		</g>
		<g>
			<g>
				<path style="fill:#FFDA64;" d="M3252.36,2382.887h-112.127c-24.976,0-45.222-20.247-45.222-45.222v-165.518
					c0-24.976,20.247-45.222,45.222-45.222h112.127c24.976,0,45.222,20.247,45.222,45.222v165.518
					C3297.583,2362.64,3277.336,2382.887,3252.36,2382.887z"/>
			</g>
			<g>
				<path style="fill:#182166;" d="M3252.36,2400.63h-112.127c-34.719,0-62.969-28.247-62.969-62.964v-165.52
					c0-34.719,28.25-62.969,62.969-62.969h112.127c34.722,0,62.969,28.25,62.969,62.969v165.52
					C3315.329,2372.383,3287.082,2400.63,3252.36,2400.63z M3140.233,2144.671c-15.151,0-27.476,12.324-27.476,27.476v165.52
					c0,15.151,12.324,27.476,27.476,27.476h112.127c15.151,0,27.476-12.324,27.476-27.476v-165.52
					c0-15.151-12.324-27.476-27.476-27.476H3140.233z"/>
			</g>
		</g>
		<g>
			<g>
				<path style="fill:#71D7FF;" d="M2869.93,938.188H1407.46c-132.974,0-248.418,74.84-306.661,184.664l-138.763,157.124
					c-0.395,0.435-0.773,0.885-1.167,1.321l-1.706,1.932l0.004,0.033c-54.408,61.262-87.507,141.874-87.507,230.253v1251.664
					c0,191.617,155.337,346.953,346.952,346.953h1321.442c36.024,0,70.763-5.496,103.431-15.686l268.868-79.217
					c38.758-4.728,75.558-15.773,109.283-32.198l0,0l0,0c115.583-56.292,195.246-174.871,195.246-312.08v-1387.81
					C3216.882,1093.524,3061.547,938.188,2869.93,938.188z"/>
			</g>
			<g>
				<g style="opacity:0.2;">
					<path style="fill:#182166;" d="M2915.403,2907.104c-41.416,4.354-84.302,7.396-103.057,7.396H1490.904
						c-191.615,0-346.952-155.336-346.952-346.953V1315.883c0-88.379,33.1-168.991,87.507-230.253l-0.004-0.033l1.706-1.932
						c0.395-0.437,0.773-0.887,1.168-1.321l124.292-140.739c-112.029,15.792-206.838,85.115-257.82,181.247l-138.763,157.124
						c-0.395,0.435-0.773,0.885-1.167,1.321l-1.706,1.932l0.004,0.033c-54.408,61.262-87.507,141.874-87.507,230.253v1251.664
						c0,191.617,155.337,346.953,346.952,346.953h1321.442c36.024,0,70.763-5.496,103.431-15.686l268.868-79.217
						c38.758-4.728,75.558-15.773,109.283-32.198c71.368-34.758,128.964-93.308,162.646-165.283l-122.046,50.23
						C3015.31,2889.29,2965.869,2901.798,2915.403,2907.104z"/>
				</g>
			</g>
			<g>
				<path style="fill:#71D7FF;" d="M1069.017,1255.221c0,0-115.559,102.109-132.852,186.103c-17.293,83.993,0,1366.125,0,1366.125
					s15.513,142.218,80.221,233.331c0,0-123.197-124.811-133.824-235.066c-10.627-110.255,0-1350.391,0-1350.391
					s15.307-92.481,79.436-165.381c64.128-72.901,107.019-108.008,107.019-108.008V1255.221z"/>
			</g>
			<g>
				<path style="fill:#182166;" d="M1060.508,2672.95c14.113,153.256,126.893,291.495,279.823,321.006
					c47.843,9.774,104.128,5.456,153.461,5.964c454.155,0.996,913.44,3.061,1367.916,2.236c33.796,0.423,66.72-3.4,99.071-12.799
					c129.406-35.548,228.579-156.639,237.257-290.693c1.859-13.488,0.696-37.141,1.103-51.211
					c-0.499-31.979,0.358-124.312-0.002-157.838c0.432-302.005-0.31-749.069,0.002-1052.242
					c-0.422-16.728,0.303-116.126-0.002-131.53c0.154-25.233-0.158-50.865-4.663-75.698
					c-23.052-149.985-160.063-270.736-311.929-273.886c-32.713-0.902-122.719-0.028-157.162-0.326
					c-426.932,0.556-890.61-0.838-1315.304,2.21c-33.366,0.104-66.06,4.65-97.901,14.271
					c-120.006,35.541-213.545,143.449-231.43,267.387c-2.948,16.391-3.906,33.568-4.609,50.134
					c-1.239,43.744-3.487,87.919-6.429,131.531c-2.274,35.075-5.115,70.149-9.202,105.224
					c-7.947-70.016-11.911-140.167-14.712-210.449c-18.373-193.189,116.35-366.481,308.981-394.341
					c30.758-4.727,76.396-3.617,107.915-3.509c451.277,2.613,941.403,2.117,1394.221,2.051
					c101.327-3.257,203.244,36.498,273.687,109.739c68.082,68.903,106.118,165.715,104.028,262.509
					c0.196,6.967-0.14,31.792,0.001,39.459c-0.198,346.201,0.142,811.643-0.001,1157.468c-0.417,46.799,0.316,137.702-0.021,184.182
					c2.097,168.385-125.46,324.652-290.885,356.366c-48.789,11.263-136.504,6.642-187.239,7.483
					c-437.205-1.36-878.457,2.455-1315.303,1.982c-17.575-0.149-34.743,0.036-53.645-0.847
					c-36.957-2.201-73.507-10.23-108.047-23.48C1141.752,2964.613,1043.597,2819.431,1060.508,2672.95L1060.508,2672.95z"/>
			</g>
			<g>
				<path style="fill:#182166;" d="M2540.055,3129.874H1218.612c-201.096,0-364.7-163.604-364.7-364.697V1513.514
					c0-88.982,32.441-174.653,91.375-241.345c0.186-0.232,0.374-0.459,0.571-0.681l140.266-158.826
					c63.784-118.621,186.711-192.219,321.335-192.219h1462.471c201.094,0,364.697,163.604,364.697,364.697v1387.81
					c0,140.693-78.638,266.387-205.225,328.032c-35.622,17.354-73.779,28.682-113.428,33.677l-267.476,78.809
					C2613.695,3124.327,2577.118,3129.874,2540.055,3129.874z M973.07,1294.288c-0.203,0.259-0.415,0.51-0.635,0.759
					c-53.542,60.288-83.03,137.876-83.03,218.467v1251.663c0,181.523,147.681,329.209,329.207,329.209h1321.443
					c33.474,0,66.497-5.005,98.147-14.878l269.135-79.302c0.938-0.278,1.897-0.474,2.866-0.596
					c36.262-4.419,71.14-14.692,103.66-30.532c114.28-55.654,185.273-169.126,185.273-296.128V1285.14
					c0-181.523-147.683-329.204-329.206-329.204H1407.46c-122.163,0-233.662,67.144-290.984,175.23
					c-0.654,1.235-1.45,2.388-2.375,3.433L973.07,1294.288z"/>
			</g>
			<g style="opacity:0.2;">
				<path style="fill:#182166;" d="M2769.492,2762.982H1556.208c-110.651,0-200.352-89.701-200.352-200.352V1349.347
					c0-110.651,89.701-200.352,200.352-200.352h1213.284c110.651,0,200.352,89.701,200.352,200.352V2562.63
					C2969.844,2673.282,2880.144,2762.982,2769.492,2762.982z"/>
			</g>
			<g>
				<path style="fill:#182166;" d="M2769.491,2780.728H1556.208c-120.259,0-218.098-97.837-218.098-218.096V1349.346
					c0-120.259,97.839-218.098,218.098-218.098h1213.284c120.261,0,218.101,97.839,218.101,218.098v1213.286
					C2987.592,2682.891,2889.753,2780.728,2769.491,2780.728z M1556.208,1166.741c-100.688,0-182.605,81.917-182.605,182.605
					v1213.286c0,100.688,81.917,182.607,182.605,182.607h1213.284c100.691,0,182.607-81.919,182.607-182.607V1349.346
					c0-100.688-81.917-182.605-182.607-182.605H1556.208z"/>
			</g>
			<g>
				<path style="fill:#182166;" d="M2664.889,2606.153H1660.81c-120.259,0-218.098-97.837-218.098-218.096v-864.136
					c0-120.259,97.839-218.098,218.098-218.098h1004.08c120.261,0,218.101,97.839,218.101,218.098v864.136
					C2882.99,2508.316,2785.15,2606.153,2664.889,2606.153z M1660.81,1341.316c-100.688,0-182.605,81.917-182.605,182.605v864.136
					c0,100.688,81.917,182.607,182.605,182.607h1004.08c100.691,0,182.607-81.919,182.607-182.607v-864.136
					c0-100.688-81.917-182.605-182.607-182.605H1660.81z"/>
			</g>
			<g style="opacity:0.3;">
				<path style="fill:#182166;" d="M2664.89,2588.408H1660.81c-110.651,0-200.352-89.701-200.352-200.352v-864.135
					c0-110.651,89.701-200.352,200.352-200.352h1004.08c110.651,0,200.352,89.701,200.352,200.352v864.135
					C2865.242,2498.708,2775.542,2588.408,2664.89,2588.408z"/>
			</g>
			<g style="opacity:0.4;">
				<path style="fill:#FFFFFF;" d="M1830.172,1046.453h-95.522c-11.433,0-20.703-9.27-20.703-20.703s9.27-20.703,20.703-20.703
					h95.522c11.433,0,20.703,9.27,20.703,20.703S1841.606,1046.453,1830.172,1046.453z"/>
			</g>
			<g style="opacity:0.4;">
				<path style="fill:#FFFFFF;" d="M2782.094,1046.453h-844.873c-11.433,0-20.703-9.27-20.703-20.703s9.27-20.703,20.703-20.703
					h844.873c11.433,0,20.703,9.27,20.703,20.703S2793.527,1046.453,2782.094,1046.453z"/>
			</g>
		</g>
		<g>
			<g>
				<path style="fill:#78D371;" d="M2284.448,2631.228H1667.4c0,0-171.28-114.187-184.456-184.456
					c-13.175-70.269-21.959-382.087-21.959-382.087s254.725-26.351,248.137-28.547c-6.588-2.196-180.064-57.093-180.064-57.093
					l94.424-85.64c0,0,221.786,57.093,311.818,57.093s518.233,2.196,518.233,2.196l13.176,70.269l-48.31,4.392l48.31,39.526v564.347
					H2284.448z"/>
			</g>
			<g style="opacity:0.2;">
				<path style="fill:#182166;" d="M1555.409,1955.146l307.426,80.993c0,0,564.286-13.724,573.679,0s22.142,24.155,22.142,24.155
					l8.052,15.92l-656.026,8.235l645.595,26.351l-3.294,24.704l-8.235,32.39h-492.431l-383.687,8.659l849.767,39.65l-6.588,415.025
					H1667.4l-111.991-87.502l359.03-39.401l-341.463-0.46l-47.212-76.771l-9.227-184.643h256.266l-292.747-32.837v-103.756
					c0,0,263.757-31.292,260.136-39.526c-3.621-8.235-33.485-42.92-39.854-38.977c-6.369,3.943-171.28-48.31-171.28-48.31
					L1555.409,1955.146z"/>
			</g>
			<g>
				<path style="fill:#182166;" d="M2466.708,2648.97h-732.866c-49.236,0-97.695-16.636-136.453-46.851
					c-80.334-62.622-124.707-113.789-131.887-152.075c-13.279-70.83-21.895-372.07-22.256-384.858
					c-0.261-9.282,6.677-17.197,15.913-18.152c49.558-5.127,116.956-12.297,168.625-18.113
					c-35.386-11.213-75.818-24.014-104.08-32.957c-6.057-1.917-10.627-6.926-11.982-13.132s0.708-12.664,5.415-16.931l94.424-85.64
					c4.424-4.009,10.576-5.518,16.345-4.041c2.197,0.564,220.64,56.531,307.393,56.531c89.048,0,514.041,2.178,518.323,2.2
					c8.506,0.042,15.784,6.113,17.351,14.473l13.176,70.269c0.92,4.915-0.271,9.988-3.286,13.975
					c-3.015,3.987-7.571,6.516-12.549,6.97l-5.093,0.461l14.724,12.046c4.119,3.372,6.509,8.413,6.509,13.735v564.346
					C2484.455,2641.026,2476.508,2648.97,2466.708,2648.97z M1479.22,2080.628c2.029,65.112,10.112,303.923,21.165,362.874
					c5.303,28.286,48.613,75.898,118.826,130.63c32.551,25.376,73.262,39.351,114.631,39.351h715.12v-538.191l-41.802-34.199
					c-5.576-4.563-7.842-12.048-5.728-18.938c2.112-6.89,8.181-11.816,15.359-12.471l28.879-2.625l-6.88-36.692
					c-75.957-0.383-423.965-2.122-503.491-2.122c-81.675,0-263.25-44.324-306.948-55.298l-64.497,58.499
					c49.939,15.808,145.872,46.189,150.876,47.856c7.932,2.642,13.069,10.564,12.156,18.875
					c-1.558,14.194-13.931,15.955-25.894,17.656c-6.902,0.981-16.746,2.231-28.55,3.65c-20.667,2.483-49.441,5.735-85.518,9.668
					C1544.552,2073.772,1501.818,2078.267,1479.22,2080.628z"/>
			</g>
			<g>
				<path style="fill:#182166;" d="M2466.708,2570.594c-103.511,0.352-210.815-0.108-314.014-1.456
					c-92.383-1.919-223.054-0.61-314.013-9.389c-1.128-0.057-1.174-1.919-0.001-1.97c150.673-11.67,320.063-8.23,471.021-10.745
					c45.74-0.467,110.697-0.145,157.008-0.1C2482.076,2547.264,2482.458,2570.194,2466.708,2570.594L2466.708,2570.594z"/>
			</g>
			<g>
				<path style="fill:#182166;" d="M1516.538,2492.496c74.555-0.48,149.108,0.182,223.655,1.456
					c65.887,1.919,158.913,0.614,223.654,9.389c1.085,0.097,1.137,1.878,0,1.97c-37.276,4.871-74.552,6.421-111.827,7.211
					c-66.027,1.343-158.586,3.201-223.654,3.531c-37.275,0.369-74.552,0.361-111.827,0.103
					C1501.22,2515.663,1501.002,2493.059,1516.538,2492.496L1516.538,2492.496z"/>
			</g>
			<g>
				<path style="fill:#182166;" d="M1480.056,2415.265c77.342-0.48,154.681,0.182,232.014,1.456
					c68.336,1.919,164.846,0.613,232.013,9.389c1.088,0.094,1.144,1.882,0.001,1.97c-38.669,4.871-77.338,6.421-116.006,7.211
					c-68.495,1.343-164.513,3.201-232.014,3.531c-38.669,0.369-77.338,0.36-116.007,0.103
					C1464.739,2438.44,1464.51,2415.823,1480.056,2415.265L1480.056,2415.265z"/>
			</g>
			<g>
				<path style="fill:#182166;" d="M1572.976,2326.446c149.15-10.007,298.621-8.74,447.964-5.792
					c49.774,1.225,99.548,2.812,149.321,5.792c4.443,0.26,5.291,7.418,0,7.887c-149.2,8.042-298.61,9.178-447.963,6.577
					c-49.774-1.255-99.547-2.905-149.321-6.577c-2.178-0.161-3.813-2.057-3.652-4.235
					C1569.47,2328.117,1571.052,2326.586,1572.976,2326.446L1572.976,2326.446z"/>
			</g>
			<g>
				<path style="fill:#182166;" d="M1467.615,2230.622c61.848-0.526,123.694,0.279,185.533,1.386
					c54.723,1.942,131.861,0.705,185.532,9.459c1.045,0.13,1.121,1.846,0,1.97c-30.922,4.882-61.844,6.396-92.766,7.236
					c-54.769,1.415-131.551,3.161-185.533,3.506c-30.921,0.369-61.845,0.36-92.766,0.103
					C1452.301,2253.75,1452.139,2231.21,1467.615,2230.622L1467.615,2230.622z"/>
			</g>
			<g>
				<path style="fill:#182166;" d="M1463.751,2136.279c15.292-0.593,30.572,0.176,45.829,1.386
					c15.888,2.011,31.166,0.513,45.829,9.458c0.544,0.346,0.705,1.067,0.36,1.611c-7.428,5.237-15.609,6.743-23.274,7.597
					c-22.832,2.495-45.775,4.435-68.743,3.609c-6.534-0.284-11.6-5.812-11.315-12.346
					C1452.705,2141.424,1457.699,2136.561,1463.751,2136.279L1463.751,2136.279z"/>
			</g>
			<g>
				<path style="fill:#182166;" d="M2466.708,2179.723c-103.511,0.351-210.815-0.108-314.014-1.456
					c-92.383-1.919-223.054-0.61-314.013-9.389c-1.128-0.057-1.174-1.919-0.001-1.971c150.673-11.669,320.063-8.23,471.021-10.745
					c45.74-0.467,110.697-0.145,157.008-0.101C2482.076,2156.394,2482.458,2179.324,2466.708,2179.723L2466.708,2179.723z"/>
			</g>
			<g>
				<path style="fill:#182166;" d="M2418.398,2039.186c-79.056,0.48-158.11-0.182-237.157-1.456
					c-69.844-1.919-168.497-0.613-237.156-9.389c-1.09-0.091-1.148-1.885-0.001-1.97c39.526-4.871,79.052-6.422,118.578-7.211
					c70.014-1.343,168.161-3.201,237.158-3.531c39.525-0.369,79.053-0.36,118.578-0.104
					C2433.715,2016.006,2433.952,2038.629,2418.398,2039.186L2418.398,2039.186z"/>
			</g>
		</g>
		<g>
			<g>
				<path style="fill:#71D7FF;" d="M2401.494,907.124c0,0-180.404,160.623-246.144,257.242c-24.936,59.289,0,1227.509,0,1227.509
					s2.636,103.821,246.144,261.619"/>
			</g>
			<g style="opacity:0.2;">
				<path style="fill:#182166;" d="M2334.621,1072.138c0,0-114.296,96.62-180.036,193.239
					c-24.936,59.289,0.765,1027.682,0.765,1027.682s31.737,160.301,179.271,210.807"/>
			</g>
			<g>
				<path style="fill:#71D7FF;" d="M3030.375,2813.488c0,0-507.787-64.779-612.065-144.929s-81.609-276.684-81.609-500.666
					s0-1062.816,0-1062.816s-27.203-241.549,163.217-215.198c190.42,26.351,625.666,311.818,625.666,311.818
					s84.223,26.351,84.223,245.941s0,1225.313,0,1225.313S3177.039,2835.038,3030.375,2813.488z"/>
			</g>
			<g>
				<g style="opacity:0.2;">
					<path style="fill:#182166;" d="M3121.052,2655.606c0,0-507.786-64.779-612.065-144.93
						c-104.279-80.15-81.608-276.683-81.608-500.665s0-1062.816,0-1062.816s-2.462-22.175-0.66-52.295
						c-109.462,37.19-90.015,210.178-90.015,210.178s0,838.834,0,1062.816s-22.67,420.515,81.608,500.665
						c104.277,80.151,612.065,144.93,612.065,144.93c146.663,21.55,179.432-140.538,179.432-140.538s0-10.627,0-29.675
						C3186.304,2655.06,3157.139,2660.908,3121.052,2655.606z"/>
				</g>
			</g>
			<g>
				<path style="fill:#71D7FF;" d="M2148.271,1232.427l-81.143,92.528c-14.755,16.826-22.856,38.184-22.856,60.261v829.208
					c0,25.82,11.072,50.479,30.569,68.085l79.744,72.008"/>
			</g>
			<g style="opacity:0.2;">
				<path style="fill:#182166;" d="M2148.271,1232.427l-81.143,92.528c-14.755,16.826-22.856,38.184-22.856,60.261v829.208
					c0,25.82,11.072,50.479,30.569,68.085l79.744,72.008"/>
			</g>
			<g style="opacity:0.3;">
				<path style="fill:#182166;" d="M2148.271,1232.427l-81.143,92.528c-14.755,16.826-22.856,38.184-22.856,60.261v829.208
					c0,25.82,11.072,50.479,30.569,68.085l79.744,72.008"/>
			</g>
			<g>
				<path style="fill:#182166;" d="M3056.247,2833.184c-9.023,0-18.438-0.679-28.279-2.114
					c-23.172-2.959-513.875-66.514-620.471-148.438c-95.088-73.091-92.556-230.405-89.624-412.563
					c0.534-33.127,1.084-67.383,1.084-102.175v-1061.88c-1.367-13.479-11.626-134.753,53.55-198.298
					c31.814-31.018,75.505-42.939,129.844-35.415c188.064,26.023,597.095,291.123,631.27,313.447
					c17.717,7.1,93.936,49.985,93.936,261.89V2672.95c0,1.182-0.12,2.358-0.354,3.516
					C3215.673,2733.497,3165.546,2833.179,3056.247,2833.184z M2472.362,905.638c-31.108,0-56.269,9.182-75.017,27.429
					c-55.185,53.706-43.135,168.882-43.005,170.039c0.071,0.649,0.11,1.318,0.11,1.97v1062.817c0,35.078-0.554,69.478-1.091,102.747
					c-2.776,172.588-5.176,321.636,75.767,383.853c99.304,76.323,598.465,140.747,603.496,141.392
					c0.112,0.015,0.222,0.029,0.335,0.044c122.126,17.993,155.259-108.12,159.106-124.893V1447.637
					c0-200.01-71.479-228.877-72.202-229.146c-1.568-0.491-2.635-1.055-4.007-1.956c-4.321-2.832-434.08-283.579-618.367-309.08
					C2488.727,906.243,2480.346,905.638,2472.362,905.638z"/>
			</g>
			<g>
				<path style="fill:#182166;" d="M2401.476,2671.241c-3.306,0-6.651-0.923-9.634-2.856
					c-248.503-161.035-254.114-271.436-254.231-276.06c-0.063-2.993-6.274-295.647-9.355-591.785
					c-6.274-602.61,6.084-631.992,10.737-643.054c0.456-1.089,1.023-2.126,1.687-3.103
					c66.211-97.312,241.58-253.894,249.014-260.513c7.319-6.519,18.535-5.867,25.051,1.455c6.519,7.319,5.869,18.535-1.453,25.054
					c-1.775,1.58-177.17,158.184-241.987,252.097c-16.555,56.375-8.062,757.627,1.787,1219.019
					c0.049,0.562,8.889,98.604,238.052,247.104c8.225,5.332,10.571,16.318,5.242,24.541
					C2412.987,2668.384,2407.292,2671.241,2401.476,2671.241z"/>
			</g>
			<g>
				<path style="fill:#182166;" d="M2154.579,2372.261c-4.241,0-8.493-1.509-11.887-4.575l-79.743-72.007
					c-23.147-20.903-36.423-50.518-36.423-81.255v-829.209c0-26.36,9.683-51.917,27.261-71.96l81.142-92.527
					c6.462-7.373,17.676-8.105,25.042-1.643c7.371,6.462,8.105,17.673,1.643,25.042l-81.143,92.527
					c-11.899,13.569-18.452,30.815-18.452,48.562v829.209c0,20.715,9.009,40.73,24.717,54.917l79.741,72.007
					c7.275,6.567,7.847,17.788,1.279,25.063C2164.252,2370.289,2159.423,2372.261,2154.579,2372.261z"/>
			</g>
			<g>
				<ellipse style="fill:#FFDA64;" cx="2236.958" cy="1493.751" rx="49.872" ry="48.31"/>
			</g>
			<g>
				<path style="fill:#182166;" d="M2236.957,1553.892c-34.021,0-61.701-26.98-61.701-60.142s27.68-60.139,61.701-60.139
					c34.024,0,61.704,26.978,61.704,60.139S2270.981,1553.892,2236.957,1553.892z M2236.957,1457.273
					c-20.976,0-38.04,16.362-38.04,36.477s17.063,36.479,38.04,36.479c20.977,0,38.042-16.365,38.042-36.479
					S2257.934,1457.273,2236.957,1457.273z"/>
			</g>
			<g>
				<ellipse style="fill:#FFDA64;" cx="2236.958" cy="1979.046" rx="49.872" ry="48.31"/>
			</g>
			<g>
				<path style="fill:#182166;" d="M2236.957,2039.188c-32.29,0-58.799-25.425-61.658-59.141
					c-1.941-22.854,5.566-43.269,20.078-54.609c12.283-9.604,28.406-11.702,45.4-5.899c15.83,5.403,57.883,19.751,57.883,59.507
					C2298.661,2012.208,2270.981,2039.188,2236.957,2039.188z M2222.394,1939.957c-4.768,0-8.931,1.377-12.446,4.124
					c-8.074,6.309-12.317,19.324-11.074,33.965c1.843,21.719,17.859,37.48,38.083,37.48c20.977,0,38.042-16.365,38.042-36.479
					c0-16.216-12.129-26.968-41.863-37.114C2229.277,1940.616,2225.69,1939.957,2222.394,1939.957z"/>
			</g>
			<g style="opacity:0.4;">
				<path style="fill:#FFFFFF;" d="M2783.271,1138.96c-2.915,0-5.874-0.618-8.691-1.924l-52.139-24.155
					c-10.374-4.805-14.888-17.112-10.08-27.488c4.805-10.376,17.114-14.893,27.488-10.081l52.138,24.155
					c10.374,4.805,14.888,17.112,10.081,27.488C2798.566,1134.512,2791.086,1138.96,2783.271,1138.96z"/>
			</g>
			<g style="opacity:0.4;">
				<path style="fill:#FFFFFF;" d="M3105.199,1431.009c-0.313,0-0.625-0.007-0.938-0.022c-11.421-0.508-20.266-10.181-19.763-21.602
					c1.96-44.314-4.158-99.722-16.389-111.57c-18.159-17.59-130.44-77.148-196.948-110.557
					c-10.217-5.134-14.341-17.576-9.209-27.793c5.132-10.222,17.573-14.346,27.793-9.209
					c18.188,9.138,178.521,90.063,207.173,117.817c32.265,31.252,29.773,124.739,28.945,143.162
					C3125.365,1422.342,3116.205,1431.009,3105.199,1431.009z"/>
			</g>
		</g>
		<g>
			<g>
				<ellipse style="fill:#FFDA64;" cx="2902.059" cy="1845.095" rx="203.408" ry="434.789"/>
			</g>
			<g>
				<g style="opacity:0.4;">
					<path style="fill:#FFFFFF;" d="M3105.466,1845.095c0-240.127-91.068-434.788-203.408-434.788
						c-46.674,0-89.645,33.683-123.97,90.188c26.418-26.823,55.961-41.878,87.154-41.878c112.341,0,203.409,194.662,203.409,434.789
						c0,140.36-31.145,265.105-79.437,344.601C3057.939,2168.229,3105.466,2018.546,3105.466,1845.095z"/>
				</g>
			</g>
			<g>
				<g style="opacity:0.2;">
					<path style="fill:#182166;" d="M2951.433,2183.264c-106.95,0-193.649-185.322-193.649-413.927
						c0-139.807,32.46-263.33,82.112-338.272c-81.927,56.16-141.246,220.257-141.246,414.03
						c0,240.127,91.068,434.789,203.407,434.789c67.036,0,126.482-69.341,163.539-176.269
						C3033.581,2153.657,2994.133,2183.264,2951.433,2183.264z"/>
				</g>
			</g>
			<g>
				<path style="fill:#182166;" d="M2902.06,2297.627c-124.011,0-221.155-198.774-221.155-452.532s97.144-452.534,221.155-452.534
					c124.011,0,221.155,198.777,221.155,452.534S3026.071,2297.627,2902.06,2297.627z M2902.06,1428.055
					c-100.64,0-185.662,190.981-185.662,417.041s85.022,417.041,185.662,417.041c100.639,0,185.661-190.981,185.661-417.041
					S3002.699,1428.055,2902.06,1428.055z"/>
			</g>
			<g>
				<ellipse style="fill:#FFDA64;" cx="2941.674" cy="1845.095" rx="113.739" ry="239.353"/>
			</g>
			<g>
				<g style="opacity:0.4;">
					<path style="fill:#FFFFFF;" d="M3055.413,1845.095c0-132.191-50.922-239.353-113.739-239.353
						c-21.404,0-41.419,12.461-58.517,34.095c6.149-2.166,12.458-3.352,18.9-3.352c62.817,0,113.741,107.162,113.741,239.353
						c0,87.15-22.139,163.401-55.222,205.258C3014.392,2062.144,3055.413,1963.728,3055.413,1845.095z"/>
				</g>
			</g>
			<g>
				<g style="opacity:0.2;">
					<path style="fill:#182166;" d="M2972.293,1992.221c-51.402,0-93.073-87.69-93.073-195.862
						c0-91.699,29.95-168.653,70.385-189.973c-2.624-0.381-5.262-0.644-7.932-0.644c-62.817,0-113.739,107.162-113.739,239.353
						s50.922,239.353,113.739,239.353c54.921,0,100.747-81.917,111.4-190.855
						C3037.027,1952.504,3006.874,1992.221,2972.293,1992.221z"/>
				</g>
			</g>
			<g>
				<path style="fill:#182166;" d="M2941.674,2102.195c-73.73,0-131.487-112.932-131.487-257.1s57.757-257.1,131.487-257.1
					c73.73,0,131.487,112.932,131.487,257.1S3015.404,2102.195,2941.674,2102.195z M2941.674,1623.489
					c-45.405,0-95.993,91.011-95.993,221.606s50.588,221.606,95.993,221.606c45.405,0,95.994-91.011,95.994-221.606
					S2987.079,1623.489,2941.674,1623.489z"/>
			</g>
			<g>
				<path style="fill:#182166;" d="M2926.212,1550.933c-14.316,0-25.532-14.507-25.532-33.027c0-18.52,11.216-33.027,25.532-33.027
					c14.319,0,25.535,14.507,25.535,33.027C2951.747,1536.426,2940.531,1550.933,2926.212,1550.933z M2926.212,1502.623
					c-3.101,0-7.788,6.096-7.788,15.283c0,9.187,4.688,15.283,7.788,15.283s7.791-6.096,7.791-15.283
					C2934.003,1508.719,2929.313,1502.623,2926.212,1502.623z"/>
			</g>
			<g>
				<path style="fill:#182166;" d="M3007.238,1624.229c-14.319,0-25.535-14.507-25.535-33.027s11.216-33.027,25.535-33.027
					c14.319,0,25.535,14.507,25.535,33.027S3021.557,1624.229,3007.238,1624.229z M3007.238,1575.918
					c-3.101,0-7.79,6.096-7.79,15.283s4.69,15.283,7.79,15.283s7.791-6.096,7.791-15.283S3010.338,1575.918,3007.238,1575.918z"/>
			</g>
			<g>
				<path style="fill:#182166;" d="M2926.212,2210.252c-14.316,0-25.532-14.507-25.532-33.027c0-18.518,11.216-33.025,25.532-33.025
					c14.319,0,25.535,14.507,25.535,33.025C2951.747,2195.745,2940.531,2210.252,2926.212,2210.252z M2926.212,2161.944
					c-3.101,0-7.788,6.096-7.788,15.281c0,9.187,4.688,15.283,7.788,15.283s7.791-6.096,7.791-15.283
					C2934.003,2168.04,2929.313,2161.944,2926.212,2161.944z"/>
			</g>
			<g>
				<path style="fill:#182166;" d="M3023.9,2138.279c-14.319,0-25.535-14.507-25.535-33.027s11.216-33.027,25.535-33.027
					c14.316,0,25.532,14.507,25.532,33.027S3038.217,2138.279,3023.9,2138.279z M3023.9,2089.969c-3.101,0-7.79,6.096-7.79,15.283
					s4.69,15.283,7.79,15.283c3.101,0,7.788-6.096,7.788-15.283S3027.001,2089.969,3023.9,2089.969z"/>
			</g>
			<g>
				<path style="fill:#182166;" d="M2799.945,1672.54c-14.319,0-25.534-14.507-25.534-33.027s11.216-33.027,25.534-33.027
					c14.319,0,25.535,14.507,25.535,33.027S2814.264,1672.54,2799.945,1672.54z M2799.945,1624.229
					c-3.101,0-7.791,6.096-7.791,15.283s4.69,15.283,7.791,15.283s7.791-6.096,7.791-15.283S2803.046,1624.229,2799.945,1624.229z"
					/>
			</g>
			<g>
				<path style="fill:#182166;" d="M2799.945,2093.321c-14.319,0-25.534-14.507-25.534-33.027s11.216-33.027,25.534-33.027
					c14.319,0,25.535,14.507,25.535,33.027S2814.264,2093.321,2799.945,2093.321z M2799.945,2045.01
					c-3.101,0-7.791,6.096-7.791,15.283s4.69,15.283,7.791,15.283s7.791-6.096,7.791-15.283S2803.046,2045.01,2799.945,2045.01z"/>
			</g>
			<g>
				<path style="fill:#182166;" d="M2757.213,1881.338c-14.319,0-25.535-14.507-25.535-33.027s11.216-33.027,25.535-33.027
					s25.535,14.507,25.535,33.027S2771.532,1881.338,2757.213,1881.338z M2757.213,1833.028c-3.101,0-7.79,6.096-7.79,15.283
					s4.69,15.283,7.79,15.283c3.101,0,7.791-6.096,7.791-15.283S2760.314,1833.028,2757.213,1833.028z"/>
			</g>
		</g>
		<g>
			<g>
				<path style="fill:#78D371;" d="M1855.068,2797.938c-23.926,1.665-45.061-0.867-63.713-6.263
					c119.648-52.641,138.174-196.732,138.816-202.096c6.371-25.037,9.362-56.607,10.53-72.203l216.072,76.724
					C2117.381,2655.719,2015.35,2786.777,1855.068,2797.938z"/>
			</g>
			<g>
				<path style="fill:#78D371;" d="M1912.541,2624.178c-13.442,47.793-48.639,129.99-135.619,162.524
					c-71.638-28.302-101.865-99.815-109.928-122.844c82.759,6.012,226.522-31.355,244.491-39.11
					C1911.844,2624.593,1912.19,2624.373,1912.541,2624.178z"/>
			</g>
			<g>
				<path style="fill:#67BC4B;" d="M1798.271,2778.813c0,0-66.784-36.594-88.536-81.244c0,0,24.424-0.382,25.95-15.647
					c0,0,124.022-14.938,171.918-41.815l10.992-1.408c0,0-11.306,44.15-52.117,88.934
					C1825.667,2772.417,1798.271,2778.813,1798.271,2778.813z"/>
			</g>
			<g>
				<path style="fill:#67BC4B;" d="M1821.788,2794.675c0,0,119.783-44.825,134.666-229.148c0,0,18.048,0,17.61-11.449
					l173.093,54.537c0,0-38.418,78.968-132.306,139.582C1920.963,2808.811,1821.788,2794.675,1821.788,2794.675z"/>
			</g>
			<g>
				<path style="fill:none;" d="M1883.59,2633.325c14.015-3.766,23.964-6.88,27.895-8.576c0.359-0.155,0.705-0.375,1.056-0.57
					c-12.463,44.314-43.663,118.178-117.47,154.635c-36.821-14.191-73.939-87.227-73.939-87.227L1883.59,2633.325z"/>
			</g>
			<g>
				<path style="fill:none;" d="M1950.789,2525.605c0,0,115.081,136.177-14.324,244.112l-12.261,15.42
					c-21.691,6.592-44.728,11.101-69.135,12.801c-13.479,0.938-26.041,0.502-37.803-0.984c1.38-0.645,73.904-34.782,102.36-100.923
					c28.729-66.777,23.637-154.43,23.637-154.43s-3.11,6.917-6.833,15.266c2.262-15.633,3.587-30.324,4.273-39.49l7.773,2.76
					L1950.789,2525.605z"/>
			</g>
			<g style="opacity:0.2;">
				<path style="fill:#182166;" d="M1950.789,2525.605l-2.314-5.467l208.298,73.963c-33.393,52.236-111.82,154.342-232.569,191.036
					l12.261-15.42C2065.869,2661.782,1950.789,2525.605,1950.789,2525.605z"/>
			</g>
			<g style="opacity:0.4;">
				<path style="fill:#FFFFFF;" d="M1666.994,2663.858c64.656,4.697,166.545-17.083,216.596-30.534l-162.458,58.261
					c0,0,37.119,73.035,73.939,87.227c-5.794,2.863-11.818,5.521-18.15,7.89C1705.283,2758.4,1675.056,2686.887,1666.994,2663.858z"
					/>
			</g>
			<g style="opacity:0.4;">
				<path style="fill:#FFFFFF;" d="M1919.624,2696.032c-28.455,66.141-100.979,100.278-102.36,100.923
					c-9.117-1.154-17.765-2.924-25.909-5.279c119.648-52.641,138.174-196.732,138.816-202.096
					c2.626-10.322,4.671-21.747,6.257-32.712c3.723-8.349,6.833-15.266,6.833-15.266S1948.354,2629.255,1919.624,2696.032z"/>
			</g>
			<g>
				<g>
					<path style="fill:#182166;" d="M1840.793,2818.238c-149.346,0-194.668-154.438-195.125-156.05
						c-1.335-4.736-0.227-9.829,2.959-13.584c3.188-3.755,8.037-5.654,12.922-5.127c73.364,8.237,217.971-27.202,241.233-36.548
						c7.224-8.013,15.85-52.949,18.613-97.397c0.288-4.634,2.734-8.862,6.609-11.421c3.872-2.559,8.723-3.154,13.098-1.597
						l228.196,81.025c4.219,1.499,7.531,4.829,9.009,9.053c1.479,4.224,0.964,8.896-1.401,12.695
						c-38.347,61.626-146.333,206.274-320.464,218.398C1851.108,2818.057,1845.883,2818.238,1840.793,2818.238z M1681.557,2674.2
						c16.96,39.307,65.51,121.445,172.83,113.984c147.505-10.273,244.695-125.576,287.38-189.033l-192.322-68.291
						c-4.082,45.532-13.34,93.916-34.089,102.871C1893.363,2643.218,1764.291,2675.201,1681.557,2674.2z"/>
				</g>
				<g>
					<path style="fill:#182166;" d="M1777.089,2806.817c-6.038,0-11.707-3.726-13.894-9.727c-2.795-7.671,1.157-16.162,8.831-18.955
						c120.835-44.043,138.333-189.502,138.496-190.962c0.901-8.11,8.184-13.95,16.313-13.081c8.11,0.894,13.967,8.174,13.088,16.289
						c-0.73,6.719-19.438,165.122-157.771,215.537C1780.483,2806.529,1778.771,2806.817,1777.089,2806.817z"/>
				</g>
			</g>
		</g>
		<g>
			<g>
				<path style="fill:#78D371;" d="M2621.812,2684.128c-17.206-16.709-34.987-28.411-52.718-36.322
					c57.449,117.415-21.363,239.456-24.333,243.968c-11.287,23.24-29.369,49.289-38.54,61.958l214.584,80.79
					C2730.465,2962.029,2737.069,2796.069,2621.812,2684.128z"/>
			</g>
			<g>
				<path style="fill:#78D371;" d="M2553.613,2853.966c20.566-45.188,46.707-130.696,1.244-211.672
					c-72.993-24.597-142.227,10.538-163.245,22.93c67.108,48.803,152.836,170.107,161.562,187.625
					C2553.349,2853.199,2553.471,2853.59,2553.613,2853.966z"/>
			</g>
			<g>
				<path style="fill:#67BC4B;" d="M2566.078,2662.096c0,0-74.635-15.13-120.062,4.949c0,0,18.414,16.05,9.731,28.697
					c0,0,85.117,91.432,104.37,142.868l7.49,8.168c0,0,19.847-41.025,17.561-101.573
					C2582.883,2684.658,2566.078,2662.096,2566.078,2662.096z"/>
			</g>
			<g>
				<path style="fill:#67BC4B;" d="M2594.28,2665.149c0,0,62.595,111.53-44.958,261.959c0,0,13.789,11.644,6.068,20.109
					l167.433,70.011c0,0,21.598-85.12-11.026-192.006C2679.172,2718.336,2594.28,2665.149,2594.28,2665.149z"/>
			</g>
			<g>
				<path style="fill:none;" d="M2537.396,2828.298c8.277,11.92,13.87,20.718,15.779,24.55c0.174,0.35,0.297,0.741,0.439,1.117
					c19.069-41.898,42.888-118.461,10.02-193.934c-37.288-12.914-112.769,18.938-112.769,18.938L2537.396,2828.298z"/>
			</g>
			<g>
				<path style="fill:none;" d="M2519.236,2953.955c0,0,175.785-29.792,146.556-195.748l0.582-19.692
					c-12.319-19.031-27.01-37.34-44.562-54.386c-9.693-9.413-19.572-17.185-29.517-23.639c0.638,1.384,34.023,74.257,13.09,143.148
					c-21.135,69.555-81.578,133.237-81.578,133.237s2.087-7.291,4.629-16.072c-8.358,13.403-16.825,25.482-22.215,32.928l7.72,2.906
					L2519.236,2953.955z"/>
			</g>
			<g style="opacity:0.2;">
				<path style="fill:#182166;" d="M2519.236,2953.955l-5.295,2.684l206.864,77.884c8.189-61.454,14.148-190.066-54.431-296.008
					l-0.582,19.692C2695.021,2924.162,2519.236,2953.955,2519.236,2953.955z"/>
			</g>
			<g style="opacity:0.4;">
				<path style="fill:#FFFFFF;" d="M2391.613,2665.223c52.428,38.127,116.221,120.506,145.783,163.075l-86.531-149.33
					c0,0,75.481-31.852,112.769-18.938c-2.58-5.925-5.467-11.843-8.776-17.738
					C2481.864,2617.696,2412.63,2652.831,2391.613,2665.223z"/>
			</g>
			<g style="opacity:0.4;">
				<path style="fill:#FFFFFF;" d="M2605.385,2803.638c20.933-68.892-12.451-141.765-13.09-143.148
					c-7.71-5.001-15.459-9.229-23.201-12.684c57.449,117.415-21.363,239.456-24.333,243.968
					c-4.653,9.581-10.463,19.629-16.325,29.03c-2.542,8.781-4.629,16.072-4.629,16.072S2584.25,2873.193,2605.385,2803.638z"/>
			</g>
			<g>
				<g>
					<path style="fill:#182166;" d="M2724.902,3056.207c-1.76,0-3.525-0.317-5.21-0.952l-226.623-85.327
						c-4.346-1.636-7.669-5.215-8.977-9.668c-1.309-4.458-0.449-9.268,2.32-12.993c26.565-35.737,48.969-75.635,48.621-86.421
						c-11.748-22.144-99.365-142.52-160.728-183.564c-4.092-2.734-6.553-7.329-6.565-12.251c-0.012-4.922,2.424-9.531,6.504-12.29
						c1.438-0.962,144.985-95.835,261.36,17.188c125.215,121.611,114.397,301.797,103.933,373.623
						c-0.647,4.429-3.264,8.33-7.119,10.601C2730.111,3055.513,2727.514,3056.207,2724.902,3056.207z M2521.603,2949.068
						l190.996,71.914c8.33-76.021,8.465-226.821-97.603-329.834c-77.19-74.971-167.27-43.511-205.588-24.434
						c63.94,52.734,141.841,160.327,152.522,181.772C2572.003,2868.711,2547.858,2911.651,2521.603,2949.068z M2535.456,2861.67
						h0.051H2535.456z"/>
				</g>
				<g>
					<path style="fill:#182166;" d="M2540.453,2903.98c-2.842,0-5.718-0.82-8.252-2.529c-6.77-4.561-8.56-13.75-4.002-20.518
						c1.091-1.636,81.184-123.833,17.388-235.249c-4.06-7.09-1.604-16.123,5.483-20.181c7.09-4.063,16.128-1.602,20.181,5.483
						c73.161,127.769-14.744,260.864-18.523,266.47C2549.872,2901.695,2545.207,2903.98,2540.453,2903.98z"/>
				</g>
			</g>
		</g>
		<g>
			<g>
				<path style="fill:#78D371;" d="M1197.161,2000.022c-63.956,25.174-186.021,24.811-210.469,24.457
					c-29.999,205.621,25.061,320.803,76.746,381.315c52.148,61.053,111.411,80.253,120.357,82.874
					c110.579-31.308,152.364-115.077,160.401-133.641C1187.857,2268.545,1194.235,2044.642,1197.161,2000.022z"/>
			</g>
			<g>
				<path style="fill:#67BC4B;" d="M1005.833,2065.293c0,0,16.714-2.695,16.332-19.602c0,0,91.417,0.484,135.018-11.235
					c0,0-0.354,12.406,17.368,20.912c0,0-15.95,183.96,126.539,294.548c0,0-18.771,10.469,0.137,36.869
					c0,0-40.013,46.604-91.054,67.339c0,0-18.652-12.044-40.407,3.722c0,0-108.484-71.244-139.31-154.186
					C999.63,2220.719,1005.833,2065.293,1005.833,2065.293z"/>
			</g>
			<g>
				<path style="fill:none;" d="M1288.816,2312.54c11.304,16.387,19.24,26.576,19.24,26.576
					c-160.281-143.472-136.719-303.152-136.719-303.152c-49.617,15.861-165.336,9.313-187.252,7.899
					c-3.839,31.108-5.691,60.058-5.879,86.975c0,0,20.694,240.095,199.585,318.135c0,0,86.688-28.21,166.406-93.945
					C1322.798,2343.19,1304.543,2328.715,1288.816,2312.54z"/>
			</g>
			<g style="opacity:0.2;">
				<path style="fill:#182166;" d="M978.206,2130.838c-0.984,140.533,43.239,225.79,85.232,274.956
					c52.148,61.053,111.411,80.253,120.357,82.874c110.579-31.308,152.364-115.077,160.401-133.641
					c-79.718,65.735-166.406,93.945-166.406,93.945C998.9,2370.933,978.206,2130.838,978.206,2130.838z"/>
			</g>
			<g style="opacity:0.4;">
				<path style="fill:#FFFFFF;" d="M1171.337,2035.965c0,0-23.562,159.68,136.719,303.152c0,0-7.936-10.189-19.24-26.576
					c-99.181-101.992-94.18-274.005-91.654-312.518c-63.956,25.174-186.021,24.811-210.469,24.457
					c-0.956,6.555-1.821,13.012-2.608,19.384C1006.001,2045.278,1121.72,2051.825,1171.337,2035.965z"/>
			</g>
			<g>
				<path style="fill:#182166;" d="M1183.793,2508.292c-1.226,0-2.449-0.156-3.645-0.459c-2.864-0.728-70.811-18.647-131.094-88.95
					c-54.863-63.984-113.447-185.549-80.986-401.326c1.091-7.251,7.324-12.588,14.622-12.588c0.115,0,0.232,0,0.349,0.005
					c1.494,0.029,150.442,3.164,213.188-25.669c4.834-2.222,10.488-1.67,14.807,1.436s6.636,8.293,6.069,13.584
					c-0.273,2.566-25.549,257.747,139.905,345.54c6.479,3.438,9.46,11.104,7.002,18.018
					c-1.624,4.565-41.343,112.334-176.252,149.868C1186.462,2508.111,1185.126,2508.292,1183.793,2508.292z M995.495,2034.688
					c-21.05,155.261,4.741,280.786,74.851,363.579c46.711,55.161,99.514,75.239,113.552,79.824
					c93.638-27.568,134.246-92.505,147.28-118.867c-142.173-85.454-147.749-277.505-145.054-344.69
					C1124.611,2033.245,1030.182,2034.856,995.495,2034.688z"/>
			</g>
			<g>
				<ellipse style="fill:#78D371;" cx="1121.384" cy="2246.151" rx="63.269" ry="51.838"/>
			</g>
		</g>
		<g>
			<g>
				<path style="fill:#78D371;" d="M947.098,2684.137c-104.137-29.468-168.063-72.113-185.56-123.615
					c-22.578,15.756-110.95,75.027-183.461,89.913c3.708,20.266,24.047,106.947,104.219,139.017
					c26.975,10.792,54.525,16.604,81.169,22.224c63.804,13.462,124.14,26.186,152.52,106
					c22.514-10.475,121.203-58.664,153.957-112.863C1065.885,2791.614,1037.297,2709.661,947.098,2684.137z"/>
			</g>
			<g>
				<path style="fill:#67BC4B;" d="M619.433,2666.812c0,0,93.157-37.804,122.534-61.709c0,0,6.58,6.041,20.795,3.02
					c0,0,58.157,56.367,123.487,79.676c65.33,23.309,117.229,34.003,154.891,97.126c0,0-14.045,11.94-3.183,32.357
					c0,0-51.984,39.784-88.054,58.349c0,0-13.261-11.139-27.583-4.774c0,0-15.383-36.536-84.872-63.124
					s-145.343-25.461-186.187-62.593c-21.218-18.566-38.192-50.393-38.192-50.393S625.872,2687.53,619.433,2666.812z"/>
			</g>
			<g>
				<path style="fill:none;" d="M1052.502,2773.102c-34.139-38.63-108.704-66.03-187.312-96.126
					c-78.608-30.096-112.746-81.752-112.746-81.752c-44.47,29.646-142.842,51.656-142.842,51.656s3.639-3.922,9.666-8.654
					c-6.299,2.355-12.59,4.504-18.829,6.417c0.003,0,0.034,0.004,0.034,0.004s21.406,84.734,82.496,110.488
					c61.09,25.753,177.878,42.523,205.428,64.084c27.55,21.561,40.127,47.914,40.127,47.914l138.992-58.553
					c0.832-1.253,1.664-2.506,2.425-3.765c-1.653-5.38-7.387-22.183-19.702-41.93
					C1052.094,2769.14,1052.502,2773.102,1052.502,2773.102z"/>
			</g>
			<g style="opacity:0.2;">
				<path style="fill:#182166;" d="M888.398,2819.219c-27.55-21.561-144.339-38.331-205.428-64.084
					c-61.09-25.753-82.496-110.488-82.496-110.488s-0.031-0.003-0.034-0.004c-7.558,2.317-15.043,4.289-22.363,5.792
					c3.708,20.266,24.047,106.947,104.219,139.017c26.975,10.792,54.525,16.604,81.169,22.224
					c63.804,13.462,124.14,26.186,152.52,106c21.991-10.232,116.621-56.448,151.532-109.097l-138.992,58.553
					C928.525,2867.132,915.949,2840.78,888.398,2819.219z"/>
			</g>
			<g style="opacity:0.4;">
				<path style="fill:#FFFFFF;" d="M609.603,2646.88c0,0,98.371-22.01,142.842-51.656c0,0,34.138,51.656,112.746,81.752
					c78.608,30.096,153.173,57.496,187.312,96.126c0,0-0.408-3.962-2.262-10.218c-17.898-28.702-49.707-63.626-103.142-78.747
					c-104.137-29.468-168.063-72.113-185.56-123.615c-18.417,12.853-80.614,54.653-142.269,77.704
					C613.241,2642.958,609.603,2646.88,609.603,2646.88z"/>
			</g>
			<g>
				<path style="fill:#182166;" d="M913.253,2938.819c-2.056,0-4.111-0.43-6.03-1.289c-3.809-1.699-6.721-4.927-8.02-8.892
					c-24.138-73.56-75.161-84.326-139.758-97.954c-27.451-5.791-55.835-11.777-84.363-23.188
					c-101.282-40.518-116.394-154.141-116.99-158.955c-0.96-7.788,4.326-14.966,12.041-16.362
					c78.33-14.189,184.253-90.391,185.315-91.157c3.955-2.861,9.067-3.589,13.657-1.943c4.595,1.646,8.083,5.449,9.321,10.171
					c12.234,46.646,74.016,87.91,173.96,116.196c108.513,30.703,135.786,132.012,136.892,136.309
					c0.967,3.75,0.425,7.729-1.514,11.089c-38.811,67.207-163.289,122.412-168.569,124.727
					C917.301,2938.399,915.277,2938.819,913.253,2938.819z M590.08,2658.082c6.887,28.516,29.729,95.449,95.986,121.953
					c26.152,10.459,53.264,16.182,79.482,21.714c61.074,12.881,124.099,26.177,155.947,102.061
					c31.67-15.479,107.642-55.889,137.351-100.449c-6.924-20.259-35.325-87.051-114.512-109.458
					c-99.414-28.135-163.572-68.643-187.4-117.949C725.597,2596.988,653.661,2642.022,590.08,2658.082z M572.77,2646.729h0.051
					H572.77z"/>
			</g>
			<g>
				
					<ellipse transform="matrix(0.7071 -0.7071 0.7071 0.7071 -1689.5746 1370.3907)" style="fill:#78D371;" cx="809.417" cy="2724.687" rx="52.618" ry="43.286"/>
			</g>
		</g>
		<g>
			<g>
				<path style="fill:#78D371;" d="M1742.469,1902.971c0,0-92.014-10.416-145.677,55.74c-64.4,79.395-179.115,92.715-179.115,92.715
					l175.887,180.728c0,0,80.682-129.092,179.115-182.342c98.432-53.25,256.973-96.708,256.973-96.708
					S1905.896,1906.198,1742.469,1902.971z"/>
			</g>
			<g>
				<path style="fill:#67BC4B;" d="M1573.955,2165.123l-88.347-83.91c0,0,5.244-10.085,0-17.75c0,0,67.773-23.801,102.87-55.267
					c35.097-31.466,35.5-51.233,101.256-82.296c65.756-31.063,131.109-13.716,131.109-13.716l141.597,29.853l3.631,0.403
					c0,0-141.597,41.955-235.592,98.432c-68.983,42.358-124.251,119.006-124.251,119.006S1594.529,2150.197,1573.955,2165.123z"/>
			</g>
			<g>
				<path style="fill:#182166;" d="M1593.566,2246.941c-3.97,0-7.798-1.599-10.598-4.473l-175.889-180.728
					c-3.931-4.041-5.222-9.961-3.335-15.271c1.887-5.308,6.631-9.082,12.227-9.734c1.074-0.127,109.626-13.73,169.338-87.341
					c56.089-69.148,148.11-62.168,158.076-61.196c163.779,3.347,286.365,49.128,291.509,51.079
					c5.986,2.268,9.832,8.132,9.529,14.529c-0.303,6.394-4.688,11.868-10.862,13.562c-1.567,0.43-158.069,43.638-253.845,95.452
					c-93.772,50.728-172.825,175.916-173.611,177.175c-2.41,3.848-6.453,6.379-10.969,6.86
					C1594.611,2246.912,1594.086,2246.941,1593.566,2246.941z M1447.516,2060.884l143.848,147.803
					c25.183-36.726,93.191-128.015,174.28-171.882c66.475-35.959,158.308-67.073,213.259-84.124
					c-49.727-13.801-135.879-32.932-236.726-34.924c-0.452-0.01-0.903-0.039-1.353-0.09c-1.458-0.144-84.973-8.289-132.546,50.361
					C1560.251,2027.234,1487.294,2051.573,1447.516,2060.884z"/>
			</g>
			<g>
				
					<ellipse transform="matrix(0.4571 -0.8894 0.8894 0.4571 -839.2065 2589.1667)" style="fill:#78D371;" cx="1701.344" cy="1982.03" rx="33.247" ry="43.591"/>
			</g>
		</g>
	</g>
</g>
</svg>
