<svg width="200" height="76" xmlns="http://www.w3.org/2000/svg" xmlns:xlink="http://www.w3.org/1999/xlink" overflow="hidden"><g transform="translate(-252 -391)"><path d="M325.895 437.33C320.952 456.884 300.872 468.783 281.046 463.908 261.228 459.033 249.164 439.227 254.108 419.675 259.049 400.119 279.126 388.217 298.947 393.092 318.772 397.967 330.835 417.775 325.892 437.33L325.895 437.33Z" fill="#F7931A" fill-rule="evenodd"/><path d="M305.909 423.492C306.636 418.659 302.93 416.061 297.862 414.328L299.506 407.781 295.491 406.787 293.891 413.162C292.836 412.9 291.753 412.655 290.676 412.41L292.287 405.993 288.275 405 286.63 411.545C285.756 411.348 284.899 411.152 284.066 410.947L284.071 410.927 278.536 409.554 277.468 413.811C277.468 413.811 280.446 414.489 280.383 414.53 282.009 414.933 282.304 416.001 282.253 416.848L280.375 424.335 277.749 434.784C277.551 435.274 277.046 436.01 275.91 435.731 275.95 435.789 272.993 435.008 272.993 435.008L271 439.571 276.224 440.864C277.196 441.106 278.148 441.36 279.085 441.597L277.423 448.22 281.432 449.214 283.079 442.663C284.173 442.958 285.236 443.23 286.276 443.486L284.637 450.007 288.651 451 290.312 444.391C297.156 445.677 302.304 445.158 304.468 439.013 306.214 434.064 304.383 431.209 300.781 429.347 303.404 428.744 305.379 427.031 305.906 423.493L305.909 423.493ZM296.737 436.261C295.495 441.21 287.105 438.535 284.382 437.863L286.586 429.091C289.307 429.766 298.031 431.1 296.738 436.262L296.737 436.262ZM297.977 423.421C296.846 427.923 289.86 425.636 287.593 425.075L289.592 417.119C291.859 417.678 299.158 418.724 297.977 423.421Z" fill="#FFFFFF" fill-rule="evenodd"/><path d="M360.838 393.724C380.647 398.324 392.976 418.111 388.376 437.92 383.776 457.729 363.989 470.059 344.18 465.459 324.371 460.859 312.041 441.072 316.641 421.263 321.241 401.454 341.029 389.124 360.838 393.724Z" fill="#627EEA" fill-rule="evenodd"/><path d="M354 402 354 422.324 371 430 354 402Z" fill="#FFFFFF" fill-rule="evenodd" fill-opacity="0.6"/><path d="M354 402 336 430 354 422.324 354 402Z" fill="#FFFFFF" fill-rule="evenodd"/><path d="M354 443.063 354 457 371 433 354 443.063Z" fill="#FFFFFF" fill-rule="evenodd" fill-opacity="0.6"/><path d="M354 457 354 443.062 336 433 354 457Z" fill="#FFFFFF" fill-rule="evenodd"/><path d="M354 440 371 429.825 354 422 354 440Z" fill="#FFFFFF" fill-rule="evenodd" fill-opacity="0.2"/><path d="M336 429.825 354 440 354 422 336 429.825Z" fill="#FFFFFF" fill-rule="evenodd" fill-opacity="0.6"/><path d="M419.944 393.234C440.023 396.455 453.69 415.344 450.469 435.424 447.247 455.503 428.359 469.17 408.279 465.948 388.2 462.727 374.533 443.838 377.755 423.759 380.976 403.679 399.865 390.013 419.944 393.234Z" fill="#E84142" fill-rule="evenodd"/><path d="M403.743 444 396.546 444C395.033 444 394.287 444 393.83 443.717 393.339 443.406 393.038 442.892 393.001 442.324 392.974 441.8 393.348 441.161 394.095 439.884L411.866 409.375C412.622 408.08 413.005 407.432 413.487 407.193 414.007 406.936 414.626 406.936 415.145 407.193 415.627 407.432 416.01 408.081 416.767 409.375L420.42 415.587 420.438 415.618C421.254 417.008 421.668 417.713 421.85 418.452 422.05 419.26 422.05 420.111 421.85 420.92 421.667 421.665 421.258 422.374 420.429 423.786L411.094 439.857 411.07 439.899C410.248 441.299 409.831 442.01 409.254 442.546 408.626 443.132 407.869 443.558 407.04 443.798 406.285 444 405.438 444 403.743 444Z" fill="#FFFFFF" fill-rule="evenodd"/><path d="M421.473 444 431.519 444C433.002 444 433.748 444 434.191 443.709 434.67 443.4 434.972 442.878 434.999 442.314 435.024 441.81 434.668 441.199 433.97 440.001 433.946 439.96 433.922 439.919 433.898 439.877L428.865 431.311 428.808 431.215C428.101 430.024 427.744 429.424 427.285 429.192 426.78 428.936 426.185 428.936 425.679 429.192 425.218 429.43 424.845 430.057 424.108 431.32L419.093 439.885 419.076 439.915C418.342 441.175 417.975 441.805 418.001 442.322 418.037 442.887 418.33 443.408 418.809 443.717 419.246 444 419.991 444 421.473 444Z" fill="#FFFFFF" fill-rule="evenodd"/></g></svg>